<?xml version="1.0" standalone="no"?><!DOCTYPE svg PUBLIC "-//W3C//DTD SVG 1.1//EN" "http://www.w3.org/Graphics/SVG/1.1/DTD/svg11.dtd"><svg t="1732479384917" class="icon" viewBox="0 0 1024 1024" version="1.1" xmlns="http://www.w3.org/2000/svg" p-id="5287" xmlns:xlink="http://www.w3.org/1999/xlink" width="200" height="200"><path d="M512 32C248 32 32 248 32 512s216 480 480 480 480-216 480-480S776 32 512 32z m0 897.6c-57.6 0-112.0003125-11.2003125-161.5996875-31.9996875L534.3996875 713.6c12.800625-12.7996875 12.800625-31.9996875 0-44.8003125-12.7996875-12.7996875-31.9996875-12.7996875-44.799375 0l-195.200625 196.8c-46.3996875-28.8-86.4-67.2-116.799375-111.999375l28.8-28.8L233.6 752c6.4003125 6.4003125 14.4 9.6 22.3996875 9.6 8.000625 0 16.0003125-3.1996875 22.400625-9.6 12.7996875-12.7996875 12.7996875-31.9996875 0-44.8003125L251.1996875 680l33.6-33.6 11.2003125 11.2003125c6.4003125 6.399375 14.4 9.6 22.3996875 9.6 8.000625 0 16.0003125-3.200625 22.400625-9.6 12.7996875-12.800625 12.7996875-32.000625 0-44.8003125l-11.2003125-11.2003125 35.2003125-35.199375 28.8 28.8c6.399375 6.399375 14.4 9.6 22.3996875 9.6 7.9996875 0 16.0003125-3.200625 22.3996875-9.6 12.800625-12.800625 12.800625-32.000625 0-44.8003125l-49.599375-49.6003125c-6.4003125-6.399375-14.4-9.6-22.400625-9.6-7.9996875 0-17.5996875 3.200625-24 9.6L187.2003125 656h-1.6003125v1.6003125l-43.2 43.2c-31.9996875-56.000625-48-120-48-188.8003125C94.4 281.6 281.6 94.4 512 94.4S929.6 281.6 929.6 512 742.4 929.6 512 929.6z" fill="#000000" p-id="5288"></path><path d="M711.9996875 657.6003125L380.7996875 324.8c-3.1996875-3.1996875-7.9996875-3.1996875-11.199375 0l-57.6 57.6c-3.200625 3.1996875-3.200625 7.9996875 0 11.2003125l331.2 332.799375c3.1996875 3.200625 7.9996875 3.200625 11.199375 0l57.6-57.6c3.200625-3.1996875 3.200625-7.9996875 0-11.199375z m44.8003125 43.2l-24-24c-3.1996875-3.200625-7.9996875-3.200625-11.2003125 0l-57.6 57.6c-3.1996875 3.1996875-3.1996875 7.9996875 0 11.199375l24 24c1.6003125 1.6003125 1.6003125 1.6003125 3.200625 1.6003125l79.9996875 22.3996875c6.4003125 1.6003125 11.2003125-3.1996875 9.6-9.6L758.4003125 704c0-1.6003125 0-1.6003125-1.6003125-3.1996875zM363.2 305.6l-20.8003125-20.8003125c-3.1996875-3.1996875-7.9996875-3.1996875-11.199375 0l-57.6 57.6c-3.200625 3.200625-3.200625 8.000625 0 11.2003125l20.799375 20.8003125c3.200625 3.1996875 8.000625 3.1996875 11.2003125 0l57.6-57.6c3.1996875-3.200625 3.1996875-8.000625 0-11.2003125z m321.6-22.3996875c-16.0003125-16.0003125-38.4-25.6003125-62.4-25.6003125s-46.3996875 7.9996875-62.4 25.6003125l-38.4 38.4s-1.6003125 0-1.6003125 1.599375c0 0 0 1.6003125-1.599375 1.6003125l-32.000625 31.9996875c-12.7996875 12.800625-12.7996875 32.000625 0 44.8003125 12.800625 12.7996875 32.000625 12.7996875 44.8003125 0l11.2003125-11.2003125 27.1996875 27.200625c6.4003125 6.399375 14.4 9.6 22.3996875 9.6 8.000625 0 16.0003125-3.200625 22.400625-9.6 12.7996875-12.800625 12.7996875-32.000625 0-44.8003125l-27.200625-27.1996875 17.600625-17.600625c9.6-9.6 27.1996875-9.6 36.7996875 0l78.4003125 78.4003125c9.6 9.6 9.6 27.1996875 0 36.7996875L648.0003125 512c-12.800625 12.7996875-12.800625 31.9996875 0 44.8003125 6.399375 6.399375 14.4 9.6 22.3996875 9.6 7.9996875 0 16.0003125-3.200625 22.3996875-9.6l70.400625-70.400625c35.199375-35.199375 35.199375-91.2 0-124.8l-78.4003125-78.399375z" fill="#000000" p-id="5289"></path></svg>