<svg xmlns="http://www.w3.org/2000/svg" version="1.0" viewBox="0 0 64 64"><path fill-opacity=".6" d="M24.3 4c0 2.5.2 3.5.4 2.2.2-1.2.2-3.2 0-4.5-.2-1.2-.4-.2-.4 2.3m24.1 6.5.1 5 5.5.1 5.5.1-5.2-.4-5.2-.4-.4-4.7-.4-4.7zm-9 34.5c0 10.7.2 15.1.3 9.7.2-5.3.2-14.1 0-19.5-.1-5.3-.3-.9-.3 9.8"/><g stroke-width="0"><path d="M25.2 4.2c.1 3.7.2 3.9.5 1l.4-3.2H47v15h15v34.9l-9.7.4-9.8.3 10.8.2L64 53V17.5l-8.7-8.7L46.5 0H25zm29.5 5c2.9 2.9 5.3 5.6 5.3 6s-2.7.8-6 .8h-6v-6c0-3.3.3-6 .7-6s3.1 2.3 6 5.2"/><path d="M0 37.5V64h39V26.5l-7.8-7.8-7.7-7.7H0zM22 20v8h16v34H2V12h20zm8.5 0 5.9 6H24v-6c0-3.3.1-6 .3-6 .1 0 2.9 2.7 6.2 6"/></g><path fill-opacity=".9" d="M48.5 2c1 1.1 1.4 2 .9 2C49 4 51 6.5 54 9.5c2.9 3 5.6 5.2 5.9 5 .2-.3 1.4.3 2.5 1.2 1.2 1-1.7-2.2-6.4-7C51.4 3.9 47.4 0 47.1 0c-.2 0 .4.9 1.4 2m7 7c2.7 2.7 4.7 5 4.4 5s-2.7-2.3-5.4-5c-2.7-2.8-4.7-5-4.4-5s2.7 2.2 5.4 5m-9.1.7.1 7.8 7.8.1H62l-7.5-.3-7.4-.4-.4-7.4-.3-7.5z"/><path fill-opacity=".4" d="M27.3 25.7c1.5.2 3.9.2 5.5 0 1.5-.2.2-.4-2.8-.4s-4.3.2-2.7.4"/><path fill-opacity=".5" d="M31.8 2.7c2.9.2 7.4.2 10 0s.2-.3-5.3-.3-7.6.1-4.7.3M2.5 37.2v24.3h17.3l17.2.1-17-.3L3 61l-.3-24-.3-24zm58.9-2.7c0 9.3.2 13.3.3 8.8.2-4.5.2-12.2 0-17-.1-4.8-.3-1.2-.3 8.2"/><path fill-opacity=".3" d="M24.3 20c0 3 .2 4.3.4 2.7.2-1.5.2-3.9 0-5.5-.2-1.5-.4-.2-.4 2.8"/><path fill-opacity=".8" d="M26.2 6c0 1.9.2 2.7.5 1.7.2-.9.2-2.5 0-3.5-.3-.9-.5-.1-.5 1.8M7.8 12.7c2.9.2 7.4.2 10 0s.2-.3-5.3-.3-7.6.1-4.7.3M34 21.5c1.9 1.9 3.6 3.5 3.9 3.5s-1-1.6-2.9-3.5-3.6-3.5-3.9-3.5 1 1.6 2.9 3.5m3.4 23c0 9.4.2 13.3.3 8.8.2-4.5.2-12.2 0-17-.1-4.8-.3-1.2-.3 8.2m9.9 7.2c2.6.2 6.8.2 9.5 0 2.6-.2.4-.3-4.8-.3s-7.4.1-4.7.3"/><path fill-opacity=".2" d="M53.5 10c2.7 2.7 5.1 5 5.4 5s-1.7-2.3-4.4-5c-2.7-2.8-5.1-5-5.4-5s1.7 2.2 4.4 5M21.3 20.5c0 4.4.2 6.1.4 3.7.2-2.3.2-5.9 0-8-.2-2-.4-.1-.4 4.3"/><path fill-opacity=".7" d="M5.8 10.7c3.4.2 8.8.2 12 0 3.1-.2.3-.3-6.3-.3s-9.2.1-5.7.3M28.5 16c1 1.1 2 2 2.3 2s-.3-.9-1.3-2-2-2-2.3-2 .3.9 1.3 2m1 4c2.7 2.7 5.1 5 5.4 5s-1.7-2.3-4.4-5c-2.7-2.8-5.1-5-5.4-5s1.7 2.2 4.4 5m13.4 33.3c.4.4 5.5.6 11.2.5l10.4-.3-11.2-.5c-6.2-.3-10.9-.1-10.4.3"/><path fill-opacity=".1" d="M25.8 28.7c2.3.2 5.9.2 8 0 2-.2.1-.4-4.3-.4s-6.1.2-3.7.4"/></svg>