<?xml version="1.0" standalone="no"?><!DOCTYPE svg PUBLIC "-//W3C//DTD SVG 1.1//EN" "http://www.w3.org/Graphics/SVG/1.1/DTD/svg11.dtd"><svg t="1732027149909" class="icon" viewBox="0 0 1024 1024" version="1.1" xmlns="http://www.w3.org/2000/svg" p-id="15068" xmlns:xlink="http://www.w3.org/1999/xlink" width="200" height="200"><path d="M912 937.6c-12.8 0-25.6-3.2-32-12.8l-256-259.2c-19.2-16-19.2-44.8 0-64 16-16 44.8-19.2 60.8 0l256 259.2c9.6 9.6 12.8 19.2 12.8 32s-3.2 22.4-12.8 32c-6.4 9.6-16 12.8-28.8 12.8z" p-id="15069"></path><path d="M656 604.8c9.6 0 16 3.2 22.4 9.6l256 259.2c12.8 12.8 12.8 32 3.2 44.8-6.4 6.4-12.8 9.6-22.4 9.6-9.6 0-16-3.2-22.4-9.6l-256-259.2c-12.8-12.8-12.8-32 0-44.8 3.2-6.4 9.6-9.6 19.2-9.6" p-id="15070"></path><path d="M656 576c-16 0-32 6.4-41.6 19.2-22.4 22.4-22.4 60.8 0 83.2l256 259.2c12.8 12.8 25.6 16 41.6 16s32-6.4 41.6-16c9.6-12.8 16-25.6 16-41.6s-6.4-32-19.2-41.6l-256-259.2c-6.4-12.8-22.4-19.2-38.4-19.2z" p-id="15071"></path><path d="M803.2 444.8l-163.2-160 41.6-230.4c3.2-12.8-3.2-25.6-12.8-32-9.6-6.4-22.4-9.6-35.2-3.2L432 128 230.4 19.2C217.6 12.8 204.8 16 195.2 22.4c-9.6 6.4-16 19.2-12.8 32L224 281.6l-166.4 160c-9.6 6.4-12.8 19.2-9.6 32 3.2 12.8 12.8 19.2 25.6 22.4l227.2 35.2 102.4 208c6.4 9.6 16 16 28.8 19.2 12.8 0 22.4-6.4 28.8-19.2l102.4-208 230.4-35.2c12.8-3.2 22.4-9.6 25.6-22.4-3.2-9.6-6.4-22.4-16-28.8z m-275.2 16c-9.6 0-19.2 6.4-25.6 12.8l-70.4 150.4-70.4-150.4c-3.2-9.6-12.8-16-22.4-12.8l-163.2-25.6L294.4 320c6.4-6.4 9.6-16 9.6-25.6l-28.8-163.2 147.2 76.8c6.4 6.4 16 6.4 25.6 0l147.2-76.8-28.8 163.2c0 9.6 0 19.2 9.6 25.6l118.4 115.2-166.4 25.6z m-275.2 201.6l-41.6 128-128 44.8 128 44.8 41.6 131.2 41.6-131.2 124.8-44.8-124.8-44.8-41.6-128z m310.4 73.6l-19.2 57.6-57.6 22.4 57.6 19.2 19.2 57.6 22.4-57.6 57.6-19.2-57.6-22.4-22.4-57.6z" p-id="15072"></path></svg>