<?xml version="1.0" standalone="no"?><!DOCTYPE svg PUBLIC "-//W3C//DTD SVG 1.1//EN" "http://www.w3.org/Graphics/SVG/1.1/DTD/svg11.dtd"><svg t="1732029917808" class="icon" viewBox="0 0 1916 1024" version="1.1" xmlns="http://www.w3.org/2000/svg" p-id="32029" xmlns:xlink="http://www.w3.org/1999/xlink" width="374.21875" height="200"><path d="M96 4h1724c50.8 0 92 41.2 92 92v832c0 50.8-41.2 92-92 92H96c-50.8 0-92-41.2-92-92V96C4 45.2 45.2 4 96 4z" fill="#FEFEFE" p-id="32030"></path><path d="M1820 1024H96c-52.8 0-96-43.2-96-96V96C0 43.2 43.2 0 96 0h1724c52.8 0 96 43.2 96 96v832c0 52.8-43.2 96-96 96zM96 8C47.6 8 8 47.6 8 96v832c0 48.4 39.6 88 88 88h1724c48.4 0 88-39.6 88-88V96c0-48.4-39.6-88-88-88H96z" p-id="32031"></path></svg>