<svg xmlns="http://www.w3.org/2000/svg" version="1.0" viewBox="0 0 64 64"><path fill-opacity=".1" d="M16 47c-.9.6-1 1-.3 1 .6 0 1.5-.5 1.8-1 .8-1.2.4-1.2-1.5 0m30.7.1c.7.7 1.5 1 1.8.7s-.2-.9-1.2-1.2c-1.4-.6-1.5-.5-.6.5"/><path fill-opacity=".3" d="m8.5 23.2-6 6.3 6.3-6c5.8-5.5 6.7-6.5 5.9-6.5-.1 0-2.9 2.8-6.2 6.2M8 40.5c3.5 3.6 6.7 6.5 6.9 6.5.3 0-2.4-2.9-5.9-6.5S2.3 34 2.1 34c-.3 0 2.4 2.9 5.9 6.5"/><path fill-opacity=".9" d="M8 24.5.5 32l7.7 7.7c4.3 4.2 8.1 7.4 8.5 7 .8-.9-10.7-12.8-11.8-12.2-.4.3-1.2-.2-1.9-1-1-1.2-1-1.8 0-3 .7-.9 1.5-1.3 1.8-1C5.5 30.1 17 19 17 17.8c0-1.8-2-.4-9 6.7m8-6.2c0 .1-2.6 2.7-5.7 5.7l-5.8 5.5 5.5-5.8c5-5.3 6-6.2 6-5.4m-5 22.2c3 3 5.2 5.5 4.9 5.5-.2 0-2.9-2.5-5.9-5.5S4.8 35 5.1 35c.2 0 2.9 2.5 5.9 5.5m36-22.7c0 1.2 11.5 12.3 12.2 11.7.3-.3 1.1.1 1.8 1 1 1.2 1 1.8 0 3-.7.8-1.5 1.3-1.9 1-1.1-.6-12.6 11.3-11.8 12.2.4.4 4.2-2.8 8.5-7l7.7-7.7-7.5-7.5c-7-7.1-9-8.5-9-6.7m7 5.7c3 3 5.2 5.5 4.9 5.5-.2 0-2.9-2.5-5.9-5.5S47.8 18 48.1 18c.2 0 2.9 2.5 5.9 5.5m5 11.8c0 .1-2.6 2.7-5.7 5.7l-5.8 5.5 5.5-5.8c5-5.3 6-6.2 6-5.4"/><path d="m8.5 25-7 7L9 39.3c5.8 5.5 6.2 5.8 1.7 1.2C7.6 37.2 5 34.1 5 33.7s12.2-.7 27-.7c14.9 0 27 .3 27 .7s-2.6 3.5-5.7 6.8c-4.4 4.6-4 4.3 1.7-1.3l7.5-7.2-7.5-7.3c-5.7-5.5-6.1-5.8-1.7-1.2 3.1 3.3 5.7 6.4 5.7 6.8s-12.1.7-27 .7c-14.8 0-27-.3-27-.7s2.6-3.3 5.7-6.5c3.2-3.2 5.5-5.8 5.2-5.8-.2 0-3.6 3.2-7.4 7"/><path fill-opacity=".2" d="m11.5 24.2-5 5.3 5.3-5c4.8-4.6 5.7-5.5 4.9-5.5-.1 0-2.5 2.4-5.2 5.2m40.4 0 5.5 5.8-26 .3-25.9.2 26.3.3c14.4.1 26.2-.2 26.2-.6S55.4 27 52.3 24l-5.8-5.5zm-20.5 9.5 26 .3-5.5 5.8-5.4 5.7 5.8-5.5c3.1-3 5.7-5.8 5.7-6.2s-11.8-.7-26.2-.6l-26.3.3zM12 40.2c4.1 4.5 5 5.3 5 4.5 0-.2-2.1-2.3-4.7-4.7l-4.8-4.5z"/><path fill-opacity=".4" d="m57 25.2 6.4 6.8-6.4 6.7-6.5 6.8 7-6.7 7-6.8-7-6.8-7-6.7zM1 30.5c-1.1 1.3-1.1 1.8 0 2.8 1 .9 1.1.9.6-.1-.4-.7-.2-1.9.4-2.7.7-.8 1-1.5.7-1.5-.2 0-1 .7-1.7 1.5"/></svg>