<svg xmlns="http://www.w3.org/2000/svg" version="1.0" viewBox="0 0 64 64"><path fill-opacity=".1" d="M5.4 32c0 11.3.2 15.9.3 10.2.2-5.6.2-14.8 0-20.5-.1-5.6-.3-1-.3 10.3m53 0c0 11.3.2 15.9.3 10.2.2-5.6.2-14.8 0-20.5-.1-5.6-.3-1-.3 10.3"/><path fill-opacity=".9" d="M36.8 49.7c3.4.2 9 .2 12.5 0 3.4-.2.6-.3-6.3-.3s-9.7.1-6.2.3"/><g stroke-width="0"><path d="M3.5 10.3c-.3.7-.4 10.9-.3 22.7l.3 21.5h57v-45l-28.3-.3C9.9 9 3.8 9.2 3.5 10.3M59 32v21H5V11h54z"/><path d="M30 39v10h26V29H30zm24 0v9H32V30h22z"/></g><path fill-opacity=".4" d="M2.4 32c0 12.4.2 17.4.3 11.2.2-6.1.2-16.3 0-22.5-.1-6.1-.3-1.1-.3 11.3m59 0c0 12.4.2 17.4.3 11.2.2-6.1.2-16.3 0-22.5-.1-6.1-.3-1.1-.3 11.3"/><path fill-opacity=".5" d="M18.3 11.7c7.5.2 19.9.2 27.5 0 7.5-.1 1.3-.3-13.8-.3s-21.3.2-13.7.3M29.4 39c0 5.8.1 8.1.3 5.2.2-2.8.2-7.6 0-10.5-.2-2.8-.3-.5-.3 5.3M18.3 52.7c7.5.2 19.9.2 27.5 0 7.5-.1 1.3-.3-13.8-.3s-21.3.2-13.7.3"/><path fill-opacity=".7" d="M37.2 30.7c3.2.2 8.4.2 11.5 0 3.2-.2.6-.3-5.7-.3s-8.9.1-5.8.3"/><path fill-opacity=".8" d="M36.8 28.7c3.4.2 9 .2 12.5 0 3.4-.2.6-.3-6.3-.3s-9.7.1-6.2.3"/><path fill-opacity=".6" d="M37.3 47.7c3.2.2 8.1.2 11 0s.3-.3-5.8-.3c-6 0-8.4.1-5.2.3"/><path fill-opacity=".3" d="M56.4 39c0 5.8.1 8.1.3 5.2.2-2.8.2-7.6 0-10.5-.2-2.8-.3-.5-.3 5.3"/><path fill-opacity=".2" d="M53.3 39c0 4.7.2 6.6.4 4.2.2-2.3.2-6.1 0-8.5-.2-2.3-.4-.4-.4 4.3"/></svg>