<svg xmlns="http://www.w3.org/2000/svg" version="1.0" viewBox="0 0 64 64"><path fill-opacity=".1" d="m46.4 54.2-2.9 3.3 3.3-2.9c3-2.8 3.7-3.6 2.9-3.6-.2 0-1.6 1.5-3.3 3.2"/><path fill-opacity=".8" d="M52.5 44.8c1.9 2.3 1.9 2.3-2.6 7l-4.4 4.7 5-4.7 5-4.8-2.5-2.2-2.4-2.3z"/><path fill-opacity=".9" d="M48 40.5c-2.4 2.4-4.2 4.6-3.9 4.8.2.2 2.4-1.9 4.8-4.5 5.5-6.1 5-6.3-.9-.3m-.6 4.7-1.9 2.3 2.3-1.9c2.1-1.8 2.7-2.6 1.9-2.6-.2 0-1.2 1-2.3 2.2m-9 5-1.9 2.3 2.3-1.9c2.1-1.8 2.7-2.6 1.9-2.6-.2 0-1.2 1-2.3 2.2m2.5 1.5c-1.3 1.6-1.2 1.7.4.4s2.1-2.1 1.3-2.1c-.2 0-1 .8-1.7 1.7"/><g stroke-width="0"><path d="M11.9 9.1C8.8 10.2 7 13.7 7 18.5V22h47v4.1c0 2.8.4 3.9 1.3 3.7 1.6-.6 2.2-13.3.7-16.9-.7-1.6-2.4-3.2-4.2-3.8-3.8-1.4-36.3-1.3-39.9 0m41.5 4.5c.3.9.6 2.4.6 3.5 0 1.8-1 1.9-22 1.9H10v-2.8c0-1.6.3-3.2.7-3.5.3-.4 10-.7 21.4-.7 17.9 0 20.8.2 21.3 1.6M7.6 26.7c-1.1 1.1-.6 22.1.6 24.8 1.5 3.3 6.4 4.7 15.3 4.3 5.4-.2 7-.6 7-1.8s-1.8-1.6-9.5-1.8c-6-.2-9.7-.7-10.2-1.5-.4-.7-.8-6.2-.8-12.4 0-10.2-.6-13.3-2.4-11.6m9.4 1.7c0 1.1.9 1.6 2.6 1.6 3.1 0 2.8-2.3-.4-2.8-1.5-.2-2.2.2-2.2 1.2"/><path d="M27.7 27.6C26 29.3 28.9 30 37.6 30c7.7 0 9.4-.3 9.4-1.5S45.3 27 37.7 27c-5.2 0-9.7.3-10 .6M17 36.4c0 1.1.9 1.6 2.6 1.6 3.1 0 2.8-2.3-.4-2.8-1.5-.2-2.2.2-2.2 1.2m10.7-.8C26 37.3 28.9 38 37.6 38c7.7 0 9.4-.3 9.4-1.5S45.3 35 37.7 35c-5.2 0-9.7.3-10 .6m22 4.2c-4.8 4.9-6.9 9.6-2.4 5.4 2.9-2.7 3.9-2.7 6.2-.2 1.9 2.1 1.8 2.2-3.6 7.5-2.9 3-6.6 5.7-8.1 6.1-2.5.5-2.8.3-2.8-1.9 0-1.3.9-3.6 2-4.9 2.5-3.3 1.3-4.5-1.7-1.6-2.4 2.3-4.8 9.1-3.8 10.8.9 1.4 5 1.2 8.8-.4C48.7 58.8 63 43.8 63 41.1c0-2.8-3.4-6.1-6.3-6.1-1.4 0-4.1 1.8-7 4.8m10.1.8c.2 1.1-.3 2.6-1.1 3.2-1.1.9-1.9.7-3.6-1.2-2.7-2.9-1.9-4.8 1.7-4.4q2.7.3 3 2.4M17 44.4c0 1.1.9 1.6 2.6 1.6 3.1 0 2.8-2.3-.4-2.8-1.5-.2-2.2.2-2.2 1.2m10.7-.8c-1.4 1.4.6 2.4 4.9 2.4 3.2 0 4.4-.4 4.2-1.3-.5-1.3-7.9-2.2-9.1-1.1"/></g><path fill-opacity=".4" d="M48.9 44.7c-1.3 1.6-1.2 1.7.4.4s2.1-2.1 1.3-2.1c-.2 0-1 .8-1.7 1.7"/><path fill-opacity=".2" d="M48 39.5C45.6 42 43.8 44 44.1 44s2.5-2 4.9-4.5 4.2-4.5 3.9-4.5-2.5 2-4.9 4.5"/><path fill-opacity=".7" d="M54 41.4c0 .2.8 1 1.8 1.7 1.5 1.3 1.6 1.2.3-.4S54 40.6 54 41.4m1.4 9.8-1.9 2.3 2.3-1.9c2.1-1.8 2.7-2.6 1.9-2.6-.2 0-1.2 1-2.3 2.2"/><path fill-opacity=".3" d="M6.2 17.5c0 1.6.2 2.2.5 1.2.2-.9.2-2.3 0-3-.3-.6-.5.1-.5 1.8m51 0c0 1.6.2 2.2.5 1.2.2-.9.2-2.3 0-3-.3-.6-.5.1-.5 1.8m-35.9 1.2c5.9.2 15.5.2 21.5 0 5.9-.1 1-.3-10.8-.3s-16.7.2-10.7.3m36 6.8c0 2.2.2 3 .4 1.7.2-1.2.2-3 0-4-.3-.9-.5.1-.4 2.3m-38.5 1.2c.7.3 1.6.2 1.9-.1.4-.3-.2-.6-1.3-.5-1.1 0-1.4.3-.6.6m14.5 0c2.6.2 6.7.2 9 0s.2-.3-4.8-.3c-4.9 0-6.8.1-4.2.3M6.4 38.5c0 6 .1 8.4.3 5.2s.2-8.1 0-11-.3-.3-.3 5.8m12.4-3.8c.7.3 1.6.2 1.9-.1.4-.3-.2-.6-1.3-.5-1.1 0-1.4.3-.6.6m14.5 0c2.6.2 6.7.2 9 0s.2-.3-4.8-.3c-4.9 0-6.8.1-4.2.3m-14.5 8c.7.3 1.6.2 1.9-.1.4-.3-.2-.6-1.3-.5-1.1 0-1.4.3-.6.6m12 0c1.2.2 3 .2 4 0 .9-.3-.1-.5-2.3-.4-2.2 0-3 .2-1.7.4"/><path fill-opacity=".6" d="M10.1 16.6c0 1.1.3 1.4.6.6.3-.7.2-1.6-.1-1.9-.3-.4-.6.2-.5 1.3m43 0c0 1.1.3 1.4.6.6.3-.7.2-1.6-.1-1.9-.3-.4-.6.2-.5 1.3m-21.9 6.1 21.7.3.4 3.3c.5 3.2.5 3.2.3-.3l-.1-3.5h-22l-22-.1zM10.4 38.5c0 6 .1 8.4.3 5.2s.2-8.1 0-11-.3-.3-.3 5.8m8.4-7.8c.7.3 1.6.2 1.9-.1.4-.3-.2-.6-1.3-.5-1.1 0-1.4.3-.6.6m13.5 0c2.6.2 6.8.2 9.5 0 2.6-.2.4-.3-4.8-.3s-7.4.1-4.7.3m-13.5 8c.7.3 1.6.2 1.9-.1.4-.3-.2-.6-1.3-.5-1.1 0-1.4.3-.6.6m13.5 0c2.6.2 6.8.2 9.5 0 2.6-.2.4-.3-4.8-.3s-7.4.1-4.7.3m-13.5 8c.7.3 1.6.2 1.9-.1.4-.3-.2-.6-1.3-.5-1.1 0-1.4.3-.6.6m11 0c1.2.2 3.2.2 4.5 0 1.2-.2.2-.4-2.3-.4s-3.5.2-2.2.4m21.1 9-2.4 2.8 2.8-2.4c1.5-1.4 2.7-2.6 2.7-2.8 0-.8-.8-.1-3.1 2.4"/></svg>