<svg xmlns="http://www.w3.org/2000/svg" version="1.0" viewBox="0 0 64 64"><path fill-opacity=".1" d="m10.4 11.2-1.9 2.3 2.3-1.9C12.9 9.8 13.5 9 12.7 9c-.2 0-1.2 1-2.3 2.2m42.1-.2c1 1.1 2 2 2.3 2s-.3-.9-1.3-2-2-2-2.3-2 .3.9 1.3 2m-42 42c1 1.1 2 2 2.3 2s-.3-.9-1.3-2-2-2-2.3-2 .3.9 1.3 2m41.9.2-1.9 2.3 2.3-1.9c2.1-1.8 2.7-2.6 1.9-2.6-.2 0-1.2 1-2.3 2.2"/><path d="M7.2 9.7 7 17l7.3-.2 7.2-.1-5.9-.6-6-.6 4.6-4.1C19.7 6.7 24.5 5 32.6 5c28.7.1 36.7 40 10.4 51.9-9.8 4.4-23.3 1.8-30.7-6C8.4 46.7 5.1 39.6 5 35.2c0-1.7-.5-3.2-1.1-3.2-1.7 0-.3 7.4 2.5 12.8C9.3 50.4 13.9 55 20 58.1c6.4 3.3 17.6 3.3 24 0 6.1-3.2 10.7-7.6 13.8-13.6 3.6-6.9 3.8-17.8.3-24.5-3.2-6.1-7.6-10.7-13.6-13.8-7.1-3.8-17.8-3.8-25 0-2.7 1.4-6.1 3.8-7.4 5.2-1.4 1.4-2.8 2.6-3.2 2.6-.5 0-1-2.6-1.2-5.8-.3-5.5-.3-5.4-.5 1.5"/><path fill-opacity=".9" d="M8.3 9c0 3 .2 4.3.4 2.7.2-1.5.2-3.9 0-5.5-.2-1.5-.4-.2-.4 2.8m1.4 8.7c1.8.2 5 .2 7 0 2.1-.2.7-.4-3.2-.4-3.8 0-5.5.2-3.8.4"/><path fill-opacity=".6" d="M6.3 10.5c0 3.8.2 5.3.4 3.2.2-2 .2-5.2 0-7-.2-1.7-.4-.1-.4 3.8m4.7 4.7c0 .4 2.4.7 5.3.7 5.4-.1 4.9-.5-1.5-1.1-2.1-.2-3.8 0-3.8.4"/></svg>