<svg xmlns="http://www.w3.org/2000/svg" version="1.0" viewBox="0 0 64 64"><path fill-opacity=".1" d="m56.5 17.2-4 4.3 4.3-4c2.3-2.1 4.2-4 4.2-4.2 0-.8-.9 0-4.5 3.9M45 26.4c0 .2.8 1 1.8 1.7 1.5 1.3 1.6 1.2.3-.4S45 25.6 45 26.4M10 40.3c0 .1 3.5 3.6 7.8 7.7l7.7 7.5-7.5-7.8c-6.9-7.1-8-8.2-8-7.4m25.8 18.4c1.8.2 4.5.2 6 0s0-.4-3.3-.4-4.5.2-2.7.4"/><path fill-opacity=".3" d="M24.4 28c0 9.1.2 12.8.3 8.2.2-4.5.2-11.9 0-16.5-.1-4.5-.3-.8-.3 8.3"/><path fill-opacity=".4" d="M56 8.5c1.9 1.9 3.6 3.5 3.9 3.5s-1-1.6-2.9-3.5S53.4 5 53.1 5s1 1.6 2.9 3.5m-14.7 3.2c2.6.2 6.8.2 9.5 0 2.6-.2.4-.3-4.8-.3s-7.4.1-4.7.3m-5.5 50c1.8.2 4.5.2 6 0s0-.4-3.3-.4-4.5.2-2.7.4"/><path fill-opacity=".2" d="M52 8.4c0 .2.8 1 1.8 1.7 1.5 1.3 1.6 1.2.3-.4S52 7.6 52 8.4m-31.2 6.1c-.3 1.4-.1 2.8.3 3.1.5.3.9-.9.9-2.5 0-3.8-.6-4-1.2-.6m.6 16.5c0 5.2.1 7.4.3 4.7.2-2.6.2-6.8 0-9.5-.2-2.6-.3-.4-.3 4.8m22.8 1c0 1.4.2 1.9.5 1.2.2-.6.2-1.8 0-2.5-.3-.6-.5-.1-.5 1.3"/><path fill-opacity=".8" d="m55.9 16.7-3.4 3.8 3.8-3.4c3.4-3.3 4.2-4.1 3.4-4.1-.2 0-1.9 1.7-3.8 3.7M37.1 30.6c0 1.1.3 1.4.6.6.3-.7.2-1.6-.1-1.9-.3-.4-.6.2-.5 1.3M15 35.3c0 .2 1.5 1.6 3.3 3.3l3.2 2.9-2.9-3.3c-2.8-3-3.6-3.7-3.6-2.9m-6 5c0 .1 3.5 3.6 7.8 7.7l7.7 7.5-7.5-7.8c-6.9-7.1-8-8.2-8-7.4"/><path d="M21.1 5.6c-4.4 4.1-4.9 7.9-1.7 12.7 2.4 3.5 2.6 4.7 2.6 14v10.1l-4.3-4.2c-4.3-4.2-7.3-5.2-9.5-3-2.5 2.5-1 5.3 7 13.4C25.8 59.5 29.5 61.3 40 60.9c6.6-.4 8.2-.8 10.4-2.8C53.7 54.9 55 50.3 55 41c0-8.8-1.7-12.5-5.6-11.7-1.5.2-3-.3-4.1-1.5-1.2-1.3-2.5-1.7-4.1-1.3-1.3.3-3 .1-3.8-.6-.8-.6-2.3-.9-3.4-.6-1.6.4-2 0-2-1.9 0-1.4.9-3.4 2-4.6s2-2.8 2-3.5c0-1 2.4-1.3 10.2-1.3h10.1L54 16.5c-1.3 1.4-2.1 2.7-1.9 3 .3.3 2-1.1 3.8-2.9l3.3-3.4-2.8-3.6c-1.6-2-3.3-3.6-3.8-3.6s0 1 1.2 2.3 2.2 2.6 2.2 3-4.5.7-10 .7c-8.1 0-10-.3-10-1.4 0-2.7-4.4-6.7-8.1-7.2-3-.5-4.1-.2-6.8 2.2m11.8 2c2.4 3.1 2.7 7.2.8 9.9-1.3 1.6-1.5 1.4-2-2.6C31.2 11 29.1 8 26.8 8c-2.1 0-4.8 4.2-4.8 7.6 0 3.1-.2 3.5-1.5 2.4-2.2-1.9-1.9-8.6.5-11 3.1-3.1 9.3-2.7 11.9.6m-3.1 14.2c.2 6.9.6 11 1.2 10.7s1-1.7 1-3c0-4.7 5.9-3.4 6.1 1.3l.1 2.7.7-2.5c.5-1.8 1.5-2.6 3.4-2.8 2.5-.3 2.7-.1 2.7 3.2 0 2 .5 3.6 1 3.6.6 0 1-.9 1-1.9 0-2.5 1.4-3.4 4-2.6 1.8.6 2 1.5 2 11.1 0 10.5-.8 13.7-3.9 16.1-2.3 1.8-18.5 1.7-21.9-.1-1.5-.8-6.4-5.3-11-10C8.8 40.1 8 38.9 9 37.1c1.6-3.1 3.1-2.6 8.5 2.9 2.7 2.7 5.3 5 5.7 5s.8-7.6.8-16.8c0-9.3.3-17.2.7-17.6s1.6-.6 2.8-.4c1.9.3 2 1.1 2.3 11.6"/><path fill-opacity=".9" d="M19.6 5.9c-.4.5-.2 1.2.3 1.5.5.4 1.2.2 1.5-.3.4-.5.2-1.2-.3-1.5-.5-.4-1.2-.2-1.5.3m33.8 2.9c1.1 1.2 2.1 2 2.4 1.7s1.5.3 2.6 1.2c1.5 1.3 1.4 1-.3-1-1.4-1.5-2.7-2.5-2.9-2.2-.3.3-1.2-.1-2.1-.7-1-.8-.9-.4.3 1m-6.1 21.7c0 .8.4 1.2.9.9s.6-1 .3-1.5c-.9-1.3-1.2-1.1-1.2.6m5 0c0 .8.4 1.2.9.9s.6-1 .3-1.5c-.9-1.3-1.2-1.1-1.2.6m-28 26c0 .8.4 1.2.9.9s.6-1 .3-1.5c-.9-1.3-1.2-1.1-1.2.6m26 1c0 .8.4 1.2.9.9s.6-1 .3-1.5c-.9-1.3-1.2-1.1-1.2.6"/><path fill-opacity=".7" d="M17 40.2c4.1 4.5 5 5.3 5 4.5 0-.2-2.1-2.3-4.7-4.7l-4.8-4.5z"/><path fill-opacity=".5" d="M29.4 22.5c0 5.5.1 7.6.3 4.7s.2-7.4 0-10-.3-.2-.3 5.3m23.5-5.8c-1.3 1.6-1.2 1.7.4.4.9-.7 1.7-1.5 1.7-1.7 0-.8-.8-.3-2.1 1.3M52.4 42c0 5.2.1 7.4.3 4.7.2-2.6.2-6.8 0-9.5-.2-2.6-.3-.4-.3 4.8M7 41.4c0 .2.8 1 1.8 1.7 1.5 1.3 1.6 1.2.3-.4S7 40.6 7 41.4m5 5c0 .2.8 1 1.8 1.7 1.5 1.3 1.6 1.2.3-.4S12 45.6 12 46.4"/><path fill-opacity=".6" d="M10.8 33.7c.7.3 1.6.2 1.9-.1.4-.3-.2-.6-1.3-.5-1.1 0-1.4.3-.6.6M18.5 53c1 1.1 2 2 2.3 2s-.3-.9-1.3-2-2-2-2.3-2 .3.9 1.3 2"/></svg>