<svg xmlns="http://www.w3.org/2000/svg" version="1.0" viewBox="0 0 64 64"><path fill-opacity=".1" d="M28.3 19.5c0 2.7.2 3.8.4 2.2.2-1.5.2-3.7 0-5-.2-1.2-.4 0-.4 2.8m0 12c0 2.7.2 3.8.4 2.2.2-1.5.2-3.7 0-5-.2-1.2-.4 0-.4 2.8M46 42.3c0 .2 1.5 1.6 3.3 3.3l3.2 2.9-2.9-3.3c-2.8-3-3.6-3.7-3.6-2.9M48.5 53c3.8 3.8 7.2 7 7.4 7 .3 0-2.6-3.2-6.4-7-3.8-3.9-7.2-7-7.4-7-.3 0 2.6 3.1 6.4 7m9.4 5.7c-1.3 1.6-1.2 1.7.4.4s2.1-2.1 1.3-2.1c-.2 0-1 .8-1.7 1.7"/><path fill-opacity=".2" d="M25.8 44.7c.6.2 1.8.2 2.5 0 .6-.3.1-.5-1.3-.5s-1.9.2-1.2.5M55.5 52c2.1 2.2 4.1 4 4.4 4s-1.3-1.8-3.4-4-4.1-4-4.4-4 1.3 1.8 3.4 4"/><path fill-opacity=".4" d="M25.8 6.7c.6.2 1.8.2 2.5 0 .6-.3.1-.5-1.3-.5s-1.9.2-1.2.5M25.3 20c0 2.5.2 3.5.4 2.2.2-1.2.2-3.2 0-4.5-.2-1.2-.4-.2-.4 2.3m0 11c0 2.5.2 3.5.4 2.2.2-1.2.2-3.2 0-4.5-.2-1.2-.4-.2-.4 2.3"/><path fill-opacity=".8" d="M5.1 25.6c0 1.1.3 1.4.6.6.3-.7.2-1.6-.1-1.9-.3-.4-.6.2-.5 1.3m13.7 1.1c1.2.2 3.2.2 4.5 0 1.2-.2.2-.4-2.3-.4s-3.5.2-2.2.4m11.5 0c1.5.2 3.7.2 5 0 1.2-.2 0-.4-2.8-.4-2.7 0-3.8.2-2.2.4m9.6 13c-1.3 1.6-1.2 1.7.4.4s2.1-2.1 1.3-2.1c-.2 0-1 .8-1.7 1.7"/><path fill-opacity=".9" d="M39.3 9.5c0 2.3 3.3 4.9 4.3 3.4.4-.7.3-1-.3-.6-1.2.7-3.6-1.6-2.7-2.5.3-.3.1-.8-.4-1.2-.5-.3-.9.1-.9.9m6.8 16.1c0 1.1.3 1.4.6.6.3-.7.2-1.6-.1-1.9-.3-.4-.6.2-.5 1.3M50.5 48c4.4 4.4 8.2 8 8.5 8 .2 0-3.1-3.6-7.5-8s-8.2-8-8.5-8c-.2 0 3.1 3.6 7.5 8m-3 3c4.4 4.4 8.2 8 8.5 8 .2 0-3.1-3.6-7.5-8s-8.2-8-8.5-8c-.2 0 3.1 3.6 7.5 8"/><g stroke-width="0"><path d="M22.1 5C13.1 7.1 6 16.2 6 25.4c.1 16.2 15.9 25.9 30.6 18.8l3.5-1.6 8.2 8.2c6.5 6.5 8.5 8 9.5 7s-.5-2.9-6.9-9.4l-8-8.1 2.2-4.2c6.4-12.4.6-26.7-12.4-30.6C27.2 3.9 27 3.8 22.1 5m15.8 4.3c12.2 8.1 11 27.1-2.1 33.8-6 3.1-15.2 2.4-20.3-1.5C-.5 29.3 8.1 5.1 28.2 6.3c4 .2 6.8 1.1 9.7 3"/><path d="M26 20.4v4.5l-4.7.4-4.8.3 4.8.2 4.7.2v4.5c0 2.5.5 4.5 1 4.5.6 0 1-2 1-4.4v-4.5l4.8-.4 4.7-.3-4.7-.2L28 25v-4.5c0-2.5-.4-4.5-1-4.5-.5 0-1 2-1 4.4"/></g><path fill-opacity=".6" d="M18.8 24.7c1.2.2 3.2.2 4.5 0 1.2-.2.2-.4-2.3-.4s-3.5.2-2.2.4m12 0c1.2.2 3.2.2 4.5 0 1.2-.2.2-.4-2.3-.4s-3.5.2-2.2.4"/></svg>