<svg xmlns="http://www.w3.org/2000/svg" version="1.0" viewBox="0 0 80 80"><path d="M32 18.5c0 2.2.4 2.5 4 2.5 2.8 0 4 .4 4 1.4 0 .8-1.1 9.1-2.5 18.6S35 58.4 35 58.6s-1.8.4-4 .4c-3.6 0-4 .2-4 2.5V64h21v-2.5c0-2.3-.4-2.5-4.4-2.5h-4.3l2.3-15.8C45.2 18.7 44.5 21 49 21c3.6 0 4-.3 4-2.5V16H32z"/><path fill-opacity=".3" d="M53.1 18.2c-.1 2.3-.6 2.7-3.8 3.1l-3.8.4 3.8.1c4 .2 5.3-1.1 4.4-4.5q-.45-1.8-.6.9M32 21.4c0 .2 1.8.6 3.9.8 2.2.2 3.7 0 3.5-.4-.5-.8-7.4-1.1-7.4-.4m-5.6 38c-.3.8-.4 2.3-.1 3.3q.45 1.8.6-.9c.1-2.3.6-2.7 3.9-3.1l3.7-.4-3.8-.1c-2.5-.1-4 .3-4.3 1.2m15.4-.7c1.2.2 3.2.2 4.5 0 1.2-.2.2-.4-2.3-.4s-3.5.2-2.2.4"/></svg>