<svg xmlns="http://www.w3.org/2000/svg" version="1.0" viewBox="0 0 64 64"><path fill-opacity=".1" d="M39 17.5c-4.5 4.5-5.2 5.7-4.1 6.7 1.1 1.1 1.2 1 .6 0-.5-.9 1-3.2 4.6-6.8 2.9-3 5.1-5.4 4.8-5.4-.2 0-2.9 2.5-5.9 5.5m10.9 3.2c-1.3 1.6-1.2 1.7.4.4.9-.7 1.7-1.5 1.7-1.7 0-.8-.8-.3-2.1 1.3M18 24.4c0 .2.8 1 1.8 1.7 1.5 1.3 1.6 1.2.3-.4S18 23.6 18 24.4m-2.1 16.3-2.4 2.8 2.8-2.4c2.5-2.3 3.2-3.1 2.4-3.1-.2 0-1.4 1.2-2.8 2.7m8.5 5.5-1.9 2.3 2.3-1.9c2.1-1.8 2.7-2.6 1.9-2.6-.2 0-1.2 1-2.3 2.2"/><path fill-opacity=".2" d="M6.1 15.6c0 1.1.3 1.4.6.6.3-.7.2-1.6-.1-1.9-.3-.4-.6.2-.5 1.3M46.5 20c1 1.1 2 2 2.3 2s-.3-.9-1.3-2-2-2-2.3-2 .3.9 1.3 2"/><path fill-opacity=".4" d="M43.5 23c1 1.1 2 2 2.3 2s-.3-.9-1.3-2-2-2-2.3-2 .3.9 1.3 2"/><path fill-opacity=".8" d="m38.5 17.2-5 5.3 5.3-5c4.8-4.6 5.7-5.5 4.9-5.5-.1 0-2.5 2.4-5.2 5.2m11.4 4.5c-1.3 1.6-1.2 1.7.4.4.9-.7 1.7-1.5 1.7-1.7 0-.8-.8-.3-2.1 1.3M11 23.4c0 .2.8 1 1.8 1.7 1.5 1.3 1.6 1.2.3-.4S11 22.6 11 23.4m32.9 4.3c-1.3 1.6-1.2 1.7.4.4.9-.7 1.7-1.5 1.7-1.7 0-.8-.8-.3-2.1 1.3m-28 12-2.4 2.8 2.8-2.4c2.5-2.3 3.2-3.1 2.4-3.1-.2 0-1.4 1.2-2.8 2.7m8.5 7.5-2.9 3.3 3.3-2.9c3-2.8 3.7-3.6 2.9-3.6-.2 0-1.6 1.5-3.3 3.2"/><path fill-opacity=".9" d="M19.5 13c1 1.1 2 2 2.3 2s-.3-.9-1.3-2-2-2-2.3-2 .3.9 1.3 2m2.5-1.6c0 .2.8 1 1.8 1.7 1.5 1.3 1.6 1.2.3-.4S22 10.6 22 11.4m24 9.1c1.3 1.4 2.6 2.5 2.8 2.5.3 0-.5-1.1-1.8-2.5S44.4 18 44.2 18c-.3 0 .5 1.1 1.8 2.5M28.5 23c1 1.1 2 2 2.3 2s-.3-.9-1.3-2-2-2-2.3-2 .3.9 1.3 2M21 28.5c1.3 1.4 2.6 2.5 2.8 2.5.3 0-.5-1.1-1.8-2.5S19.4 26 19.2 26c-.3 0 .5 1.1 1.8 2.5m10.4 3.7-2.9 3.3 3.3-2.9c3-2.8 3.7-3.6 2.9-3.6-.2 0-1.6 1.5-3.3 3.2m-9.9.8c1 1.1 2 2 2.3 2s-.3-.9-1.3-2-2-2-2.3-2 .3.9 1.3 2M40 31.4c0 .2.8 1 1.8 1.7 1.5 1.3 1.6 1.2.3-.4S40 30.6 40 31.4m-7 3.1-2.4 2.6 2.9 2.7 2.9 2.7-2.4-2.8-2.3-2.7 2.3-2.5c1.3-1.4 2.1-2.5 1.8-2.5-.2 0-1.5 1.1-2.8 2.5m4-2.1c0 .2.8 1 1.8 1.7 1.5 1.3 1.6 1.2.3-.4S37 31.6 37 32.4m1.9 7.3-2.4 2.8 2.8-2.4c1.5-1.4 2.7-2.6 2.7-2.8 0-.8-.8-.1-3.1 2.4M32 42.4c0 .2.8 1 1.8 1.7 1.5 1.3 1.6 1.2.3-.4S32 41.6 32 42.4"/><path fill-opacity=".6" d="m36 14.7-5.5 5.8 5.8-5.5c5.3-5 6.2-6 5.4-6-.1 0-2.7 2.6-5.7 5.7m14 11.8C47.6 29 45.8 31 46.1 31s2.5-2 4.9-4.5 4.2-4.5 3.9-4.5-2.5 2-4.9 4.5M13.4 37.2l-1.9 2.3 2.3-1.9c2.1-1.8 2.7-2.6 1.9-2.6-.2 0-1.2 1-2.3 2.2m13.5 12.5-2.4 2.8 2.8-2.4c2.5-2.3 3.2-3.1 2.4-3.1-.2 0-1.4 1.2-2.8 2.7"/><path fill-opacity=".3" d="m30.9 31.7-2.4 2.8 2.8-2.4c2.5-2.3 3.2-3.1 2.4-3.1-.2 0-1.4 1.2-2.8 2.7m2.5 3.5-1.9 2.3 2.3-1.9c2.1-1.8 2.7-2.6 1.9-2.6-.2 0-1.2 1-2.3 2.2"/><path fill-opacity=".5" d="m40.9 42.7-2.4 2.8 2.8-2.4c1.5-1.4 2.7-2.6 2.7-2.8 0-.8-.8-.1-3.1 2.4"/><g stroke-width="0"><path d="M43.5 8.9c-1.6 1-5 3.9-7.4 6.5-3.5 3.6-4.9 4.4-6.8 4-3.2-.8-2.9.1 1.7 5.6l3.9 4.7-2.9 2.8-2.9 2.8-4.8-4.1c-2.6-2.2-7-6.3-9.7-9.1-4.5-4.6-4.9-5.3-4-7.8.7-2.2 1.7-2.9 4.4-3.1 2.9-.3 3.9.2 6.2 2.9 1.9 2.2 3.1 3 3.8 2.3.6-.6-.2-2.2-2.6-4.7-3.6-3.7-6.9-4.6-10.9-3.1-2.3.9-4.8 6.2-4.1 8.9.3 1.3 6.6 7.9 13.9 14.6 7.2 6.7 13.6 13.4 14.1 14.8 1.2 3.7 3.6 6.2 7.3 7.7 4 1.7 4.3 1.7 4.3 0 0-.8-1.6-2-3.6-2.6-2-.7-4-2.2-4.6-3.6-1-2.2-.7-2.9 2.2-5.9 4-4.1 6.2-4.4 8.8-1 2.6 3.3 5 12.7 3.3 13.3-.6.2-1.1 1-1.1 1.7 0 1.7 5 2.6 5.6 1.1.3-.7-.7-4.9-2.1-9.4C52.9 40 49.8 36 46 36c-.9 0-4.3-3-7.5-6.6l-5.9-6.7 6.6-6.3c7-6.8 9.5-7.7 12.8-4.4 2.7 2.7 2.5 5.3-.4 8.7l-2.4 2.8-2.9-2.8c-1.6-1.5-3.2-2.7-3.6-2.7-1.6 0-.5 2.8 1.8 5l2.5 2.4-2.1 2.2c-1.4 1.5-1.7 2.4-.9 2.9 1.5 1 9.8-7 11.6-11.2 1.8-4.1.2-8.8-3.7-10.8-3.6-1.9-4.8-1.9-8.4.4m-3.6 26 2 2.8-2.2 2.2c-3 2.7-3.8 2.7-6.7-.4L30.7 37l2.3-2.5c3-3.2 4.4-3.2 6.9.4"/><path d="M13.8 37.7C11.4 40.2 8 50.1 8 54.4c0 3.6 14.4-.1 19.1-5 4.4-4.6 2.8-6.4-2-2.1-3.4 3-12.6 6.6-13.8 5.3-1.1-1.1 2.8-11.4 5.2-13.6 1.4-1.3 2.5-2.7 2.5-3.2 0-1.7-2.7-.7-5.2 1.9"/></g></svg>