<svg xmlns="http://www.w3.org/2000/svg" version="1.0" viewBox="0 0 64 64"><path fill-opacity=".4" d="M2.4 32c0 12.4.2 17.4.3 11.2.2-6.1.2-16.3 0-22.5-.1-6.1-.3-1.1-.3 11.3m59 0c0 12.4.2 17.4.3 11.2.2-6.1.2-16.3 0-22.5-.1-6.1-.3-1.1-.3 11.3M30.8 20.7c.6.2 1.8.2 2.5 0 .6-.3.1-.5-1.3-.5s-1.9.2-1.2.5M20.2 32c0 1.4.2 1.9.5 1.2.2-.6.2-1.8 0-2.5-.3-.6-.5-.1-.5 1.3m10.6 11.7c.6.2 1.8.2 2.5 0 .6-.3.1-.5-1.3-.5s-1.9.2-1.2.5"/><path fill-opacity=".6" d="M19.3 6.7c7 .2 18.4.2 25.5 0 7-.1 1.2-.3-12.8-.3s-19.8.2-12.7.3m0 51c7 .2 18.4.2 25.5 0 7-.1 1.2-.3-12.8-.3s-19.8.2-12.7.3"/><path fill-opacity=".9" d="M18.7 8.7c7.3.2 19.3.2 26.5 0 7.3-.1 1.4-.3-13.2-.3s-20.5.2-13.3.3M15 30.5c-.7.8-.8 2-.4 2.7.5.7.9 1.6.9 2 0 .3.3.9.7 1.3.9.9.5-1.7-.6-3.3-.4-.7-.2-1.9.4-2.7.7-.8 1-1.5.7-1.5-.2 0-1 .7-1.7 1.5m32.9-.3c.7 1 .9 2.3.5 3-1.1 1.6-1.5 4.2-.6 3.3.4-.4.7-1 .7-1.3 0-.4.4-1.3.9-2 .5-.9.2-2-1-3-1.7-1.6-1.7-1.6-.5 0M18.7 55.7c7.3.2 19.3.2 26.5 0 7.3-.1 1.4-.3-13.2-.3s-20.5.2-13.3.3"/><g stroke-width="0"><path d="M4.2 8.2c-1.7 1.7-1.7 45.9 0 47.6s53.9 1.7 55.6 0 1.7-45.9 0-47.6-53.9-1.7-55.6 0M58.5 32v23.5h-53L5.2 33c-.1-12.3 0-23 .3-23.7.3-1.1 6-1.3 26.7-1.1l26.3.3z"/><path d="M23.5 23.4c-2.7 1.3-6.6 3.8-8.5 5.5L11.5 32l3.5 3c4.8 4.3 12.8 8 17 8s12.2-3.7 17-8l3.5-3-3.5-3.1C44.3 24.7 36.3 21 32 21c-1.9 0-5.7 1.1-8.5 2.4m15 2.1C40.4 27.3 41 29 41 32c0 5.6-3.4 9-9 9-3 0-4.7-.6-6.5-2.5C23.6 36.7 23 35 23 32c0-5.6 3.4-9 9-9 3 0 4.7.6 6.5 2.5M21.7 29c-.8 2.2-.8 3.8 0 6 1.5 3.9 0 3.9-4.7 0l-3.5-3 3.5-3c4.7-3.9 6.2-3.9 4.7 0M47 29l3.5 3-3.5 3c-4.7 3.9-6.2 3.9-4.7 0 .8-2.2.8-3.8 0-6-1.5-3.9 0-3.9 4.7 0"/><path d="M29 29c-1.1 1.1-2 2.4-2 3 0 .5.9 1.9 2 3s2.5 2 3 2c.6 0 1.9-.9 3-2s2-2.5 2-3c0-.6-.9-1.9-2-3s-2.4-2-3-2c-.5 0-1.9.9-3 2m5.5 3c0 1.8-.6 2.6-2.3 2.8-1.3.2-2.5-.3-2.8-1.2-1-2.6.4-4.8 2.8-4.4 1.7.2 2.3 1 2.3 2.8"/></g><path fill-opacity=".1" d="M5.4 32c0 12.4.2 17.4.3 11.2.2-6.1.2-16.3 0-22.5-.1-6.1-.3-1.1-.3 11.3m53 0c0 12.4.2 17.4.3 11.2.2-6.1.2-16.3 0-22.5-.1-6.1-.3-1.1-.3 11.3"/></svg>