<svg xmlns="http://www.w3.org/2000/svg" version="1.0" viewBox="0 0 64 64"><path fill-opacity=".4" d="M2.4 33.5c0 16.5.2 23.4.3 15.3.2-8.1.2-21.6 0-30-.1-8.4-.3-1.8-.3 14.7m59-9c0 11 .2 15.6.3 10.3.2-5.3.2-14.3 0-20-.1-5.7-.3-1.3-.3 9.7"/><path fill-opacity=".5" d="M16.8 43.7c.7.3 1.6.2 1.9-.1.4-.3-.2-.6-1.3-.5-1.1 0-1.4.3-.6.6"/><path fill-opacity=".6" d="M14.8 2.7c.7.3 1.6.2 1.9-.1.4-.3-.2-.6-1.3-.5-1.1 0-1.4.3-.6.6"/><path fill-opacity=".8" d="M27.6 36.2c.3.5 1 .6 1.5.3 1.3-.9 1.1-1.2-.6-1.2-.8 0-1.2.4-.9.9"/><path fill-opacity=".9" d="M14.8.7c.7.3 1.6.2 1.9-.1.4-.3-.2-.6-1.3-.5-1.1 0-1.4.3-.6.6m1.7 23.4c-.3.4.2.6 1 .5 2.1-.3 2.8-1.3 1-1.3-.9 0-1.8.4-2 .8m27.9-.3c.4.3 1.4.7 2.2.8.9.1 1.3 0 1-.4-.4-.3-1.4-.7-2.2-.8-.9-.1-1.3 0-1 .4m-23.8 8.4c.3.5 1 .6 1.5.3 1.3-.9 1.1-1.2-.6-1.2-.8 0-1.2.4-.9.9m21 0c.3.5 1 .6 1.5.3 1.3-.9 1.1-1.2-.6-1.2-.8 0-1.2.4-.9.9"/><g stroke-width="0"><path d="M12 1.1c-9.9 1.2-9-1.9-9 32C3 52.4 3.4 63 4 63s1-3.7 1-9v-8.9l3.8-1c5.9-1.7 11.7-1.3 22 1.5 10.7 2.9 19.9 3 26.4.1l3.8-1.6V24.6C61 13.8 60.7 5 60.4 5s-2.8.7-5.5 1.6c-6.7 2.2-14.9 1.5-22.4-2C25.2 1.2 19.3.2 12 1.1m18.7 4.3c4.6 1.9 10 3.7 12.1 4.1 3.4.5 10.2-.4 14.5-2.1 1.6-.6 1.7 1 1.7 17.9v18.5L55.4 45c-5.5 1.9-16.5 1.4-25.1-1.1-7.8-2.2-16.3-2.7-22.2-1.4l-3.1.7.2-19.8.3-19.8L8 2.9c6.4-1.8 14.4-.9 22.7 2.5"/><path d="M34.5 16.1C30 28.8 28 35.3 28.4 35.7c.3.3.9-.5 1.4-1.8s2.1-5.9 3.6-10.2c1.6-4.3 2.6-8.1 2.2-8.4-.3-.3-.8 0-1.1.8m-15.9 6.1c-1.7 2.2-2.2 3.7-1.6 4.8 1.2 2.2 5 5.5 5 4.3 0-.5-.9-1.8-2-2.8-2.6-2.4-2.5-3.3.7-6.7 1.5-1.5 2.2-2.8 1.6-2.8-.7 0-2.3 1.4-3.7 3.2m24.7-.5c3.2 3.5 3.3 4.4.7 6.8-1.1 1-2 2.3-2 2.9s1.4-.4 3.1-2.2l3-3.4-2.4-3.1c-1.3-1.7-3-3.3-3.8-3.5-.8-.3-.2.9 1.4 2.5"/></g><path fill-opacity=".1" d="M5.4 23.5c0 10.4.2 14.6.3 9.2.2-5.4.2-13.9 0-19-.1-5.1-.3-.7-.3 9.8m53 1.5c0 9.6.2 13.6.3 8.7.2-4.8.2-12.6 0-17.5-.1-4.8-.3-.8-.3 8.8m-53 21.3c-.3.8-.4 4.9-.2 9.3l.3 7.9.5-9.3c.5-9.2.4-10.4-.6-7.9"/></svg>