<svg xmlns="http://www.w3.org/2000/svg" version="1.0" viewBox="0 0 64 64"><path fill-opacity=".2" d="M28.9 12.7c-1.3 1.6-1.2 1.7.4.4.9-.7 1.7-1.5 1.7-1.7 0-.8-.8-.3-2.1 1.3"/><path fill-opacity=".4" d="M26.9 10.7c-1.3 1.6-1.2 1.7.4.4.9-.7 1.7-1.5 1.7-1.7 0-.8-.8-.3-2.1 1.3m19.9 7c.7.3 1.6.2 1.9-.1.4-.3-.2-.6-1.3-.5-1.1 0-1.4.3-.6.6"/><path fill-opacity=".5" d="M52.9 15.7c-1.3 1.6-1.2 1.7.4.4.9-.7 1.7-1.5 1.7-1.7 0-.8-.8-.3-2.1 1.3M20.1 27.6c0 1.1.3 1.4.6.6.3-.7.2-1.6-.1-1.9-.3-.4-.6.2-.5 1.3M2.3 50.5c0 3.8.2 5.3.4 3.2.2-2 .2-5.2 0-7-.2-1.7-.4-.1-.4 3.8m10.9 11.2c3.7.2 10 .2 14 0 4-.1 1-.3-6.7-.3s-11 .1-7.3.3"/><path fill-opacity=".6" d="M13.3 39.7c3.7.2 9.7.2 13.5 0 3.7-.2.6-.3-6.8-.3s-10.5.1-6.7.3m25 10.8c0 3.8.2 5.3.4 3.2.2-2 .2-5.2 0-7-.2-1.7-.4-.1-.4 3.8"/><path fill-opacity=".7" d="M12.3 33.7c1.5.2 3.7.2 5 0 1.2-.2 0-.4-2.8-.4-2.7 0-3.8.2-2.2.4m12 0c1.5.2 3.7.2 5 0 1.2-.2 0-.4-2.8-.4-2.7 0-3.8.2-2.2.4"/><path fill-opacity=".8" d="M15.3 35.7c3.2.2 8.1.2 11 0s.3-.3-5.8-.3c-6 0-8.4.1-5.2.3m-2.1 2c3.7.2 10 .2 14 0 4-.1 1-.3-6.7-.3s-11 .1-7.3.3"/><path fill-opacity=".9" d="M58.8.7c.7.3 1.6.2 1.9-.1.4-.3-.2-.6-1.3-.5-1.1 0-1.4.3-.6.6M29.9 8.5c-.1.3-.2.8-.3 1.2-.3 1.7-1.8 3.3-2.6 2.8-.5-.3-1.1-.1-1.4.4-.8 1.3 2.2.7 3.6-.7 1.2-1.2 2-4.2 1.2-4.2-.2 0-.5.2-.5.5m3.6 7.5c-.3.5-.3 1 .1 1s-.1 1-1.2 2.2c-1.9 2.3-1.9 2.3.2.5 1.1-.9 2.1-2.4 2.1-3.2 0-1.8-.3-1.9-1.2-.5m20.4 1.7c-1.3 1.6-1.2 1.7.4.4.9-.7 1.7-1.5 1.7-1.7 0-.8-.8-.3-2.1 1.3M28.5 23c-.4.6-1 .8-1.5.5s-1.1-.1-1.4.4c-.8 1.3 2.2.7 3.6-.7.7-.7.9-1.2.6-1.2-.4 0-1 .5-1.3 1m11.8 27.5c0 3.8.2 5.3.4 3.2.2-2 .2-5.2 0-7-.2-1.7-.4-.1-.4 3.8"/><path d="M53.5 1.1C33.2 2.9 21 13.1 21 28.1c0 4.6-1.3 5.7-7.5 6.2-2.8.2.2.3 6.5.4 7.5 0 9.7-.2 6.3-.6-6.8-.8-5.8-2.3 2.6-4.1 8.5-1.8 19-6.9 24.6-12.2C59.7 12.2 64.9 2 62.3.8c-.5-.2-4.4-.1-8.8.3M61 3.5c0 2.6-3.6 8.8-6.8 11.9-2.8 2.6-3.6 2.8-8.6 2.4-3.1-.3-5.6-.1-5.6.4 0 .4 1 .8 2.3.9 1.2 0 3.1.4 4.2.8 1.7.7 1.3 1.2-3 3.4-5.9 2.9-15.8 6-18 5.5-2.5-.5 6.6-10 14.3-15.1 3.7-2.4 8.8-5.2 11.5-6.2 2.6-1 4.7-2.2 4.7-2.6 0-.5-1.7-.2-3.7.7-2.1.9-4.5 1.8-5.3 2.2-4.3 1.6-13.2 8.2-18.4 13.6l-5.9 6.1.5-4.2C24.7 12.5 33.5 5.8 50 3c7.8-1.3 11-1.2 11 .5M2.9 39.9C.7 41.7.5 42.6.5 50.4c0 7.6.3 8.8 2.3 10.8 2.2 2.2 3 2.3 17.6 2.3 19.7 0 19.6 0 19.6-12.7 0-12.9.1-12.8-19.4-12.8-13.7 0-15.6.2-17.7 1.9m33.9.7c2 1.3 2.2 2.4 2.2 9.6 0 11.9.2 11.8-18.3 11.8C1.8 62 2 62.1 2 50.4 2 39.1 2.1 39 20.5 39c11.1 0 14.5.3 16.3 1.6"/><path fill-opacity=".1" d="M30.9 21.7c-1.3 1.6-1.2 1.7.4.4s2.1-2.1 1.3-2.1c-.2 0-1 .8-1.7 1.7M23 25.1c0 .5.5.7 1 .4.6-.3 1-.8 1-1.1 0-.2-.4-.4-1-.4-.5 0-1 .5-1 1.1"/></svg>