<svg xmlns="http://www.w3.org/2000/svg" version="1.0" viewBox="0 0 64 64"><path fill-opacity=".5" d="M17.3 11.7c.9.2 2.3.2 3 0 .6-.3-.1-.5-1.8-.5-1.6 0-2.2.2-1.2.5m27 0c.9.2 2.3.2 3 0 .6-.3-.1-.5-1.8-.5-1.6 0-2.2.2-1.2.5M20.4 33.2c.4 1.9 22.8 1.9 23.2 0 .1-.7 0-.8-.3-.2-.6 1.3-22 1.3-22.6 0-.3-.6-.4-.5-.3.2m3.4 19.5c4.5.2 11.9.2 16.5 0 4.5-.1.8-.3-8.3-.3s-12.8.2-8.2.3"/><path fill-opacity=".7" d="M27.7 1.7c2.4.2 6.2.2 8.6 0 2.3-.2.4-.4-4.3-.4s-6.6.2-4.3.4"/><path fill-opacity=".8" d="M28.3 3.7c2 .2 5.4.2 7.5 0 2-.2.3-.4-3.8-.4s-5.8.2-3.7.4m-2.1 23c3.2.2 8.4.2 11.5 0 3.2-.2.6-.3-5.7-.3s-8.9.1-5.8.3"/><g stroke-width="0"><path d="M22.5 3c-.3.5-3 1-6 1C7.8 4 8 3.3 8 32c0 21.3.2 25.1 1.6 26.4 2.3 2.4 42.5 2.4 44.8 0C55.8 57.1 56 53.3 56 32c0-28.7.2-28-8.5-28-3 0-5.7-.5-6-1-.3-.6-4.6-1-9.5-1s-9.2.4-9.5 1M40 7.5V12H24V3h16zm-18 0C22 8.6 20.8 9 17.5 9H13v46h38V9h-4.5C43.2 9 42 8.6 42 7.5 42 6.3 43.3 6 48 6h6v52H10V6h6c4.7 0 6 .3 6 1.5m1 5c.9 1.1 3.3 1.5 9 1.5s8.1-.4 9-1.5c.7-.8 2.8-1.5 4.6-1.5H49v42H15V11h3.4c1.8 0 3.9.7 4.6 1.5"/><path d="M26.2 25.7c3.2.2 8.4.2 11.5 0 3.2-.2.6-.3-5.7-.3s-8.9.1-5.8.3M21 33c0 .6 4.3 1 11 1s11-.4 11-1-4.3-1-11-1-11 .4-11 1m0 8c0 .6 4.3 1 11 1s11-.4 11-1-4.3-1-11-1-11 .4-11 1"/></g><path fill-opacity=".1" d="M13.3 3.7c1.5.2 3.9.2 5.5 0 1.5-.2.2-.4-2.8-.4s-4.3.2-2.7.4m32 0c1.5.2 3.9.2 5.5 0 1.5-.2.2-.4-2.8-.4s-4.3.2-2.7.4m-24 57c5.9.2 15.5.2 21.5 0 5.9-.1 1-.3-10.8-.3s-16.7.2-10.7.3"/><path fill-opacity=".2" d="M10.4 32c0 14 .2 19.8.3 12.8.2-7.1.2-18.5 0-25.5-.1-7.1-.3-1.3-.3 12.7m43 0c0 14 .2 19.8.3 12.8.2-7.1.2-18.5 0-25.5-.1-7.1-.3-1.3-.3 12.7m-41 0c0 12.9.2 18.2.3 11.7.2-6.4.2-17 0-23.5-.1-6.4-.3-1.1-.3 11.8m39 0c0 12.9.2 18.2.3 11.7.2-6.4.2-17 0-23.5-.1-6.4-.3-1.1-.3 11.8M26.2 42.7c3.2.2 8.4.2 11.5 0 3.2-.2.6-.3-5.7-.3s-8.9.1-5.8.3"/><path fill-opacity=".3" d="M24.3 7.5c0 2.2.2 3 .4 1.7.2-1.2.2-3 0-4-.3-.9-.5.1-.4 2.3m15 0c0 2.2.2 3 .4 1.7.2-1.2.2-3 0-4-.3-.9-.5.1-.4 2.3M7.4 32c0 13.5.2 19 .3 12.2.2-6.7.2-17.7 0-24.5-.1-6.7-.3-1.2-.3 12.3m49 0c0 13.5.2 19 .3 12.2.2-6.7.2-17.7 0-24.5-.1-6.7-.3-1.2-.3 12.3m-41 0c0 11.3.2 15.9.3 10.2.2-5.6.2-14.8 0-20.5-.1-5.6-.3-1-.3 10.3m33 0c0 11.3.2 15.9.3 10.2.2-5.6.2-14.8 0-20.5-.1-5.6-.3-1-.3 10.3m-22.2 7.7c3.2.2 8.4.2 11.5 0 3.2-.2.6-.3-5.7-.3s-8.9.1-5.8.3"/><path fill-opacity=".4" d="M13.3 6.7c1.5.2 3.9.2 5.5 0 1.5-.2.2-.4-2.8-.4s-4.3.2-2.7.4m32 0c1.5.2 3.9.2 5.5 0 1.5-.2.2-.4-2.8-.4s-4.3.2-2.7.4m-17 5c2 .2 5.4.2 7.5 0 2-.2.3-.4-3.8-.4s-5.8.2-3.7.4m-7 46c5.9.2 15.5.2 21.5 0 5.9-.1 1-.3-10.8-.3s-16.7.2-10.7.3"/><path fill-opacity=".6" d="M26.2 24.7c3.2.2 8.4.2 11.5 0 3.2-.2.6-.3-5.7-.3s-8.9.1-5.8.3"/></svg>