<svg xmlns="http://www.w3.org/2000/svg" version="1.0" viewBox="0 0 64 64"><path fill-opacity=".7" d="M54 41.4c0 .2.8 1 1.8 1.7 1.5 1.3 1.6 1.2.3-.4S54 40.6 54 41.4m1.9 9.3c-1.3 1.6-1.2 1.7.4.4.9-.7 1.7-1.5 1.7-1.7 0-.8-.8-.3-2.1 1.3"/><path fill-opacity=".9" d="M50 15.4c0 .2.8 1 1.8 1.7 1.5 1.3 1.6 1.2.3-.4S50 14.6 50 15.4m-1 3c0 .2.8 1 1.8 1.7 1.5 1.3 1.6 1.2.3-.4S49 17.6 49 18.4m4 12c.7.7 1.3.7 2 0 .6-.6.3-1-1-1s-1.6.4-1 1m-8.5 13.8-8 8.3 8.3-8c7.6-7.4 8.7-8.5 7.9-8.5-.1 0-3.8 3.7-8.2 8.2m0 4-5 5.3 5.3-5c4.8-4.6 5.7-5.5 4.9-5.5-.1 0-2.5 2.4-5.2 5.2"/><g stroke-width="0"><path d="M13.5 9c-4.7 1.8-5 3.2-5 23.1 0 18.3.1 18.9 2.3 21.1 1.9 2 3.3 2.3 9.5 2.3 5.7 0 7.2-.3 7.2-1.5 0-1-1.2-1.6-3.7-1.8l-3.8-.3V36.1l10.8-.3c8.7-.2 10.7-.6 10.7-1.8s-1.9-1.5-11.2-1.5c-7.9 0-11.6.4-12.5 1.3-.8.8-1.4 4.6-1.7 9.8-.3 7.2-.6 8.5-2 8.2s-1.6-2.5-1.6-19.8V12.5l14.8-.3 14.8-.3 4.7 4.2c4.1 3.5 4.8 4.7 5.2 8.7.5 5.1 3.2 6.7 3.8 2.3.6-4.1-.7-6.9-5.4-11.3C42.2 8.1 41.9 8 28 8.1c-6.9 0-13.4.4-14.5.9"/><path d="M18.6 15.7c-.3.3-.6 1.7-.6 2.9 0 3.8 3.6 5.4 12 5.4 9 0 12.3-1.7 11.8-5.8-.3-3.1-2.1-3.2-2.6-.2-.3 1.8-1.1 2-9.3 2-8.1 0-8.9-.2-8.9-1.9 0-2.1-1.3-3.4-2.4-2.4m27.1 28.1c-6.1 6.2-9.1 9.9-9.8 12.5-1.2 4.4-.6 5.7 2.7 5.7 3 0 9.4-2.6 9.4-3.8 0-1.8-1.2-2-3.8-.6-3.9 2-5.2 1.7-5.2-1.2C39 53.7 48.2 43 50.5 43c.7 0 2 .9 3 2 1.7 1.9 1.7 2.1 0 4-1.3 1.4-1.5 2.4-.8 3.1C54 53.4 63 43.8 63 41c0-2.7-3.4-6-6.3-6-1.5 0-5.1 2.9-11 8.8m14.1-3.2c.2 1.1-.3 2.6-1.1 3.2-1.1.9-1.9.7-3.6-1.2-2.7-2.9-1.9-4.8 1.7-4.4q2.7.3 3 2.4"/></g><path fill-opacity=".8" d="M41.4 34c0 1.3.4 1.6 1 1 .7-.7.7-1.3 0-2-.6-.6-1-.3-1 1m11 10.7c1.6 1.9 1.7 2.5.5 4-1.2 1.7-1.2 1.7.6 0 1.9-1.7 1.9-1.7-.5-4l-2.4-2.2z"/><path fill-opacity=".6" d="M17.2 18c0 1.4.2 1.9.5 1.2.2-.6.2-1.8 0-2.5-.3-.6-.5-.1-.5 1.3m25 0c0 1.4.2 1.9.5 1.2.2-.6.2-1.8 0-2.5-.3-.6-.5-.1-.5 1.3"/><path fill-opacity=".3" d="m43 44.7-6.5 6.8 6.8-6.5c3.7-3.5 6.7-6.6 6.7-6.7 0-.8-1 .2-7 6.4m2.5 3.5-4 4.3 4.3-4c3.9-3.6 4.7-4.5 3.9-4.5-.2 0-2.1 1.9-4.2 4.2"/><path fill-opacity=".2" d="M50.9 36.7c-1.3 1.6-1.2 1.7.4.4.9-.7 1.7-1.5 1.7-1.7 0-.8-.8-.3-2.1 1.3"/></svg>