<svg xmlns="http://www.w3.org/2000/svg" version="1.0" viewBox="0 0 64 64"><path fill-opacity=".9" d="M12.5 10c-.3.6.1.7.9.4 1.8-.7 2.1-1.4.7-1.4-.6 0-1.3.4-1.6 1m41.1 40.7c-.6 1.4-.5 1.5.5.6.7-.7 1-1.5.7-1.8s-.9.2-1.2 1.2"/><path d="M30 2c0 .9-12 7.1-16.2 8.4-1 .3-1.8 1.2-1.8 2C12 14.5 3.1 29 1.9 29c-1.8 0-.5 3.3 1.3 3.6 2.5.3 13.9 7.3 16.9 10.3 3.4 3.4 9.9 15.2 9.9 17.9 0 1.5.6 2.2 2 2.2 1.1 0 2-.4 2-.9C34 60.9 49.4 52 51.5 52c.9 0 1.8-.8 2.1-1.8 1.6-5.1 7.9-19.2 8.6-19.2 1.2 0 .9-2.2-.5-3.9-2.1-2.5-6.8-14.1-6.1-15.2.3-.5-.3-1.2-1.3-1.5C48.3 8.6 34 2.6 34 1.8c0-.4-.9-.8-2-.8s-2 .5-2 1m12.7 5.7c4.8 2 9.3 4.2 10 4.9 1.8 1.7 6.4 12.4 6.8 15.8.5 3.7-5.6 18.1-9 21.1-2 2-16.7 10.5-17.9 10.5-.9 0-8.9-15.3-9-17.4-.1-1.4-.9-2.2-2.6-2.6-3.2-.6-15.8-8-16.4-9.5-.5-1.4 7.2-14.7 10.1-17.5 2.6-2.3 15.3-8.9 17.5-9 .9 0 5.6 1.7 10.5 3.7"/></svg>