<svg xmlns="http://www.w3.org/2000/svg" version="1.0" viewBox="0 0 64 64"><path fill-opacity=".1" d="M49 33.5c3 3 5.7 5.5 5.9 5.5.3 0-1.9-2.5-4.9-5.5S44.3 28 44.1 28c-.3 0 1.9 2.5 4.9 5.5m-6.5 9.7-6 6.3 6.3-6c5.8-5.5 6.7-6.5 5.9-6.5-.1 0-2.9 2.8-6.2 6.2"/><path fill-opacity=".5" d="M42 30.5c1.9 1.9 3.6 3.5 3.9 3.5s-1-1.6-2.9-3.5-3.6-3.5-3.9-3.5 1 1.6 2.9 3.5"/><path fill-opacity=".8" d="M32.7 5.7c-.3.5 3.2.7 7.6.5 14.1-.4 15.6-.9 4-1-6.1-.1-11.4.1-11.6.5M5.4 32c0 12.9.2 18.2.3 11.7.2-6.4.2-17 0-23.5-.1-6.4-.3-1.1-.3 11.8m53-7.5c0 8.2.2 11.5.3 7.2.2-4.3.2-11 0-15-.1-4-.3-.5-.3 7.8m-27.4 5C28.6 32 26.8 34 27.1 34s2.5-2 4.9-4.5 4.2-4.5 3.9-4.5-2.5 2-4.9 4.5m22 9c5.2 5.2 9.7 9.5 10 9.5.2 0-3.8-4.3-9-9.5S44.3 29 44 29c-.2 0 3.8 4.3 9 9.5m-10 5.2-5.5 5.8 5.8-5.5c5.3-5 6.2-6 5.4-6-.1 0-2.7 2.6-5.7 5.7m-12-.5c2.4 2.7 4.5 4.8 4.7 4.8.8 0 0-.9-4.4-5l-4.8-4.5zM16.3 58.7c4.2.2 11.2.2 15.5 0 4.2-.1.7-.3-7.8-.3s-12 .2-7.7.3"/><path fill-opacity=".9" d="M14.6 11.8c-.3.5.1.9.9.9s1.2-.4.9-.9c-.3-.4-.7-.8-.9-.8s-.6.4-.9.8m41.5 44.6c-2.9 3-4.9 5.6-4.4 5.9s3.3-1.8 6.2-4.7c2.9-3 4.9-5.6 4.4-5.9s-3.3 1.8-6.2 4.7m5.9-4.1c0 .1-2.4 2.5-5.2 5.2l-5.3 5 5-5.3c4.6-4.8 5.5-5.7 5.5-4.9"/><path d="M7.2 7.2c-1.7 1.7-1.7 47.9 0 49.6.8.8 5.6 1.1 16.3 1l15-.2-14.4-.3c-8.5-.2-15-.8-15.8-1.5-2-1.6-1.9-46.1.1-47.7 3.2-2.7 15 16.5 16.2 26.4.6 4.8 1.2 5.5 12.3 16.7C43.2 57.7 49.2 63 50 63c2 0 13-11.1 13-13 0-.8-4.4-6-9.8-11.5-8.7-8.9-10.1-10.7-11.6-16-1-3.3-2.9-8-4.2-10.4S35 7.6 35 7.4s4.4-.4 9.9-.4c6.9 0 10.2.4 10.9 1.3.7.8 1.3 7.1 1.5 15.3l.3 13.9.2-14.5c.1-10.3-.2-15-1-15.8-1.3-1.3-24.2-1.8-23.6-.5.2.5 1.7 3.7 3.5 7.3 4.7 9.6 4.9 11 2.1 11-1.5 0-4 1.7-6.8 4.5-2.4 2.5-4.7 4.5-5.1 4.5s-1.1-1.5-1.4-3.3c-1.1-4.8-5.8-13.6-10.4-19.5-4.2-5.3-5.8-6.1-7.9-4m37.1 24.6 5.7 5.8-6.3 6.2-6.3 6.2-5.9-6-5.9-6 5.9-6c3.3-3.3 6.2-6 6.5-6s3.1 2.6 6.3 5.8m12.4 12.4c2.9 2.9 5.3 5.7 5.3 6.2C62 51.8 51.8 62 50.5 62c-.6 0-3.5-2.5-6.5-5.5L38.6 51l5.9-6c3.3-3.3 6.2-6 6.4-6 .3 0 2.9 2.3 5.8 5.2"/><path fill-opacity=".6" d="M40.3 7.7c2.6.2 6.8.2 9.5 0 2.6-.2.4-.3-4.8-.3s-7.4.1-4.7.3M7.4 32c0 12.4.2 17.4.3 11.2.2-6.1.2-16.3 0-22.5-.1-6.1-.3-1.1-.3 11.3m49-8.5c0 7.7.2 10.7.3 6.7.2-4 .2-10.3 0-14s-.3-.4-.3 7.3M44.5 45.2l-6 6.3 6.2-6 6.3-5.9 4.2 3.9 4.3 4-4-4.3C53.4 40.9 51.3 39 51 39s-3.2 2.8-6.5 6.2M28 43.5c1.9 1.9 3.6 3.5 3.9 3.5s-1-1.6-2.9-3.5-3.6-3.5-3.9-3.5 1 1.6 2.9 3.5M16.2 56.7c3.7.2 10 .2 14 0 4-.1 1-.3-6.7-.3s-11 .1-7.3.3"/><path fill-opacity=".7" d="m31.5 32.2-5 5.3 5.3-5c4.8-4.6 5.7-5.5 4.9-5.5-.1 0-2.5 2.4-5.2 5.2m.5 15.1c0 .1 3.5 3.6 7.8 7.7l7.7 7.5-7.5-7.8c-6.9-7.1-8-8.2-8-7.4M43.5 56c2.7 2.7 5.1 5 5.4 5s-1.7-2.3-4.4-5c-2.7-2.8-5.1-5-5.4-5s1.7 2.2 4.4 5"/><path fill-opacity=".3" d="m55.5 56.2-5 5.3 5.3-5c4.8-4.6 5.7-5.5 4.9-5.5-.1 0-2.5 2.4-5.2 5.2m2 2-5 5.3 5.3-5c4.8-4.6 5.7-5.5 4.9-5.5-.1 0-2.5 2.4-5.2 5.2"/></svg>