<svg xmlns="http://www.w3.org/2000/svg" version="1.0" viewBox="0 0 64 64"><path fill-opacity=".8" d="M5.4 6.4c-.3.8-.4 2.9-.1 4.8.3 3 .4 2.9.5-.9.2-4.2.2-4.2 4.5-4.6l4.2-.4-4.3-.1c-2.9-.1-4.4.3-4.8 1.2m14.2-.6c-.2.4 1.2.6 3.2.4 6.2-.6 6.9-1 2-1.1-2.6 0-4.9.3-5.2.7M36 5.6c3.7.8 8.8.9 8.4.2-.3-.4-2.6-.7-5.2-.7-2.6.1-4 .3-3.2.5m17.9.1c3.9.4 4 .5 4.4 4.6l.4 4.2-.1-4.5-.1-4.5-4.3-.1-4.2-.1zM5.4 20.4c-.3.8-.4 3.1-.2 5.2.3 3.6.4 3.5.8-1.4.5-5.3.4-6.3-.6-3.8M58 24.3l.5 5.2.3-4.4c.2-2.4 0-4.7-.5-5.2-.4-.4-.6 1.5-.3 4.4M5.1 39.2c0 2.6.3 4.9.7 5.2.4.2.6-1.2.4-3.2-.6-6.2-1-6.9-1.1-2m52.9.5c-.3 2.9-.1 4.8.3 4.4.5-.5.7-2.8.5-5.2l-.3-4.4zM5.4 54.2l.1 4.3 4.5.1 4.5.1-4.2-.4c-4.1-.4-4.2-.5-4.6-4.4L5.3 50zm52.8-.5c-.2 4.2-.2 4.2-4.4 4.6l-4.3.4 4.3.1c4.8.2 5.6-.7 4.9-6-.3-3-.4-2.9-.5.9m-38.3 4.6c.5.5 2.8.7 5.2.5l4.4-.3-5.2-.5c-2.9-.3-4.8-.1-4.4.3m19.6-.3-5 .7 4.7.1c2.6.1 5-.3 5.3-.8.3-.6.5-.9.3-.8-.2 0-2.5.4-5.3.8"/><path fill-opacity=".6" d="M7.4 8.4c-.3.8-.4 2.5-.1 3.8.3 1.8.5 1.6.6-.9.1-2.8.5-3.2 3.4-3.6l3.2-.4-3.3-.1c-2-.1-3.5.3-3.8 1.2m14.9-.7c1.5.2 3.7.2 5 0 1.2-.2 0-.4-2.8-.4-2.7 0-3.8.2-2.2.4m15 0c1.5.2 3.7.2 5 0 1.2-.2 0-.4-2.8-.4-2.7 0-3.8.2-2.2.4m15.6-.1c2.4.4 3.1 1.1 3.4 3.7.4 3.1.5 3.1.3-.3-.1-3.2-.4-3.5-3.3-3.8-3.1-.2-3.2-.2-.4.4M7.3 24.5c0 2.7.2 3.8.4 2.2.2-1.5.2-3.7 0-5-.2-1.2-.4 0-.4 2.8m49 0c0 2.7.2 3.8.4 2.2.2-1.5.2-3.7 0-5-.2-1.2-.4 0-.4 2.8m-49 15c0 2.7.2 3.8.4 2.2.2-1.5.2-3.7 0-5-.2-1.2-.4 0-.4 2.8m39.9-2c0 1.6.2 2.2.5 1.2.2-.9.2-2.3 0-3-.3-.6-.5.1-.5 1.8m9.1 2c0 2.7.2 3.8.4 2.2.2-1.5.2-3.7 0-5-.2-1.2-.4 0-.4 2.8m-49 13.7c.2 2.9.6 3.3 3.2 3.4 2.7.1 2.7 0 .3-.3-2-.3-2.8-1.1-3.2-3.4-.6-2.8-.6-2.7-.3.3m48.8-.5c-.1 2.8-.5 3.2-3.3 3.6l-3.3.4 3.3.1c3.6.2 4.6-1.2 3.9-5-.3-1.8-.5-1.6-.6.9m-33.8 4c1.5.2 3.7.2 5 0 1.2-.2 0-.4-2.8-.4-2.7 0-3.8.2-2.2.4m15 0c1.5.2 3.7.2 5 0 1.2-.2 0-.4-2.8-.4-2.7 0-3.8.2-2.2.4"/><path fill-opacity=".3" d="M41.8 25.7c.7.3 1.6.2 1.9-.1.4-.3-.2-.6-1.3-.5-1.1 0-1.4.3-.6.6"/><path d="m6.2 10.2.1 4.3.4-3.7c.4-3.4.7-3.7 4.1-4.1l3.7-.4-4.2-.1L6 6zm16.1-3.5c1.5.2 3.7.2 5 0 1.2-.2 0-.4-2.8-.4-2.7 0-3.8.2-2.2.4m15 0c1.5.2 3.7.2 5 0 1.2-.2 0-.4-2.8-.4-2.7 0-3.8.2-2.2.4m15.9 0c3.4.4 3.7.7 4.1 4.1l.4 3.7.1-4.3L58 6l-4.2.2-4.3.1zM6.3 24.5c0 2.7.2 3.8.4 2.2.2-1.5.2-3.7 0-5-.2-1.2-.4 0-.4 2.8m12.9 7.7c-2.3 6.8-3.5 11.4-2.7 10.4.8-1.1 1.5-2.6 1.5-3.3 0-.9 1.7-1.3 6-1.3 5.8 0 6 .1 7.4 3.2.8 1.8 1.4 2.6 1.5 1.8 0-2.6-7.4-22.3-8.5-22.7-.6-.2-2.9 5.1-5.2 11.9m7.7-4c1.2 3.4 2.1 6.6 2.1 7s-2.2.8-4.9.8h-5l2-5.8c2.7-8 2.8-8.2 3.3-8.2.2 0 1.4 2.8 2.5 6.2m30.4-3.7c0 2.7.2 3.8.4 2.2.2-1.5.2-3.7 0-5-.2-1.2-.4 0-.4 2.8M39 27c-1.1.7-.4 1 2.6 1 4.1 0 6.4 1.3 6.4 3.7 0 .7-1.1 1.3-2.4 1.3-6.8 0-10.9 4.4-8.1 8.6 1.4 2.1 2.2 2.4 6.5 2.2l5-.3v-7.2c0-6.3-.3-7.4-2.2-8.7-2.5-1.8-5.6-2-7.8-.6m9 10.4c0 2.8-.5 3.6-3 4.6-3.4 1.4-5.7.8-6.7-1.6-1.2-3.3 2-5.7 8.5-6.3.7-.1 1.2 1.2 1.2 3.3M6.3 39.5c0 2.7.2 3.8.4 2.2.2-1.5.2-3.7 0-5-.2-1.2-.4 0-.4 2.8m51 0c0 2.7.2 3.8.4 2.2.2-1.5.2-3.7 0-5-.2-1.2-.4 0-.4 2.8M6.2 53.7 6 58l4.3-.2 4.2-.1-3.7-.4c-3.4-.4-3.7-.7-4.1-4.1l-.4-3.7zm50.8-.3c0 3.3-.2 3.5-3.7 3.9l-3.8.4 4.3.1 4.2.2v-4c0-2.2-.2-4-.5-4s-.5 1.5-.5 3.4m-34.7 4.3c1.5.2 3.7.2 5 0 1.2-.2 0-.4-2.8-.4-2.7 0-3.8.2-2.2.4m15 0c1.5.2 3.7.2 5 0 1.2-.2 0-.4-2.8-.4-2.7 0-3.8.2-2.2.4"/><path fill-opacity=".4" d="M18.7 38.7c-.3.5 1.6.7 4.1.5 7.3-.5 8.2-1 2-1.1-3.1 0-5.9.2-6.1.6"/><path fill-opacity=".9" d="M22.6 23.2c.3.5 1 .6 1.5.3 1.3-.9 1.1-1.2-.6-1.2-.8 0-1.2.4-.9.9M49.3 38c0 3.6.2 5 .4 3.2.2-1.7.2-4.7 0-6.5-.2-1.7-.4-.3-.4 3.3"/><path fill-opacity=".1" d="M21.8 35.7c1.2.2 3.2.2 4.5 0 1.2-.2.2-.4-2.3-.4s-3.5.2-2.2.4"/></svg>