<svg xmlns="http://www.w3.org/2000/svg" version="1.0" viewBox="0 0 80 80"><path fill-opacity=".8" d="M13.4 14.5c-.3.8-.4 2-.1 2.7s.6.3.6-.9c.1-1.4.9-2.3 2.4-2.6l2.2-.4-2.3-.2c-1.2 0-2.5.6-2.8 1.4m10.4-.8c.7.3 1.6.2 1.9-.1.4-.3-.2-.6-1.3-.5-1.1 0-1.4.3-.6.6m8 0c.7.3 1.6.2 1.9-.1.4-.3-.2-.6-1.3-.5-1.1 0-1.4.3-.6.6m8.5 0c1.5.2 3.9.2 5.5 0 1.5-.2.2-.4-2.8-.4s-4.3.2-2.7.4M13.1 24.6c0 1.1.3 1.4.6.6.3-.7.2-1.6-.1-1.9-.3-.4-.6.2-.5 1.3m0 8c0 1.1.3 1.4.6.6.3-.7.2-1.6-.1-1.9-.3-.4-.6.2-.5 1.3M66.3 37c0 3 .2 4.3.4 2.7.2-1.5.2-3.9 0-5.5-.2-1.5-.4-.2-.4 2.8m-53.2 2.6c0 1.1.3 1.4.6.6.3-.7.2-1.6-.1-1.9-.3-.4-.6.2-.5 1.3m0 8c0 1.1.3 1.4.6.6.3-.7.2-1.6-.1-1.9-.3-.4-.6.2-.5 1.3m53 0c0 1.1.3 1.4.6.6.3-.7.2-1.6-.1-1.9-.3-.4-.6.2-.5 1.3m-53 8c0 1.1.3 1.4.6.6.3-.7.2-1.6-.1-1.9-.3-.4-.6.2-.5 1.3m53 0c0 1.1.3 1.4.6.6.3-.7.2-1.6-.1-1.9-.3-.4-.6.2-.5 1.3m-52.7 8.9c.1 1.3.8 2 2.4 2.1 1.7.1 1.8.1.3-.3-1.1-.2-2.2-1.2-2.4-2.1q-.45-1.8-.3.3m9.4 1.7c.5.5 1.6.8 2.3.6.8-.3.3-.7-1-1.1-1.7-.4-2.1-.3-1.3.5m23 0c.5.5 1.6.8 2.3.6.8-.3.3-.7-1-1.1-1.7-.4-2.1-.3-1.3.5m-14 .5c.7.3 1.6.2 1.9-.1.4-.3-.2-.6-1.3-.5-1.1 0-1.4.3-.6.6m7 0c.7.3 1.6.2 1.9-.1.4-.3-.2-.6-1.3-.5-1.1 0-1.4.3-.6.6m16 0c.7.3 1.6.2 1.9-.1.4-.3-.2-.6-1.3-.5-1.1 0-1.4.3-.6.6m7.5 0c.9.2 2.3.2 3 0 .6-.3-.1-.5-1.8-.5-1.6 0-2.2.2-1.2.5"/><path fill-opacity=".6" d="M15.5 16.1c-1.1 1.6-.1 1.9 1.3.3.7-.8.8-1.4.3-1.4s-1.3.5-1.6 1.1m8.3-.4c.7.3 1.6.2 1.9-.1.4-.3-.2-.6-1.3-.5-1.1 0-1.4.3-.6.6m8 0c.7.3 1.6.2 1.9-.1.4-.3-.2-.6-1.3-.5-1.1 0-1.4.3-.6.6m8.5 0c1.5.2 3.7.2 5 0 1.2-.2 0-.4-2.8-.4-2.7 0-3.8.2-2.2.4m-25.2 8.9c0 1.1.3 1.4.6.6.3-.7.2-1.6-.1-1.9-.3-.4-.6.2-.5 1.3m0 8c0 1.1.3 1.4.6.6.3-.7.2-1.6-.1-1.9-.3-.4-.6.2-.5 1.3m49.2 4.9c0 2.7.2 3.8.4 2.2.2-1.5.2-3.7 0-5-.2-1.2-.4 0-.4 2.8m-49.2 3.1c0 1.1.3 1.4.6.6.3-.7.2-1.6-.1-1.9-.3-.4-.6.2-.5 1.3m0 7c0 1.1.3 1.4.6.6.3-.7.2-1.6-.1-1.9-.3-.4-.6.2-.5 1.3m49 0c0 1.1.3 1.4.6.6.3-.7.2-1.6-.1-1.9-.3-.4-.6.2-.5 1.3m-49 8c0 1.1.3 1.4.6.6.3-.7.2-1.6-.1-1.9-.3-.4-.6.2-.5 1.3m49 0c0 1.1.3 1.4.6.6.3-.7.2-1.6-.1-1.9-.3-.4-.6.2-.5 1.3M15 62.9c0 1 1.9 2.5 2.5 2 .1-.2-.3-1-1.1-1.7s-1.4-.8-1.4-.3m48.2.7c-.7.8-.8 1.4-.3 1.4 1 0 2.5-1.9 2-2.5-.2-.1-1 .3-1.7 1.1m-39.4 1.1c.7.3 1.6.2 1.9-.1.4-.3-.2-.6-1.3-.5-1.1 0-1.4.3-.6.6m7.2-.3c0 .2.9.6 2 .9s1.8.1 1.4-.4c-.5-.9-3.4-1.3-3.4-.5m15.8.3c.7.3 1.6.2 1.9-.1.4-.3-.2-.6-1.3-.5-1.1 0-1.4.3-.6.6m8 0c.7.3 1.6.2 1.9-.1.4-.3-.2-.6-1.3-.5-1.1 0-1.4.3-.6.6"/><path d="M14.1 16.7c.1 2.3.2 2.4.6.6.2-1.3 1.3-2.4 2.6-2.6 1.8-.4 1.7-.5-.5-.6-2.4-.1-2.8.3-2.7 2.6m9.7-2c.6.2 1.8.2 2.5 0 .6-.3.1-.5-1.3-.5s-1.9.2-1.2.5m7 0c.6.2 1.8.2 2.5 0 .6-.3.1-.5-1.3-.5s-1.9.2-1.2.5m14.5.3c13 1.3 18.4 6.7 19.7 19.7l.8 7.8-.1-8.1c-.2-7.1-.5-8.5-2.9-11.7-5.1-6.6-8.3-8.2-17.3-8.4l-8-.1zm-31.2 9.6c0 1.1.3 1.4.6.6.3-.7.2-1.6-.1-1.9-.3-.4-.6.2-.5 1.3m.1 7.4c0 1.4.2 1.9.5 1.2.2-.6.2-1.8 0-2.5-.3-.6-.5-.1-.5 1.3m0 8c0 1.4.2 1.9.5 1.2.2-.6.2-1.8 0-2.5-.3-.6-.5-.1-.5 1.3m0 8c0 1.4.2 1.9.5 1.2.2-.6.2-1.8 0-2.5-.3-.6-.5-.1-.5 1.3m51 0c0 1.4.2 1.9.5 1.2.2-.6.2-1.8 0-2.5-.3-.6-.5-.1-.5 1.3m-51 7c0 1.4.2 1.9.5 1.2.2-.6.2-1.8 0-2.5-.3-.6-.5-.1-.5 1.3m50.9.6c0 1.1.3 1.4.6.6.3-.7.2-1.6-.1-1.9-.3-.4-.6.2-.5 1.3m-51 7.6c-.1 2.4.3 2.8 2.7 2.7 2.2-.1 2.3-.2.5-.6-1.3-.2-2.4-1.3-2.6-2.6-.4-1.8-.5-1.7-.6.5m50.9-.3c0 1.2-.8 2.1-2.2 2.4-2 .4-1.9.4.5.6 2.3.1 2.7-.3 2.7-2.4 0-1.4-.2-2.5-.5-2.5s-.5.9-.5 1.9m-41.2 2.8c.7.3 1.6.2 1.9-.1.4-.3-.2-.6-1.3-.5-1.1 0-1.4.3-.6.6m7 0c.6.2 1.8.2 2.5 0 .6-.3.1-.5-1.3-.5s-1.9.2-1.2.5m8 0c.6.2 1.8.2 2.5 0 .6-.3.1-.5-1.3-.5s-1.9.2-1.2.5m8 0c.7.3 1.6.2 1.9-.1.4-.3-.2-.6-1.3-.5-1.1 0-1.4.3-.6.6m7 0c.6.2 1.8.2 2.5 0 .6-.3.1-.5-1.3-.5s-1.9.2-1.2.5"/><path fill-opacity=".9" d="M59.3 19.3c0 .8.6 1.4 1.4 1.4.9 0 1-.4.2-1.4-.6-.7-1.2-1.3-1.4-1.3-.1 0-.2.6-.2 1.3"/></svg>