<svg xmlns="http://www.w3.org/2000/svg" version="1.0" viewBox="0 0 64 64"><path fill-opacity=".1" d="M35.3 11.5c0 3.8.2 5.3.4 3.2.2-2 .2-5.2 0-7-.2-1.7-.4-.1-.4 3.8M9.9 27.7c-1.3 1.6-1.2 1.7.4.4.9-.7 1.7-1.5 1.7-1.7 0-.8-.8-.3-2.1 1.3m25.2 12c0 3.4.2 6.4.7 6.6.4.3.6-1.6.4-4.1-.5-8-.9-9-1.1-2.5M6 41c-.9.6-1 1-.3 1 .6 0 1.5-.5 1.8-1 .8-1.2.4-1.2-1.5 0"/><path fill-opacity=".8" d="m7.4 41.2-1.9 2.3 2.3-1.9c2.1-1.8 2.7-2.6 1.9-2.6-.2 0-1.2 1-2.3 2.2"/><path d="M36 12.3v6.4l-5.6.6c-15.6 1.6-27.9 14.9-29 31-.4 6-.4 6.1 1 3.2.9-1.7 1.5-3.6 1.6-4.3 0-.7 2.4-3.7 5.3-6.6 5.8-5.8 11.3-8.3 21-9.3l5.7-.6v6.2c0 3.3.2 6.1.4 6.1.3 0 6.2-4.3 13.1-9.6 10.3-7.8 12.4-9.9 11.3-10.9-1.8-1.6-22-17-23.5-17.9-1-.5-1.3.8-1.3 5.7m16.3 7.1c4.2 3.2 7.7 6 7.7 6.2s-4.8 4-10.7 8.5l-10.8 8.1-.3-5.6c-.3-6.4-.4-6.4-10.8-4.5-8.2 1.5-15.5 5.2-19.9 10-2 2.3-3.8 3.9-4 3.7s.7-3 2-6.2C10 28.5 19.4 21.7 32 20.3l6-.6V8.8l3.3 2.4c1.7 1.3 6.7 5.1 11 8.2"/><path fill-opacity=".9" d="M49.3 16.5c0 .8.4 1.2.9.9s.6-1 .3-1.5c-.9-1.3-1.2-1.1-1.2.6m4 3c0 .8.4 1.2.9.9s.6-1 .3-1.5c-.9-1.3-1.2-1.1-1.2.6m4 3c0 .8.4 1.2.9.9s.6-1 .3-1.5c-.9-1.3-1.2-1.1-1.2.6m-.8 5.4c-.3.5-.2 1.2.3 1.5s.9-.1.9-.9c0-1.7-.3-1.9-1.2-.6m-4 3c-.3.5-.2 1.2.3 1.5s.9-.1.9-.9c0-1.7-.3-1.9-1.2-.6m-4.2 4.6c0 .8.4 1.2.9.9s.6-1 .3-1.5c-.9-1.3-1.2-1.1-1.2.6m-4 3c0 .8.4 1.2.9.9s.6-1 .3-1.5c-.9-1.3-1.2-1.1-1.2.6m-4 3c0 .8.4 1.2.9.9s.6-1 .3-1.5c-.9-1.3-1.2-1.1-1.2.6M.1 54.6c0 1.1.3 1.4.6.6.3-.7.2-1.6-.1-1.9-.3-.4-.6.2-.5 1.3"/><path fill-opacity=".4" d="M38.2 14.7c-.1 3-.7 5.3-1.4 5.6q-1.5.6 0 .6c1.8.1 2.4-2 1.9-7l-.4-4.4zm.1 21.3c0 3 .2 4.3.4 2.7.2-1.5.2-3.9 0-5.5-.2-1.5-.4-.2-.4 2.8"/><path fill-opacity=".2" d="M35.8 30.7c.7.3 1.6.2 1.9-.1.4-.3-.2-.6-1.3-.5-1.1 0-1.4.3-.6.6"/></svg>