<svg xmlns="http://www.w3.org/2000/svg" version="1.0" viewBox="0 0 64 64"><path fill-opacity=".1" d="M9.9 12.7c-1.3 1.6-1.2 1.7.4.4.9-.7 1.7-1.5 1.7-1.7 0-.8-.8-.3-2.1 1.3m-5 42c-1.3 1.6-1.2 1.7.4.4S7.4 53 6.6 53c-.2 0-1 .8-1.7 1.7"/><path fill-opacity=".2" d="M52 11.4c0 .2.8 1 1.8 1.7 1.5 1.3 1.6 1.2.3-.4S52 10.6 52 11.4M31.8 25.7c.7.3 1.6.2 1.9-.1.4-.3-.2-.6-1.3-.5-1.1 0-1.4.3-.6.6"/><path fill-opacity=".4" d="M28.8 55.7c.7.3 1.6.2 1.9-.1.4-.3-.2-.6-1.3-.5-1.1 0-1.4.3-.6.6"/><path fill-opacity=".5" d="M7.9 10.7c-1.3 1.6-1.2 1.7.4.4.9-.7 1.7-1.5 1.7-1.7 0-.8-.8-.3-2.1 1.3"/><path fill-opacity=".6" d="M30.3 1.7c.9.2 2.5.2 3.5 0 .9-.3.1-.5-1.8-.5s-2.7.2-1.7.5"/><path fill-opacity=".9" d="M10.6 8.9c-.4.5-.2 1.2.3 1.5.5.4 1.2.2 1.5-.3.4-.5.2-1.2-.3-1.5-.5-.4-1.2-.2-1.5.3m41.7.6c0 1.9 4.3 5.9 5.1 4.7.3-.5-.7-2.1-2.3-3.6-1.9-1.9-2.8-2.2-2.8-1.1m3.2 2.5c1 1.1 1.6 2 1.3 2s-1.3-.9-2.3-2-1.6-2-1.3-2 1.3.9 2.3 2m-50 2.1c-.3.4.2.6 1 .5 2.1-.3 2.8-1.3 1-1.3-.9 0-1.8.4-2 .8m24.9 20.4c0 5 .1 7.1.3 4.8s.2-6.4 0-9-.3-.8-.3 4.2M.2 30c0 1.4.2 1.9.5 1.2.2-.6.2-1.8 0-2.5-.3-.6-.5-.1-.5 1.3m3.7 26.2c-.6 2-.6 3.9 0 4.2.4.3.7-.6.7-2 0-2-.4-3.2-.7-2.2"/><g stroke-width="0"><path d="M23 2.9c-4.9 1.5-11 5.2-14.6 8.8-9.5 9.5-10 24.4-1.1 34.9l2.6 3.1L8 52.8c-1.1 1.7-3.1 3.8-4.5 4.8-6.9 4.5 2.4 6.1 13.1 2.3 4-1.5 8.6-2.2 14.4-2.3 6.8-.2 9.6-.7 14-2.7 14.5-6.7 20.9-19.4 16.8-33.3C59.9 15.5 51 6.8 43.7 4.1 37.8 2 28 1.4 23 2.9m23.7 4.2c7.5 3.6 11.8 8.5 13.9 15.8 3.6 12.2-2 23.8-14.6 30.2-3.4 1.7-6.7 2.4-13.5 2.7-5.1.2-11.1 1.1-14 2.2-6 2.1-13.1 3.4-14.4 2.5-.6-.3.8-2.4 2.9-4.5 4.5-4.5 5-6.8 1.9-9.6C2.1 40.2.2 26.4 5.2 18c3.2-5.4 6-8.1 11.4-10.9 9.3-4.8 20.1-4.8 30.1 0"/><path d="M30 18.5c0 .8.9 1.5 2 1.5s2-.7 2-1.5-.9-1.5-2-1.5-2 .7-2 1.5M31 35c0 6.9.3 9.1 1.3 8.7.8-.2 1.2-2.9 1.2-8.7s-.4-8.5-1.2-8.8c-1-.3-1.3 1.9-1.3 8.8"/></g><path fill-opacity=".8" d="M63.1 29.6c0 1.1.3 1.4.6.6.3-.7.2-1.6-.1-1.9-.3-.4-.6.2-.5 1.3m-8.2 19.1c-1.3 1.6-1.2 1.7.4.4s2.1-2.1 1.3-2.1c-.2 0-1 .8-1.7 1.7"/><path fill-opacity=".7" d="M61.2 30c0 1.4.2 1.9.5 1.2.2-.6.2-1.8 0-2.5-.3-.6-.5-.1-.5 1.3"/></svg>