<svg xmlns="http://www.w3.org/2000/svg" version="1.0" viewBox="0 0 80 80"><path fill-opacity=".3" d="M30.3 14.7c2.6.2 6.7.2 9 0s.2-.3-4.8-.3c-4.9 0-6.8.1-4.2.3m3.5 20c1.7.2 4.7.2 6.5 0 1.7-.2.3-.4-3.3-.4s-5 .2-3.2.4m-2.5 31c3.2.2 8.1.2 11 0s.3-.3-5.8-.3c-6 0-8.4.1-5.2.3"/><path fill-opacity=".6" d="M21.4 39c0 11.8.2 16.7.3 10.8.2-6 .2-15.6 0-21.5-.1-6-.3-1.1-.3 10.7m8.9-10c0 3 .2 4.3.4 2.7.2-1.5.2-3.9 0-5.5-.2-1.5-.4-.2-.4 2.8m0 21c0 3.6.2 5 .4 3.2.2-1.7.2-4.7 0-6.5-.2-1.7-.4-.3-.4 3.3"/><path d="M23.8 16.1C22.2 17 22 19.2 22 40c0 22.2.1 23 2.1 24 1.3.7 6.6 1 14.4.8 10.6-.3 12.8-.6 15.1-2.4 5-3.7 6.9-7.2 6.9-12.4 0-3.9-.6-5.5-3.3-8.9-3.2-3.9-3.2-4.2-1.7-7 2-3.9 1.9-5.6-.6-10.7-3-6.4-7.9-8.4-20-8.4-5.2 0-10.2.5-11.1 1.1m23 9.1c1.6 1.6 1.6 7 0 8.6-.7.7-4.3 1.2-9 1.2H30V24h7.8c4.7 0 8.3.5 9 1.2m3.9 20c1.6 1.3 1.7 8 .1 9.6-.8.8-4.7 1.2-11 1.2H30V43.5l9.7.3c5.4.2 10.3.8 11 1.4"/></svg>