<svg xmlns="http://www.w3.org/2000/svg" version="1.0" viewBox="0 0 48 48"><path fill-opacity=".1" d="M10.6 30.7c-.6 1.4-.5 1.5.5.6.7-.7 1-1.5.7-1.8s-.9.2-1.2 1.2m8 0c-.6 1.4-.5 1.5.5.6.7-.7 1-1.5.7-1.8s-.9.2-1.2 1.2m-4 4c-.6 1.4-.5 1.5.5.6.7-.7 1-1.5.7-1.8s-.9.2-1.2 1.2"/><path fill-opacity=".6" d="M33 31.5c3 3 5.7 5.5 5.9 5.5.3 0-1.9-2.5-4.9-5.5S28.3 26 28.1 26c-.3 0 1.9 2.5 4.9 5.5m2-2c1.9 1.9 3.6 3.5 3.9 3.5s-1-1.6-2.9-3.5-3.6-3.5-3.9-3.5 1 1.6 2.9 3.5m1-3.1c0 .2.8 1 1.8 1.7 1.5 1.3 1.6 1.2.3-.4S36 25.6 36 26.4m-5 7.1c3 3 5.7 5.5 5.9 5.5.3 0-1.9-2.5-4.9-5.5S26.3 28 26.1 28c-.3 0 1.9 2.5 4.9 5.5M28.5 35c2.1 2.2 4.1 4 4.4 4s-1.3-1.8-3.4-4-4.1-4-4.4-4 1.3 1.8 3.4 4M26 36.4c0 .2.8 1 1.8 1.7 1.5 1.3 1.6 1.2.3-.4S26 35.6 26 36.4"/><path d="M10.2 7c-3.5 1.5-4.4 5.4-4 18.7C6.6 42.1 6 41.5 24 41.5c12 0 14.2-.2 15.7-1.8 1.6-1.5 1.8-3.7 1.8-15.7 0-18.1.7-17.4-16.3-17.7-7-.2-13.7.2-15 .7M39 16v7H25V9h14zM13 26.2c0 .9.3.9 1.2 0 1.6-1.6 5.6-1.5 7.4.2 1.7 1.8 1.8 6.2.2 7-1 .5-1 .7 0 1.2.6.3 1.2 1.4 1.2 2.5 0 1.4-.7 1.9-2.5 1.9-1.4 0-2.5-.6-2.6-1.3q0-1.35-.6 0c-.2.7-2 1.3-3.8 1.3-3.9 0-4.4-1-4.3-8.8 0-4.4.3-5.2 1.9-5.2 1.1 0 1.9.5 1.9 1.2m22.4 2.7c2.5 2.6 3.7 4.6 3.4 6-.3 1.9-1 1.5-6.3-3.9-5.4-5.5-5.7-6-3.4-6 1.6 0 3.9 1.4 6.3 3.9M39 27c0 1.1-.2 2-.3 2-.2 0-1.2-.9-2.2-2-1.8-1.9-1.7-2 .3-2 1.5 0 2.2.6 2.2 2m-4.1 11.8c-3 .5-9.9-6.3-9.9-9.7 0-2.3.5-2 6 3.4 5.4 5.3 5.8 6 3.9 6.3M27.5 37c1.8 1.9 1.7 2-.3 2-1.5 0-2.2-.6-2.2-2 0-1.1.2-2 .3-2 .2 0 1.2.9 2.2 2"/><path fill-opacity=".5" d="M25.3 15.5c0 3.8.2 5.3.4 3.2.2-2 .2-5.2 0-7-.2-1.7-.4-.1-.4 3.8M9 25.4c0 .2.9.6 2 .9s1.8.1 1.4-.4c-.5-.9-3.4-1.3-3.4-.5m7 0c0 .2 1.1.6 2.5.8 1.3.3 2.2.1 1.9-.3-.5-.9-4.4-1.3-4.4-.5m12.8.3c.7.3 1.6.2 1.9-.1.4-.3-.2-.6-1.3-.5-1.1 0-1.4.3-.6.6m8 0c.7.3 1.6.2 1.9-.1.4-.3-.2-.6-1.3-.5-1.1 0-1.4.3-.6.6m-15 4.6c-.3 1.9-.2 2.5.4 1.9s.8-1.8.6-2.8c-.3-1.4-.5-1.2-1 .9m3.3-.7c0 1.1.3 1.4.6.6.3-.7.2-1.6-.1-1.9-.3-.4-.6.2-.5 1.3m-3 8c0 1.1.3 1.4.6.6.3-.7.2-1.6-.1-1.9-.3-.4-.6.2-.5 1.3m3 0c0 1.1.3 1.4.6.6.3-.7.2-1.6-.1-1.9-.3-.4-.6.2-.5 1.3"/><path fill-opacity=".4" d="M28.7 22.7c1.8.2 5 .2 7 0 2.1-.2.7-.4-3.2-.4-3.8 0-5.5.2-3.8.4"/></svg>