<svg xmlns="http://www.w3.org/2000/svg" version="1.0" viewBox="0 0 64 64"><path fill-opacity=".8" d="M22.2 5.7c5.4.2 14.2.2 19.6 0 5.3-.1.9-.3-9.8-.3s-15.1.2-9.8.3M5.5 38v20.5h53V38l.1-20.5-.3 20.3L58 58H6l-.3-20.3-.3-20.2z"/><path fill-opacity=".2" d="M11.7 19.7c2.4.2 6.2.2 8.5 0 2.4-.2.5-.4-4.2-.4s-6.6.2-4.3.4m32.1 0c2.3.2 6.1.2 8.5 0 2.3-.2.4-.4-4.3-.4s-6.6.2-4.2.4M30.3 38c0 4.7.2 6.6.4 4.2.2-2.3.2-6.1 0-8.5-.2-2.3-.4-.4-.4 4.3m3 0c0 4.7.2 6.6.4 4.2.2-2.3.2-6.1 0-8.5-.2-2.3-.4-.4-.4 4.3m-6.8 9c2.1 2.2 4.1 4 4.4 4s-1.3-1.8-3.4-4-4.1-4-4.4-4 1.3 1.8 3.4 4m10 .2-4 4.3 4.3-4c3.9-3.6 4.7-4.5 3.9-4.5-.2 0-2.1 1.9-4.2 4.2"/><path fill-opacity=".9" d="M26.6 21.9c-.4.5-.2 1.2.3 1.5.5.4 1.2.2 1.5-.3.4-.5.2-1.2-.3-1.5-.5-.4-1.2-.2-1.5.3m9.7.6c0 .8.4 1.2.9.9s.6-1 .3-1.5c-.9-1.3-1.2-1.1-1.2.6m-12 19.9c0 .9 1.8 3.2 3.9 5.3l3.8 3.7 3.8-3.7c2.1-2.1 3.9-4.4 3.9-5.3 0-1-.9-.6-2.8 1.2-1.6 1.5-2.6 3-2.4 3.4.3.4-.2 1.3-1 2-1.2 1-1.8 1-3 0-.8-.7-1.3-1.6-1-2 .2-.4-.8-1.9-2.4-3.4-1.9-1.8-2.8-2.2-2.8-1.2m3.2 2.6c1 1.1 1.6 2 1.3 2s-1.3-.9-2.3-2-1.6-2-1.3-2 1.3.9 2.3 2M39 43.3c0 .2-1 1.2-2.2 2.3l-2.3 1.9 1.9-2.3c1.8-2.1 2.6-2.7 2.6-1.9"/><g stroke-width="0"><path d="M9.5 11.2 6 16.5V58h52V16.5l-3.5-5.3L50.9 6H13.1zm43.8.3c1.5 2.5 2.7 4.8 2.7 5 0 .3-4 .5-9 .5-8.6 0-9 .1-9.6 2.4-1.3 5.2-9.5 5.3-10.8.2-.6-2.6-.8-2.6-9.7-2.6-5 0-8.9-.3-8.7-.8.2-.4 1.4-2.6 2.8-4.9L13.5 7h37zM27 22c1.5 1.6 3.8 3 5 3s3.5-1.4 5-3c2.7-2.9 3.1-3 11.4-3H57v38H7V19h8.6c8.3 0 8.7.1 11.4 3"/><path d="M31 38.5c0 4.7-.3 8.5-.7 8.5s-2.1-1.2-3.7-2.7c-1.7-1.5-1.2-.7 1.2 1.7l4.2 4.5 4.3-4.5c2.3-2.4 2.8-3.2 1.1-1.7-1.6 1.5-3.3 2.7-3.7 2.7s-.7-3.8-.7-8.5c0-5-.4-8.5-1-8.5s-1 3.5-1 8.5"/></g><path fill-opacity=".6" d="M22.7 7.7c5.1.2 13.5.2 18.5 0 5.1-.1 1-.3-9.2-.3s-14.3.2-9.3.3M7.5 38.2v18.3h49V38.2l.1-18.2-.3 18-.3 18H8l-.3-18-.3-18z"/><path fill-opacity=".3" d="M13.3 16.7c2.6.2 6.7.2 9 0s.2-.3-4.8-.3-6.8.1-4.2.3m29 0c2.6.2 6.7.2 9 0s.2-.3-4.8-.3c-4.9 0-6.8.1-4.2.3M25 41.4c0 .2.8 1 1.8 1.7 1.5 1.3 1.6 1.2.3-.4S25 40.6 25 41.4m10.9 2.3-2.4 2.8 2.8-2.4c1.5-1.4 2.7-2.6 2.7-2.8 0-.8-.8-.1-3.1 2.4"/></svg>