<svg xmlns="http://www.w3.org/2000/svg" version="1.0" viewBox="0 0 64 64"><path fill-opacity=".1" d="M19.9 11.7c-1.3 1.6-1.2 1.7.4.4s2.1-2.1 1.3-2.1c-.2 0-1 .8-1.7 1.7M42 10.4c0 .2.8 1 1.8 1.7 1.5 1.3 1.6 1.2.3-.4S42 9.6 42 10.4M12.2 23c0 1.4.2 1.9.5 1.2.2-.6.2-1.8 0-2.5-.3-.6-.5-.1-.5 1.3m39 0c0 1.4.2 1.9.5 1.2.2-.6.2-1.8 0-2.5-.3-.6-.5-.1-.5 1.3"/><path fill-opacity=".3" d="m24.3 45.2.2 3.3h15l.1-3.5.2-3.5-.5 3.2-.4 3.3H32c-6.8 0-6.9 0-7.4-3-.6-3-.6-3-.3.2m-.2 8.4c0 1.1.3 1.4.6.6.3-.7.2-1.6-.1-1.9-.3-.4-.6.2-.5 1.3m15 0c0 1.1.3 1.4.6.6.3-.7.2-1.6-.1-1.9-.3-.4-.6.2-.5 1.3"/><path fill-opacity=".6" d="M28.8 56.7c1.7.2 4.7.2 6.5 0 1.7-.2.3-.4-3.3-.4s-5 .2-3.2.4"/><path fill-opacity=".8" d="m29.8 26 2.2 2.4 2.3-2.4 2.2-2.4-2.2 1.8c-2.2 1.9-2.4 1.9-4.5 0l-2.3-1.8zm1 32.7c.6.2 1.8.2 2.5 0 .6-.3.1-.5-1.3-.5s-1.9.2-1.2.5"/><path fill-opacity=".9" d="M20.5 7.9c-.3.5-.2 1.2.3 1.5s.9-.1.9-.9c0-1.7-.3-1.9-1.2-.6m21.8.6c0 .8.4 1.2.9.9s.6-1 .3-1.5c-.9-1.3-1.2-1.1-1.2.6m3.3 3.3c-.3.5.1.9.9.9s1.2-.4.9-.9c-.3-.4-.7-.8-.9-.8s-.6.4-.9.8m-2.1 23.1c-1.5 1.7-1.5 1.9-.1 1.7 2.2-.3 4-2.2 2.8-3-.5-.3-1.7.3-2.7 1.3m-24.1 2.9c.4.3 1.4.7 2.2.8.9.1 1.3 0 1-.4-.4-.3-1.4-.7-2.2-.8-.9-.1-1.3 0-1 .4m9.3 21.7c-.4.8-.3 1.6.1 1.9s.9-.4.9-1.5c.2-2.3-.3-2.5-1-.4m5.6.4c0 1.1.5 1.8.9 1.5s.5-1.1.1-1.9c-.7-2.1-1.2-1.9-1 .4"/><g stroke-width="0"><path d="M27.8 5c-7.6 2.3-12.5 7.7-14.2 15.7-1 4.5.9 10.5 4.9 15.3 3.3 4 3.5 4.6 3.5 11.9 0 7.8.9 10.1 4 10.1.8 0 2.1.9 2.8 2 1.6 2.6 4.8 2.6 6.4 0 .7-1.1 2-2 2.8-2 3.1 0 4-2.3 4-10.5 0-7.8.1-8.3 3.3-12.1 6.3-7.3 6.9-13.7 2.2-21.9C43.8 7 34.3 2.9 27.8 5m11.9 2.6c6.8 3.3 10.5 11.3 8.9 19.6-.3 1.8-2.4 5.5-4.6 8.2-3.3 4-4 5.6-4 9.2V49H24v-3.9c0-3-.9-5.1-4-9.2-4.8-6.3-5.4-8.3-4.8-14.9C16.3 9.3 28.9 2.5 39.7 7.6M40 54v3H24v-6h16zm-5 4.9c0 1.3-2.7 2.1-4.5 1.5-2.5-1-1.7-2.4 1.5-2.4 1.7 0 3 .4 3 .9"/><path d="M28.3 26.8c2.5 2.6 2.7 3.5 2.7 11 0 4.8.4 8.2 1 8.2s1-3.4 1-8.3c0-7.6.2-8.6 2.5-10.7 1.4-1.3 2.3-2.6 2-2.8-.3-.3-1.6.5-3 1.8L32 28.3l-2.3-2.1c-3.4-3.2-4.5-2.7-1.4.6"/></g><path fill-opacity=".7" d="M28 27.5c1.3 1.4 2.6 2.5 2.8 2.5.3 0-.5-1.1-1.8-2.5S26.4 25 26.2 25c-.3 0 .5 1.1 1.8 2.5m6.9.2-2.4 2.8 2.8-2.4c2.5-2.3 3.2-3.1 2.4-3.1-.2 0-1.4 1.2-2.8 2.7"/><path fill-opacity=".4" d="M30.8 6.7c.6.2 1.8.2 2.5 0 .6-.3.1-.5-1.3-.5s-1.9.2-1.2.5"/><path fill-opacity=".5" d="M17.9 9.7c-1.3 1.6-1.2 1.7.4.4.9-.7 1.7-1.5 1.7-1.7 0-.8-.8-.3-2.1 1.3M44 8.4c0 .2.8 1 1.8 1.7 1.5 1.3 1.6 1.2.3-.4S44 7.6 44 8.4"/><path fill-opacity=".2" d="M30.3 38c0 4.7.2 6.6.4 4.2.2-2.3.2-6.1 0-8.5-.2-2.3-.4-.4-.4 4.3m3 0c0 4.7.2 6.6.4 4.2.2-2.3.2-6.1 0-8.5-.2-2.3-.4-.4-.4 4.3m9 10c0 4.1.2 5.8.4 3.7.2-2 .2-5.4 0-7.5-.2-2-.4-.3-.4 3.8m-21 .5c0 3.8.2 5.3.4 3.2.2-2 .2-5.2 0-7-.2-1.7-.4-.1-.4 3.8m7 3.2c2 .2 5.4.2 7.5 0 2-.2.3-.4-3.8-.4s-5.8.2-3.7.4"/></svg>