<svg xmlns="http://www.w3.org/2000/svg" version="1.0" viewBox="0 0 64 64"><path fill-opacity=".9" d="M16.6 24.3c.3 1 .9 1.5 1.2 1.2s0-1.1-.7-1.8c-1-.9-1.1-.8-.5.6"/><path d="M29.3 4.8C27.4 6 21 14.4 21 15.7c0 2.4 1.6 1.3 5.4-3.7C28.5 9.2 31 7 32 7c2.2 0 10 10.1 14.1 18.2 5.3 10.6 4.8 17.6-1.9 25-3.6 4-3.8 5.7-.3 3.9 4.3-2.3 9.1-11.2 9.1-16.8 0-4.2-3.7-13.1-8.4-20.1C36.7 5.5 33 2.4 29.3 4.8M13.6 27.5c-3.7 8.8-2.8 16.3 2.7 23 4.6 5.6 15.3 9.6 17.2 6.5.7-1.1-.3-1.6-5.8-2.5-5-.8-10.2-5.5-12.3-11.2-1.8-4.6-1.7-5.7 1.2-17.1 1-3.6-1.4-2.6-3 1.3"/><path fill-opacity=".8" d="M16 51.4c0 .2.8 1 1.8 1.7 1.5 1.3 1.6 1.2.3-.4S16 50.6 16 51.4"/></svg>