<svg xmlns="http://www.w3.org/2000/svg" version="1.0" viewBox="0 0 64 64"><path fill-opacity=".1" d="M8.2 3.7c2.7.2 6.9.2 9.6 0 2.6-.2.4-.3-4.8-.3s-7.4.1-4.8.3m37.6 0c2.9.2 7.4.2 10 0s.2-.3-5.3-.3-7.6.1-4.7.3M5.4 23c0 9.1.2 12.8.3 8.2.2-4.5.2-11.9 0-16.5-.1-4.5-.3-.8-.3 8.3m53-1c0 8.5.2 12 .3 7.7.2-4.2.2-11.2 0-15.5-.1-4.2-.3-.7-.3 7.8m-45.1 4.7c2 .2 5.4.2 7.5 0 2-.2.3-.4-3.8-.4s-5.8.2-3.7.4M37 49.4c0 .2.8 1 1.8 1.7 1.5 1.3 1.6 1.2.3-.4S37 48.6 37 49.4"/><path fill-opacity=".2" d="M30.4 24c0 8.5.2 12 .3 7.7.2-4.2.2-11.2 0-15.5-.1-4.2-.3-.7-.3 7.8m3 0c0 8.5.2 12 .3 7.7.2-4.2.2-11.2 0-15.5-.1-4.2-.3-.7-.3 7.8m-19.7-4.3c1.8.2 5 .2 7 0 2.1-.2.7-.4-3.2-.4-3.8 0-5.5.2-3.8.4m29 0c1.8.2 5 .2 7 0 2.1-.2.7-.4-3.2-.4-3.8 0-5.5.2-3.8.4m-29.4 2c2 .2 5.4.2 7.5 0 2-.2.3-.4-3.8-.4s-5.8.2-3.7.4m30 0c2 .2 5.4.2 7.5 0 2-.2.3-.4-3.8-.4s-5.8.2-3.7.4m-.9 19.8c0 5.5.1 7.6.3 4.7s.2-7.4 0-10-.3-.2-.3 5.3m1.9-4c0 3.3.2 4.5.4 2.7s.2-4.5 0-6-.4 0-.4 3.3m-32.6 5.2c4.6.2 12 .2 16.6 0 4.5-.1.8-.3-8.3-.3s-12.8.2-8.3.3M39.5 55c1 1.1 2 2 2.3 2s-.3-.9-1.3-2-2-2-2.3-2 .3.9 1.3 2"/><path fill-opacity=".9" d="M40.6 29.8c-.3.5.1.9.9.9s1.2-.4.9-.9c-.3-.4-.7-.8-.9-.8s-.6.4-.9.8m4 0c-.3.5.1.9.9.9s1.2-.4.9-.9c-.3-.4-.7-.8-.9-.8s-.6.4-.9.8M55 43.9c0 .6.4 1.3 1 1.6s.7-.1.4-.9c-.7-1.8-1.4-2.1-1.4-.7m-18.4 3c-.3.4.4 1.7 1.7 2.7 2.2 1.9 2.2 1.9.4-.2-.9-1.1-1.4-2.4-1-2.7.3-.4.4-.7 0-.7-.3 0-.8.4-1.1.9m0 8.2c2.6 2.7 5.2 4.6 5.7 4.2 1.2-.7-6.9-9-8.9-9-.9 0 .4 2 3.2 4.8m1.9-.1c2.1 2.2 3.7 4 3.4 4s-2.3-1.8-4.4-4-3.7-4-3.4-4 2.3 1.8 4.4 4m19.6 3.4c-.8 1-.9 1.6-.1 2.1.6.4.9.1.8-.7-.2-.7.3-1.2 1-1 .8.1 1.1-.2.7-.8-.8-1.3-1-1.3-2.4.4"/><g stroke-width="0"><path d="M3.5 5.2c-.3.7-.4 9.2-.3 18.8l.3 17.5 16.3.3C30.4 42 36 41.7 36 41c0-.5-.7-1-1.5-1-1.3 0-1.5-2.4-1.5-16V8l2.6-1c1.4-.6 7.2-1 13-1H59v15.4c0 9.5.4 15.7 1 16.1.7.4 1-4.9.8-16.2l-.3-16.8-10.1-.3c-7-.2-11.5.2-14.5 1.2-3.3 1.1-4.7 1.2-6.3.4-1.2-.7-7.4-1.4-13.8-1.6-9.5-.4-11.9-.2-12.3 1M28.4 7 31 8v32H5V6h10.4c5.8 0 11.6.4 13 1"/><path d="M10 13c0 .6 3 1 6.9 1s7.3-.5 7.6-1c.4-.6-2.2-1-6.9-1-4.4 0-7.6.4-7.6 1m0 5c0 .6 3.2 1 7.5 1s7.5-.4 7.5-1-3.2-1-7.5-1-7.5.4-7.5 1m0 5c0 .6 3.2 1 7.5 1s7.5-.4 7.5-1-3.2-1-7.5-1-7.5.4-7.5 1m0 5c0 .6 3.2 1 7.6 1 4.7 0 7.3-.4 6.9-1-.3-.6-3.7-1-7.6-1s-6.9.4-6.9 1m.5 5c-.4.6 2.2 1 7 1s7.4-.4 7-1c-.3-.6-3.5-1-7-1s-6.7.4-7 1m29-20c.3.5 3.7 1 7.6 1s6.9-.4 6.9-1-3.2-1-7.6-1c-4.7 0-7.3.4-6.9 1m-.5 5c0 .6 3.2 1 7.5 1s7.5-.4 7.5-1-3.2-1-7.5-1-7.5.4-7.5 1m0 5c0 .6 3.2 1 7.5 1s7.5-.4 7.5-1-3.2-1-7.5-1-7.5.4-7.5 1m2.2 7.2c-.7.7-1.2 4.4-1.2 9.5V48l-2.5-1.2c-2.1-1-2.9-.9-4.3.6-1.6 1.6-1.3 2 4.9 8.1l6.7 6.5h6c5.1 0 6.3-.4 8.6-2.7 2.5-2.4 2.7-3.2 2.4-9.7-.3-6.2-.6-7.1-2.3-7.4-1.1-.2-2.7-.6-3.5-.9-.8-.4-2.2-.8-3-.8-4.7-.6-6-1.7-6-5.4S45.6 29 43.5 29c-.6 0-1.6.5-2.3 1.2M45 37c0 4 .4 7 1 7s1-.6 1-1.4c0-2.4 2.1-3 2.7-.7.5 2.1 2.3 3 2.3 1.1 0-1.6 3-1.1 3.7.6.4 1.2.8 1.3 1.3.3.5-.6 1.6-.9 2.5-.5 1.5.5 1.7 1.7 1.3 7.1-.2 4.1-1 7.1-2 8.1-1.8 1.8-8.6 2.9-12.3 2C43 59.7 34 51.3 34 48.9c0-2.5 2.2-2.4 4.5.1 1 1.1 2.2 2 2.7 2 .4 0 .8-4.7.8-10.5 0-8.7.3-10.5 1.5-10.5s1.5 1.4 1.5 7"/></g><path fill-opacity=".7" d="M62.3 49.5c0 2.7.2 3.8.4 2.2.2-1.5.2-3.7 0-5-.2-1.2-.4 0-.4 2.8M48.8 62.7c1.2.2 3 .2 4 0 .9-.3-.1-.5-2.3-.4-2.2 0-3 .2-1.7.4"/><path fill-opacity=".4" d="M2.4 23c0 10.2.2 14.3.3 9.2.2-5 .2-13.4 0-18.5-.1-5-.3-.9-.3 9.3m59-2c0 9.1.2 12.8.3 8.2.2-4.5.2-11.9 0-16.5-.1-4.5-.3-.8-.3 8.3M9.2 6.7c2.7.2 6.9.2 9.6 0 2.6-.2.4-.3-4.8-.3s-7.4.1-4.8.3m35.6 0c2.9.2 7.4.2 10 0s.2-.3-5.3-.3-7.6.1-4.7.3m-31 5c2.3.2 5.9.2 8 0 2-.2.1-.4-4.3-.4s-6.1.2-3.7.4m29 0c2.3.2 5.9.2 8 0 2-.2.1-.4-4.3-.4s-6.1.2-3.7.4m-29.5 18c2 .2 5.4.2 7.5 0 2-.2.3-.4-3.8-.4s-5.8.2-3.7.4"/><path fill-opacity=".8" d="M50.7 40.1c.7.7 1.5 1 1.8.7s-.2-.9-1.2-1.2c-1.4-.6-1.5-.5-.6.5m9.6 9.4c0 2.7.2 3.8.4 2.2.2-1.5.2-3.7 0-5-.2-1.2-.4 0-.4 2.8M48.8 60.7c1.2.2 3 .2 4 0 .9-.3-.1-.5-2.3-.4-2.2 0-3 .2-1.7.4"/><path fill-opacity=".5" d="M13.3 34.7c2 .2 5.4.2 7.5 0 2-.2.3-.4-3.8-.4s-5.8.2-3.7.4"/><path fill-opacity=".3" d="M13.3 16.7c2 .2 5.4.2 7.5 0 2-.2.3-.4-3.8-.4s-5.8.2-3.7.4m30 0c2 .2 5.4.2 7.5 0 2-.2.3-.4-3.8-.4s-5.8.2-3.7.4m-30 8c2 .2 5.4.2 7.5 0 2-.2.3-.4-3.8-.4s-5.8.2-3.7.4m30 0c2 .2 5.4.2 7.5 0 2-.2.3-.4-3.8-.4s-5.8.2-3.7.4m4 9.8c0 2.2.2 3 .4 1.7.2-1.2.2-3 0-4-.3-.9-.5.1-.4 2.3m-8 5c0 4.4.2 6.1.4 3.7.2-2.3.2-5.9 0-8-.2-2-.4-.1-.4 4.3m-27.5.2c3.4.2 9 .2 12.5 0 3.4-.2.6-.3-6.3-.3s-9.7.1-6.2.3M36 55.2c2.4 2.7 4.5 4.8 4.7 4.8.8 0 0-.9-4.4-5l-4.8-4.5z"/></svg>