<svg xmlns="http://www.w3.org/2000/svg" version="1.0" viewBox="0 0 64 64"><path fill-opacity=".9" d="M53.6 11.8c-.3.5.1.9.9.9s1.2-.4.9-.9c-.3-.4-.7-.8-.9-.8s-.6.4-.9.8"/><path d="M59.9 1.2c0 .2-.2 1.1-.4 2-.4 2.3-8.4 13.5-10 14.2-1.3.5-18.3-4.5-22.2-6.6-2.8-1.4-4.1-.3-2.6 2.1 1.3 2 7.6 24.1 7.1 24.6-.2.3-5.2.5-11.1.7-9.1.3-10.7.5-10.7 1.9 0 1.9-5.5 15.5-7.5 18.6-2 3-1.9 4.5.2 4.1 1-.2 1.7-1 1.6-1.6-.4-1.6 6.6-18.9 8.1-20.1.6-.6 6-1.1 11.9-1.3 10.3-.3 12.1-.9 9.8-3.4-1.2-1.2-7.4-22.5-6.7-23.1.6-.6 19.6 5.6 21.3 6.9 1.4 1.1 3.3.2 3.3-1.4 0-1.8 8-13.6 9.6-14.2 1.9-.7 1.8-3.6-.1-3.6-.8 0-1.5.1-1.6.2"/></svg>