<svg xmlns="http://www.w3.org/2000/svg" version="1.0" viewBox="0 0 64 64"><path fill-opacity=".6" d="M21.8 16.7c5.6.2 14.8.2 20.5 0 5.6-.1 1-.3-10.3-.3s-15.9.2-10.2.3m8.7 14.5-7 7.3 7.3-7c6.7-6.4 7.7-7.5 6.9-7.5-.1 0-3.4 3.3-7.2 7.2m2 2-7 7.3 7.3-7c6.7-6.4 7.7-7.5 6.9-7.5-.1 0-3.4 3.3-7.2 7.2M21.8 47.7c5.6.2 14.8.2 20.5 0 5.6-.1 1-.3-10.3-.3s-15.9.2-10.2.3"/><path fill-opacity=".8" d="M29 29.5c-4.1 4.1-7.2 7.5-6.9 7.5.2 0 3.8-3.4 7.9-7.5s7.2-7.5 6.9-7.5c-.2 0-3.8 3.4-7.9 7.5m5 5c-4.1 4.1-7.2 7.5-6.9 7.5.2 0 3.8-3.4 7.9-7.5s7.2-7.5 6.9-7.5c-.2 0-3.8 3.4-7.9 7.5"/><path fill-opacity=".2" d="M15.8 10.7c.7.3 1.6.2 1.9-.1.4-.3-.2-.6-1.3-.5-1.1 0-1.4.3-.6.6m31 0c.7.3 1.6.2 1.9-.1.4-.3-.2-.6-1.3-.5-1.1 0-1.4.3-.6.6"/><path fill-opacity=".5" d="M11.4 32c0 8.5.2 12 .3 7.7.2-4.2.2-11.2 0-15.5-.1-4.2-.3-.7-.3 7.8m41 0c0 8.5.2 12 .3 7.7.2-4.2.2-11.2 0-15.5-.1-4.2-.3-.7-.3 7.8"/><g stroke-width="0"><path d="M2.1 7.4C1.2 8.5 1 10 1.5 12.2c.4 1.8.6 5.5.5 8.3-.3 6.3-.3 16.5 0 23 .1 2.7-.1 6.6-.5 8.6-1.1 5.5.9 6.5 9.6 4.9 5.5-1.1 7.5-1.1 9-.2 2.4 1.5 4.4 1.5 8.5 0 2.6-.9 4.1-.9 7.2.1 3.1 1.1 4.7 1.1 7.6.1 2.9-.9 5.1-.9 10.1.1 8 1.6 10 .5 9-5-.4-2-.6-5.9-.5-8.6.3-6.5.3-16.7 0-23-.1-2.8.1-6.5.5-8.3 1.1-4.8-.8-6.6-6-5.7-2.2.4-5.5.9-7.3 1.2-1.9.3-4.4 0-5.7-.7-1.5-.8-3.4-1-5.2-.5-1.5.4-4.6.7-6.8.6-3.9-.1-8.6-.1-15.5.1-1.9.1-5.5-.2-8-.6-3.6-.7-4.8-.5-5.9.8m9.3 1.1c4.5 1.4 5.4 1.4 9.3-.1 4.1-1.6 4.5-1.6 7.7.1 3.1 1.7 3.5 1.7 7.8.1 4.3-1.7 4.7-1.7 7.8-.1s3.7 1.6 9.1 0c4.8-1.5 6.1-1.6 7.4-.5 1.9 1.6 1.9 3.3 0 7-1.4 2.7-1.4 3.6.1 9.6 1.5 5.7 1.5 7.5.4 12.8-1.6 7.8-1.6 9.4.1 13.3 1.2 2.9 1.1 3.5-.3 4.9-1.6 1.6-2.1 1.6-7.5.1-5.5-1.6-6.2-1.6-10.1-.1-3.8 1.6-4.4 1.6-7.7 0s-3.9-1.6-7.9-.1c-4 1.6-4.6 1.6-7.5 0-2.9-1.5-3.6-1.5-9.1.1-4.8 1.3-6.3 1.4-7.5.4-1.9-1.6-1.9-3.3 0-7 1.3-2.5 1.3-3.6-.2-9.5-1.4-5.8-1.4-7.4-.2-13.8 1.5-8.1 1.5-8-.2-12.4-1-2.6-1-3.4 0-4.7 1.6-2 2.3-2 8.5-.1"/><path d="m9.2 31.7.3 16.8h45v-33l-22.8-.3L9 15zM53 32v16H11V16h42z"/><path d="M30.4 29.2c-4.8 4.9-8.4 9.5-8.8 11.2-.7 2.7-.6 2.8 2.1 2.2 1.6-.4 6.4-4.3 11.3-9.2 7.2-7.1 8.3-8.7 7.4-10.2-.6-.9-1.7-1.8-2.5-2-.8-.1-5.1 3.5-9.5 8m9.6-3.9c0 .7-3.1 4.4-7 8.2-5.5 5.5-7.2 6.7-8.2 5.7s.2-2.7 5.7-8.2c6.7-6.7 9.5-8.4 9.5-5.7"/></g><path fill-opacity=".9" d="M17 14.7c18.4.7 37.8.7 37.3 0-.2-.4-10.4-.6-22.6-.5s-18.8.3-14.7.5M.2 32c0 1.4.2 1.9.5 1.2.2-.6.2-1.8 0-2.5-.3-.6-.5-.1-.5 1.3m63 0c0 1.4.2 1.9.5 1.2.2-.6.2-1.8 0-2.5-.3-.6-.5-.1-.5 1.3M9.7 49.2c.6 1 44 1 44.6 0 .3-.4-9.8-.7-22.3-.7s-22.6.3-22.3.7"/></svg>