<svg xmlns="http://www.w3.org/2000/svg" version="1.0" viewBox="0 0 64 64"><path fill-opacity=".7" d="M10.2 32c0 1.9.2 2.7.5 1.7.2-.9.2-2.5 0-3.5-.3-.9-.5-.1-.5 1.8"/><path fill-opacity=".8" d="M5.4 6.4c-.3.7-.3 4-.1 7.2l.3 5.9.2-6.7.2-6.7 6.8-.4 6.7-.3-6.8-.2c-4.9-.1-6.9.2-7.3 1.2m46.3-.7 6.2.4.4 6.7.4 6.7-.1-7-.1-7-6.5-.1h-6.5zM12.2 32c0 1.9.2 2.7.5 1.7.2-.9.2-2.5 0-3.5-.3-.9-.5-.1-.5 1.8M5.4 52l.1 6.5 6.5.1h6.5l-6.2-.3-6.2-.4-.4-6.2-.3-6.2zm52.8-.8-.2 6.7-6.7.4-6.8.3 6.8.2c7.9.2 8 .1 7.4-8.4l-.3-5.9z"/><path fill-opacity=".1" d="M28.2 32c0 1.9.2 2.7.5 1.7.2-.9.2-2.5 0-3.5-.3-.9-.5-.1-.5 1.8"/><path d="m6.2 12.7.2 6.8.3-6.2.4-6.2 6.2-.4 6.2-.3-6.7-.2L6 6zm44.5-6 6.2.4.4 6.2.3 6.2.2-6.8L58 6l-6.7.2-6.8.2zM12.6 25.6c-2.1 2.1-2.1 10.7 0 12.8 2 2.1 6.8 2 8.5-.1 1.8-2.1 1.8-10.5 0-12.6-1.7-2.1-6.5-2.2-8.5-.1m7.2.6c1.6 1.6 1.6 10 0 11.6-3.3 3.3-7.8-.1-7.8-5.8s4.5-9.1 7.8-5.8m7.8 0c-2 2.9-2 8.7 0 11.6s6.8 3 8.8 0c.9-1.2 1.3-2.4 1.1-2.7-.3-.3-1.2.5-2.1 1.7-3.3 4.7-7.4 2-7.4-4.8s4.1-9.5 7.4-4.8c.9 1.2 1.8 2 2.1 1.7.2-.3-.2-1.5-1.1-2.7-2-3-6.8-2.9-8.8 0M41 32c0 4.7.4 8 1 8s1-1.6 1-3.5c0-3.2.2-3.5 2.9-3.5 2.5 0 3.1.6 4.1 3.6.7 1.9 1.4 3.3 1.7 3s0-1.9-.7-3.6c-1.1-2.6-1-3.3.4-4.9 3.6-4 1.2-7.1-5.6-7.1H41zm10-5.5c2.1 2.6.4 4.5-4 4.5-3.8 0-4-.2-4-3 0-2.7.3-3 3.4-3 1.8 0 3.9.7 4.6 1.5M6.2 51.2 6 58l6.8-.2 6.7-.2-6.2-.3-6.2-.4-.4-6.2-.3-6.2zM57 51v5.9l-6.2.4-6.3.3 6.8.2 6.7.2v-6.5c0-3.6-.2-6.5-.5-6.5s-.5 2.7-.5 6"/><path fill-opacity=".2" d="M45.3 30.7c.9.2 2.3.2 3 0 .6-.3-.1-.5-1.8-.5-1.6 0-2.2.2-1.2.5m-.5 3c.6.2 1.8.2 2.5 0 .6-.3.1-.5-1.3-.5s-1.9.2-1.2.5"/><path fill-opacity=".6" d="M7.4 8.4c-.3.7-.3 3.5-.1 6.2l.3 4.9.2-5.7.2-5.7 5.8-.4 5.7-.3-5.8-.2c-4.1-.1-5.9.2-6.3 1.2m43-.7 5.5.4.4 5.5.4 5.4-.1-5.7-.1-5.8-5.8-.1-5.7-.1zm-5.1 18c.9.2 2.3.2 3 0 .6-.3-.1-.5-1.8-.5-1.6 0-2.2.2-1.2.5m-37.9 25 .1 5.8 5.8.1 5.7.1-5.4-.4-5.5-.4-.4-5.5-.4-5.4zm48.8-.5-.2 5.7-5.7.4-5.8.3 5.8.2c6.6.2 7-.2 6.4-7.4l-.3-4.9z"/><path fill-opacity=".5" d="M43.2 28c0 1.4.2 1.9.5 1.2.2-.6.2-1.8 0-2.5-.3-.6-.5-.1-.5 1.3m-23 4c0 1.9.2 2.7.5 1.7.2-.9.2-2.5 0-3.5-.3-.9-.5-.1-.5 1.8m23 5c0 1.9.2 2.7.5 1.7.2-.9.2-2.5 0-3.5-.3-.9-.5-.1-.5 1.8"/><path fill-opacity=".9" d="M42.8 23.7c1.2.2 3.2.2 4.5 0 1.2-.2.2-.4-2.3-.4s-3.5.2-2.2.4m7.8 6.2c-.4.5-.2 1.2.3 1.5.5.4 1.2.2 1.5-.3.4-.5.2-1.2-.3-1.5-.5-.4-1.2-.2-1.5.3"/><path fill-opacity=".4" d="M25.2 32c0 1.4.2 1.9.5 1.2.2-.6.2-1.8 0-2.5-.3-.6-.5-.1-.5 1.3"/></svg>