<svg xmlns="http://www.w3.org/2000/svg" version="1.0" viewBox="0 0 64 64"><path fill-opacity=".6" d="M18.8 21.7c.7.3 1.6.2 1.9-.1.4-.3-.2-.6-1.3-.5-1.1 0-1.4.3-.6.6m23.3 22.9c0 1.1.3 1.4.6.6.3-.7.2-1.6-.1-1.9-.3-.4-.6.2-.5 1.3"/><path d="M40.9 7.3c-1.3 1.7-2.6 4.1-2.9 5.2-.8 2.9-8 6.2-15.5 7-6 .6-6.5.9-7.1 3.3C14.5 27 8.3 48 6.1 54.2l-1.9 5.6 5.6-1.9c6.2-2.1 27.2-8.4 31.3-9.3 2.4-.5 2.7-1.1 3.4-7 .8-7.5 4.1-14.9 6.9-15.5 2.3-.4 9.8-5.2 9.2-5.8-.2-.3-2.3.6-4.5 1.9l-4 2.3-6.1-6c-3.3-3.3-6-6.3-6-6.8s.9-2.2 2.1-3.9c2.9-4 1.8-4.6-1.2-.5m6.5 20.4C44.5 32 43 37.1 43 42.6v4.1L34.3 49c-4.9 1.3-11.9 3.4-15.7 4.7-3.8 1.2-7.7 2.3-8.5 2.3-.9 0 2.7-4.3 7.9-9.5 7.2-7.2 10.1-9.5 12.1-9.5 3.3 0 5.3-2.2 4.4-4.9-1.5-4.7-9.1-2.5-7.9 2.3.4 1.6-1.5 4-8.5 11-5 5-9.3 8.7-9.6 8.4-.4-.3.7-4.9 2.4-10.1s3.8-12.5 4.7-16.1l1.6-6.6h4.2c5.5 0 10.6-1.5 14.7-4.4l3.4-2.3 5.1 4.9 5.2 5zm-14.6 5.5c-.2 1.5-1 2.3-2.3 2.3s-2.1-.8-2.3-2.3c-.3-1.8.1-2.2 2.3-2.2s2.6.4 2.3 2.2"/><path fill-opacity=".4" d="M44 19.2c2.4 2.7 4.5 4.8 4.7 4.8.8 0 0-.9-4.4-5l-4.8-4.5z"/><path fill-opacity=".2" d="M46 17.5c3 3 5.7 5.5 5.9 5.5.3 0-1.9-2.5-4.9-5.5S41.3 12 41.1 12c-.3 0 1.9 2.5 4.9 5.5"/><path fill-opacity=".9" d="M40.5 7.1c-.3.4.2.6 1 .5 2.1-.3 2.8-1.3 1-1.3-.9 0-1.8.4-2 .8m5 10.9c3.3 3.3 6.2 6 6.4 6 .3 0-2.1-2.7-5.4-6s-6.2-6-6.4-6c-.3 0 2.1 2.7 5.4 6m-18 11.9c-.3.5-.2 1.2.3 1.5s.9-.1.9-.9c0-1.7-.3-1.9-1.2-.6M18 44.5c-4.6 4.6-8.5 9.2-8.6 10.1-.2 1 4-2.5 9.1-7.6 5.2-5.2 9.2-9.7 8.9-10.2-.3-.4-.6-.8-.7-.8s-4 3.8-8.7 8.5m9-7.2c0 .1-3.9 4.1-8.7 8.7l-8.8 8.5 8.5-8.8c7.9-8.1 9-9.2 9-8.4"/><path fill-opacity=".8" d="M17.3 19.7c.9.2 2.3.2 3 0 .6-.3-.1-.5-1.8-.5-1.6 0-2.2.2-1.2.5m26.9 25.8c0 1.6.2 2.2.5 1.2.2-.9.2-2.3 0-3-.3-.6-.5.1-.5 1.8"/><path fill-opacity=".3" d="m17 44.7-8.5 8.8 8.8-8.5c8.1-7.9 9.2-9 8.4-9-.1 0-4.1 3.9-8.7 8.7m2 2-8.5 8.8 8.8-8.5c8.1-7.9 9.2-9 8.4-9-.1 0-4.1 3.9-8.7 8.7"/></svg>