<svg xmlns="http://www.w3.org/2000/svg" version="1.0" viewBox="0 0 64 64"><path fill-opacity=".8" d="M5.4 30.5c0 17.1.2 24.2.3 15.8.2-8.3.2-22.3 0-31-.1-8.7-.3-1.9-.3 15.2"/><g stroke-width="0"><path d="M6 30.5V61h13c8 0 13-.4 13-1s-4.8-1-12.5-1H7V2h24v18h18v6c0 3.3.4 6 1 6s1-2.8 1-6.3v-6.2l-9.8-9.8L31.5 0H6zM40.5 11l6.9 7H33v-7c0-3.9.1-7 .3-7 .1 0 3.4 3.1 7.2 7"/><path d="m43.6 38-1.8 5h-6.2l-6.1.1 2.5 2.1c1.4 1.1 3.5 2.9 4.8 3.9 2.2 1.7 2.3 1.9.8 7.3-.8 3.1-1.2 5.6-.9 5.6.2 0 2.4-1.4 4.8-3l4.4-3 4.7 3c2.6 1.6 4.9 2.8 5 2.7.2-.2-.3-2.6-1-5.5L53.2 51l4.6-3.9 4.7-4-6.2-.1h-6.1l-1.7-5c-.9-2.8-2-5-2.4-5s-1.5 2.2-2.5 5m4.4 2.4c1 3 1.6 3.5 5.7 4.1l4.7.7-3.3 2.5c-3.1 2.4-3.2 2.9-2.6 7.1l.7 4.5-3.3-2.4-3.2-2.3-3.9 2.2-3.9 2.1.6-4.3c.6-4 .5-4.5-2.6-6.9l-3.3-2.5 4.7-.7c4.1-.6 4.7-1.1 5.7-4.1.7-1.9 1.5-3.4 2-3.4s1.3 1.5 2 3.4"/></g><path fill-opacity=".1" d="M41.5 9c4.9 4.9 9.2 9 9.5 9 .2 0-3.6-4.1-8.5-9-4.9-5-9.2-9-9.5-9-.2 0 3.6 4 8.5 9m7.2 24.1c.7.7 1.5 1 1.8.7s-.2-.9-1.2-1.2c-1.4-.6-1.5-.5-.6.5M28 43.1c0 .5.5.7 1 .4.6-.3 1-.8 1-1.1 0-.2-.4-.4-1-.4-.5 0-1 .5-1 1.1M13.8 58.7c3.4.2 9 .2 12.5 0 3.4-.2.6-.3-6.3-.3s-9.7.1-6.2.3"/><path fill-opacity=".9" d="M41.5 10c4.9 4.9 9.2 9 9.5 9 .2 0-3.6-4.1-8.5-9-4.9-5-9.2-9-9.5-9-.2 0 3.6 4 8.5 9m-7.9 35.9c-.4.5-.2 1.2.3 1.5.5.4 1.2.2 1.5-.3.4-.5.2-1.2-.3-1.5-.5-.4-1.2-.2-1.5.3m22.9 0c-.3.5-.2 1.2.3 1.5s.9-.1.9-.9c0-1.7-.3-1.9-1.2-.6m-18.1 4.2c-.4.7-.3.9.4.5.5-.3 1.3 0 1.5.6.4.9.6 1 .6.1.1-1.7-1.6-2.5-2.5-1.2m13.1 0c-.4.6-.5 1.2-.2 1.5.2.3.7-.2 1-1.1.7-1.7.1-2-.8-.4m-6.8 6c.7.7 1.5 1 1.8.7s-.2-.9-1.2-1.2c-1.4-.6-1.5-.5-.6.5"/><path fill-opacity=".5" d="M13.2 2.7c3.2.2 8.4.2 11.5 0 3.2-.2.6-.3-5.7-.3s-8.9.1-5.8.3M39.5 11c3.3 3.3 6.2 6 6.4 6 .3 0-2.1-2.7-5.4-6s-6.2-6-6.4-6c-.3 0 2.1 2.7 5.4 6"/><path fill-opacity=".6" d="M7.4 30.5c0 15.4.2 21.6.3 13.7.2-7.9.2-20.5 0-28-.1-7.5-.3-1.1-.3 14.3"/><path fill-opacity=".2" d="M30.4 11.5c0 4.9.1 7.1.3 4.8s.2-6.4 0-9-.3-.8-.3 4.2m2.9-.5c0 3.6.2 5 .4 3.2.2-1.7.2-4.7 0-6.5-.2-1.7-.4-.3-.4 3.3m18 14.5c0 3.8.2 5.3.4 3.2.2-2 .2-5.2 0-7-.2-1.7-.4-.1-.4 3.8M60 42.4c0 .2.9.6 2 .9s1.8.1 1.4-.4c-.5-.9-3.4-1.3-3.4-.5"/><path fill-opacity=".3" d="M48.3 26.5c0 3.3.2 4.5.4 2.7s.2-4.5 0-6-.4 0-.4 3.3"/><path fill-opacity=".4" d="M35.3 20.7c2.6.2 6.7.2 9 0s.2-.3-4.8-.3c-4.9 0-6.8.1-4.2.3m-24.1 41c3.7.2 10 .2 14 0 4-.1 1-.3-6.7-.3s-11 .1-7.3.3"/></svg>