<svg xmlns="http://www.w3.org/2000/svg" version="1.0" viewBox="0 0 64 64"><path fill-opacity=".5" d="M38.8 34.7c2.8.2 7.6.2 10.5 0 2.8-.2.5-.3-5.3-.3s-8.1.1-5.2.3"/><path fill-opacity=".8" d="M19.3 5.7c7 .2 18.4.2 25.5 0 7-.1 1.2-.3-12.8-.3s-19.8.2-12.7.3M5.4 32c0 14 .2 19.8.3 12.8.2-7.1.2-18.5 0-25.5-.1-7.1-.3-1.3-.3 12.7m53 0c0 14 .2 19.8.3 12.8.2-7.1.2-18.5 0-25.5-.1-7.1-.3-1.3-.3 12.7m-5 6.2-1.9 2.3 2.5-2c1.4-1.1 2.7-2.1 2.9-2.2q.3-.3-.6-.3c-.5 0-1.8 1-2.9 2.2m-7.5 4.5c-1.3 1.6-1.2 1.7.4.4s2.1-2.1 1.3-2.1c-.2 0-1 .8-1.7 1.7m-26.6 16c7 .2 18.4.2 25.5 0 7-.1 1.2-.3-12.8-.3s-19.8.2-12.7.3"/><path d="M6 32v26h52V6H6zm51-12.5V32H45.9c-6.1 0-11.9.5-13 1-1.7 1-1.9 2.2-1.9 12.5V57H7V7h50zm-8 21.1c-3.6 3.6-8.6 8.4-11.2 10.6l-4.8 4V34h22.4zm8 5.9V57H46c-6 0-11-.3-11-.8 0-.9 20.2-20.1 21.3-20.2.4 0 .7 4.7.7 10.5"/><g fill-opacity=".6" stroke-opacity=".6" stroke-width="0"><path d="M7.5 8.3c-.3.7-.4 11.8-.3 24.7l.3 23.5 11.3.1H30l-11-.3-11-.4V8h47.9l.4 12.2.3 12.3V20l-.1-12.5-24.3-.3C13.1 7 7.8 7.2 7.5 8.3"/><path d="M51.9 36.7c-1.3 1.6-1.2 1.7.4.4.9-.7 1.7-1.5 1.7-1.7 0-.8-.8-.3-2.1 1.3m4.3 9.5-.2 9.7-10.2.4-10.3.3 10.3.2c7.8.1 10.4-.1 10.8-1.1.3-.8.3-5.4.1-10.3l-.3-8.9z"/></g><path fill-opacity=".2" d="M33.4 44.5c0 5.5.1 7.6.3 4.7s.2-7.4 0-10-.3-.2-.3 5.3m7.5 2.2c-1.3 1.6-1.2 1.7.4.4s2.1-2.1 1.3-2.1c-.2 0-1 .8-1.7 1.7"/><path fill-opacity=".9" d="M41 47.5c-1.9 1.9-3 3.5-2.5 3.5s-.2 1.2-1.6 2.7c-1.3 1.6-.5 1 1.8-1.1 2.4-2.2 4-4.2 3.8-4.5-.3-.2.2-1.3 1.2-2.3 2.9-3.2.8-1.9-2.7 1.7m1 .9c0 .2-.8 1-1.7 1.7-1.6 1.3-1.7 1.2-.4-.4s2.1-2.1 2.1-1.3"/><path fill-opacity=".3" d="M30.4 45.5c0 6 .1 8.4.3 5.2s.2-8.1 0-11-.3-.3-.3 5.8m10.5 5.2c-1.3 1.6-1.2 1.7.4.4s2.1-2.1 1.3-2.1c-.2 0-1 .8-1.7 1.7"/><path fill-opacity=".1" d="M43.9 43.7c-1.3 1.6-1.2 1.7.4.4s2.1-2.1 1.3-2.1c-.2 0-1 .8-1.7 1.7"/><path fill-opacity=".7" d="M48.9 39.7c-1.3 1.6-1.2 1.7.4.4s2.1-2.1 1.3-2.1c-.2 0-1 .8-1.7 1.7m1 2c-1.3 1.6-1.2 1.7.4.4.9-.7 1.7-1.5 1.7-1.7 0-.8-.8-.3-2.1 1.3"/><path fill-opacity=".4" d="M35.9 51.7c-1.3 1.6-1.2 1.7.4.4s2.1-2.1 1.3-2.1c-.2 0-1 .8-1.7 1.7"/></svg>