<svg xmlns="http://www.w3.org/2000/svg" version="1.0" viewBox="0 0 64 64"><path fill-opacity=".2" d="M53.9 14.7c-1.3 1.6-1.2 1.7.4.4.9-.7 1.7-1.5 1.7-1.7 0-.8-.8-.3-2.1 1.3m-5 1c-1.3 1.6-1.2 1.7.4.4.9-.7 1.7-1.5 1.7-1.7 0-.8-.8-.3-2.1 1.3"/><path fill-opacity=".4" d="M18.3 2.7c7.5.2 19.9.2 27.5 0 7.5-.1 1.3-.3-13.8-.3s-21.3.2-13.7.3"/><path fill-opacity=".9" d="M10.6 15.2c1.5 1.5 3 2.6 3.2 2.3.3-.3 1.2.1 2.1.7.9.7.1-.4-1.7-2.3-1.8-2-3.9-3.6-4.8-3.6-1 0-.6.9 1.2 2.9m1.9-.2c1 1.1 1.6 2 1.3 2s-1.3-.9-2.3-2-1.6-2-1.3-2 1.3.9 2.3 2m37.3.9c-1.8 1.9-2.6 3-1.7 2.3.9-.6 1.8-1 2.1-.7.2.3 1.7-.8 3.2-2.3 1.8-2 2.2-2.9 1.2-2.9-.9 0-3 1.6-4.8 3.6m4.2-2.6c0 .2-1 1.2-2.2 2.3l-2.3 1.9 1.9-2.3c1.8-2.1 2.6-2.7 2.6-1.9"/><path d="M4.7 3.7C3 5.4 4.7 8 14.5 18.5L25 29.8v23.1l6.8 4 6.7 4.1.3-15.6.3-15.7 10.5-11.3C56.5 11 60 6.5 59.8 5.3c-.3-1.7-2.3-1.8-27.4-2.1-14.9-.1-27.3.1-27.7.5M58 6.4c0 .8-4.5 6.2-10.1 12L37.8 29H26.2L16.1 18.4C10.5 12.6 6 7.2 6 6.4 6 5.2 10.2 5 32 5s26 .2 26 1.4M38 44c0 10.6-.3 14-1.2 13.9-.7 0-3.3-1.3-5.8-2.8l-4.5-2.7-.3-11.2-.3-11.2H38z"/><path fill-opacity=".1" d="M3.2 6c0 1.4.2 1.9.5 1.2.2-.6.2-1.8 0-2.5-.3-.6-.5-.1-.5 1.3m57 0c0 1.4.2 1.9.5 1.2.2-.6.2-1.8 0-2.5-.3-.6-.5-.1-.5 1.3m-40.9-.3c7 .2 18.4.2 25.5 0 7-.1 1.2-.3-12.8-.3s-19.8.2-12.7.3M6.5 12c1 1.1 2 2 2.3 2s-.3-.9-1.3-2-2-2-2.3-2 .3.9 1.3 2m50.4-.3c-1.3 1.6-1.2 1.7.4.4s2.1-2.1 1.3-2.1c-.2 0-1 .8-1.7 1.7M16 17.4c0 .2.8 1 1.8 1.7 1.5 1.3 1.6 1.2.3-.4S16 16.6 16 17.4m29.9 1.3c-1.3 1.6-1.2 1.7.4.4s2.1-2.1 1.3-2.1c-.2 0-1 .8-1.7 1.7m-5 10c-1.3 1.6-1.2 1.7.4.4.9-.7 1.7-1.5 1.7-1.7 0-.8-.8-.3-2.1 1.3"/><path fill-opacity=".6" d="M22 24.4c0 .2.8 1 1.8 1.7 1.5 1.3 1.6 1.2.3-.4S22 23.6 22 24.4m2.4 17.1c0 6.6.1 9.2.3 5.7.2-3.4.2-8.8 0-12-.2-3.1-.3-.3-.3 6.3m15 3.5c0 8.5.2 12 .3 7.8.2-4.3.2-11.3 0-15.6-.1-4.2-.3-.7-.3 7.8"/><path fill-opacity=".7" d="M18 23.4c0 .2.8 1 1.8 1.7 1.5 1.3 1.6 1.2.3-.4S18 22.6 18 23.4m25.9 1.3c-1.3 1.6-1.2 1.7.4.4.9-.7 1.7-1.5 1.7-1.7 0-.8-.8-.3-2.1 1.3m-14.6 6c1.5.2 3.9.2 5.5 0 1.5-.2.2-.4-2.8-.4s-4.3.2-2.7.4"/><path fill-opacity=".8" d="M5 9.4c0 .2.8 1 1.8 1.7 1.5 1.3 1.6 1.2.3-.4S5 8.6 5 9.4m51.9 1.3c-1.3 1.6-1.2 1.7.4.4.9-.7 1.7-1.5 1.7-1.7 0-.8-.8-.3-2.1 1.3M17 19.4c0 .2.8 1 1.8 1.7 1.5 1.3 1.6 1.2.3-.4S17 18.6 17 19.4m27.9 1.3c-1.3 1.6-1.2 1.7.4.4s2.1-2.1 1.3-2.1c-.2 0-1 .8-1.7 1.7M21 26.4c0 .2.8 1 1.8 1.7 1.5 1.3 1.6 1.2.3-.4S21 25.6 21 26.4m19.9 1.3c-1.3 1.6-1.2 1.7.4.4.9-.7 1.7-1.5 1.7-1.7 0-.8-.8-.3-2.1 1.3m-12.1 1c1.7.2 4.7.2 6.5 0 1.7-.2.3-.4-3.3-.4s-5 .2-3.2.4m-2.6 12.5c-.1 5.9.1 10.9.6 11.1.4.3.6-2.9.4-7.1-.4-13.5-.9-15-1-4m11.2 3.3c0 7.7.2 10.7.3 6.7.2-4 .2-10.3 0-14s-.3-.4-.3 7.3"/></svg>