<svg xmlns="http://www.w3.org/2000/svg" version="1.0" viewBox="0 0 64 64"><path fill-opacity=".1" d="M28.3 11.5c0 3.8.2 5.3.4 3.2.2-2 .2-5.2 0-7-.2-1.7-.4-.1-.4 3.8M52 26.4c0 .2.8 1 1.8 1.7 1.5 1.3 1.6 1.2.3-.4S52 25.6 52 26.4M28 40.2c-.3 3.7-.1 6.3.3 5.9s.7-3.5.5-6.7l-.3-5.9zm28.2.4c1 1 2 1.6 2.2 1.3.3-.3-.5-1.1-1.7-1.8-2.1-1.3-2.1-1.2-.5.5"/><path fill-opacity=".8" d="M55.5 41c1 1.1 2 2 2.3 2s-.3-.9-1.3-2-2-2-2.3-2 .3.9 1.3 2"/><path fill-opacity=".9" d="M17.5 12.9c-.3.5-.2 1.2.3 1.5s.9-.1.9-.9c0-1.7-.3-1.9-1.2-.6m-4 3c-.3.5-.2 1.2.3 1.5s.9-.1.9-.9c0-1.7-.3-1.9-1.2-.6m-4 3c-.3.5-.2 1.2.3 1.5s.9-.1.9-.9c0-1.7-.3-1.9-1.2-.6m-4 3c-.3.5-.2 1.2.3 1.5s.9-.1.9-.9c0-1.7-.3-1.9-1.2-.6m.8 6.6c0 .8.4 1.2.9.9s.6-1 .3-1.5c-.9-1.3-1.2-1.1-1.2.6m4 3c0 .8.4 1.2.9.9s.6-1 .3-1.5c-.9-1.3-1.2-1.1-1.2.6m4.2 3.4c-.3.5-.2 1.2.3 1.5s.9-.1.9-.9c0-1.7-.3-1.9-1.2-.6m4 3c-.3.5-.2 1.2.3 1.5s.9-.1.9-.9c0-1.7-.3-1.9-1.2-.6m4 3c-.3.5-.2 1.2.3 1.5s.9-.1.9-.9c0-1.7-.3-1.9-1.2-.6"/><path d="M15.5 15C8.9 20 3.1 24.5 2.7 25c-.7.6 23.4 20 24.9 20 .2 0 .4-2.8.4-6.1v-6.2l5.8.6c9.6 1 15.1 3.5 20.9 9.3 2.9 2.9 5.3 5.9 5.3 6.6.1.7.7 2.6 1.6 4.3 1.4 2.9 1.4 2.8 1-3.2-1-16.1-13.5-29.4-28.9-31l-5.6-.6-.3-6.4-.3-6.4zm16.6 5.4c12.5 1.3 21.9 8.1 26.4 19.2 1.3 3.2 2.2 6 2 6.2s-2-1.4-4-3.7c-4.4-4.8-11.7-8.5-19.9-10-10.4-1.9-10.5-1.9-10.8 4.5l-.3 5.6L14.6 34c-5.9-4.5-10.4-8.6-10-9 .5-.5 5.4-4.3 10.9-8.4l10-7.5.3 5.3.3 5.3z"/><path fill-opacity=".4" d="M25.4 14.9c.1 3.9.5 5.6 1.6 5.8 1 .3 1.1.2.3-.4-.6-.5-1.4-3.1-1.6-5.8l-.4-5zM25.3 36c0 3 .2 4.3.4 2.7.2-1.5.2-3.9 0-5.5-.2-1.5-.4-.2-.4 2.8"/><path fill-opacity=".2" d="M26.8 30.7c.7.3 1.6.2 1.9-.1.4-.3-.2-.6-1.3-.5-1.1 0-1.4.3-.6.6"/></svg>