<svg xmlns="http://www.w3.org/2000/svg" version="1.0" viewBox="0 0 64 64"><path fill-opacity=".3" d="M13 11.5C8.9 15.6 5.8 19 6.1 19c.2 0 3.8-3.4 7.9-7.5S21.2 4 20.9 4c-.2 0-3.8 3.4-7.9 7.5m3 1.2-5.5 5.8 5.8-5.5c5.3-5 6.2-6 5.4-6-.1 0-2.7 2.6-5.7 5.7"/><path fill-opacity=".9" d="M14 11.7c-4.1 4.2-6.8 7.1-5.9 6.5.9-.7 1.8-1 2.1-.7.7.7 11.1-10.2 11.4-12 .1-.8.1-1.5 0-1.5s-3.5 3.5-7.6 7.7m7-5.4c0 .1-2.6 2.7-5.7 5.7l-5.8 5.5 5.5-5.8c5-5.3 6-6.2 6-5.4"/><path d="M14.2 12.3 7 19.5l7.5 7.5c4.1 4.1 7.5 7 7.5 6.5s-2.8-3.8-6.2-7.2L9.6 20h13c15.9 0 21.9 1.5 26.2 6.5 5 5.6 5.4 15.8 1.1 26.8-1.1 2.6-1.5 4.6-1 4.2 2.1-1.2 5.2-12 5.2-18.2.1-7.8-2.2-12.7-7.7-16.6C41.6 19.3 34.2 18 20 18H9.6l6.4-6.5C19.5 7.9 22.2 5 21.9 5c-.2 0-3.7 3.3-7.7 7.3"/><path fill-opacity=".7" d="M6 19.3c0 .1 3.5 3.6 7.8 7.7l7.7 7.5-7.5-7.8c-6.9-7.1-8-8.2-8-7.4m5 2c0 .2 1.5 1.6 3.3 3.3l3.2 2.9-2.9-3.3c-2.8-3-3.6-3.7-3.6-2.9m9 9.2c1.3 1.4 2.6 2.5 2.8 2.5.3 0-.5-1.1-1.8-2.5S18.4 28 18.2 28c-.3 0 .5 1.1 1.8 2.5"/><path fill-opacity=".5" d="M31.8 20.7c.7.3 1.6.2 1.9-.1.4-.3-.2-.6-1.3-.5-1.1 0-1.4.3-.6.6m20.3 17.9c0 1.1.3 1.4.6.6.3-.7.2-1.6-.1-1.9-.3-.4-.6.2-.5 1.3"/><path fill-opacity=".4" d="M16.8 20.7c2.9.2 7.4.2 10 0s.2-.3-5.3-.3-7.6.1-4.7.3"/></svg>