<svg xmlns="http://www.w3.org/2000/svg" version="1.0" viewBox="0 0 64 64"><path fill-opacity=".2" d="M33.1 34.6c0 1.1.3 1.4.6.6.3-.7.2-1.6-.1-1.9-.3-.4-.6.2-.5 1.3"/><g fill-opacity=".8" stroke-opacity=".8" stroke-width="0"><path d="M40 5.7 58 6l.3 23.8.3 23.7-.1-24v-24H40.2L22 5.4zm-34.5 29v23.8h19l19 .1-18.7-.3L6 58l-.3-23.5L5.4 11z"/><path d="M16.3 12.7c4.8.2 12.5.2 17 0 4.5-.1.6-.3-8.8-.3-9.3 0-13 .2-8.2.3m1.5 23c1.2.2 3 .2 4 0 .9-.3-.1-.5-2.3-.4-2.2 0-3 .2-1.7.4m10 0c1.2.2 3 .2 4 0 .9-.3-.1-.5-2.3-.4-2.2 0-3 .2-1.7.4m21.5 16c1.5.2 3.7.2 5 0 1.2-.2 0-.4-2.8-.4-2.7 0-3.8.2-2.2.4"/></g><path fill-opacity=".7" d="M15.3 10.7c5.4.2 13.9.2 19 0 5.1-.1.7-.3-9.8-.3-10.4 0-14.6.2-9.2.3m2.5 23c1.2.2 3 .2 4 0 .9-.3-.1-.5-2.3-.4-2.2 0-3 .2-1.7.4m10 0c1.2.2 3 .2 4 0 .9-.3-.1-.5-2.3-.4-2.2 0-3 .2-1.7.4m21 20c1.7.2 4.7.2 6.5 0 1.7-.2.3-.4-3.3-.4s-5 .2-3.2.4"/><g stroke-width="0"><path d="M39.3 6.7 57 7v44.9l-5.2.4-5.3.3 5.8.2 5.7.2V6l-18.2.2-18.3.3z"/><path d="M6 34.5V58h37V11H6zm35 0V57H7V12h34z"/><path d="M24.2 29.7c-.2 4.2-.2 4.2-4.4 4.6l-4.3.4 4.2.1c4.2.2 4.2.2 4.6 4.4l.4 4.3.1-4.2c.2-4.2.2-4.2 4.5-4.6l4.2-.4-4.2-.1c-4.2-.2-4.2-.2-4.6-4.5l-.4-4.2z"/></g><g fill-opacity=".6" stroke-opacity=".6" stroke-width="0"><path d="M38.7 7.7 56 8l.3 21.3.3 21.2-.1-21.5V7.5H39l-17.5-.1zM7.5 34.5v22h16.8l16.7.1-16.5-.3L8 56l-.3-21.8-.3-21.7zm17.8-5c0 2.2.2 3 .4 1.7.2-1.2.2-3 0-4-.3-.9-.5.1-.4 2.3"/><path d="M25.3 39.5c0 2.2.2 3 .4 1.7.2-1.2.2-3 0-4-.3-.9-.5.1-.4 2.3"/></g><path fill-opacity=".5" d="M43.4 34.5c0 13.2.2 18.5.3 11.7.2-6.8.2-17.6 0-24-.1-6.4-.3-.9-.3 12.3"/><path fill-opacity=".9" d="M23.3 30c0 2.5.2 3.5.4 2.2.2-1.2.2-3.2 0-4.5-.2-1.2-.4-.2-.4 2.3m0 9c0 2.5.2 3.5.4 2.2.2-1.2.2-3.2 0-4.5-.2-1.2-.4-.2-.4 2.3"/></svg>