<svg xmlns="http://www.w3.org/2000/svg" version="1.0" viewBox="0 0 64 64"><path fill-opacity=".9" d="M52.3 3.5c0 .8.4 1.2.9.9s.6-1 .3-1.5c-.9-1.3-1.2-1.1-1.2.6M29.9 22.7c-1.3 1.6-1.2 1.7.4.4.9-.7 1.7-1.5 1.7-1.7 0-.8-.8-.3-2.1 1.3M9.5 59.9c-.3.5-.2 1.2.3 1.5s.9-.1.9-.9c0-1.7-.3-1.9-1.2-.6"/><g stroke-width="0"><path d="M25.7 8.5c-12 3.4-22.3 6.7-22.9 7.3-1.5 1.5 5.4 42.9 7.6 45 1.4 1.4 3.6 1.3 25.3-2.1C51 56.3 60 54.4 60.9 53.5c1.3-1.3 1.1-3.7-1.4-19.5-1.6-9.9-3.2-18.5-3.5-19-.5-.8-12.5.8-33.7 4.3-1.3.3-2.3.1-2.3-.2 0-.4 7.5-2.8 16.8-5.5 9.2-2.7 17.1-5.3 17.6-5.7 1.5-1.3-2.2-5.9-4.7-5.8-1.2 0-12 2.9-24 6.4m25.7-4.9c.9.3 1.6 1.2 1.6 2 0 1.7-.1 1.7-3.7.3-2.2-.8-2.4-1.2-1.3-1.9 1.8-1.2 1.5-1.1 3.4-.4M44 7.5l2.5 1.3-2.8 1.1c-3.7 1.4-6.3 1.4-9-.1-2.2-1.1-2.2-1.2.8-2.4 3.8-1.7 5.4-1.7 8.5.1m-15.1 3.6c4.1 1.5 3.9 2.4-.8 3.6-2.8.8-4.7.7-7-.3-3.9-1.6-3.9-2.1.2-3.3 4.3-1.2 4-1.2 7.6 0m-13.6 4.6 3.2 1.6-3.9 1.4c-3.1 1-4.6 1.1-7.3.1-4.2-1.5-4.2-2.5 0-3.7 4.5-1.3 4.4-1.3 8 .6m39.7.5c0 .2 1.4 8.2 3 17.8 2 11.8 2.6 17.8 1.9 18.5-1.1 1.1-46.7 8.5-48.5 7.8-.6-.2-2.3-7.6-3.7-16.6L5.1 27.5l2.3-2.3c1.4-1.5 4-2.6 6.7-2.9l4.4-.6-1.9 2.2c-1.9 2.1-1.9 2.1.6 2.1 1.5 0 3.5-1.2 5.1-3s3.7-3 5.1-3 3.3-.3 4.3-.7c1.7-.7 1.7-.6 0 2.1l-1.9 2.8 2.4-.7c1.2-.4 3.4-1.8 4.8-3 1.4-1.3 4.5-2.6 7-3l4.5-.7-2.3 2.4-2.2 2.5 3-.5c1.7-.2 3.9-1.5 4.8-2.8 1.4-1.9 3.2-3.1 3.2-2.2"/><path d="M29.5 27.6c-11 1.8-20 3.3-20.1 3.3-.3.2 4.2 25.1 4.6 25.5.5.5 41.8-5.8 42.4-6.5.2-.2-.5-6.1-1.6-13.2-1.7-10.3-2.4-12.7-3.7-12.6-.9.1-10.6 1.6-21.6 3.5m23.9 9.5c1 6.1 1.6 11.3 1.3 11.5-.6.7-38 6.5-39.1 6.1-.9-.3-4.9-21.8-4.2-22.5.5-.4 34.5-5.9 37.7-6.1 2.5-.1 2.6.2 4.3 11"/></g><path fill-opacity=".5" d="M24 18c-.9.6-1 1-.3 1 .6 0 1.5-.5 1.8-1 .8-1.2.4-1.2-1.5 0"/><path fill-opacity=".8" d="M37.9 19.7c-1.3 1.6-1.2 1.7.4.4s2.1-2.1 1.3-2.1c-.2 0-1 .8-1.7 1.7"/></svg>