<svg xmlns="http://www.w3.org/2000/svg" version="1.0" viewBox="0 0 64 64"><path fill-opacity=".7" d="M10.4 11.4c-.3.8-.4 2.7-.1 4.3.3 2.4.4 2.3.6-.9.1-3.5.3-3.7 3.9-4.1l3.7-.4-3.8-.1c-2.4-.1-4 .3-4.3 1.2m38.8-.7c3.4.4 3.7.7 4.1 3.9.4 3.4.4 3.4.3-.3s-.2-3.8-4.1-3.9l-4-.1zM10.4 50c.1 3.3.3 3.5 3.9 3.6 3.7.1 3.7.1.3-.3-3.1-.4-3.5-.8-3.9-3.6-.4-3.1-.4-3.1-.3.3m42.7-.8c-.1 3.5-.3 3.7-3.8 4.1l-3.8.4 3.8.1c4.2.2 5.1-.9 4.4-5.5-.3-2.4-.4-2.3-.6.9"/><g fill-opacity=".8" stroke-opacity=".8" stroke-width="0"><path d="M5.4 6.4c-.3.7-.3 4.2-.1 7.7l.3 6.4.2-7.2.2-7.2 7.3-.4 7.2-.3-7.3-.2c-5.3-.1-7.4.2-7.8 1.2m45.3-.7 7.2.4.4 6.7.3 6.7v-7l-.1-7-7.5-.1-7.5-.1z"/><path d="M12.4 13.4c-.3.8-.4 2.7-.1 4.3.3 2.4.4 2.3.6-.9.1-3.5.3-3.7 3.9-4.1l3.7-.4-3.8-.1c-2.4-.1-4 .3-4.3 1.2m34.8-.7c3.4.4 3.7.7 4.1 3.9.4 3.4.4 3.4.3-.3s-.2-3.8-4.1-3.9l-4-.1zM30.4 31.1c-1 1.7 1.3 3.6 2.7 2.2 1.2-1.2.4-3.3-1.1-3.3-.5 0-1.2.5-1.6 1.1m2.6.9c0 .5-.4 1-1 1-.5 0-1-.5-1-1 0-.6.5-1 1-1 .6 0 1 .4 1 1M5.4 51.5l.1 7 7 .1h7l-6.7-.3-6.7-.4-.4-6.7-.3-6.7zm7-3.5c.1 3.3.3 3.5 3.9 3.6 3.7.1 3.7.1.3-.3-3.1-.4-3.5-.8-3.9-3.6-.4-3.1-.4-3.1-.3.3m38.7-.8c-.1 3.5-.3 3.7-3.8 4.1l-3.8.4 3.8.1c4.2.2 5.1-.9 4.4-5.5-.3-2.4-.4-2.3-.6.9"/><path d="m58.2 50.7-.2 7.2-7.2.4-7.3.3 7.3.2c8.5.2 8.5.2 7.9-8.9l-.3-6.4z"/></g><path fill-opacity=".4" d="M20.3 8.5c0 2.2.2 3 .4 1.7.2-1.2.2-3 0-4-.3-.9-.5.1-.4 2.3m23 0c0 2.2.2 3 .4 1.7.2-1.2.2-3 0-4-.3-.9-.5.1-.4 2.3M6.8 20.7c1.2.2 3 .2 4 0 .9-.3-.1-.5-2.3-.4-2.2 0-3 .2-1.7.4m47 0c1.2.2 3 .2 4 0 .9-.3-.1-.5-2.3-.4-2.2 0-3 .2-1.7.4m-47 23c1.2.2 3 .2 4 0 .9-.3-.1-.5-2.3-.4-2.2 0-3 .2-1.7.4m47 0c1.2.2 3 .2 4 0 .9-.3-.1-.5-2.3-.4-2.2 0-3 .2-1.7.4M20.3 55.5c0 2.2.2 3 .4 1.7.2-1.2.2-3 0-4-.3-.9-.5.1-.4 2.3m23 0c0 2.2.2 3 .4 1.7.2-1.2.2-3 0-4-.3-.9-.5.1-.4 2.3"/><path d="M6 13v7h3c2.8 0 3-.2 3-4v-4h4c3.8 0 4-.2 4-3V6H6zm12-4c0 1.6-.7 2-3.5 2-3.3 0-3.5.2-3.5 3.5 0 2.8-.4 3.5-2 3.5-1.8 0-2-.7-2-5.5V7h5.5c4.8 0 5.5.2 5.5 2m26 0c0 2.8.2 3 4 3h4v4c0 3.8.2 4 3 4h3V6H44zm13 3.5c0 4.8-.2 5.5-2 5.5-1.6 0-2-.7-2-3.5 0-3.3-.2-3.5-3.5-3.5-2.8 0-3.5-.4-3.5-2 0-1.8.7-2 5.5-2H57zM29.4 30.4c-1 2.6.4 4.8 2.8 4.4 3.3-.4 3.3-5.2 0-5.6-1.3-.2-2.5.3-2.8 1.2m4.2.7c1 1.7-1.3 3.6-2.7 2.2-1.2-1.2-.4-3.3 1.1-3.3.5 0 1.2.5 1.6 1.1M6 51v7h14v-3c0-2.8-.2-3-4-3h-4v-4c0-3.8-.2-4-3-4H6zm5-1.5c0 3.3.2 3.5 3.5 3.5 2.8 0 3.5.4 3.5 2 0 1.8-.7 2-5.5 2H7v-5.5c0-4.8.2-5.5 2-5.5 1.6 0 2 .7 2 3.5M52 48v4h-4c-3.8 0-4 .2-4 3v3h14V44h-3c-2.8 0-3 .2-3 4m5 3.5V57h-5.5c-4.8 0-5.5-.2-5.5-2 0-1.6.7-2 3.5-2 3.3 0 3.5-.2 3.5-3.5 0-2.8.4-3.5 2-3.5 1.8 0 2 .7 2 5.5"/><path fill-opacity=".6" d="M7.4 8.4c-.3.8-.4 3.1-.1 5.2.3 3.7.4 3.7.5-.8L8 8.1l5.3-.4 5.2-.3-5.3-.2c-3.7-.1-5.4.2-5.8 1.2m43.3-.7 5.2.4.4 4.2.4 4.2-.1-4.5-.1-4.5-5.5-.1-5.5-.1zM7.4 52l.1 4.5 5.3.1 5.2.1-4.9-.4-5-.4-.4-4.2-.4-4.2zm48.8-.8-.2 4.7-5.2.4-5.3.3 5.3.2c6 .2 6.6-.4 5.9-6.4-.3-3.7-.4-3.7-.5.8"/></svg>