<?xml version="1.0" standalone="no"?><!DOCTYPE svg PUBLIC "-//W3C//DTD SVG 1.1//EN" "http://www.w3.org/Graphics/SVG/1.1/DTD/svg11.dtd"><svg t="1732701169886" class="icon" viewBox="0 0 1024 1024" version="1.1" xmlns="http://www.w3.org/2000/svg" p-id="5553" xmlns:xlink="http://www.w3.org/1999/xlink" width="200" height="200"><path d="M501.03808 109.42464v394.86464H106.20928V109.42464h394.8288m57.30816-57.30816h-509.44v509.47072h509.44V52.11648z" fill="" p-id="5554"></path><path d="M906.33216 518.23104v394.86464H511.50336v-394.86464h394.8288m57.30816-57.30816h-509.44v509.47072h509.44V460.92288zM810.2656 339.38432l169.28256 5.99552-25.23136-167.48032-46.99136 52.66432-200.09984-178.44736-50.06848 56.13056 200.09984 178.46272-46.99136 52.67456zM232.87808 680.1408l-168.43264-18.00192 13.35296 168.88832 50.56512-49.20832L314.88 973.57312l53.95968-52.45952L182.272 729.344l50.60608-49.2032z" fill="" p-id="5555"></path><path d="M819.83488 952.7808l108.16512-108.17024v-44.65152l-152.81664 152.82176zM890.49088 497.77152h-30.52032L495.36 862.37696v44.65664l402.19648-402.19648zM682.01984 497.77152L495.36 684.43136v44.65152l231.31136-231.31136zM598.01088 497.77152L495.36 600.4224v44.6464l147.3024-147.29728zM770.33984 497.77152L495.36 772.75136v44.65152l319.63136-319.63136zM734.07488 952.7808l193.92512-193.93024v-44.65152l-238.57664 238.58176zM928 567.82848v-44.06784l-0.29184-0.29184-413.32736 413.32736 15.98464 15.98464h12.68736zM643.09248 952.7808l284.90752-284.91264v-44.65152l-329.55904 329.56416z" fill="" p-id="5556"></path></svg>