<?xml version="1.0" standalone="no"?><!DOCTYPE svg PUBLIC "-//W3C//DTD SVG 1.1//EN" "http://www.w3.org/Graphics/SVG/1.1/DTD/svg11.dtd"><svg t="1732701542445" class="icon" viewBox="0 0 1024 1024" version="1.1" xmlns="http://www.w3.org/2000/svg" p-id="13625" xmlns:xlink="http://www.w3.org/1999/xlink" width="200" height="200"><path d="M535.272727 279.272727h46.545455v23.272728h46.545454v23.272727h46.545455v34.909091h34.909091v34.909091h34.909091v34.909091h23.272727v46.545454h-11.636364v46.545455h11.636364v46.545454h-23.272727v34.909091h-34.909091v34.909091h-34.909091v46.545455h-34.909091v34.90909h-34.909091v23.272728h-69.818182v-46.545455h58.181818v-23.272727h34.909091v-34.909091h34.909091v-46.545455h34.909091v-34.90909h23.272727v-34.909091h-11.636363v-46.545455h11.636363v-34.909091h-23.272727v-34.909091h-34.909091v-34.909091h-34.909091v-23.272727h-46.545454v-23.272727h-46.545455z m34.909091 209.454546v-34.909091h-34.909091v-46.545455h46.545455v34.909091h34.909091v46.545455h34.909091v46.545454h-34.909091v46.545455h-34.909091v34.909091h-46.545455v-46.545455h34.909091v-34.909091h34.909091v-46.545454z m-81.454545 349.090909v-46.545455h372.363636V232.727273H488.727273v-46.545455h418.909091v651.636364z m23.272727-93.090909a232.727273 232.727273 0 0 1 0-465.454546z m0-325.818182a93.090909 93.090909 0 0 0 0 186.181818z" fill="#E6E6E6" p-id="13626"></path><path d="M977.454545 1024h-93.090909v-46.545455h93.090909v-93.090909h46.545455v139.636364z m0-977.454545h-93.090909V0h139.636364v139.636364h-46.545455zM535.272727 1024h-46.545454V837.818182H116.363636V186.181818h372.363637V0h46.545454v837.818182z m-46.545454-577.512727a69.818182 69.818182 0 0 0 0 131.025454z m0 179.549091a116.363636 116.363636 0 0 1 0-228.072728v-70.516363a186.181818 186.181818 0 0 0 0 369.105454z m0 117.527272a232.727273 232.727273 0 0 1 0-463.127272V232.727273H162.909091v558.545454h325.818182zM46.545455 139.636364H0V0h139.636364v46.545455H46.545455z m0 837.818181h93.090909v46.545455H0V884.363636h46.545455z" p-id="13627"></path></svg>