<?xml version="1.0" standalone="no"?><!DOCTYPE svg PUBLIC "-//W3C//DTD SVG 1.1//EN" "http://www.w3.org/Graphics/SVG/1.1/DTD/svg11.dtd"><svg t="1732026829041" class="icon" viewBox="0 0 1024 1024" version="1.1" xmlns="http://www.w3.org/2000/svg" p-id="4255" xmlns:xlink="http://www.w3.org/1999/xlink" width="200" height="200"><path d="M917.333333 106.666667v810.666666H106.666667V106.666667h810.666666z m-73.706666 663.253333l-73.685334 73.706667h73.685334v-73.685334zM401.450667 180.394667H180.373333v221.077333L277.333333 304.469333v147.392l-96.96 96.981334v147.413333L277.333333 599.253333v147.392l-96.96 96.981334h147.392L424.704 746.666667h147.392l-96.938667 96.96h147.392L719.488 746.666667H746.666667v-27.178667l96.96-96.938667v-147.413333L746.666667 572.117333v-147.392l96.96-96.938666v-147.413334L746.666667 277.333333H599.253333l96.981334-96.96h-147.392L451.861333 277.333333h-147.392l96.981334-96.96z" p-id="4256"></path><path d="M789.333333 234.666667v554.666666H234.666667V234.666667h554.666666z m-42.666666 42.666666H277.333333v469.333334h469.333334V277.333333z" p-id="4257"></path><path d="M652.096 320c8.533333 0 16.704 3.413333 22.741333 9.450667l19.712 19.690666c12.586667 12.586667 12.586667 32.938667 0.042667 45.525334l-45.802667 45.781333 7.466667 7.488a20.672 20.672 0 0 1 0 29.269333l-14.464 14.506667a20.693333 20.693333 0 0 1-29.290667 0.042667l-2.645333-2.645334-182.890667 182.058667a46.314667 46.314667 0 0 1-26.645333 13.226667l-3.776 0.362666-7.424 7.381334a40.533333 40.533333 0 0 1-59.626667-54.72l2.346667-2.56 7.381333-7.36c0.576-10.154667 4.437333-19.861333 11.029334-27.626667l2.56-2.816 182.954666-182.122667-3.434666-3.413333-1.749334-1.962667a20.693333 20.693333 0 0 1 1.706667-27.306666l14.506667-14.506667a20.693333 20.693333 0 0 1 29.290666 0l7.466667 7.488 45.781333-45.781333A32.128 32.128 0 0 1 652.096 320z m-96.106667 106.666667l-168.810666 168.533333a24.234667 24.234667 0 0 0-6.72 13.205333l-0.277334 2.517334-0.405333 7.317333-11.946667 11.968a18.368 18.368 0 0 0-0.64 24.853333 18.24 18.24 0 0 0 24.661334 2.666667l1.813333-1.621333 12.010667-12.032 7.317333-0.384c5.034667-0.256 9.813333-2.090667 13.717333-5.333334l1.898667-1.706666L597.333333 468.181333 555.989333 426.666667z" p-id="4258"></path></svg>