<?xml version="1.0" encoding="UTF-8" standalone="no" ?>
<!DOCTYPE svg PUBLIC "-//W3C//DTD SVG 1.1//EN" "http://www.w3.org/Graphics/SVG/1.1/DTD/svg11.dtd">
<svg xmlns="http://www.w3.org/2000/svg" xmlns:xlink="http://www.w3.org/1999/xlink" version="1.1" width="200" height="200" viewBox="0 0 200 200" xml:space="preserve">
<desc>Created with Fabric.js 3.6.6</desc>
<defs>
</defs>
<g transform="matrix(-1 0 0 1 100.5 100.5)"  >
<g style=""   >
		<g transform="matrix(0.2 0 0 0.2 17.39 1.53)"  >
<path style="stroke: none; stroke-width: 1; stroke-dasharray: none; stroke-linecap: butt; stroke-dashoffset: 0; stroke-linejoin: miter; stroke-miterlimit: 4; fill: rgb(230,230,230); fill-rule: nonzero; opacity: 1;"  transform=" translate(-593.45, -512)" d="M 535.272727 279.272727 h 46.545455 v 23.272728 h 46.545454 v 23.272727 h 46.545455 v 34.909091 h 34.909091 v 34.909091 h 34.909091 v 34.909091 h 23.272727 v 46.545454 h -11.636364 v 46.545455 h 11.636364 v 46.545454 h -23.272727 v 34.909091 h -34.909091 v 34.909091 h -34.909091 v 46.545455 h -34.909091 v 34.90909 h -34.909091 v 23.272728 h -69.818182 v -46.545455 h 58.181818 v -23.272727 h 34.909091 v -34.909091 h 34.909091 v -46.545455 h 34.909091 v -34.90909 h 23.272727 v -34.909091 h -11.636363 v -46.545455 h 11.636363 v -34.909091 h -23.272727 v -34.909091 h -34.909091 v -34.909091 h -34.909091 v -23.272727 h -46.545454 v -23.272727 h -46.545455 z m 34.909091 209.454546 v -34.909091 h -34.909091 v -46.545455 h 46.545455 v 34.909091 h 34.909091 v 46.545455 h 34.909091 v 46.545454 h -34.909091 v 46.545455 h -34.909091 v 34.909091 h -46.545455 v -46.545455 h 34.909091 v -34.909091 h 34.909091 v -46.545454 z m -81.454545 349.090909 v -46.545455 h 372.363636 V 232.727273 H 488.727273 v -46.545455 h 418.909091 v 651.636364 z m 23.272727 -93.090909 a 232.727273 232.727273 0 0 1 0 -465.454546 z m 0 -325.818182 a 93.090909 93.090909 0 0 0 0 186.181818 z" stroke-linecap="round" />
</g>
		<g transform="matrix(0.2 0 0 0.2 2.4 2.4)"  >
<path style="stroke: none; stroke-width: 1; stroke-dasharray: none; stroke-linecap: butt; stroke-dashoffset: 0; stroke-linejoin: miter; stroke-miterlimit: 4; fill: rgb(0,0,0); fill-rule: nonzero; opacity: 1;"  transform=" translate(-512, -512)" d="M 977.454545 1024 h -93.090909 v -46.545455 h 93.090909 v -93.090909 h 46.545455 v 139.636364 z m 0 -977.454545 h -93.090909 V 0 h 139.636364 v 139.636364 h -46.545455 z M 535.272727 1024 h -46.545454 V 837.818182 H 116.363636 V 186.181818 h 372.363637 V 0 h 46.545454 v 837.818182 z m -46.545454 -577.512727 a 69.818182 69.818182 0 0 0 0 131.025454 z m 0 179.549091 a 116.363636 116.363636 0 0 1 0 -228.072728 v -70.516363 a 186.181818 186.181818 0 0 0 0 369.105454 z m 0 117.527272 a 232.727273 232.727273 0 0 1 0 -463.127272 V 232.727273 H 162.909091 v 558.545454 h 325.818182 z M 46.545455 139.636364 H 0 V 0 h 139.636364 v 46.545455 H 46.545455 z m 0 837.818181 h 93.090909 v 46.545455 H 0 V 884.363636 h 46.545455 z" stroke-linecap="round" />
</g>
</g>
</g>
</svg>