<?xml version="1.0" standalone="no"?><!DOCTYPE svg PUBLIC "-//W3C//DTD SVG 1.1//EN" "http://www.w3.org/Graphics/SVG/1.1/DTD/svg11.dtd"><svg t="1732701390459" class="icon" viewBox="0 0 1024 1024" version="1.1" xmlns="http://www.w3.org/2000/svg" p-id="11136" xmlns:xlink="http://www.w3.org/1999/xlink" width="200" height="200"><path d="M275.7 181.4c31.9 0 57.8 25.9 57.8 57.8S307.6 297 275.7 297s-57.8-25.9-57.8-57.8c0-31.8 25.9-57.8 57.8-57.8m0-30c-48.5 0-87.8 39.3-87.8 87.8s39.3 87.8 87.8 87.8 87.8-39.3 87.8-87.8-39.3-87.8-87.8-87.8zM351.4 367.8c4.9 0 9.7 1.7 13.5 4.9l65 53.6 18.7 15.4 19-15L532 376c0.7-0.5 1.3-1 2-1.4 3.4-2.1 7.1-3.1 11-3.1 7.4 0 14.1 3.7 17.9 9.9 5.5 9.5 3.1 21.6-5.6 28.3l-0.1 0.1-0.1 0.1-95.7 75.4c-4.7 3.7-9.7 4.5-13.1 4.5-4.9 0-9.7-1.7-13.5-4.8L403 458.8l-41.8-34.5-7 53.7-28.3 216.6v0.6l-14.2 129.7c-0.7 6.4-6.1 11.2-12.5 11.2h-48c-6.4 0-11.8-4.8-12.5-11.1v-0.6l-28.9-211.7-2-14.8-13-7.3c-11.4-6.4-19.1-18-20.5-31v-0.6l-18.2-135c-0.2-1.9-0.3-3.8-0.3-5.7 0-27.8 22.6-50.5 50.4-50.5h18.7l26.4 33.1 23.3 29.2 23.5-29 27-33.3h26.3m-30.3-30c-6.4 0-12.5 2.8-16.7 7.8l-29.7 36.6-28.9-36.3c-4.1-5.2-10.3-8.2-16.8-8.2H206.1c-44.4 0-80.5 36.1-80.4 80.5 0 3.1 0.2 6.3 0.6 9.4l17.9 135.1c2.5 22.6 15.8 42.7 35.6 53.8l28.9 211.7c2.5 21.5 20.6 37.7 42.3 37.8h48.1c21.7 0 39.9-16.3 42.3-37.8l14.2-129.7L384 482l31.7 26.2c9.4 7.8 21 11.7 32.5 11.7 11.2 0 22.3-3.6 31.6-11l95.7-75.4c20.8-16 26.3-45 13-67.6-9.6-15.8-26.4-24.5-43.6-24.5-9.1 0-18.3 2.4-26.6 7.5-1.7 1-3.4 2.2-5 3.4L448.9 403l-65-53.6c-9.1-7.6-20.6-11.7-32.5-11.7h-29.7c-0.1 0.1-0.4 0.1-0.6 0.1z" fill="#040000" p-id="11137"></path><path d="M828.1 593H406.2V488.6h30V563h361.9V208.8H436.2v189.8h-30V178.8h421.9zM617.1 568.5v166" fill="" p-id="11138"></path><path d="M602.1 568.5h30v166h-30z" fill="" p-id="11139"></path><path d="M794.2 838.7L745.5 750H488.8L440 838.7l-26.3-14.4L471 720h292.3l57.2 104.3z" fill="" p-id="11140"></path></svg>