<svg xmlns="http://www.w3.org/2000/svg" version="1.0" viewBox="0 0 64 64"><path fill-opacity=".1" d="m20.9 44.2 6.5 6.7-1.9 2.3-1.9 2.3 2.4-2.3 2.5-2.2-7-6.8-7-6.7zm-19.5 12-1.9 2.3 2.3-1.9C3.9 54.8 4.5 54 3.7 54c-.2 0-1.2 1-2.3 2.2m10 5-1.9 2.3 2.3-1.9c2.1-1.8 2.7-2.6 1.9-2.6-.2 0-1.2 1-2.3 2.2"/><path fill-opacity=".2" d="M11.5 40c-1 1.1-1.6 2.2-1.4 2.4s1.2-.7 2.2-2c2.2-2.9 1.7-3.2-.8-.4M10 53.4c0 .2.8 1 1.8 1.7 1.5 1.3 1.6 1.2.3-.4S10 52.6 10 53.4"/><path fill-opacity=".5" d="M23 42.5c3.5 3.6 6.7 6.5 6.9 6.5.3 0-2.4-2.9-5.9-6.5S17.3 36 17.1 36c-.3 0 2.4 2.9 5.9 6.5m4.9 12.2-2.4 2.8 2.8-2.4c1.5-1.4 2.7-2.6 2.7-2.8 0-.8-.8-.1-3.1 2.4"/><g fill-opacity=".9" stroke-opacity=".9" stroke-width="0"><path d="M45.1 7.4c-.8 1-.9 1.6-.1 2.1.5.3 1 .5 1.1.3.4-1.8.7-3.8.4-3.8-.1 0-.8.6-1.4 1.4m-6.8 5.8c-1.3 2.2-1.3 4.2 0 2.9 1-1 1.9-4.1 1.2-4.1-.2 0-.7.6-1.2 1.2m18.8 5.2c-1 1.1-.9 1.4.1 1.2 1.4-.2 2.3-1.5 1.5-2.2-.2-.2-1 .2-1.6 1m-26.8 1.8c-1.3 2.2-1.3 4.2 0 2.9 1-1 1.9-4.1 1.2-4.1-.2 0-.7.6-1.2 1.2m19.6 6.4c-.7.9-.6 1.2.6 1 2.2-.3 4-2.3 2-2.3-.8 0-2 .6-2.6 1.3m-27-.4c-.5 1.8-.6 3.8-.1 3.4.7-.8 1.2-3.6.6-3.6-.2 0-.4.1-.5.2M12.1 36.4c-2.4 2.5-3.7 4.4-2.8 4.2 1.9-.2 4.9-2.7 4.2-3.4s1.6-3.3 2.4-2.7c.4.2.8-.2.8-1s-.1-1.5-.2-1.5zm.9 1c0 .2-.8 1-1.7 1.7-1.6 1.3-1.7 1.2-.4-.4s2.1-2.1 2.1-1.3m30.4-3.3c-.8 1.4 1.4 1.9 2.5.6.8-1 .7-1.4-.5-1.4-.8 0-1.7.4-2 .8"/><path d="m21.5 43.7 6.9 7.2-2.4 2.8-2.4 2.8 2.9-2.8 3-2.7-7.5-7.3-7.5-7.2zm15.4-2.1c-.7.9-.6 1.2.6 1 2.2-.3 4-2.3 2-2.3-.8 0-2 .6-2.6 1.3m-6.5 7.5c-.8 1.4 1.4 1.9 2.5.6.8-1 .7-1.4-.5-1.4-.8 0-1.7.4-2 .8M7.6 50.8c-.3.5.1.9.9.9s1.2-.4.9-.9c-.3-.4-.7-.8-.9-.8s-.6.4-.9.8m3.6 4.5 2.6 2.4-2.1 2.4-2.2 2.3 2.8-2.4c1.5-1.3 2.7-2.4 2.7-2.5s-1.5-1.1-3.2-2.4l-3.3-2.2z"/></g><path d="M36.8 15.1c-8.4 7.3-18.3 16.1-22 19.7-6.6 6.5-6.7 6.5-6.1 11.1.5 4.4.3 4.8-3.6 8.6C2.8 56.6 1 58.7 1 59c0 .4 1.9 1.2 4.1 1.9 3.9 1.2 4.3 1.1 7-1.5 2.6-2.5 3.7-2.8 8.3-2.6l5.4.2 18.3-21.1c10.1-11.6 18.6-21.8 18.7-22.6.4-1.5-8.4-11.3-10-11.3-.4 0-7.6 5.9-16 13.1m21.1-6.7 4.4 4.4-2.4 3c-1.3 1.6-8.5 10-15.9 18.5L30.5 49.9l-7.4-7.4-7.4-7.3 3.4-3C42.9 11.4 51.7 4 52.5 4c.6 0 3 2 5.4 4.4M22.5 44l6.9 6.9-2.4 2.6c-1.9 2.1-2.9 2.4-6 1.9-2.2-.4-4.7-.1-6 .6-1.9 1-2.6.9-4.3-.9-1.7-1.7-1.9-2.4-.9-4.5.6-1.4.8-4.1.5-6.1-.6-3.6 1.5-7.5 4.1-7.5.6 0 4.3 3.1 8.1 7M10.6 58.9c-.8 1.2-3.6 1.4-6.1.5-1.4-.6-1.3-.9.6-3.1 2.3-2.3 2.3-2.3 4.2-.4 1.1 1 1.6 2.4 1.3 3"/><path fill-opacity=".8" d="M58.5 7c2.1 2.2 4.1 4 4.4 4s-1.3-1.8-3.4-4-4.1-4-4.4-4 1.3 1.8 3.4 4M3 55.5C1.2 57.4-.2 59.1.1 59.3c.2.2 1.9-1.4 3.8-3.5 4.2-4.8 3.6-5-.9-.3"/><path fill-opacity=".6" d="M56.5 8c2.1 2.2 4.1 4 4.4 4s-1.3-1.8-3.4-4-4.1-4-4.4-4 1.3 1.8 3.4 4M4.9 56.7c-1.3 1.6-1.2 1.7.4.4.9-.7 1.7-1.5 1.7-1.7 0-.8-.8-.3-2.1 1.3"/><path fill-opacity=".4" d="m10.4 37.2-2.9 3.3 3.3-2.9c1.7-1.7 3.2-3.1 3.2-3.3 0-.8-.8-.1-3.6 2.9M8 55.4c0 .2.8 1 1.8 1.7 1.5 1.3 1.6 1.2.3-.4S8 54.6 8 55.4"/></svg>