<?xml version="1.0" standalone="no"?><!DOCTYPE svg PUBLIC "-//W3C//DTD SVG 1.1//EN" "http://www.w3.org/Graphics/SVG/1.1/DTD/svg11.dtd"><svg t="1732028040947" class="icon" viewBox="0 0 1024 1024" version="1.1" xmlns="http://www.w3.org/2000/svg" p-id="11581" xmlns:xlink="http://www.w3.org/1999/xlink" width="200" height="200"><path d="M1023.5904 192A204.8 204.8 0 0 0 832 0.4096V192h-213.2992v213.3504h213.2992v213.2992h-213.2992v213.3504h213.2992v191.5904a204.8 204.8 0 0 0 191.5904-191.5904H832v-213.3504H1024V405.3504h-192V192h191.5904zM618.5984 1024v-192H405.3504v-213.3504h213.3504V405.2992H405.2992V192h213.3504V0H405.2992v192H192.0512V0.4096A204.8 204.8 0 0 0 0.4096 192H192v213.3504H0v213.2992h192v213.3504H0.4608a204.8 204.8 0 0 0 191.6416 191.5904V832h213.248V1024h213.3504z m-426.5472-405.3504V405.2992h213.248v213.3504H192.0512z" p-id="11582"></path></svg>