<?xml version="1.0" standalone="no"?><!DOCTYPE svg PUBLIC "-//W3C//DTD SVG 1.1//EN" "http://www.w3.org/Graphics/SVG/1.1/DTD/svg11.dtd"><svg t="1732028344391" class="icon" viewBox="0 0 1365 1024" version="1.1" xmlns="http://www.w3.org/2000/svg" p-id="11727" xmlns:xlink="http://www.w3.org/1999/xlink" width="266.6015625" height="200"><path d="M0 0h341.333333v341.333333H0z" opacity=".02" p-id="11728"></path><path d="M341.333333 0h341.333334v341.333333H341.333333z" opacity=".04" p-id="11729"></path><path d="M682.666667 0h341.333333v341.333333H682.666667z" opacity=".1" p-id="11730"></path><path d="M1024 0h341.333333v341.333333H1024z" opacity=".06" p-id="11731"></path><path d="M0 341.333333h341.333333v341.333334H0z" opacity=".08" p-id="11732"></path><path d="M341.333333 341.333333h341.333334v341.333334H341.333333z" opacity=".2" p-id="11733"></path><path d="M682.666667 341.333333h341.333333v341.333334H682.666667z" opacity=".24" p-id="11734"></path><path d="M1024 341.333333h341.333333v341.333334H1024z" opacity=".16" p-id="11735"></path><path d="M0 682.666667h341.333333v341.333333H0z" opacity=".1" p-id="11736"></path><path d="M341.333333 682.666667h341.333334v341.333333H341.333333z" opacity=".08" p-id="11737"></path><path d="M682.666667 682.666667h341.333333v341.333333H682.666667z" opacity=".16" p-id="11738"></path><path d="M1024 682.666667h341.333333v341.333333H1024z" opacity=".04" p-id="11739"></path></svg>