<svg xmlns="http://www.w3.org/2000/svg" version="1.0" viewBox="0 0 64 64"><path fill-opacity=".2" d="M51.8 11.8c1.5 1.5 2.9 2.6 3.1 2.5.6-.4-4.1-5.3-5-5.3-.4 0 .4 1.3 1.9 2.8M30.4 22.2l-2.9 3.3 3.3-2.9c3-2.8 3.7-3.6 2.9-3.6-.2 0-1.6 1.5-3.3 3.2m10.5 11.5-2.4 2.8 2.8-2.4c2.5-2.3 3.2-3.1 2.4-3.1-.2 0-1.4 1.2-2.8 2.7"/><path fill-opacity=".4" d="M53 8.4c0 .2.8 1 1.8 1.7 1.5 1.3 1.6 1.2.3-.4S53 7.6 53 8.4"/><path fill-opacity=".3" d="M31.9 24.7c-1.3 1.6-1.2 1.7.4.4.9-.7 1.7-1.5 1.7-1.7 0-.8-.8-.3-2.1 1.3m7 7c-1.3 1.6-1.2 1.7.4.4s2.1-2.1 1.3-2.1c-.2 0-1 .8-1.7 1.7"/><path fill-opacity=".1" d="m33.4 10.2-1.9 2.3 2.3-1.9C35.9 8.8 36.5 8 35.7 8c-.2 0-1.2 1-2.3 2.2m1.5 7.5c-1.3 1.6-1.2 1.7.4.4s2.1-2.1 1.3-2.1c-.2 0-1 .8-1.7 1.7m-9.5 9.5-1.9 2.3 2.3-1.9c2.1-1.8 2.7-2.6 1.9-2.6-.2 0-1.2 1-2.3 2.2m20 2-1.9 2.3 2.3-1.9c2.1-1.8 2.7-2.6 1.9-2.6-.2 0-1.2 1-2.3 2.2m-9 9-1.9 2.3 2.3-1.9c2.1-1.8 2.7-2.6 1.9-2.6-.2 0-1.2 1-2.3 2.2M15 48.5c1.3 1.4 2.6 2.5 2.8 2.5.3 0-.5-1.1-1.8-2.5S13.4 46 13.2 46c-.3 0 .5 1.1 1.8 2.5m-2 2c1.3 1.4 2.6 2.5 2.8 2.5.3 0-.5-1.1-1.8-2.5S11.4 48 11.2 48c-.3 0 .5 1.1 1.8 2.5"/><path fill-opacity=".9" d="M48.4 9.2c-.5.7-.3.8.5.3 1.5-.9 6.4 3.4 5.7 5.1-.5 1.2 1.9 1.3 2.9.1.3-.4.2-.5-.1-.3-.3.3-1.9-1.1-3.6-3-3.2-3.6-4.3-4.1-5.4-2.2m-5.5 2c0 .2-.2 1.1-.4 2.1-.3 1.5-.1 1.6 1.1.6.7-.6 1.1-1.5.8-2-.5-.9-1.3-1.2-1.5-.7m-11.4 11c-2.8 2.9-4.3 4.7-3.4 4 .9-.6 1.8-1 2.1-.7s1.3-.4 2.3-1.5 1.4-2 1-2c-.5 0 .2-1.1 1.5-2.5s2.1-2.5 1.9-2.5c-.3 0-2.7 2.3-5.4 5.2m1.5.2c0 .2-.8 1-1.7 1.7-1.6 1.3-1.7 1.2-.4-.4s2.1-2.1 2.1-1.3m17.1-2c-1 1.1-.9 1.4.1 1.2 1.4-.2 2.3-1.5 1.5-2.2-.2-.2-1 .2-1.6 1m-25.7 3.7c-.8 1.4 1.4 1.9 2.5.6.8-1 .7-1.4-.5-1.4-.8 0-1.7.4-2 .8M44 29.5c-.7.8-1.6 1.3-2 1-.4-.2-1.5.4-2.5 1.5s-1.5 2-1 2c.4 0 .2.7-.5 1.5-2.5 3.1-.3 1.4 4-3 2.4-2.5 4.2-4.5 3.8-4.5-.3 0-1.1.7-1.8 1.5m-2 1.9c0 .2-.8 1-1.7 1.7-1.6 1.3-1.7 1.2-.4-.4s2.1-2.1 2.1-1.3m-24.1 5.2c-.7.9-.6 1.2.6 1 2.2-.3 4-2.3 2-2.3-.8 0-2 .6-2.6 1.3m9.1 6.9c-.7.8-.9 1.5-.5 1.5s.1.8-.6 1.7c-1.3 1.7-1.3 1.7.7 0 1.1-.9 2.1-2.4 2.1-3.2 0-1.9-.2-1.9-1.7 0m-16.3 1.4c-1 1.2-.9 1.3.2.6 1.1-.6 1.3-.4.8.8-.9 2.4-.2 2.1 1.6-.6 1.3-2 1.3-2.4.1-2.4-.8 0-2 .7-2.7 1.6m7.4 6-2.3 1.8 2.3-.2c1.2-.1 2.3-.9 2.5-1.8.3-2.1.4-2.1-2.5.2m-14.5 8c-.4.5-.2 1.2.3 1.5.5.4 1.2.2 1.5-.3.4-.5.2-1.2-.3-1.5-.5-.4-1.2-.2-1.5.3"/><path d="M54 4.5c-1.5.9-3.8 1.2-5.7.9-1.8-.4-4.4-.3-5.8 0-3.7.9-9.4 6.3-13.7 13.1-2.2 3.3-4.9 6.3-6.1 6.7-2 .7-2 .7.3.5 1.8-.1 3.4-1.6 5.7-5.1C33.5 13.2 39 8.1 43.3 6.9c2.2-.6 4.2-.8 4.5-.4.3.3-4.1 4.9-9.8 10.3C23.5 30.3 10.8 44.9 7.6 51.7c-1.5 3.2-3.2 6.6-3.7 7.6-.8 1.5-.7 1.6.8.8 1-.5 4.4-2.2 7.6-3.7C23 51.3 53.1 22.2 58.6 11.5 61 7 61.2 6 60.1 4.6c-1.6-1.9-2.8-2-6.1-.1m5 2.1c0 .8-.5 2.4-1.1 3.6-1.1 2-1.1 2-3.5-.3-1.8-1.7-2.1-2.5-1.3-3.6 1.6-1.9 5.9-1.7 5.9.3M53.5 11l2.8 2.9-4.5 5.3c-6.4 7.4-14.9 15.9-25.1 25.2l-8.8 7.9-3.2-3.1-3.1-3.2 3.5-3.7c1.9-2.1 6.4-7 9.9-10.8C31.5 24.4 49 8 50.1 8c.3 0 1.8 1.3 3.4 3m-37 42c-.6 1-7 4-8.5 4s-.6-4.2 1.7-7.7l1.6-2.4 2.8 2.7c1.6 1.5 2.6 3 2.4 3.4"/><path fill-opacity=".5" d="M36.9 19.7c-1.3 1.6-1.2 1.7.4.4s2.1-2.1 1.3-2.1c-.2 0-1 .8-1.7 1.7m-10 10c-1.3 1.6-1.2 1.7.4.4s2.1-2.1 1.3-2.1c-.2 0-1 .8-1.7 1.7"/><path fill-opacity=".8" d="m24.4 29.2-1.9 2.3 2.3-1.9c2.1-1.8 2.7-2.6 1.9-2.6-.2 0-1.2 1-2.3 2.2m10 10-1.9 2.3 2.3-1.9c2.1-1.8 2.7-2.6 1.9-2.6-.2 0-1.2 1-2.3 2.2m-21.8 8.6c-.3.5.3 1.7 1.3 2.6 1.1 1 2.2 1.3 2.5.8s-.3-1.7-1.3-2.6c-1.1-1-2.2-1.3-2.5-.8m2.5 1.9c1.3 1.6 1.2 1.7-.3.4-1-.7-1.8-1.5-1.8-1.7 0-.8.8-.3 2.1 1.3"/></svg>