<?xml version="1.0" standalone="no"?><!DOCTYPE svg PUBLIC "-//W3C//DTD SVG 1.1//EN" "http://www.w3.org/Graphics/SVG/1.1/DTD/svg11.dtd"><svg t="1732031077973" class="icon" viewBox="0 0 1024 1024" version="1.1" xmlns="http://www.w3.org/2000/svg" p-id="40030" xmlns:xlink="http://www.w3.org/1999/xlink" width="200" height="200"><path d="M512 0l442.181818 256v512L512 1024 69.818182 768V256L512 0z m0 28.276364L93.090909 270.149818v483.700364l418.909091 241.873454 418.909091-241.873454V270.149818L512 28.276364zM279.272727 279.272727h209.454546v209.454546H279.272727v-209.454546z m23.272728 23.272728v162.90909h162.90909v-162.90909h-162.90909z m46.545454 46.545454h69.818182v69.818182h-69.818182v-69.818182z m23.272727 23.272727v23.272728h23.272728v-23.272728h-23.272728z m162.909091-93.090909h209.454546v209.454546h-209.454546v-209.454546z m23.272728 23.272728v162.90909h162.90909v-162.90909h-162.90909zM279.272727 535.272727h209.454546v209.454546H279.272727v-209.454546z m23.272728 23.272728v162.90909h162.90909v-162.90909h-162.90909z m69.818181 69.818181h23.272728v23.272728h-23.272728v-23.272728z m256-256h23.272728v23.272728h-23.272728v-23.272728z m93.090909 162.909091h23.272728v209.454546h-23.272728v-209.454546z m-46.545454 0h23.272727v209.454546h-23.272727v-209.454546z m-46.545455 139.636364h23.272728v69.818182h-23.272728v-69.818182z m-46.545454 0h23.272727v69.818182h-23.272727v-69.818182z m-46.545455 0h23.272728v69.818182h-23.272728v-69.818182z m0-139.636364h116.363637v116.363637h-116.363637v-116.363637z m23.272728 23.272728v69.818181h69.818181v-69.818181h-69.818181z m23.272727 23.272727h23.272727v23.272727h-23.272727v-23.272727z" fill="#333333" p-id="40031"></path></svg>