<?xml version="1.0" standalone="no"?><!DOCTYPE svg PUBLIC "-//W3C//DTD SVG 1.1//EN" "http://www.w3.org/Graphics/SVG/1.1/DTD/svg11.dtd"><svg t="1732028585246" class="icon" viewBox="0 0 1216 1024" version="1.1" xmlns="http://www.w3.org/2000/svg" p-id="23711" xmlns:xlink="http://www.w3.org/1999/xlink" width="237.5" height="200"><path d="M999.76 931.792h-783.52a128 128 0 0 1-128-128V220.208a128 128 0 0 1 128-128h783.52a128 128 0 0 1 128 128v583.584a128 128 0 0 1-128 128zM8.288 204.272v615.472c0 106.032 85.952 192 192 192h815.296c106.032 0 192-85.968 192-192V204.256c0-106.032-85.968-192-192-192H200.288c-106.048 0-192 85.968-192 192z" fill="#000000" p-id="23712"></path></svg>