<?xml version="1.0" standalone="no"?><!DOCTYPE svg PUBLIC "-//W3C//DTD SVG 1.1//EN" "http://www.w3.org/Graphics/SVG/1.1/DTD/svg11.dtd"><svg t="1732029393151" class="icon" viewBox="0 0 1024 1024" version="1.1" xmlns="http://www.w3.org/2000/svg" p-id="29267" xmlns:xlink="http://www.w3.org/1999/xlink" width="200" height="200"><path d="M375.488 136.512a238.912 238.912 0 0 0-238.976 238.976v170.624H68.288V375.488a307.2 307.2 0 0 1 307.2-307.2h170.624v68.224H375.488z m375.424 0h-68.224V68.288h68.224v68.224z m204.8 0h-68.224V68.288h68.224v68.224z m0 204.8h-68.224V273.088h68.224v68.224z m0 204.8h-68.224V477.888h68.224v68.224z m-819.2 204.8H68.288v-68.224h68.224v68.224z m819.2 0h-68.224v-68.224h68.224v68.224z m-819.2 204.8H68.288v-68.224h68.224v68.224z m204.8 0H273.088v-68.224h68.224v68.224z m204.8 0H477.888v-68.224h68.224v68.224z m204.8 0h-68.224v-68.224h68.224v68.224z m204.8 0h-68.224v-68.224h68.224v68.224z" p-id="29268"></path></svg>