<!-- <svg xmlns="http://www.w3.org/2000/svg" version="1.0" viewBox="0 0 32 32"><path fill="#FFF" d="M10 16v9.3l2.3-2.1 2.4-2.2 1.1 2.5c.6 1.4 1.6 2.5 2.1 2.5 1.7 0 2.2-1.9 1.1-3.9-.9-1.7-.6-2 1.5-2.3 2.4-.3 2.2-.7-4-6.8L10 6.6zm9 2.8c-1.4.2-2 .9-1.6 1.8.3.8.9 2.1 1.2 2.9 1.1 2.6-1.2 1.6-2.5-1.1-1.1-2.6-1.2-2.6-3.1-.9-2 1.8-2 1.7-2-5.6V8.6l5.1 4.9c4.4 4.4 4.8 5 2.9 5.3"/><path fill-opacity=".1" d="M17.5 14c3.3 3.3 6.2 6 6.4 6 .3 0-2.1-2.7-5.4-6s-6.2-6-6.4-6c-.3 0 2.1 2.7 5.4 6m3.3 7.7c.7.3 1.6.2 1.9-.1.4-.3-.2-.6-1.3-.5-1.1 0-1.4.3-.6.6m-7.9 3c-1.3 1.7-1.3 1.7.6.3 1.1-.8 2.2-1.6 2.4-1.7q.3-.3-.6-.3c-.6 0-1.7.8-2.4 1.7"/><path d="M11 16c0 7.1 0 7.3 1.9 5.6s2-1.7 3.4 1c1.5 2.8 1.5 2.8 1.5-2.3 0-4.5-.4-5.5-3.4-8.4L11 8.6z"/><path fill="#404040" d="M18 17.5c0 .8.7 1.5 1.6 1.5 1.4 0 1.4-.3.4-1.5-.7-.8-1.4-1.5-1.6-1.5s-.4.7-.4 1.5"/><path fill-opacity=".4" d="M12.9 22.7c-1.3 1.6-1.2 1.7.4.4.9-.7 1.7-1.5 1.7-1.7 0-.8-.8-.3-2.1 1.3"/><path fill-opacity=".3" d="M20.8 20.7c.7.3 1.6.2 1.9-.1.4-.3-.2-.6-1.3-.5-1.1 0-1.4.3-.6.6m-8.2 2.8c-1.1.8-1.5 1.5-.9 1.5s1.6-.7 2.3-1.5c1.6-1.9 1.1-1.9-1.4 0m6.6 2.1c-.7.8-.8 1.4-.3 1.4 1 0 2.5-1.9 2-2.5-.2-.1-1 .3-1.7 1.1"/></svg> -->

<svg xmlns="http://www.w3.org/2000/svg" x="0px" y="0px" width="64" height="64" viewBox="0 0 50 50"> <path d="M 14.78125 5 C 14.75 5.007813 14.71875 5.019531 14.6875 5.03125 C 14.644531 5.050781 14.601563 5.070313 14.5625 5.09375 C 14.550781 5.09375 14.542969 5.09375 14.53125 5.09375 C 14.511719 5.101563 14.488281 5.113281 14.46875 5.125 C 14.457031 5.136719 14.449219 5.144531 14.4375 5.15625 C 14.425781 5.167969 14.417969 5.175781 14.40625 5.1875 C 14.375 5.207031 14.34375 5.226563 14.3125 5.25 C 14.289063 5.269531 14.269531 5.289063 14.25 5.3125 C 14.238281 5.332031 14.226563 5.355469 14.21875 5.375 C 14.183594 5.414063 14.152344 5.457031 14.125 5.5 C 14.113281 5.511719 14.105469 5.519531 14.09375 5.53125 C 14.09375 5.542969 14.09375 5.550781 14.09375 5.5625 C 14.082031 5.582031 14.070313 5.605469 14.0625 5.625 C 14.050781 5.636719 14.042969 5.644531 14.03125 5.65625 C 14.03125 5.675781 14.03125 5.699219 14.03125 5.71875 C 14.019531 5.757813 14.007813 5.800781 14 5.84375 C 14 5.875 14 5.90625 14 5.9375 C 14 5.949219 14 5.957031 14 5.96875 C 14 5.980469 14 5.988281 14 6 C 13.996094 6.050781 13.996094 6.105469 14 6.15625 L 14 39 C 14.003906 39.398438 14.242188 39.757813 14.609375 39.914063 C 14.972656 40.070313 15.398438 39.992188 15.6875 39.71875 L 22.9375 32.90625 L 28.78125 46.40625 C 28.890625 46.652344 29.09375 46.847656 29.347656 46.941406 C 29.601563 47.035156 29.882813 47.023438 30.125 46.90625 L 34.5 44.90625 C 34.996094 44.679688 35.21875 44.09375 35 43.59375 L 28.90625 30.28125 L 39.09375 29.40625 C 39.496094 29.378906 39.84375 29.113281 39.976563 28.730469 C 40.105469 28.347656 39.992188 27.921875 39.6875 27.65625 L 15.84375 5.4375 C 15.796875 5.378906 15.746094 5.328125 15.6875 5.28125 C 15.648438 5.234375 15.609375 5.195313 15.5625 5.15625 C 15.550781 5.15625 15.542969 5.15625 15.53125 5.15625 C 15.511719 5.132813 15.492188 5.113281 15.46875 5.09375 C 15.457031 5.09375 15.449219 5.09375 15.4375 5.09375 C 15.386719 5.070313 15.335938 5.046875 15.28125 5.03125 C 15.269531 5.03125 15.261719 5.03125 15.25 5.03125 C 15.230469 5.019531 15.207031 5.007813 15.1875 5 C 15.175781 5 15.167969 5 15.15625 5 C 15.136719 5 15.113281 5 15.09375 5 C 15.082031 5 15.074219 5 15.0625 5 C 15.042969 5 15.019531 5 15 5 C 14.988281 5 14.980469 5 14.96875 5 C 14.9375 5 14.90625 5 14.875 5 C 14.84375 5 14.8125 5 14.78125 5 Z M 16 8.28125 L 36.6875 27.59375 L 27.3125 28.40625 C 26.992188 28.4375 26.707031 28.621094 26.546875 28.902344 C 26.382813 29.179688 26.367188 29.519531 26.5 29.8125 L 32.78125 43.5 L 30.21875 44.65625 L 24.21875 30.8125 C 24.089844 30.515625 23.828125 30.296875 23.511719 30.230469 C 23.195313 30.160156 22.863281 30.25 22.625 30.46875 L 16 36.6875 Z"></path> </svg>