<?xml version="1.0" standalone="no"?><!DOCTYPE svg PUBLIC "-//W3C//DTD SVG 1.1//EN" "http://www.w3.org/Graphics/SVG/1.1/DTD/svg11.dtd"><svg t="1732704403444" class="icon" viewBox="0 0 1024 1024" version="1.1" xmlns="http://www.w3.org/2000/svg" p-id="27455" xmlns:xlink="http://www.w3.org/1999/xlink" width="200" height="200"><path d="M448.010238 543.912974H128.06143A95.984642 95.984642 0 0 0 32.076788 639.897616v255.959047A95.984642 95.984642 0 0 0 128.06143 991.841305h255.959047A95.984642 95.984642 0 0 0 480.005119 895.856663V575.907855a31.994881 31.994881 0 0 0-31.994881-31.994881z m-31.99488 63.989762V895.856663a31.994881 31.994881 0 0 1-31.994881 31.994881H128.06143a31.994881 31.994881 0 0 1-31.994881-31.994881v-255.959047a31.994881 31.994881 0 0 1 31.994881-31.99488h287.953928zM745.306671 521.260598l-57.846745 57.846745H611.184131l-5.759079 0.511918a31.994881 31.994881 0 0 0-26.235802 31.482963v76.275796l-57.846745 57.846744-3.647416 4.479283a31.994881 31.994881 0 0 0 3.647416 40.825468l57.846745 57.782755v76.339786l0.511918 5.759078a31.994881 31.994881 0 0 0 31.482963 26.235802h76.339785l57.782755 57.846745 4.479283 3.647416a31.994881 31.994881 0 0 0 40.825468-3.647416l57.718765-57.846745h76.403776l5.759078-0.511918a31.994881 31.994881 0 0 0 26.235802-31.482962v-76.403776l57.846745-57.718765 3.647416-4.479283a31.994881 31.994881 0 0 0-3.647416-40.825468l-57.846745-57.782755V611.102224l-0.511918-5.759079a31.994881 31.994881 0 0 0-31.482962-26.235802h-76.339786l-57.782755-57.846745a31.994881 31.994881 0 0 0-45.304751 0zM767.959047 589.153735l44.536874 44.600864 3.839385 3.199488a31.994881 31.994881 0 0 0 18.81299 6.143017h57.590786v57.590786l0.383938 5.055191a31.994881 31.994881 0 0 0 8.958567 17.597185l44.600864 44.536874-44.600864 44.536874-3.199488 3.839385a31.994881 31.994881 0 0 0-6.143017 18.81299v57.590786h-57.590786l-5.055191 0.383938a31.994881 31.994881 0 0 0-17.597184 8.958567l-44.536874 44.600864-44.536875-44.600864-3.839385-3.199488a31.994881 31.994881 0 0 0-18.81299-6.143017h-57.590786v-57.590786l-0.383938-5.055191a31.994881 31.994881 0 0 0-8.958567-17.597184L589.235642 767.87714l44.600864-44.536874 3.199488-3.839386a31.994881 31.994881 0 0 0 6.143017-18.81299v-57.590786h57.590786a31.994881 31.994881 0 0 0 22.652375-9.342505L767.959047 589.153735z" p-id="27456"></path><path d="M767.959047 668.693009a99.184131 99.184131 0 1 0 0 198.368261 99.184131 99.184131 0 0 0 0-198.368261z m0 63.989762a35.194369 35.194369 0 1 1 0 70.388738 35.194369 35.194369 0 0 1 0-70.388738zM895.93857 31.994881h-255.959047A95.984642 95.984642 0 0 0 543.994881 127.979523v319.948808a31.994881 31.994881 0 0 0 31.994881 31.994881h319.948808A95.984642 95.984642 0 0 0 991.923212 383.93857V127.979523A95.984642 95.984642 0 0 0 895.93857 31.994881z m0 63.989761a31.994881 31.994881 0 0 1 31.994881 31.994881v255.959047l-0.511918 5.759078A31.994881 31.994881 0 0 1 895.93857 415.933451H607.984642V127.979523a31.994881 31.994881 0 0 1 31.994881-31.994881h255.959047zM128.06143 479.923212h319.948808a31.994881 31.994881 0 0 0 31.994881-31.994881V127.979523A95.984642 95.984642 0 0 0 384.020477 31.994881H128.06143A95.984642 95.984642 0 0 0 32.076788 127.979523v255.959047A95.984642 95.984642 0 0 0 128.06143 479.923212zM416.015358 127.979523v287.953928H128.06143a31.994881 31.994881 0 0 1-31.994881-31.994881V127.979523a31.994881 31.994881 0 0 1 31.994881-31.994881h255.959047a31.994881 31.994881 0 0 1 31.994881 31.994881z" p-id="27457"></path></svg>