<svg xmlns="http://www.w3.org/2000/svg" version="1.0" viewBox="0 0 64 64"><path fill-opacity=".1" d="M30.8 5.7c.6.2 1.8.2 2.5 0 .6-.3.1-.5-1.3-.5s-1.9.2-1.2.5m-18.9 4c-1.3 1.6-1.2 1.7.4.4.9-.7 1.7-1.5 1.7-1.7 0-.8-.8-.3-2.1 1.3M5.2 32c0 1.4.2 1.9.5 1.2.2-.6.2-1.8 0-2.5-.3-.6-.5-.1-.5 1.3m53 0c0 1.4.2 1.9.5 1.2.2-.6.2-1.8 0-2.5-.3-.6-.5-.1-.5 1.3M11 53.4c0 .2.8 1 1.8 1.7 1.5 1.3 1.6 1.2.3-.4S11 52.6 11 53.4m19.8 5.3c.6.2 1.8.2 2.5 0 .6-.3.1-.5-1.3-.5s-1.9.2-1.2.5"/><path fill-opacity=".4" d="M29.8 2.7c1.2.2 3.2.2 4.5 0 1.2-.2.2-.4-2.3-.4s-3.5.2-2.2.4M2.3 32c0 2.5.2 3.5.4 2.2.2-1.2.2-3.2 0-4.5-.2-1.2-.4-.2-.4 2.3m59 0c0 2.5.2 3.5.4 2.2.2-1.2.2-3.2 0-4.5-.2-1.2-.4-.2-.4 2.3M29.8 61.7c1.2.2 3.2.2 4.5 0 1.2-.2.2-.4-2.3-.4s-3.5.2-2.2.4"/><g stroke-width="0"><path d="M27.6 5.2c-.3 1.3-.7 3.2-.8 4.3-.2 1.1-1.5 2.4-3.1 2.9-2.2.8-3.3.6-5.8-1.3l-3.1-2.3-2.8 2.7-2.9 2.8 2.2 3.7c1.8 3.2 1.9 4.2.9 6.4-.8 1.8-1.9 2.6-3.6 2.6C4.1 27 3 28 3 32.1c0 4 .2 4.2 6.5 5.1 1.1.2 2.4 1.5 2.9 3.1.8 2.2.6 3.3-1.3 5.8l-2.3 3.1 2.7 2.8 2.8 2.9 3.7-2.2c3.2-1.8 4.2-1.9 6.4-.9 1.8.8 2.6 1.9 2.6 3.6 0 4.5 1 5.6 5.1 5.6 3.8 0 3.9-.1 4.5-4 .5-3 1.4-4.4 3.3-5.4 2.3-1.2 3-1.1 6.1 1l3.5 2.4 2.9-2.9 2.9-2.9-2.6-3.3c-2.4-3.1-2.5-3.5-1.1-6.1 1-1.9 2.2-2.8 3.8-2.8 4.5 0 5.6-1 5.6-5s-1.1-5-5.6-5c-1.6 0-2.8-.9-3.8-2.8-1.3-2.5-1.2-3 1-6.2l2.4-3.5-2.9-2.9-2.9-2.9-3.3 2.6c-3 2.3-3.5 2.4-6 1.2-1.9-1.1-2.8-2.4-3.3-5.5-.6-3.9-.7-4-4.6-4-3.3 0-4 .4-4.4 2.2m8 3.6c.5 3.3 1.1 4.1 4 5.1 3 1.1 3.7 1 6.4-1l3-2.3 2.2 2.2 2.2 2.2-2.3 3c-2 2.7-2.1 3.4-1 6.4 1 2.9 1.8 3.5 5.1 4 3.4.6 3.8.9 3.8 3.6s-.4 3-3.8 3.6c-3.3.5-4.1 1.1-5.1 4-1.1 3-1 3.7 1 6.4l2.3 3-2.2 2.2-2.2 2.2-3-2.3c-2.7-2-3.4-2.1-6.4-1-2.9 1-3.5 1.8-4 5.1-.6 3.4-.9 3.8-3.6 3.8s-3-.4-3.6-3.8c-.5-3.3-1.1-4.1-4-5.1-3-1.1-3.7-1-6.4 1l-3 2.3-2.2-2.2-2.2-2.2 2.3-3c2-2.7 2.1-3.4 1-6.4-1-2.9-1.8-3.5-5.1-4C5.4 35 5 34.7 5 32s.4-3 3.8-3.6c3.3-.5 4.1-1.1 5.1-4 1.1-3 1-3.7-1-6.4l-2.3-3 2.2-2.2 2.2-2.2 3 2.3c2.7 2 3.4 2.1 6.4 1 2.9-1 3.5-1.8 4-5.1C29 5.4 29.3 5 32 5s3 .4 3.6 3.8"/><path d="M27.4 23.9c-1.7 1-3.7 3.3-4.4 5.1-1.8 4.3.6 9.4 5.5 11.7 3.3 1.6 3.7 1.6 7 0 4.9-2.3 7.3-7.4 5.5-11.7-1.3-3.2-6.2-7-9-7-.8 0-2.9.9-4.6 1.9m10.3 2.3C42.8 31 39.2 40 32.1 40c-4.7 0-8.1-3.2-8.1-7.9 0-7.2 8.4-10.9 13.7-5.9"/></g><path fill-opacity=".9" d="m10.9 11.7-2.4 2.8 2.8-2.4c1.5-1.4 2.7-2.6 2.7-2.8 0-.8-.8-.1-3.1 2.4m41.1-.2c1.3 1.4 2.6 2.5 2.8 2.5.3 0-.5-1.1-1.8-2.5S50.4 9 50.2 9c-.3 0 .5 1.1 1.8 2.5m-1.4 6.3c-.3.5.1.9.9.9s1.2-.4.9-.9c-.3-.4-.7-.8-.9-.8s-.6.4-.9.8M11 52.5c1.3 1.4 2.6 2.5 2.8 2.5.3 0-.5-1.1-1.8-2.5S9.4 50 9.2 50c-.3 0 .5 1.1 1.8 2.5m6.5-1.6c-.3.5-.2 1.2.3 1.5s.9-.1.9-.9c0-1.7-.3-1.9-1.2-.6m27.8.6c0 .8.4 1.2.9.9s.6-1 .3-1.5c-.9-1.3-1.2-1.1-1.2.6m6.6 1.2-2.4 2.8 2.8-2.4c1.5-1.4 2.7-2.6 2.7-2.8 0-.8-.8-.1-3.1 2.4"/><path fill-opacity=".2" d="M51 9.4c0 .2.8 1 1.8 1.7 1.5 1.3 1.6 1.2.3-.4S51 8.6 51 9.4m1.4 43.8-1.9 2.3 2.3-1.9c2.1-1.8 2.7-2.6 1.9-2.6-.2 0-1.2 1-2.3 2.2"/></svg>