<?xml version="1.0" standalone="no"?><!DOCTYPE svg PUBLIC "-//W3C//DTD SVG 1.1//EN" "http://www.w3.org/Graphics/SVG/1.1/DTD/svg11.dtd"><svg t="1732022152360" class="icon" viewBox="0 0 1024 1024" version="1.1" xmlns="http://www.w3.org/2000/svg" p-id="1519" xmlns:xlink="http://www.w3.org/1999/xlink" width="200" height="200"><path d="M954.88 210.747077l-141.627077 0L813.252923 69.12C813.252923 52.775385 799.901538 39.384615 783.556923 39.384615L69.159385 39.384615C52.736 39.384615 39.384615 52.775385 39.384615 69.12l0 714.358154c0 16.423385 13.351385 29.774769 29.774769 29.774769l141.587692 0 0 141.587692C210.747077 971.264 224.098462 984.615385 240.482462 984.615385l714.397538 0C971.224615 984.615385 984.615385 971.264 984.615385 954.840615L984.615385 240.443077C984.615385 224.098462 971.224615 210.747077 954.88 210.747077zM98.934154 98.894769l654.769231 0 0 654.808615L98.934154 753.703385 98.934154 98.894769zM270.296615 925.065846l0-63.212308 63.212308 63.212308L270.296615 925.065846zM418.540308 925.065846l-111.812923-111.812923 57.344 0 111.773538 111.812923L418.540308 925.065846zM560.836923 925.065846l-111.773538-111.812923 48.521846 0 111.812923 111.812923L560.836923 925.065846zM694.429538 925.065846l-111.812923-111.812923 51.515077 0 111.773538 111.812923L694.429538 925.065846zM830.897231 925.065846l-111.773538-111.812923 48.521846 0 111.852308 111.812923L830.897231 925.065846zM925.026462 885.720615l-111.773538-111.852308 0-57.304615 111.773538 111.773538L925.026462 885.720615zM925.026462 743.345231l-111.773538-111.773538 0-48.521846 111.773538 111.773538L925.026462 743.345231zM925.026462 609.792l-111.773538-111.812923 0-51.475692 111.773538 111.773538L925.026462 609.792zM925.026462 473.324308l-111.773538-111.773538L813.252923 312.989538l111.773538 111.773538L925.026462 473.324308zM925.026462 339.731692l-69.474462-69.513846 69.474462 0L925.026462 339.731692z" fill="#333333" p-id="1520"></path></svg>