<svg width="1024" height="1024" xmlns="http://www.w3.org/2000/svg" p-id="11882" version="1.1" class="icon" t="1732028998075">

 <g>
  <title>Layer 1</title>
  <path id="svg_1" p-id="11883" fill="#999999" d="m938.66667,768l-170.66667,0l0,170.66667l170.66667,0l0,-170.66667zm-341.33334,0l-170.66666,0l0,170.66667l170.66666,0l0,-170.66667zm-341.33333,0l-170.66667,0l0,170.66667l170.66667,0l0,-170.66667zm682.66667,-341.33333l-170.66667,0l0,170.66666l170.66667,0l0,-170.66666zm-341.33334,0l-170.66666,0l0,170.66666l170.66666,0l0,-170.66666zm-341.33333,0l-170.66667,0l0,170.66666l170.66667,0l0,-170.66666zm682.66667,-341.33334l-170.66667,0l0,170.66667l170.66667,0l0,-170.66667zm-341.33334,0l-170.66666,0l0,170.66667l170.66666,0l0,-170.66667zm-341.33333,0l-170.66667,0l0,170.66667l170.66667,0l0,-170.66667zm170.66667,170.66667l-170.66667,0l0,170.66667l170.66667,0l0,-170.66667zm0,341.33333l-170.66667,0l0,170.66667l170.66667,0l0,-170.66667zm341.33333,-341.33333l-170.66667,0l0,170.66667l170.66667,0l0,-170.66667zm0,341.33333l-170.66667,0l0,170.66667l170.66667,0l0,-170.66667z"/>
  <ellipse stroke-width="20" stroke="#000" ry="419.99999" rx="424.99997" id="svg_2" cy="509.99996" cx="513.66663" fill="none"/>
 </g>
</svg>