<svg xmlns="http://www.w3.org/2000/svg" version="1.0" viewBox="0 0 80 80"><path fill-opacity=".6" d="M50.3 17.7c1.5.2 3.7.2 5 0 1.2-.2 0-.4-2.8-.4-2.7 0-3.8.2-2.2.4m-4 9.3c0 2.5.2 3.5.4 2.2.2-1.2.2-3.2 0-4.5-.2-1.2-.4-.2-.4 2.3m16 .5c0 2.7.2 3.8.4 2.2.2-1.5.2-3.7 0-5-.2-1.2-.4 0-.4 2.8"/><path fill-opacity=".3" d="M50.3 21.7c1.5.2 3.7.2 5 0 1.2-.2 0-.4-2.8-.4-2.7 0-3.8.2-2.2.4m-8 5.8c0 2.7.2 3.8.4 2.2.2-1.5.2-3.7 0-5-.2-1.2-.4 0-.4 2.8m16 0c0 2.7.2 3.8.4 2.2.2-1.5.2-3.7 0-5-.2-1.2-.4 0-.4 2.8"/><path d="M19.9 19.9c-2.3 2.4-2.9 3.8-2.9 7.3.1 6.3 4.5 10.8 10.8 10.8C32.4 38 38 32.5 38 28c0-3.6-2.8-9-4.7-9-1.7 0-1.6 1 .2 3.4 3.8 5.1 0 12.6-6.3 12.6-4.4 0-7.2-3-7.2-7.8 0-4.3 1.8-6.5 6.3-7.6 3.7-.9 3.4-2.6-.4-2.6-2 0-4 1-6 2.9m24.7.3c-2.4 3.4-2.1 12.3.5 14.9 2 2 4 2.2 4.6.2.2-.6-.6-1.3-1.7-1.6-1.9-.5-2.1-1.2-1.8-6.4l.3-5.8 6.3-.3 6.2-.3v6c0 5.1-.3 6.2-2.1 7.2-1.5.7-1.8 1.4-1.1 2.1.8.8 1.9.6 3.6-.6 2.3-1.5 2.6-2.3 2.6-8 0-8.2-1.4-9.6-9.8-9.6-5.2 0-6.3.3-7.6 2.2m2.1 24.6c-4.5 3.2-5.4 6-3.7 11.5 1.6 5.7 2.5 6.5 7.3 7.2 4.7.7 9.4-.7 10.3-3 .8-2.1-.3-3.2-1.8-1.7-.7.7-3.5 1.2-6.4 1.2-4.9 0-5.3-.2-6.3-3.1-1.9-5.4-1.4-7.6 2.3-9.8 1.8-1.2 3.9-2.1 4.5-2.1 2.2 0 8.1 5.2 8.1 7.1 0 2 1.5 2.5 2.5.9 1.2-1.9-.6-4.9-4.7-8-5.1-3.7-7.2-3.7-12.1-.2m-21.5-1.1c-1.1.4-4.2 5.4-4.2 6.8 0 1.6 2.8.1 3.8-2 .6-1.4 1.7-2.5 2.4-2.5 1.3 0 7.8 10.7 7.8 12.9 0 1.2-14.1 1.6-15.3.5-.3-.4-.2-1.5.3-2.5 1.2-2.2-.8-3.9-2.1-1.8-1.6 2.5-.5 6.3 2.1 7.6 3.2 1.6 11.8 1.6 15 0 3.6-1.8 3.6-4.7 0-10.8-5-8.5-6.3-9.6-9.8-8.2"/><path fill-opacity=".1" d="M64.1 51.6c0 1.1.3 1.4.6.6.3-.7.2-1.6-.1-1.9-.3-.4-.6.2-.5 1.3"/></svg>