<?xml version="1.0" standalone="no"?><!DOCTYPE svg PUBLIC "-//W3C//DTD SVG 1.1//EN" "http://www.w3.org/Graphics/SVG/1.1/DTD/svg11.dtd"><svg t="1732096925495" class="icon" viewBox="0 0 1024 1024" version="1.1" xmlns="http://www.w3.org/2000/svg" p-id="57783" xmlns:xlink="http://www.w3.org/1999/xlink" width="200" height="200"><path d="M0 0m0 0l1024 0q0 0 0 0l0 1024q0 0 0 0l-1024 0q0 0 0 0l0-1024q0 0 0 0Z" fill="#FFFFFF" fill-opacity="0" p-id="57784"></path><path d="M863.045818 910.382545h-265.774545c-35.374545 0-64.232727-26.996364-67.956364-60.974545-0.465455-5.12-0.465455-9.774545-0.465454-14.894545v-49.338182h-352.349091c-37.701818 0-68.421818-30.72-68.421819-68.421818V193.582545c0-37.701818 30.72-68.421818 68.421819-68.421818h642.792727c37.701818 0 67.956364 30.72 67.956364 68.421818v394.705455c29.789091 7.447273 51.2 33.047273 51.2 58.647273l0.09309 4.701091c0.139636 3.258182 0.232727 6.609455-0.09309 9.728v180.596363c0 35.374545-26.530909 64.232727-60.974546 67.956364-4.654545 0.465455-9.309091 0.465455-14.429091 0.465454z m-697.250909-188.974545c0.465455 1.396364 1.396364 2.327273 2.327273 3.258182 1.396364 1.396364 2.327273 2.327273 3.723636 2.792727 1.396364 0.465455 2.792727 0.930909 4.654546 0.930909h352.349091v-67.490909c0-4.189091 0-8.843636 0.465454-13.498182 3.258182-32.116364 29.323636-57.716364 60.509091-60.974545 5.12-0.465455 9.774545-0.465455 14.894545-0.465455h11.17091c5.585455 0 10.705455-4.189091 11.636363-10.24 6.516364-27.927273 31.185455-48.872727 59.578182-52.130909l4.654545-0.093091c3.118545-0.139636 6.237091-0.232727 9.309091 0.093091h78.196364c20.48 0 38.632727 8.843636 51.2 22.807273v-352.814546c0-1.861818 0-3.258182-0.930909-4.654545-0.465455-1.396364-1.396364-2.327273-2.327273-3.723636a10.146909 10.146909 0 0 0-3.723636-2.327273c-1.396364-0.465455-2.792727-0.930909-4.189091-0.930909H176.500364c-1.861818 0-3.258182 0.465455-4.654546 0.930909s-2.327273 1.396364-3.723636 2.327273c-0.930909 1.396364-1.861818 2.327273-2.327273 3.723636-0.465455 1.396364-0.930909 2.792727-0.930909 4.654545v523.17091c0 1.861818 0.465455 3.258182 0.930909 4.654545z m431.476364 131.723636h271.36c0.930909 0.325818 1.722182 0.186182 2.327272 0.093091a5.538909 5.538909 0 0 1 0.93091-0.093091c0.930909 0 1.861818-0.465455 2.792727-0.465454 1.396364-0.930909 2.792727-1.396364 3.723636-2.792727 0.930909-0.930909 1.861818-2.327273 2.327273-3.258182 0.930909-1.396364 0.930909-3.258182 0.930909-4.654546v-189.44c0-0.930909-0.465455-1.861818-0.930909-2.792727-0.465455-1.396364-1.396364-2.327273-2.327273-3.723636a10.146909 10.146909 0 0 0-3.723636-2.327273c-1.396364-0.465455-2.792727-0.930909-4.189091-0.930909h-49.338182a28.392727 28.392727 0 0 1-28.392727-26.065455l-1.861818-24.669091c0-0.930909 0-1.861818-0.465455-2.792727 0-0.930909-0.465455-1.861818-0.930909-2.792727a14.149818 14.149818 0 0 0-2.327273-3.258182c-0.930909-0.930909-2.327273-1.396364-3.723636-2.327273-1.396364-0.465455-2.792727-0.465455-4.189091-0.465454h-86.574545c-0.930909 0-1.861818 0.465455-2.792728 0.465454-1.396364 0.930909-2.327273 1.396364-3.723636 2.327273-0.930909 0.930909-1.861818 2.327273-2.327273 3.258182-0.465455 0.930909-0.930909 1.861818-0.930909 2.792727 0 0.930909-0.465455 1.861818-0.465454 2.792727l-1.861819 24.669091a28.392727 28.392727 0 0 1-28.392727 26.065455h-56.32c-1.396364 0.465455-1.861818 0.465455-2.792727 0.930909-1.396364 0.465455-2.792727 1.396364-3.723637 2.327273-0.930909 1.396364-1.861818 2.327273-2.327272 3.723636-0.465455 0.930909-0.930909 1.861818-0.930909 2.792727v190.836364c0 1.396364 0.465455 2.327273 0.930909 3.258182 0.465455 0.930909 1.396364 2.327273 2.327272 3.258182 0.930909 1.396364 2.327273 1.861818 3.723637 2.792727 1.396364 0.465455 2.792727 0.465455 4.189091 0.465454z m68.421818-105.192727c0-39.098182 31.650909-70.749091 71.214545-70.749091 39.098182 0 70.749091 31.650909 70.749091 70.749091 0 39.563636-31.650909 71.214545-70.749091 71.214546-39.563636 0-71.214545-31.650909-71.214545-71.214546z" fill="#000000" p-id="57785"></path></svg>