<?xml version="1.0" standalone="no"?><!DOCTYPE svg PUBLIC "-//W3C//DTD SVG 1.1//EN" "http://www.w3.org/Graphics/SVG/1.1/DTD/svg11.dtd"><svg t="1732026427423" class="icon" viewBox="0 0 1024 1024" version="1.1" xmlns="http://www.w3.org/2000/svg" p-id="4691" xmlns:xlink="http://www.w3.org/1999/xlink" width="200" height="200"><path d="M324.096291 575.036751a28.310614 28.310614 0 0 1-14.998602-37.165209l97.039146-228.593147a28.280496 28.280496 0 0 1 24.636258-19.877665 28.280496 28.280496 0 0 1 29.726144 19.998136l96.97891 228.502793a28.310614 28.310614 0 1 1-52.163811 22.136491l-18.853664-44.42357h-106.345507l-18.853664 44.393452a28.310614 28.310614 0 0 1-37.16521 15.028719z m138.300359-116.103633l-29.123791-68.608062-29.12379 68.608062h58.247581z" p-id="4692"></path><path d="M165.647208 640.693281V225.882556a60.235348 60.235348 0 0 1 60.235348-60.235348h414.810725a60.235348 60.235348 0 0 1 60.235348 60.235348v414.810725a60.235348 60.235348 0 0 1-60.235348 60.235348H225.882556a60.235348 60.235348 0 0 1-60.235348-60.235348z m60.235348 0h414.810725V225.882556H225.882556v414.810725z" p-id="4693"></path><path d="M323.07229 798.118363v-152.39543h60.235348v152.39543h187.813816l-112.640101-112.640101 38.309681-38.339799 150.9799 150.9799h90.925258l-98.424558-123.482463 42.405685-33.792031 115.441044 144.866013v-150.407665l-80.293719-72.402888-40.146859-36.201444-9.728009-5.812712 5.903064-70.656063L798.118363 562.296975v-178.989337h-143.058952v-60.235348h143.058952a60.235348 60.235348 0 0 1 60.235349 60.235348V798.118363a60.235348 60.235348 0 0 1-60.235349 60.235349H383.307638a60.235348 60.235348 0 0 1-60.235348-60.235349z" p-id="4694"></path></svg>