<svg xmlns="http://www.w3.org/2000/svg" version="1.0" viewBox="0 0 64 64"><path d="M38.1 18.4c-6.9 10.2-8.9 12.5-11.3 13-4.3.8-8.2 5.6-10.3 12.3-3.1 10.1-5.5 14.2-9.6 16.6-2.2 1.3-3.7 2.5-3.5 2.8.8.8 21-.9 24.8-2 7.1-2.2 13.7-10.3 13.8-16.9 0-1.3 3.9-9.6 8.6-18.5 4.8-8.9 9.1-17 9.6-18 .5-.9.5-1.7.1-1.7s-4.3 6.8-8.7 15.1c-4.3 8.3-8.5 15.3-9.4 15.6-2.1.9-8.3-2.7-9.3-5.3-.6-1.7.7-4.3 6.5-12.5C48.2 6.2 48.3 6 47.3 6c-.4 0-4.6 5.6-9.2 12.4M34 34.6c1.3 1.4 3.5 3 4.8 3.5 2.2.9 2.4 1.4 2 5.4-1.3 11.2-7.3 15.9-22.3 17.4-4.9.5-9.2.7-9.4.5-.3-.2.5-1.4 1.6-2.7 2.6-2.8 4.5-6.7 6.8-13.7 2.3-6.9 4.1-9.7 7.4-11.5 3.8-2.1 6.3-1.8 9.1 1.1"/><path fill-opacity=".9" d="M32.5 32.9q-.45 1.05.6.9c.7-.2 1.3.2 1.4.9 0 .6.3 1.4.7 1.8.3.4.5 0 .4-.9-.3-2.4-2.2-4-3.1-2.7m-10.6 2.8c-1.3 1.6-1.2 1.7.4.4.9-.7 1.7-1.5 1.7-1.7 0-.8-.8-.3-2.1 1.3m14 18.5c0 .2-.2 1.1-.4 2.1-.3 1.5-.1 1.6 1.1.6.7-.6 1.1-1.5.8-2-.5-.9-1.3-1.2-1.5-.7m-26 3c-.4 1.9-.9 5.1-.6 4.7.1-.2.8-1.1 1.5-2.1.9-1.1 1-1.8.2-2.3-.5-.3-1-.5-1.1-.3m-4.1 6.5c.6.2 1.8.2 2.5 0 .6-.3.1-.5-1.3-.5s-1.9.2-1.2.5"/><path fill-opacity=".8" d="M9.8 63.7c.6.2 1.8.2 2.5 0 .6-.3.1-.5-1.3-.5s-1.9.2-1.2.5"/></svg>