<svg xmlns="http://www.w3.org/2000/svg" version="1.0" viewBox="0 0 64 64"><path fill-opacity=".4" d="M30.4 1.2c-.5.7-.3.8.5.3.9-.5 3.8 1.6 8.5 6.1l7.1 6.9-7-7.3C35.7 3.3 32.2 0 31.8 0s-1 .5-1.4 1.2m8 55.8c-4 3.9-6.9 7-6.5 7s3.8-3.2 7.6-7c3.8-3.9 6.7-7 6.5-7-.3 0-3.7 3.2-7.6 7"/><path fill-opacity=".9" d="M24 8.5c-4.1 4.1-7.1 7.8-6.7 8.2.9.8 12.8-10.7 12.2-11.8-.3-.4.2-1.2 1-1.9 1.2-1 1.8-1 3 0 .8.7 1.3 1.5 1 1.9-.6 1.1 11.3 12.6 12.2 11.8C47.3 16 33.3 1 32 1c-.3 0-3.9 3.4-8 7.5m5-3.2c0 .1-2.6 2.7-5.7 5.7l-5.8 5.5 5.5-5.8c5-5.3 6-6.2 6-5.4m12 5.2c3 3 5.2 5.5 4.9 5.5-.2 0-2.9-2.5-5.9-5.5S34.8 5 35.1 5c.2 0 2.9 2.5 5.9 5.5M17 47.8c0 .4 3.4 4.1 7.5 8.2l7.5 7.5 7.7-7.7c4.2-4.3 7.4-8.1 7-8.5-.9-.8-12.8 10.7-12.2 11.8.3.4-.2 1.2-1 1.9-1.2 1-1.8 1-3 0-.9-.7-1.3-1.5-1-1.8C30.1 58.5 19 47 17.8 47c-.4 0-.8.3-.8.8m7 5.7c3 3 5.2 5.5 4.9 5.5-.2 0-2.9-2.5-5.9-5.5S17.8 48 18.1 48c.2 0 2.9 2.5 5.9 5.5m22-5.2c0 .1-2.6 2.7-5.7 5.7l-5.8 5.5 5.5-5.8c5-5.3 6-6.2 6-5.4"/><path fill-opacity=".3" d="M27.9 3.7c-1.3 1.6-1.2 1.7.4.4.9-.7 1.7-1.5 1.7-1.7 0-.8-.8-.3-2.1 1.3M21 10.5C18.6 13 16.8 15 17.1 15s2.5-2 4.9-4.5S26.2 6 25.9 6s-2.5 2-4.9 4.5m0 42.7c4.1 4.5 5 5.3 5 4.5 0-.2-2.1-2.3-4.7-4.7l-4.8-4.5zm6 2.2c0 .2.8 1 1.8 1.7 1.5 1.3 1.6 1.2.3-.4S27 54.6 27 55.4m1.5 5.6c1 1.1 2 2 2.3 2s-.3-.9-1.3-2-2-2-2.3-2 .3.9 1.3 2"/><path d="M24.5 9.2c-6.2 6.4-6.3 6.6-1 1.5C26.8 7.6 29.9 5 30.3 5s.7 12.1.7 27c0 14.8-.3 27-.7 27s-3.5-2.6-6.8-5.7c-4.6-4.4-4.3-4 1.3 1.7l7.2 7.5 7.3-7.5c5.5-5.7 5.8-6.1 1.2-1.7-3.3 3.1-6.4 5.7-6.8 5.7S33 46.8 33 32c0-14.9.3-27 .7-27s3.5 2.6 6.8 5.7c5.3 5.1 5.2 4.9-1-1.5C35.7 5.3 32.3 2 32 2s-3.7 3.3-7.5 7.2"/><path fill-opacity=".2" d="M30.4 32c0 14.6.2 20.5.3 13.2.2-7.2.2-19.2 0-26.5-.1-7.2-.3-1.3-.3 13.3m2.6 0c0 14.3.4 26 .8 26s3.2-2.6 6.2-5.7l5.5-5.8-5.7 5.5-5.8 5.4V6.6l5.8 5.4 5.7 5.5-5.5-5.8C37 8.6 34.2 6 33.8 6S33 17.7 33 32m-9.5-19.8-5 5.3 5.3-5C26.6 9.8 29 7.4 29 7.3c0-.8-.9.1-5.5 4.9m-1 38.8c2.1 2.2 4.1 4 4.4 4s-1.3-1.8-3.4-4-4.1-4-4.4-4 1.3 1.8 3.4 4"/><path fill-opacity=".1" d="M16 15.9c0 .6.4 1.3 1 1.6s.7-.1.4-.9c-.7-1.8-1.4-2.1-1.4-.7m30.6.8c-.6 1.4-.5 1.5.5.6.7-.7 1-1.5.7-1.8s-.9.2-1.2 1.2m0 30.6c.3 1 .9 1.5 1.2 1.2s0-1.1-.7-1.8c-1-.9-1.1-.8-.5.6"/></svg>