<svg xmlns="http://www.w3.org/2000/svg" version="1.0" viewBox="0 0 64 64"><path fill-opacity=".1" d="M26.3 22c0 4.1.2 5.8.4 3.7.2-2 .2-5.4 0-7.5-.2-2-.4-.3-.4 3.8m32.1 14c0 10.7.2 15.1.3 9.7.2-5.3.2-14.1 0-19.5-.1-5.3-.3-.9-.3 9.8m-34.6 1.7c2.9.2 7.4.2 10 0s.2-.3-5.3-.3-7.6.1-4.7.3m25 0c1.2.2 3 .2 4 0 .9-.3-.1-.5-2.3-.4-2.2 0-3 .2-1.7.4M26.3 49.5c0 3.8.2 5.3.4 3.2.2-2 .2-5.2 0-7-.2-1.7-.4-.1-.4 3.8"/><path fill-opacity=".5" d="M43.7 43.7c1.8.2 5 .2 7 0 2.1-.2.7-.4-3.2-.4-3.8 0-5.5.2-3.8.4"/><path fill-opacity=".2" d="M38.8 21.7c2.8.2 7.6.2 10.5 0 2.8-.2.5-.3-5.3-.3s-8.1.1-5.2.3m-2.9 18c-1.3 1.6-1.2 1.7.4.4s2.1-2.1 1.3-2.1c-.2 0-1 .8-1.7 1.7"/><path fill-opacity=".6" d="M36.8 16.7c3.9.2 10.5.2 14.5 0 3.9-.1.7-.3-7.3-.3s-11.2.2-7.2.3m-3.1 31c-.3.5 2.7.7 6.6.5 12.9-.5 14.4-.9 4-1-5.6-.1-10.4.1-10.6.5m2.1 10c4.5.2 11.9.2 16.5 0 4.5-.1.8-.3-8.3-.3s-12.8.2-8.2.3"/><g stroke-width="0"><path d="M27 22c0 4 .4 7 1 7s1-2.8 1-6.5V16h30v40H29v-6.5c0-3.9-.4-6.5-1-6.5-.7 0-1 2.5-.8 6.7l.3 6.8 16.8.3L61 57V15H27z"/><path d="M34 23c0 .6 4 1 10 1s10-.4 10-1-4-1-10-1-10 .4-10 1m3.5 9 2.9 3H29.7c-6.5 0-10.7.4-10.7 1s4.2 1 10.7 1h10.7l-3 3.2c-2.1 2.4-1.7 2.2 1.4-.7l4.2-3.9-3.2-3.3C38 30.5 36.2 29 35.6 29c-.5 0 .3 1.3 1.9 3m7.3-2.3c1.7.2 4.7.2 6.5 0 1.7-.2.3-.4-3.3-.4s-5 .2-3.2.4M47 36c0 .5 1.6 1 3.5 1s3.5-.5 3.5-1c0-.6-1.6-1-3.5-1s-3.5.4-3.5 1m-4.5 6c-.4.6 1.7 1 5.4 1 3.4 0 6.1-.4 6.1-1s-2.4-1-5.4-1-5.8.4-6.1 1m-3.7 6.7c2.8.2 7.6.2 10.5 0 2.8-.2.5-.3-5.3-.3s-8.1.1-5.2.3"/></g><path fill-opacity=".7" d="M40 32.5c1.9 1.9 3.6 3.5 3.9 3.5s-1-1.6-2.9-3.5-3.6-3.5-3.9-3.5 1 1.6 2.9 3.5m5.8-1.8c1.8.2 4.5.2 6 0s0-.4-3.3-.4-4.5.2-2.7.4"/><path fill-opacity=".3" d="M39.8 24.7c2.9.2 7.4.2 10 0s.2-.3-5.3-.3-7.6.1-4.7.3"/><path fill-opacity=".9" d="M35.5 12.9c-.6.5-2.6 1.1-4.5 1.4-1.9.2 3.9.4 13 .3 13.4 0 14.2-.1 4.2-.3-7.6-.2-12.1-.7-11.7-1.3.8-1.3.2-1.3-1-.1M8 14c0 .5.5 1 1 1 .6 0 1-.5 1-1 0-.6-.4-1-1-1-.5 0-1 .4-1 1m.5 22c-.3.5-.1 1 .4 1 .6 0 1.1-.5 1.1-1 0-.6-.2-1-.4-1-.3 0-.8.4-1.1 1m33 1c-.4.6-1 .8-1.4.5-.5-.2-1.8.6-3 1.9-1.3 1.3-1.8 2.6-1.3 3 .5.3 2.4-1 4.2-2.9 1.9-1.9 3.1-3.5 2.8-3.5-.4 0-1 .5-1.3 1M40 38.3c0 .2-1 1.2-2.2 2.3l-2.3 1.9 1.9-2.3c1.8-2.1 2.6-2.7 2.6-1.9M44.5 49l-10 .6 9.7.2c5.6.1 9.9-.2 10.3-.8.3-.6.5-.9.3-.8s-4.8.5-10.3.8m-8.2 6.7c4.2.2 11.2.2 15.5 0 4.2-.1.7-.3-7.8-.3s-12 .2-7.7.3"/><path fill-opacity=".4" d="M61.4 35.5c0 11.6.2 16.1.3 10.2.2-5.9.2-15.4 0-21-.1-5.6-.3-.8-.3 10.8M29.2 22.7c-.1 3.8-.7 6.3-1.4 6.6q-1.5.6 0 .6c1.9.1 2.4-2 1.9-8l-.3-5.4zm-5.4 12c2.9.2 7.4.2 10 0s.2-.3-5.3-.3-7.6.1-4.7.3m22.9 0c-.4.3-.7 1.1-.7 1.7 0 .7.3.7.8-.1.4-.6 2.3-1.3 4.2-1.6l3.5-.4-3.6-.1c-2-.1-3.9.1-4.2.5m-6.8 5-3.4 3.8 3.8-3.4c2-1.9 3.7-3.6 3.7-3.8 0-.8-.8 0-4.1 3.4M29.3 49c0 3.6.2 5 .4 3.2.2-1.7.2-4.7 0-6.5-.2-1.7-.4-.3-.4 3.3"/><path fill-opacity=".8" d="M43.7 28.7c1.8.2 5 .2 7 0 2.1-.2.7-.4-3.2-.4-3.8 0-5.5.2-3.8.4"/></svg>