<svg xmlns="http://www.w3.org/2000/svg" version="1.0" viewBox="0 0 64 64"><path fill="#BFBFBF" fill-opacity=".9" d="M35.8 9.7c.6.2 1.8.2 2.5 0 .6-.3.1-.5-1.3-.5s-1.9.2-1.2.5"/><g fill="#BFBFBF" stroke-width="0"><path d="M28.4 13.4c-1.9 1.9-3.4 3.9-3.4 4.5 0 1.2 16 1.6 16 .3 0-.4.7-1.5 1.4-2.5 1.2-1.5 1.8-1.7 3.8-.7 1.8.9 1.6.4-1-1.9-2.7-2.6-4-3.1-8.3-3.1-4.5 0-5.5.4-8.5 3.4m20.4 14.4c.4 11 1.1 13.2 4.3 13.2 1 0 2.2.8 2.8 1.7.9 1.7 1 1.7 1.6 0 .4-.9.1-2.7-.7-4-.9-1.4-1.3-3.8-1-6.5.4-3.7 0-4.5-2.7-7.1-1.7-1.6-3.1-3.5-3.1-4.3 0-.7-.4-1.8-.8-2.5-.4-.6-.6 3.6-.4 9.5m-36.1-2.1c-.4 1.2-1.6 2.5-2.6 2.8-2.7.8-4.6 5.8-3.2 8.4 1.5 2.7 5 4.6 6.3 3.3.5-.5.8-4.4.6-8.8-.2-5.4-.6-7.2-1.1-5.7M21 29c0 .5.7.7 1.5.4.8-.4 1.5-.8 1.5-1s-.7-.4-1.5-.4-1.5.4-1.5 1m3.5.9c-.3.5-.1 1.2.5 1.6.5.3 1 .3 1-.1s1 .1 2.3 1.2c2 1.7 2 1.6-.2-.9-2.8-3-2.8-3.1-3.6-1.8M30 35c-1.3.8-1.2 1 .3 1 .9 0 1.7-.5 1.7-1 0-1.2-.1-1.2-2 0m-15.5 6.9c-.4 1.2-1.2 1.8-2.1 1.4-.7-.3-1.4-.1-1.4.5 0 .5-.9 1.2-2.1 1.5-1.3.4-2 1.2-1.7 2.4.4 2.1 6.6 3 15.6 2.5 5.8-.4 6.6-1.8 3.3-6.1-1.3-1.7-2.5-2.2-3.9-1.9-1.3.4-2.3 0-2.6-.8-.8-2.1-4.4-1.7-5.1.5m1.5 2.6c0 .2-1.3 1.1-3 2-3.8 1.9-4 1.1-.2-.9 3.1-1.7 3.2-1.8 3.2-1.1m32.8-1.4c-.2 2-.9 2.4-4.5 2.7-2.4.2-4.3.7-4.3 1.3 0 .9 4.2 1.3 11.5.9 4.9-.2 6.3-1 4.3-2.4-.8-.6-1.7-1.6-1.9-2.1-.2-.6-1.1-.9-1.9-.8s-1.8-.3-2.1-.9c-.4-.6-.9 0-1.1 1.3"/><path d="M30 47.4c0 2.5-3 4.6-6.8 4.6-3.1.1-3.4.2-1.9 1.1 3 1.7 8.4 1.3 12.1-1 2.9-1.8 3.8-2 6-1 1.9.9 3.2.9 4.8.1l2.3-1.1h-2.2C41 50 39 48.9 39 47.4c0-1-1.3-1.4-4.5-1.4s-4.5.4-4.5 1.4"/></g><path fill="#80BFBF" d="M28.8 19.7c2.3.2 5.9.2 8 0 2-.2.1-.4-4.3-.4s-6.1.2-3.7.4m-8 32c1.2.2 3.2.2 4.5 0 1.2-.2.2-.4-2.3-.4s-3.5.2-2.2.4"/><path fill="gray" d="M50.3 41.5c0 .8.4 1.2.9.9s.6-1 .3-1.5c-.9-1.3-1.2-1.1-1.2.6m-22.6 4.6c.7.9 1 1.9.6 2.2-.3.4-.1.7.5.7 1.7 0 1.5-1.6-.5-3.1-1.6-1.2-1.7-1.2-.6.2m15.1-.4c1.2.2 3 .2 4 0 .9-.3-.1-.5-2.3-.4-2.2 0-3 .2-1.7.4M41.5 49c.3.5 1.7 1 3.1 1 1.3 0 2.4-.5 2.4-1 0-.6-1.4-1-3.1-1s-2.8.4-2.4 1m-21.2 1.7c1.5.2 3.7.2 5 0 1.2-.2 0-.4-2.8-.4-2.7 0-3.8.2-2.2.4"/><g fill="#404040" stroke-width="0"><path d="m44.8 16.1 2.3.9-2.1 3.7c-3.8 6.9-5.8 8.9-7.1 7.6-.9-.9-.8-1.8.6-4 1-1.5 2.5-3.9 3.3-5.3 1.2-2.2 1.2-2.3-.1-.8-1.2 1.5-3.4 1.8-13.8 2l-12.4.2 11.8.3c6.4.2 11.7.7 11.7 1.1s-.9 1.8-2 3.2-2 3.7-2 5.2c0 2.5.2 2.7 2.3 1.7 1.2-.5 3.7-3.2 5.5-6 1.7-2.7 3.7-4.9 4.3-4.9.7 0 .9 4.1.7 11.9-.2 6.6 0 11.7.5 11.4.4-.2.7-1.1.7-1.9 0-.9.5-1.2 1.3-.8 1 .6 1 .4 0-.7-.9-.8-1.3-4.5-1.3-10.5 0-5.5-.4-9.6-1.1-9.9-.6-.4-.8-1.4-.4-2.3.6-1.7-1.1-3.2-3.5-3.1-.8 0-.5.4.8 1m-6.8 14c0 .5-.4.9-1 .9-.5 0-1-.7-1-1.6 0-.8.5-1.2 1-.9.6.3 1 1 1 1.6"/><path d="M45 37.4c0 3.8-.3 4.5-2.2 4.9-2 .4-1.9.4.5.6 2.6.1 2.7-.1 2.7-4.9 0-2.8-.2-5-.5-5s-.5 2-.5 4.4m-19 6c0 1.8 1.9 2.4 5 1.5 2.3-.6 2.2-.7-1-1-2.4-.2-1.5-.4 3-.9l6.5-.7-6.7-.1c-5.2-.2-6.8.1-6.8 1.2"/></g><path fill="#404080" d="M34.3 44.7c.9.2 2.3.2 3 0 .6-.3-.1-.5-1.8-.5-1.6 0-2.2.2-1.2.5"/><g fill="#408080" stroke-width="0"><path d="M42.7 18c-.8 1.1-1.7 1.7-2.1 1.2-.4-.4-.7-.3-.6.3.4 2 0 3.6-.9 3.1-.5-.3-.8.2-.7 1.2 0 .9-.4 1.6-1.1 1.5-1.7-.4-.5 2.4 1.3 3.1.8.3 1.7-.1 2-.9.4-.8 1.1-1.2 1.7-.8.6.3.7.1.3-.5-1.2-2 .4-3.4 2.2-2 1.5 1.2 1.5 1.1.4-.4-1.1-1.4-1.1-2.1.2-4.1 2.5-3.7-.1-5.3-2.7-1.7"/><path d="M47.7 20.7c-.4.3-.7 5.7-.7 11.8v11.2l-9.2 1.1-9.3 1 9-.5c5-.2 9.5-.5 10-.6.6 0 1-4.9 1-12.4 0-6.8 0-12.3-.1-12.3 0 0-.4.3-.7.7m-29.5 8.5c-1.5 1.5-1.5 2.8 0 2.8.6 0 .8-.3.5-.7-.4-.3-.2-1.2.4-2 1.4-1.6.7-1.7-.9-.1m2.6 1.5c.7.3 1.6.2 1.9-.1.4-.3-.2-.6-1.3-.5-1.1 0-1.4.3-.6.6m7.6 1c1.1 1.3 2.6 2.3 3.5 2.2 1.4 0 1.4-.1.1-.6-.8-.3-2.4-1.3-3.5-2.2-2-1.6-2-1.6-.1.6m5.9 1c.4.3.1 1.3-.6 2.2-1.1 1.4-1 1.4.5.2 1.6-1.2 1.6-3.1.1-3.1-.4 0-.3.3 0 .7"/><path d="M27.8 43.7c.6.2 1.8.2 2.5 0 .6-.3.1-.5-1.3-.5s-1.9.2-1.2.5"/></g><path fill="#8080BF" d="M20.3 19.7c.9.2 2.3.2 3 0 .6-.3-.1-.5-1.8-.5-1.6 0-2.2.2-1.2.5"/><path fill="#400000" d="M14.4 30.5c0 5.5.1 7.6.3 4.7s.2-7.4 0-10-.3-.2-.3 5.3"/><path fill="#0080BF" d="M15 24.9v4l3.3-1c3-.8 6.7-4.1 6.7-6 0-.5-2.2-.9-5-.9h-5z"/><path fill="#4080BF" d="M23.8 24c-1.7 3-1.7 3.1.5 3.9 1.2.5 3.1 1.8 4.1 3 3 3.3 5.4 2.7 6.6-1.9.6-2.1 1.5-4.2 2-4.5.6-.3 1-1.3 1-2.1 0-1.1-1.5-1.4-6.2-1.4-6 0-6.4.2-8 3m-8.1 4.7c-1.1 1-.8 10.5.3 9.8.5-.3 2.3.1 4 1 1.6.8 3 1.2 3 .7 0-.4 1.7-1.4 3.8-2.2 2.4-.9 3.1-1.5 2-1.8-.9-.2-2.4-1.5-3.3-2.9-1.4-2.1-2.2-2.4-5.1-2-3.5.6-4.2-.1-2.2-2.1.9-.9.9-1.2-.3-1.2-.9 0-1.9.3-2.2.7m30.4.9c0 1.1.3 1.4.6.6.3-.7.2-1.6-.1-1.9-.3-.4-.6.2-.5 1.3"/><path fill="#40BFBF" d="M44 25.1c-3.4 5.5-9.8 10.6-15.9 12.6-4.5 1.4-4.9 1.7-3.3 2.9.9.7 4.6 1.4 8.2 1.5 5.9.2 6.1.2 2.5.9-3.3.6-2.7.7 3.8.9l7.7.1v-6.5c0-3.7-.4-6.5-1-6.5-.5 0-1-1.6-1-3.6 0-2.1.4-3.3 1-2.9.6.3 1-.3 1-1.4 0-1.2-.1-2.1-.3-2.1-.1 0-1.3 1.8-2.7 4.1m2 12.4V43l-3.2-.1c-3.1-.2-3.1-.2-.5-.6 2.5-.4 2.7-.8 2.7-5.4 0-2.7.2-4.9.5-4.9s.5 2.5.5 5.5"/><path fill="#FFF" d="M23.2 29.7c.9.2 2.4 1.5 3.2 2.9.9 1.3 2.3 2.4 3.2 2.4s.1-1.2-1.9-3c-1.9-1.7-4.1-2.9-4.8-2.9q-1.35.15.3.6"/><path fill="gray" fill-opacity=".9" d="M10.8 50.7c1.2.2 3.2.2 4.5 0 1.2-.2.2-.4-2.3-.4s-3.5.2-2.2.4"/><path fill="#BF8080" d="M12 46c-.9.6-1 1-.3 1 .6 0 1.5-.5 1.8-1 .8-1.2.4-1.2-1.5 0"/><path fill="#400000" fill-opacity=".2" d="M11.3 51.7c.9.2 2.5.2 3.5 0 .9-.3.1-.5-1.8-.5s-2.7.2-1.7.5"/></svg>