<svg xmlns="http://www.w3.org/2000/svg" version="1.0" viewBox="0 0 64 64"><path fill-opacity=".8" d="M28.4 34c0 11.3.2 15.9.3 10.2.2-5.6.2-14.8 0-20.5-.1-5.6-.3-1-.3 10.3m6.9-15.5c0 2.2.2 3 .4 1.7.2-1.2.2-3 0-4-.3-.9-.5.1-.4 2.3m-.1 8c0 1.6.2 2.2.5 1.2.2-.9.2-2.3 0-3-.3-.6-.5.1-.5 1.8m0 8c0 1.6.2 2.2.5 1.2.2-.9.2-2.3 0-3-.3-.6-.5.1-.5 1.8m-.2 7.9c0 1.4.4 2.7.8 3 .5.3.6-.8.4-2.5-.5-3.5-1.2-3.8-1.2-.5m.2 7.1c0 1.6.2 2.2.5 1.2.2-.9.2-2.3 0-3-.3-.6-.5.1-.5 1.8"/><path d="M17.5 30.7C11.2 43.7 6 54.7 6 55.2c0 .4 5.4.8 12 .8h12V31.5C30 18 29.8 7 29.5 7s-5.7 10.6-12 23.7M29 33.5V54H18.4c-5.8 0-10.4-.4-10.2-.9 2-5.2 19.4-40.1 20-40.1.5 0 .8 9.2.8 20.5m5-2V56h12c6.6 0 12-.4 12-.8C58 53.9 35.1 7 34.5 7c-.3 0-.5 11-.5 24.5m6.9-9.5c1.8 3.8 3 7.4 2.6 8-.3.5-.1 1 .4 1 1.5 0 7.9 13.2 7.3 14.9-.2.8 0 1.1.5.8.8-.5 4.3 5.1 4.3 6.8 0 .2-4.6.3-10.2.2l-10.3-.2-.2-19.3C35.2 20 35.5 15 36.4 15c.6 0 2.6 3.1 4.5 7"/><path fill-opacity=".3" d="M11.8 56.7c3.4.2 8.8.2 12 0 3.1-.2.3-.3-6.3-.3s-9.2.1-5.7.3m29 0c3.4.2 8.8.2 12 0 3.1-.2.3-.3-6.3-.3s-9.2.1-5.7.3"/><path fill-opacity=".7" d="M30.4 31.5c0 13.2.2 18.5.3 11.7.2-6.8.2-17.6 0-24-.1-6.4-.3-.9-.3 12.3m3 0c0 13.2.2 18.5.3 11.7.2-6.8.2-17.6 0-24-.1-6.4-.3-.9-.3 12.3"/><path fill-opacity=".9" d="M35.3 38.5c0 .8.4 1.2.9.9s.6-1 .3-1.5c-.9-1.3-1.2-1.1-1.2.6"/><path fill-opacity=".2" d="M36.9 53.3c.5.5 1.9.7 3.2.5 2-.3 1.9-.5-.9-.9-2-.3-2.9-.2-2.3.4m10.6-.3-3 .8 2.7.1c1.5 0 3-.4 3.3-.9.3-.6.5-.9.3-.9-.2.1-1.6.5-3.3.9m-33.7.7c2.9.2 7.4.2 10 0s.2-.3-5.3-.3-7.6.1-4.7.3"/></svg>