<svg xmlns="http://www.w3.org/2000/svg" version="1.0" viewBox="0 0 64 64"><path fill-opacity=".2" d="M34.8 7.7c.7.3 1.6.2 1.9-.1.4-.3-.2-.6-1.3-.5-1.1 0-1.4.3-.6.6"/><path fill-opacity=".4" d="M52.3 17c0 2.5.2 3.5.4 2.2.2-1.2.2-3.2 0-4.5-.2-1.2-.4-.2-.4 2.3"/><path fill-opacity=".9" d="M17.1 48.6c0 1.1.3 1.4.6.6.3-.7.2-1.6-.1-1.9-.3-.4-.6.2-.5 1.3"/><path d="M33 9.9c-.5 1.1-1 8.4-1 16.6V41l-2.6 1c-1.4.6-4 1-5.7 1-4.5 0-7.7 2.5-7.7 5.9 0 4.2 3.3 6.6 9.1 6.6 8 0 8.3-.8 8.7-20l.3-16.5h2.5c1.4 0 3.7.6 5.2 1.4 2.5 1.3 6 2 9 1.7.9-.1 1.2-1.5 1-4.8-.3-4.7-.4-4.8-4.3-5.4-2.2-.4-5.3-1.4-7-2.3-4-2.1-6.2-2-7.5.3m7.5 1.1c.3.6 2.6 1.5 5.1 2.1 4.1 1.1 4.4 1.4 4.4 4.5 0 4.1-2 4.5-8 1.4-2.2-1.1-4.8-2-6-2-1.6 0-2-.6-2-3.5 0-3.2.2-3.5 2.9-3.5 1.7 0 3.3.5 3.6 1M32 47.3c0 5.5-1.3 6.7-6.9 6.7-5.5 0-6.7-.7-7.6-4.1-.8-3.4 1.1-4.9 7.7-5.9 2.9-.4 5.6-.8 6.1-.9.4 0 .7 1.8.7 4.2"/><path fill-opacity=".8" d="M23.8 44.7c.7.3 1.6.2 1.9-.1.4-.3-.2-.6-1.3-.5-1.1 0-1.4.3-.6.6"/><path fill-opacity=".5" d="M34.2 13.5c0 1.6.2 2.2.5 1.2.2-.9.2-2.3 0-3-.3-.6-.5.1-.5 1.8m.2 20.5c0 7.4.1 10.5.3 6.7.2-3.7.2-9.7 0-13.5-.2-3.7-.3-.6-.3 6.8"/></svg>