<svg xmlns="http://www.w3.org/2000/svg" version="1.0" viewBox="0 0 64 64"><path fill-opacity=".1" d="M28.8 21.7c.7.3 1.6.2 1.9-.1.4-.3-.2-.6-1.3-.5-1.1 0-1.4.3-.6.6m5 0c.7.3 1.6.2 1.9-.1.4-.3-.2-.6-1.3-.5-1.1 0-1.4.3-.6.6m-7.4 8.7c-.3.8-.4 2.5-.2 3.8.3 1.7.5 1.3.9-1.5.5-3.8.2-4.7-.7-2.3m-.4 18c0 1.9.3 3.7.8 4 .4.2.6-1.3.4-3.5-.5-4.8-1.2-5.1-1.2-.5"/><path fill-opacity=".2" d="M27.8 16.7c.7.3 1.6.2 1.9-.1.4-.3-.2-.6-1.3-.5-1.1 0-1.4.3-.6.6m7 0c.7.3 1.6.2 1.9-.1.4-.3-.2-.6-1.3-.5-1.1 0-1.4.3-.6.6m-4.5 3c.9.2 2.5.2 3.5 0 .9-.3.1-.5-1.8-.5s-2.7.2-1.7.5"/><path fill-opacity=".3" d="M30.8 16.7c.6.2 1.8.2 2.5 0 .6-.3.1-.5-1.3-.5s-1.9.2-1.2.5m0 8c.6.2 1.8.2 2.5 0 .6-.3.1-.5-1.3-.5s-1.9.2-1.2.5"/><path fill-opacity=".4" d="M27.8 24.7c.7.3 1.6.2 1.9-.1.4-.3-.2-.6-1.3-.5-1.1 0-1.4.3-.6.6m7 0c.7.3 1.6.2 1.9-.1.4-.3-.2-.6-1.3-.5-1.1 0-1.4.3-.6.6M29 37c0 1.1.2 2 .4 2s.6-.9.9-2 .1-2-.4-2-.9.9-.9 2m0 8c0 1.1.4 2 .9 2s.7-.9.4-2-.7-2-.9-2-.4.9-.4 2"/><path fill-opacity=".8" d="M3.9 24.7c-1.3 1.6-1.2 1.7.4.4.9-.7 1.7-1.5 1.7-1.7 0-.8-.8-.3-2.1 1.3M58 23.4c0 .2.8 1 1.8 1.7 1.5 1.3 1.6 1.2.3-.4S58 22.6 58 23.4"/><path fill-opacity=".9" d="M7.6 33.2c.3.5 1 .6 1.5.3 1.3-.9 1.1-1.2-.6-1.2-.8 0-1.2.4-.9.9m23.7 1.3c0 .8.4 1.2.9.9s.6-1 .3-1.5c-.9-1.3-1.2-1.1-1.2.6m-27.8.4q-.45 1.05.6.9c.7-.2 1.3.2 1.4.9 0 .6.3 1.4.7 1.8.3.4.5 0 .4-.9-.3-2.4-2.2-4-3.1-2.7m54.8.3c-1 1.7-1.4 4.2-.5 3.3.4-.4.7-1.2.7-1.8.1-.7.7-1.1 1.4-.9.7.1 1-.2.6-.8-.8-1.3-1.2-1.3-2.2.2m-11.6.5c-1 .9-.9 7.3.1 7.3.4 0 .7-1.8.7-4s0-4-.1-4c0 0-.4.3-.7.7m-11.2 2.2c-.3.5-.2 1.2.3 1.5s.9-.1.9-.9c0-1.7-.3-1.9-1.2-.6m.8 5.6c0 .8.4 1.2.9.9s.6-1 .3-1.5c-.9-1.3-1.2-1.1-1.2.6m-4.8 2.4c-.3.5-.2 1.2.3 1.5s.9-.1.9-.9c0-1.7-.3-1.9-1.2-.6"/><path d="M19.3 18.4C11.4 20.2 6.5 22.6 4 25.8c-5.7 7.1 1.3 14.6 16.3 17.3 6.5 1.2 6.6 1.3 6.9 4.7l.3 3.4 6-4.6c3.3-2.6 6.1-5 6.3-5.5C40 40.4 28.6 31 27.5 31c-.3 0-.5 1.4-.5 3.1v3.2l-4.8-.6c-6-.7-12.9-3.4-13.6-5.3-.3-.8.5-2.1 2-3.1 8.9-5.8 34-5.7 42.9.1 2.3 1.5 2.4 2 1.3 3.3-.7.9-2.8 2.2-4.5 3-2.7 1.1-3.3 1.9-3.3 4.3 0 3.6 1.5 3.8 7 1 8.8-4.5 10.4-10 4.6-15.5-6.4-6.1-26-9.1-39.3-6.1m28.2 2.2c10 2.5 14.5 6.9 12.8 12.1-1 2.9-7.3 7.3-10.5 7.3-3 0-2-2.9 1.5-4.3 7.1-3 7.3-6.7.3-9.7-7.3-3.3-18.4-4.5-27.2-3.2-8.6 1.4-16.1 4.3-17 6.7-1.4 3.6 6.2 7.7 16.8 9.1 4.5.6 4.7.6 5-2l.3-2.7 4.3 3.1c2.3 1.8 4.2 3.5 4.2 3.9s-1.9 2.1-4.2 3.9l-4.3 3.3-.3-2.5c-.3-2.7-1-3-9.2-4.1-6.9-.9-14.8-4.9-16.1-8.2C1.9 28 6.6 23.1 16 20.6c7.4-2 24-2 31.5 0"/></svg>