<svg xmlns="http://www.w3.org/2000/svg" version="1.0" viewBox="0 0 64 64"><path fill-opacity=".2" d="M51.4 9.5c-1.1 2.7 2.5 5 4 2.6.4-.5-.4-.7-1.6-.3-1.8.4-2 .2-1.6-1.6.7-2.5 0-3-.8-.7M9 43.7l-5.5 5.8L9.3 44c5.3-5 6.2-6 5.4-6-.1 0-2.7 2.6-5.7 5.7m14.9 7c-1.3 1.6-1.2 1.7.4.4.9-.7 1.7-1.5 1.7-1.7 0-.8-.8-.3-2.1 1.3m-17.6 1c.9.2 2.3.2 3 0 .6-.3-.1-.5-1.8-.5-1.6 0-2.2.2-1.2.5m5.9 4.3c0 1.4.2 1.9.5 1.2.2-.6.2-1.8 0-2.5-.3-.6-.5-.1-.5 1.3m6.7-.3c-1.3 1.6-1.2 1.7.4.4.9-.7 1.7-1.5 1.7-1.7 0-.8-.8-.3-2.1 1.3"/><path d="M53.8 5.8c-4.6 1.3-4.8 1.5-4.8 5 0 3.4-1 4.7-12.3 16C24.7 38.8 24.4 39 20 39c-4.2 0-5 .5-9.8 5.3-2.9 2.9-5.2 5.6-5.2 6s1.4.7 3 .7c3.1 0 3.7.8 2 2.8-.7.9-.7.9.2.2 2-1.7 2.8-1.1 2.8 2 0 1.6.4 3 .8 3s3.1-2.4 6-5.3C24.5 48.9 25 48 25 44c0-4.4.2-4.8 12.3-16.8C48.4 16.1 49.9 15 53.1 15c3.4 0 3.7-.2 4.9-4.4.7-2.5 1.1-4.8.9-5.3s-2.5-.3-5.1.5M57 8.4c0 3-1.3 4.6-3.6 4.6-1.9 0-2.4-.5-2.4-2.4 0-1.3.6-2.7 1.3-2.9 2.4-1 4.7-.7 4.7.7M22 40.7c0 .4-1.7 2.4-3.7 4.5-2.8 2.9-4.5 3.8-7 3.8-1.8 0-3.3-.3-3.3-.7s1.7-2.4 3.7-4.5c2.8-2.9 4.5-3.8 7-3.8 1.8 0 3.3.3 3.3.7m2 4.5c0 2.4-1 4.2-3.7 7-2 2.1-4.1 3.8-4.5 3.8s-.8-1.4-.8-3.2c0-2.4 1-4.2 3.7-7 2-2.1 4.1-3.8 4.5-3.8s.8 1.4.8 3.2"/><path fill-opacity=".1" d="M7 54.9c0 1 1.9 2.5 2.5 2 .1-.2-.3-1-1.1-1.7S7 54.4 7 54.9"/><path fill-opacity=".3" d="M48.2 10.5c0 1.6.2 2.2.5 1.2.2-.9.2-2.3 0-3-.3-.6-.5.1-.5 1.8M35.5 26C28.9 32.6 23.8 38 24 38c.3 0 5.9-5.4 12.5-12S48.2 14 48 14c-.3 0-5.9 5.4-12.5 12m16.8-10.3c.9.2 2.3.2 3 0 .6-.3-.1-.5-1.8-.5-1.6 0-2.2.2-1.2.5M37.5 28C30.9 34.6 25.8 40 26 40c.3 0 5.9-5.4 12.5-12S50.2 16 50 16c-.3 0-5.9 5.4-12.5 12M12.2 44.3c-3.8 3.9-4 4.7-.9 4.6 1.8-.1 1.9-.2.3-.6s-1.4-.9 1.5-3.9c1.8-1.9 3.1-3.4 2.8-3.4s-1.9 1.5-3.7 3.3m4.7.4-3.4 3.8 3.8-3.4c2-1.9 3.7-3.6 3.7-3.8 0-.8-.8 0-4.1 3.4m2 2-3.4 3.8 3.8-3.4c3.4-3.3 4.2-4.1 3.4-4.1-.2 0-1.9 1.7-3.8 3.7m.6 4.3c-2.6 2.7-3 2.9-3.7 1.3-.6-1.5-.7-1.5-.7.4-.1 3.2.9 2.9 4.9-1.2 1.9-1.9 3.2-3.5 2.9-3.5s-1.8 1.4-3.4 3"/><path fill-opacity=".6" d="M17.8 38.7c1.2.2 3.2.2 4.5 0 1.2-.2.2-.4-2.3-.4s-3.5.2-2.2.4m7.5 5.3c0 2.5.2 3.5.4 2.2.2-1.2.2-3.2 0-4.5-.2-1.2-.4-.2-.4 2.3"/><g fill-opacity=".9" stroke-opacity=".9" stroke-width="0"><path d="M36.1 26.4C29.3 33.2 24.2 39 24.7 39.3s6.5-5 13.2-11.7c6.8-6.8 11.9-12.6 11.4-12.9s-6.5 5-13.2 11.7m1.4.6C30.9 33.6 25.3 39 25 39c-.2 0 4.9-5.4 11.5-12S48.7 15 49 15c.2 0-4.9 5.4-11.5 12M8.8 44.9c-2.9 3.1-4.4 4.8-3.2 3.8 1.1-.9 2.3-1.5 2.5-1.2.3.3 2.1-1.1 3.9-3 2.4-2.5 4.3-3.5 6.4-3.5h3l-3.7 3.8c-4.9 5-3.5 6.4 1.5 1.5l3.8-3.7v3c0 2.1-1 4-3.5 6.4-1.9 1.8-3.3 3.6-3 3.9.3.2-.3 1.4-1.2 2.5-1 1.2.7-.3 3.8-3.2 5.1-4.8 5.5-5.5 5.1-8.9-.6-4.7-1.8-5.9-6.5-6.5-3.4-.4-4.1 0-8.9 5.1m6.2-4.6c0 .2-1.7 1.9-3.7 3.8l-3.8 3.4 3.4-3.8c3.3-3.4 4.1-4.2 4.1-3.4m7 2c0 .2-1.7 1.9-3.7 3.8l-3.8 3.4 3.4-3.8c3.3-3.4 4.1-4.2 4.1-3.4m2 7c0 .2-1.7 1.9-3.7 3.8l-3.8 3.4 3.4-3.8c3.3-3.4 4.1-4.2 4.1-3.4"/><path d="M9 53.5c-1.8 2.1-.3 3.2 1.6 1.3 1-.9 1.2-1.8.6-2.2-.5-.3-1.5.1-2.2.9"/></g></svg>