<svg xmlns="http://www.w3.org/2000/svg" version="1.0" viewBox="0 0 64 64"><path fill-opacity=".2" d="M23.2 10.7c4.9.2 12.7.2 17.5 0 4.9-.1.9-.3-8.7-.3s-13.6.2-8.8.3m-2.4 2c1.8.2 4.5.2 6 0s0-.4-3.3-.4-4.5.2-2.7.4m17 0c1.8.2 4.5.2 6 0s0-.4-3.3-.4-4.5.2-2.7.4m-11 39c.7.3 1.6.2 1.9-.1.4-.3-.2-.6-1.3-.5-1.1 0-1.4.3-.6.6m9 0c.7.3 1.6.2 1.9-.1.4-.3-.2-.6-1.3-.5-1.1 0-1.4.3-.6.6m-7 2c1.7.2 4.7.2 6.5 0 1.7-.2.3-.4-3.3-.4s-5 .2-3.2.4"/><path fill-opacity=".3" d="M22.7 7.7c5.1.2 13.5.2 18.5 0 5.1-.1 1-.3-9.2-.3s-14.3.2-9.3.3m-6.6 7.9c0 1.1.3 1.4.6.6.3-.7.2-1.6-.1-1.9-.3-.4-.6.2-.5 1.3m31 0c0 1.1.3 1.4.6.6.3-.7.2-1.6-.1-1.9-.3-.4-.6.2-.5 1.3m-25.3.1c1.2.2 3.2.2 4.5 0 1.2-.2.2-.4-2.3-.4s-3.5.2-2.2.4m16 0c1.2.2 3.2.2 4.5 0 1.2-.2.2-.4-2.3-.4s-3.5.2-2.2.4m-12 33c.7.3 1.6.2 1.9-.1.4-.3-.2-.6-1.3-.5-1.1 0-1.4.3-.6.6m11 0c.7.3 1.6.2 1.9-.1.4-.3-.2-.6-1.3-.5-1.1 0-1.4.3-.6.6m-8 8c1.7.2 4.7.2 6.5 0 1.7-.2.3-.4-3.3-.4s-5 .2-3.2.4"/><path d="M12.4 9.4c-.3.7-.4 3.3-.2 5.7.3 3.9.6 4.4 3 4.7 2.2.3 2.9-.2 3.4-2.2.6-2.4 1.1-2.6 5.5-2.6H29v16.9c0 16.8 0 17-2.2 17.3-1.8.2-2.3 1-2.3 3.3v3h15v-3c0-2.3-.5-3.1-2.2-3.3-2.3-.3-2.3-.5-2.3-17.3V15h4.9c4.4 0 4.9.2 5.5 2.6.5 2 1.2 2.5 3.4 2.2 2.6-.3 2.7-.6 2.7-5.8V8.5l-19.3-.3c-15.8-.2-19.3 0-19.8 1.2M50 14c0 4.4-2.6 5.8-3.2 1.7-.3-2-.9-2.2-6.5-2.5l-6.3-.3V51h2.5c1.6 0 2.5.6 2.5 1.5 0 1.2-1.4 1.5-7 1.5s-7-.3-7-1.5c0-.9.9-1.5 2.5-1.5H30V12.9l-6.2.3c-5.7.3-6.3.5-6.6 2.5-.6 4.1-3.2 2.7-3.2-1.7v-4h36z"/><path fill-opacity=".4" d="M11.3 14c0 2.5.2 3.5.4 2.2.2-1.2.2-3.2 0-4.5-.2-1.2-.4-.2-.4 2.3m41 0c0 2.5.2 3.5.4 2.2.2-1.2.2-3.2 0-4.5-.2-1.2-.4-.2-.4 2.3m-37.5 6.7c.7.3 1.6.2 1.9-.1.4-.3-.2-.6-1.3-.5-1.1 0-1.4.3-.6.6m33 0c.7.3 1.6.2 1.9-.1.4-.3-.2-.6-1.3-.5-1.1 0-1.4.3-.6.6"/><path fill-opacity=".9" d="M23.1 52.6c0 1.1.3 1.4.6.6.3-.7.2-1.6-.1-1.9-.3-.4-.6.2-.5 1.3m17 0c0 1.1.3 1.4.6.6.3-.7.2-1.6-.1-1.9-.3-.4-.6.2-.5 1.3"/><path fill-opacity=".7" d="M30.4 32c0 10.2.2 14.3.3 9.2.2-5 .2-13.4 0-18.5-.1-5-.3-.9-.3 9.3m3 0c0 10.2.2 14.3.3 9.2.2-5 .2-13.4 0-18.5-.1-5-.3-.9-.3 9.3"/><path fill-opacity=".8" d="M28.4 32c0 9.6.2 13.6.3 8.7.2-4.8.2-12.6 0-17.5-.1-4.8-.3-.8-.3 8.8m7 0c0 9.6.2 13.6.3 8.7.2-4.8.2-12.6 0-17.5-.1-4.8-.3-.8-.3 8.8"/></svg>