<svg xmlns="http://www.w3.org/2000/svg" version="1.0" viewBox="0 0 64 64"><path fill-opacity=".1" d="m32.5 25.2-13 13.3 13.3-13C45.1 13.5 46.5 12 45.7 12c-.1 0-6.1 6-13.2 13.2m4.5 5.3C34.6 33 32.8 35 33.1 35s2.5-2 4.9-4.5 4.2-4.5 3.9-4.5-2.5 2-4.9 4.5"/><path fill-opacity=".2" d="m28.5 39.2-4 4.3 4.3-4c3.9-3.6 4.7-4.5 3.9-4.5-.2 0-2.1 1.9-4.2 4.2"/><path fill-opacity=".6" d="M39 14.5C36.6 17 34.8 19 35.1 19s2.5-2 4.9-4.5 4.2-4.5 3.9-4.5-2.5 2-4.9 4.5m-2 27.2-5.5 5.8 5.8-5.5c5.3-5 6.2-6 5.4-6-.1 0-2.7 2.6-5.7 5.7m-10.1 10-3.4 3.8 3.8-3.4c3.4-3.3 4.2-4.1 3.4-4.1-.2 0-1.9 1.7-3.8 3.7"/><path fill-opacity=".9" d="m41.9 14.7-3.4 3.8 3.8-3.4c3.4-3.3 4.2-4.1 3.4-4.1-.2 0-1.9 1.7-3.8 3.7m12.7-2.5c.3.5 1 .6 1.5.3 1.3-.9 1.1-1.2-.6-1.2-.8 0-1.2.4-.9.9m-20.1 22-10 10.3 10.3-10C40.4 29 45 24.4 45 24.3c0-.8-1.2.4-10.5 9.9M8.6 54.1c2.1 2.3 2.3 2.3 2 .2-.2-.9-1.1-1.7-2-1.9-1.7-.2-1.7-.2 0 1.7m12.9-.2c-.3.5-.2 1.2.3 1.5s.9-.1.9-.9c0-1.7-.3-1.9-1.2-.6"/><path d="M45.5 9.9c-1.6 1-8.7 7.7-15.7 14.8C16.5 38.2 15 40.8 18.6 44.4c3.4 3.5 6.2 2 17-8.6C41.3 30.2 46 25.2 46 24.6c0-.5-4.9 3.8-10.9 9.7C29.2 40.2 23.6 45 22.7 45c-2 0-4.7-2.7-4.7-4.8 0-.9 6.4-8.1 14.3-15.9C44.7 11.8 47 10 49.8 10c3.9 0 7.2 3 7.2 6.7 0 3.8-33.9 38-38.6 38.9-6.5 1.2-12.5-5-11-11.3.5-1.7 6-8.1 14.4-16.5 7.5-7.6 13.4-14 13.1-14.2-.3-.3-6.9 5.9-14.7 13.7C6.4 41.3 6 41.8 6 45.9c0 3.6.6 4.9 3.4 7.7s4.1 3.4 7.7 3.4c4.2 0 4.5-.3 22.6-18.3C56.5 21.9 58 20.2 58 17c-.1-3.9-1.4-6.1-4.7-7.8-3-1.6-4.3-1.5-7.8.7"/><path fill-opacity=".5" d="m26 27.7-8.5 8.8 8.8-8.5c8.1-7.9 9.2-9 8.4-9-.1 0-4.1 3.9-8.7 8.7"/><path fill-opacity=".4" d="m36.5 35.2-9 9.3 9.3-9c8.5-8.3 9.7-9.5 8.9-9.5-.1 0-4.3 4.2-9.2 9.2"/><path fill-opacity=".7" d="m20.5 26.2-13 13.3 13.3-13C33.1 14.5 34.5 13 33.7 13c-.1 0-6.1 6-13.2 13.2m1.5 1.5L9.5 40.5 22.3 28c7-6.9 12.7-12.6 12.7-12.7 0-.8-1.4.6-13 12.4m27 2-6.5 6.8 6.8-6.5c6.2-6 7.2-7 6.4-7-.1 0-3.2 3-6.7 6.7"/><path fill-opacity=".8" d="m33.4 23.2-2.9 3.3 3.3-2.9c3-2.8 3.7-3.6 2.9-3.6-.2 0-1.6 1.5-3.3 3.2m5.1 14-16 16.3 16.3-16C53.8 22.7 55.5 21 54.7 21c-.1 0-7.4 7.3-16.2 16.2m-15-4-5 5.3 5.3-5c4.8-4.6 5.7-5.5 4.9-5.5-.1 0-2.5 2.4-5.2 5.2"/></svg>