<svg xmlns="http://www.w3.org/2000/svg" version="1.0" viewBox="0 0 128 128"><path fill="#BFBFBF" fill-opacity=".2" d="M94.9 100.7c-1.3 1.6-1.2 1.7.4.4s2.1-2.1 1.3-2.1c-.2 0-1 .8-1.7 1.7"/><path fill="#BFBFBF" fill-opacity=".9" d="M106 48.4c0 .2.8 1 1.8 1.7 1.5 1.3 1.6 1.2.3-.4s-2.1-2.1-2.1-1.3m-3.2 49.3c.7.3 1.6.2 1.9-.1.4-.3-.2-.6-1.3-.5-1.1 0-1.4.3-.6.6M34 101.4c0 .2.8 1 1.8 1.7 1.5 1.3 1.6 1.2.3-.4s-2.1-2.1-2.1-1.3"/><g fill="#BFBFBF" stroke-width="0"><path d="M70.5 18.7c-1.1.2-3.6.9-5.5 1.6l-3.5 1.1 3 .7c3 .8 3 .8-.5.6-3.7-.1-8 2-8 3.9 0 .7-.7 1.4-1.5 1.7-1.4.6-5.5 7.7-5.5 9.7 0 .6 5.5 1 15.9 1h15.8l3.1-5c3.3-5.3 4-5.7 7.5-3.9 4.4 2.3 5.7 4 4.6 6.1-.8 1.5-.7 2.4.5 3.7C97.7 41.4 98 44.7 98 60c0 17.7.1 18.3 2.3 20.4 1.5 1.4 3.2 2 5.5 1.8 2.8-.3 3.5.2 5.3 3.2 2.6 4.5 3.6 4.5 4.4.2.8-4 0-7-2.7-10.8-1.6-2.3-1.7-3.1-.7-4.9.6-1.3.9-4.7.7-7.9-.5-6.4-3.8-11.9-8.9-14.9-2.2-1.2-3.1-2.8-3.9-6.4-2.1-9.7-7-16.1-15.5-19.8-4.5-1.9-10.9-3-14-2.2m1.2 9c-2 .2-5.2.2-7 0-1.7-.2 0-.4 3.8-.4 3.9 0 5.3.2 3.2.4m-31.9 11c1.8.2 4.5.2 6 0s0-.4-3.3-.4-4.5.2-2.7.4m-14.1 9.5c-.9 2.1-1.7 4.3-1.7 5s-1.9 2.1-4 3.1c-2.3 1.1-4.7 3.2-5.5 4.7L13 63.9l3.8.4 3.7.4-4.2.1c-4.1.2-4.3.3-4.3 3.4 0 3.4 3 9.3 5.9 11.5.9.7 3.1 1.8 5 2.4 4.5 1.5 5.1.4 5.1-9.4 0-5.5-.4-7.7-1.2-7.7-1 0-1-.2 0-.8.9-.6 1.2-3.4 1-10.3l-.3-9.4zm18.1 8.5c.6.2 1.8.2 2.5 0 .6-.3.1-.5-1.3-.5s-1.9.2-1.2.5m-1 3c.7.3 1.6.2 1.9-.1.4-.3-.2-.6-1.3-.5-1.1 0-1.4.3-.6.6m6.2 2.8c1.3 1.4 2.6 2.5 2.8 2.5.3 0-.5-1.1-1.8-2.5S47.4 60 47.2 60c-.3 0 .5 1.1 1.8 2.5m8 3c1.3 1.4 2.6 2.5 2.8 2.5.3 0-.5-1.1-1.8-2.5S55.4 63 55.2 63c-.3 0 .5 1.1 1.8 2.5M53.5 68c1 1.1 2 2 2.3 2s-.3-.9-1.3-2-2-2-2.3-2 .3.9 1.3 2m5.3 3.7c.7.3 1.6.2 1.9-.1.4-.3-.2-.6-1.3-.5-1.1 0-1.4.3-.6.6"/><path d="M30.8 80c-.9.6-1.9 2.4-2.3 4.1-.5 2.2-1.1 2.9-2.2 2.4-2.2-.8-5.3.4-5.3 2.1 0 .8-.9 1.4-2 1.4-2.6 0-6 3.4-6 6 0 4.2 3.5 5.1 22.2 5.1 9.6 0 18.2-.3 19.2-.7 1.9-.7 3-4.4 2.1-7.3s-4.2-3.7-6.6-1.5c-1 .9-1.9 1.2-1.9.6s.9-1.6 2-2.2c5.2-2.8-.3-8.6-5.7-6.1-2.1 1-2.8 1-3.1.1-1.4-4.1-6.7-6.1-10.4-4m2.2 8c0 .5-.6 1-1.4 1s-1.7.9-2.1 1.9c-.4 1.3-1.2 1.7-2.5 1.4-1.1-.3-2 0-2 .6s-.9 1.1-2 1.1c-1 0-2.4.8-3 1.7-.7 1.1-1 1.2-.7.3.4-1.5 5.3-4.8 7.5-4.9.6-.1 2.1-1 3.2-2.1 2.2-2.2 3-2.5 3-1m65-3.5c0 2.3-.5 4.6-1.2 5.3s-4.3 1.2-9 1.2c-7.6 0-7.8.1-7.8 2.4 0 1.3.8 2.7 1.7 3 .9.4 8 .7 15.7.7 12.1-.1 14.3-.3 15.3-1.8 1.7-2.2 1.6-2.8-.3-4.7-1.2-1.3-2-1.4-3.7-.5-2.2 1.2-2.2 1.2-.3-.9 1.5-1.8 1.6-2.4.6-3.7-1.5-1.8-5.1-2-6.8-.3-.7.7-1.2.8-1.2.2s-.7-1.9-1.5-3c-1.3-1.8-1.4-1.6-1.5 2.1"/><path d="M58.8 94.9c.3 3.2-.1 4.2-2.3 6-2.3 1.8-4.1 2.1-11.4 2.1-8 .1-8.5.2-6.6 1.6 8.8 7 23.3 6 31.9-2.1l2.9-2.7 3.7 2.1c4.9 2.7 10.6 2.7 15-.2l3.5-2.2-7-.3c-7.6-.3-10.5-1.9-10.5-5.9 0-2.3-.2-2.3-9.8-2.3h-9.8z"/></g><path fill="#FFF" d="M62.3 22.7c.9.2 2.5.2 3.5 0 .9-.3.1-.5-1.8-.5s-2.7.2-1.7.5m2.4 5c1.8.2 5 .2 7 0 2.1-.2.7-.4-3.2-.4-3.8 0-5.5.2-3.8.4M38.9 59.1l-2.4 2 2.5-.8c5.7-1.7 8.1-.8 13.4 5C58.5 72 62 72.9 67 69l2.5-2-3.3 1c-4.5 1.2-5.9.6-11.8-5.6-4.5-4.8-5.5-5.4-9.1-5.4-2.7 0-4.9.7-6.4 2.1M9.8 64.7c1.7.2 4.7.2 6.5 0 1.7-.2.3-.4-3.3-.4s-5 .2-3.2.4"/><path fill="#FFF" fill-opacity=".6" d="M50.5 25c.3.5 1.5 1 2.5 1s2.2-.5 2.5-1c.4-.6-.7-1-2.5-1s-2.9.4-2.5 1"/><path fill="gray" d="M97.2 64.2c-.1 8.1.1 14.9.6 15.1.4.3.6-4.1.4-9.6-.4-18.4-.8-20.4-1-5.5m-28.9 2.5c.4.3.1 1.3-.6 2.2-1.1 1.4-1 1.4.5.2 1.6-1.2 1.6-3.1.1-3.1-.4 0-.3.3 0 .7m29 17.8c0 2.2.2 3 .4 1.7.2-1.2.2-3 0-4-.3-.9-.5.1-.4 2.3m11.3-.7c-.3.5.1.9.9.9s1.2-.4.9-.9c-.3-.4-.7-.8-.9-.8s-.6.4-.9.8m-59 6.8c-2.3 2.3-2 3 .4.9 1.1-1 2-2 2-2.2 0-.7-.9-.2-2.4 1.3m7.5 5c0 1.1.3 1.4.6.6.3-.7.2-1.6-.1-1.9-.3-.4-.6.2-.5 1.3m27.6 3.1c1.8.2 5 .2 7 0 2.1-.2.7-.4-3.2-.4-3.8 0-5.5.2-3.8.4m-47.8 3.6c.4.4 4.3.7 8.7.5l7.9-.3-8.7-.5c-4.8-.3-8.3-.1-7.9.3"/><path fill="#404040" d="M86.8 31.2c-1 1-1.4 1.8-.9 1.8 1 0 3.6-2.9 3-3.4-.2-.1-1.2.6-2.1 1.6m5.2.7c0 .6.4 1.3 1 1.6s.7-.1.4-.9c-.7-1.8-1.4-2.1-1.4-.7m1.5 4c-.3.5 0 1.3.6 1.7.7.4.9.3.5-.4-.3-.5 0-1.3.6-1.5.9-.4 1-.6.1-.6-.6-.1-1.4.3-1.8.8m-14.1 5.9c.3.5 0 1.3-.6 1.5-.9.4-1 .6-.1.6 1.7.1 2.5-1.6 1.2-2.5-.7-.4-.9-.3-.5.4m9.1 2.2c-.3.6.1.7.9.4 1.8-.7 2.1-1.4.7-1.4-.6 0-1.3.4-1.6 1m-2 2.9c-.3.5 0 1.3.6 1.7.7.4.9.3.5-.4-.3-.5 0-1.3.6-1.5.9-.4 1-.6.1-.6-.6-.1-1.4.3-1.8.8m-12.1 2.9c.3.5 0 1.3-.6 1.5-.9.4-1 .6-.1.6 1.7.1 2.5-1.6 1.2-2.5-.7-.4-.9-.3-.5.4m7.1 5.2c-.3.6.1.7.9.4 1.8-.7 2.1-1.4.7-1.4-.6 0-1.3.4-1.6 1M48 56.4c0 .2.7.7 1.6 1 .8.3 1.2.2.9-.4-.6-1-2.5-1.4-2.5-.6m31.5 1.5c-.3.5 0 1.3.6 1.7.7.4.9.3.5-.4-.3-.5 0-1.3.6-1.5.9-.4 1-.6.1-.6-.6-.1-1.4.3-1.8.8m-38.2 2.8c.9.2 2.5.2 3.5 0 .9-.3.1-.5-1.8-.5s-2.7.2-1.7.5m7.2 2.3c1 1.1 2 2 2.3 2s-.3-.9-1.3-2-2-2-2.3-2 .3.9 1.3 2m23.1.3c.3 1 .9 1.5 1.2 1.2s0-1.1-.7-1.8c-1-.9-1.1-.8-.5.6M57.5 65c1 1.1 2 2 2.3 2s-.3-.9-1.3-2-2-2-2.3-2 .3.9 1.3 2m-29.2 7.5c0 3.8.2 5.3.4 3.2.2-2 .2-5.2 0-7-.2-1.7-.4-.1-.4 3.8m24.7-4c1.3 1.4 2.6 2.5 2.8 2.5.3 0-.5-1.1-1.8-2.5S51.4 66 51.2 66c-.3 0 .5 1.1 1.8 2.5m9.3-.8c.9.2 2.3.2 3 0 .6-.3-.1-.5-1.8-.5-1.6 0-2.2.2-1.2.5M33.5 78c-.3.5.1 1 1 1s1.3-.5 1-1c-.3-.6-.8-1-1-1s-.7.4-1 1M99 80.6c0 .5.9 1.7 2 2.7 1.1.9 2 1.3 2 .8 0-.4-.9-1.6-2-2.6s-2-1.4-2-.9m-56.4 3.1c-.6 1.4-.5 1.5.5.6.7-.7 1-1.5.7-1.8s-.9.2-1.2 1.2M104 83c0 .5.7.7 1.5.4.8-.4 1.5-.8 1.5-1s-.7-.4-1.5-.4-1.5.4-1.5 1m-52.2 1.5c.4.5.7 1.3.7 1.7 0 1.2 1.5 2.2 1.5 1 0-.9 3.6-1.2 12.2-1.2 16.3 0 14.3-1.8-2.4-2.2-8.2-.2-12.4 0-12 .7m33.7.5-5 .7 5.3.1c2.9.1 5.2-.2 5.2-.8s-.1-.9-.2-.8c-.2 0-2.5.4-5.3.8m-18.2 5.7c6.8.3 10.7.8 10.7 1.5s.4.7 1.3 0c.7-.6 4.9-1.3 9.2-1.5 4.4-.1-1-.3-12-.3s-15.2.2-9.2.3m-9.8 4.8c0 1.3.3 2.1.8 1.8.4-.2.7-1 .7-1.8s-.3-1.6-.7-1.8c-.5-.3-.8.5-.8 1.8m27.2 2.2c1.8.2 5 .2 7 0 2.1-.2.7-.4-3.2-.4-3.8 0-5.5.2-3.8.4m-43.9 4c2.3.2 5.9.2 8 0 2-.2.1-.4-4.3-.4s-6.1.2-3.7.4"/><g fill="#400000" stroke-width="0"><path d="M93 32.4c0 .2.8 1 1.8 1.7 1.5 1.3 1.6 1.2.3-.4S93 31.6 93 32.4M84 35c-.6 1.1-.8 2-.6 2 .3 0 1-.9 1.6-2s.8-2 .6-2c-.3 0-1 .9-1.6 2m9.4 2.2c-.4.7-1.5 2.4-2.3 3.8-1.5 2.3-1.5 2.4.2 1.1.9-.7 2.4-1.1 3.2-.7 1.3.5 1.5 4 1.5 24.1v23.6l-21.5-.3c-11.8-.2-21.5-.1-21.5.2s1.2 1.3 2.5 2.3c2 1.4 2.3 1.5 1.9.3-.5-1.4 2-1.6 19.3-1.8l19.8-.3.3-24.3c.2-23.6.2-24.4-1.8-24.9-1.6-.4-1.8-.9-.9-2.4 1.1-2.1.5-2.7-.7-.7M81.5 39c-.4.6-10.3 1-26.5 1H29.1l-.3 20.7c-.2 11.5-.3 20.9-.3 21s1.1-.8 2.5-2c1.6-1.2 1.8-1.8.8-1.4-1.7.6-1.8-.7-1.8-18.3V41h25.1c16.4 0 24.8.3 24.4 1-1.4 2.2.4.8 1.9-1.5.9-1.4 1.4-2.5 1.2-2.5-.3 0-.8.4-1.1 1M77 46c-.6 1.1-.8 2-.6 2 .3 0 1-.9 1.6-2s.8-2 .6-2c-.3 0-1 .9-1.6 2"/><path d="M86.4 48.2c-.4.7-1.4 2.4-2.2 3.8-1.4 2.4-1.3 2.4.3.5 2-2.4 3.7-5.5 3.1-5.5-.3 0-.8.6-1.2 1.2m4.7 2.4c0 1.1.3 1.4.6.6.3-.7.2-1.6-.1-1.9-.3-.4-.6.2-.5 1.3m-19.9 8.1c.1 3.8.1 3.8.5.5.3-2 .8-3 1.5-2.6s.8.2.4-.4c-1.4-2.4-2.6-1.1-2.4 2.5m20-.2c0 1.6.2 2.2.5 1.2.2-.9.2-2.3 0-3-.3-.6-.5.1-.5 1.8m-14.7.1c1.2 1 1.6 1.8.9 2.1-.6.2-2 1-3 1.9-1.4 1.1-1 1 1.8-.2 2-1 4-2.4 4.2-3.1.3-.8.1-1.1-.4-.8s-2 .1-3.2-.5c-2.3-1.1-2.3-1.1-.3.6m14.9 16.9c0 5.5.1 7.6.3 4.7s.2-7.4 0-10-.3-.2-.3 5.3M36 78.4c0 .2.7.7 1.6 1 .8.3 1.2.2.9-.4-.6-1-2.5-1.4-2.5-.6m12.1 3.9c.2.1 1.5 1.1 2.9 2.2l2.5 2-1.9-2.3C50.5 83 49.2 82 48.7 82q-.9 0-.6.3M27.2 85c0 1.4.2 1.9.5 1.2.2-.6.2-1.8 0-2.5-.3-.6-.5-.1-.5 1.3m13.8-.9c0 .5.5.7 1 .4.6-.3 1-.8 1-1.1 0-.2-.4-.4-1-.4-.5 0-1 .5-1 1.1m69 3c0 .8 1 2 2.3 2.8l2.2 1.4-2-2.4c-1.1-1.3-2.1-2.6-2.2-2.8-.2-.2-.3.2-.3 1m-31 8.3c0 .2.8 1 1.8 1.7 1.5 1.3 1.6 1.2.3-.4S79 94.6 79 95.4m-22.5 3.7c-.4.6-1.7 1.4-2.9 1.9-1.4.6-1.6.9-.5.9.9.1 2.4-.8 3.4-1.9s1.5-2 1.2-2-.9.5-1.2 1.1"/></g><path fill="#80BFBF" d="M72.7 58.6c-.4.4-.7 1.6-.7 2.6 0 1.6.3 1.6 2 .6 2-1.3 2.2-2.9.4-3.5-.6-.2-1.3 0-1.7.3"/><path fill="#408080" d="m80.7 42.7-7.5 11.8 2.1 1.7c1.2 1 2.7 1.8 3.2 1.8.6 0 4.3-5.2 8.4-11.6l7.5-11.6-2.5-1.9c-1.3-1-2.7-1.9-3-1.9-.4 0-4.1 5.3-8.2 11.7m-34.9-3c6.8.2 17.6.2 24 0 6.4-.1.9-.3-12.3-.3s-18.5.2-11.7.3m51.5 6.8c0 2.2.2 3 .4 1.7.2-1.2.2-3 0-4-.3-.9-.5.1-.4 2.3M70.2 60c0 1.4.2 1.9.5 1.2.2-.6.2-1.8 0-2.5-.3-.6-.5-.1-.5 1.3m25.2 13c0 8.5.2 12 .3 7.7.2-4.2.2-11.2 0-15.5-.1-4.2-.3-.7-.3 7.8m-27-3.8-1.9 2.3 2.3-1.9c2.1-1.8 2.7-2.6 1.9-2.6-.2 0-1.2 1-2.3 2.2m15.4 15.5c1.2.2 3.2.2 4.5 0 1.2-.2.2-.4-2.3-.4s-3.5.2-2.2.4m-29.2 2.8c.4 1.1 2.1 1.5 5.8 1.5 4.9-.1 5-.1 2.6-1.5-3.5-2-9.1-2-8.4 0"/><path fill="#404080" d="M57.3 41.7c4.3.2 11 .2 15 0 4-.1.5-.3-7.8-.3-8.2 0-11.5.2-7.2.3m35.9-.1c1.4.4 1.8 2 2.1 8.5l.3 7.9v-8.2c-.1-7.5-.3-8.3-2.1-8.5-1.5-.1-1.6-.1-.3.3"/><path fill="#404040" fill-opacity=".9" d="M106.3 97.7c.9.2 2.5.2 3.5 0 .9-.3.1-.5-1.8-.5s-2.7.2-1.7.5"/><path fill="#004080" d="M35.8 41.7c2.9.2 7.4.2 10 0s.2-.3-5.3-.3-7.6.1-4.7.3"/><path fill="#400040" d="M28.4 54c0 6.9.1 9.7.3 6.2.2-3.4.2-9 0-12.5-.2-3.4-.3-.6-.3 6.3"/><path fill="#0080BF" d="M30.7 42.7c-.4.3-.7 3.8-.7 7.6v6.9l3.8-.7c7.8-1.4 13.8-6.1 15.7-12.3.6-2.2.5-2.2-8.8-2.2-5.1 0-9.7.3-10 .7"/><path fill="#4080BF" d="M48.6 46c-2.3 5.1-6.9 8.6-13.4 10.1L30 57.3v20.6l2.9-.5c1.9-.4 4 0 5.9 1.2 2.9 1.7 3.2 1.6 8.9-.5 6.8-2.5 12.7-6.1 10.1-6.1-.9 0-2.9-1.4-4.5-3.2C46.9 61.7 46 61 43.2 61c-1.5 0-3.7.7-4.8 1.5-2.6 2-3.4 1.9-3.4-.4 0-2.2 4.2-5.9 7.7-6.7 4-1 7.3.5 12.9 6.1 3 3 6.2 5.5 7.2 5.5 2.8 0 6.1-4.2 7.8-9.6.8-2.6 2.1-5.8 2.9-7.1.8-1.2 1.5-2.9 1.5-3.8s.4-1.4.9-1.1c.5.4.7-.3.4-1.4-.5-1.9-1.4-2-13.2-2H50.4zm41.5 4.6c0 1.1.3 1.4.6.6.3-.7.2-1.6-.1-1.9-.3-.4-.6.2-.5 1.3m2 0c0 1.1.3 1.4.6.6.3-.7.2-1.6-.1-1.9-.3-.4-.6.2-.5 1.3M90.2 58c0 1.9.2 2.7.5 1.7.2-.9.2-2.5 0-3.5-.3-.9-.5-.1-.5 1.8m2 0c0 1.9.2 2.7.5 1.7.2-.9.2-2.5 0-3.5-.3-.9-.5-.1-.5 1.8m-2 10.5c0 1.6.2 2.2.5 1.2.2-.9.2-2.3 0-3-.3-.6-.5.1-.5 1.8"/><g fill="#40BFBF" stroke-width="0"><path d="M76 42.9c0 .5-.3 1.8-.6 2.8-.6 1.6-.5 1.6.9-.2 1.9-2.3 2.1-3.5.7-3.5-.5 0-1 .4-1 .9m10.4 8.5c-4.1 6.5-7 10-9.3 11.2-1.9 1.1-5.4 3.8-7.7 6.2-3.5 3.5-4.8 4.2-8.1 4.2-2.1 0-4.4.5-4.9 1-.6.6-4.3 2.3-8.2 3.9-7.6 2.9-8.5 4.2-2.3 3.4 2.6-.4 4.1-.1 5 1.1C52 83.7 54.5 84 65.1 84c7.9 0 12.9.4 12.9 1s-3.4 1-8.2 1c-7.4 0-8 .1-6.2 1.5 1.5 1.1 5.3 1.4 16.7 1.5H95V65.5c0-19.4-.2-23.5-1.4-23.5-.8 0-4 4.2-7.2 9.4m6.2.2c-.5 1.3-1 1.4-1.8.6-.6-.6-.8-1.8-.4-2.8.5-1.3 1-1.4 1.8-.6.6.6.8 1.8.4 2.8m.2 6.6c-.2 1.8-.7 3.3-1.3 3.3-.5 0-1.1-1.5-1.3-3.3-.3-2.4.1-3.2 1.3-3.2s1.6.8 1.3 3.2m-.2 8.4c-.3.9-.6 5.6-.6 10.5V86h-6c-3.3 0-6-.4-6-1s2.5-1 5.6-1h5.7l-.6-8.9c-.3-4.9-.3-9.2 0-9.5 1.2-1.2 2.5-.6 1.9 1"/><path d="M67.1 64.3c-2.4 2.9-2.4 3-.2 1.8 1.2-.7 2.5-1.9 2.8-2.7 1-2.6-.1-2.2-2.6.9"/></g><path fill="#804040" d="M29.5 89c-.3.6.1.7.9.4 1.8-.7 2.1-1.4.7-1.4-.6 0-1.3.4-1.6 1M23 93c-.9.6-1 1-.3 1 .6 0 1.5-.5 1.8-1 .8-1.2.4-1.2-1.5 0"/><path fill="#FFF" fill-opacity=".2" d="M7.8 65.7c.6.2 1.8.2 2.5 0 .6-.3.1-.5-1.3-.5s-1.9.2-1.2.5"/><path fill="#400000" fill-opacity=".5" d="M106.3 98.7c.9.2 2.3.2 3 0 .6-.3-.1-.5-1.8-.5-1.6 0-2.2.2-1.2.5"/><path fill="#400000" fill-opacity=".9" d="M20.9 86.7c-1.2 1.6-1.2 1.7.1.6.8-.6 2.6-1.3 4-1.6l2.5-.4-2.6-.2c-1.5 0-3.3.7-4 1.6m-4.1 3c.7.3 1.6.2 1.9-.1.4-.3-.2-.6-1.3-.5-1.1 0-1.4.3-.6.6M12.2 95c0 1.4.2 1.9.5 1.2.2-.6.2-1.8 0-2.5-.3-.6-.5-.1-.5 1.3m4.6 6.7c.7.3 1.6.2 1.9-.1.4-.3-.2-.6-1.3-.5-1.1 0-1.4.3-.6.6"/><path fill="#400000" fill-opacity=".1" d="M12.9 90.7c-1.3 1.6-1.2 1.7.4.4.9-.7 1.7-1.5 1.7-1.7 0-.8-.8-.3-2.1 1.3"/><path fill="#400000" fill-opacity=".4" d="M22.3 102.7c2 .2 5.4.2 7.5 0 2-.2.3-.4-3.8-.4s-5.8.2-3.7.4"/><path fill="#404000" fill-opacity=".9" d="M22.3 101.7c2 .2 5.4.2 7.5 0 2-.2.3-.4-3.8-.4s-5.8.2-3.7.4"/></svg>