<svg xmlns="http://www.w3.org/2000/svg" version="1.0" viewBox="0 0 64 64"><path fill-opacity=".3" d="M19 17.5c4.7 4.7 8.7 8.5 9 8.5.2 0-3.3-3.8-8-8.5S11.3 9 11 9c-.2 0 3.3 3.8 8 8.5m25 .2-8.5 8.8 8.8-8.5c8.1-7.9 9.2-9 8.4-9-.1 0-4.1 3.9-8.7 8.7m-27 1.8c4.7 4.7 8.7 8.5 9 8.5.2 0-3.3-3.8-8-8.5S9.3 11 9 11c-.2 0 3.3 3.8 8 8.5m29 .2-8.5 8.8 8.8-8.5c8.1-7.9 9.2-9 8.4-9-.1 0-4.1 3.9-8.7 8.7m-29 25-8.5 8.8 8.8-8.5c8.1-7.9 9.2-9 8.4-9-.1 0-4.1 3.9-8.7 8.7m29-.2c4.7 4.7 8.7 8.5 9 8.5.2 0-3.3-3.8-8-8.5S38.3 36 38 36c-.2 0 3.3 3.8 8 8.5m-27 2.2-8.5 8.8 8.8-8.5c8.1-7.9 9.2-9 8.4-9-.1 0-4.1 3.9-8.7 8.7m25-.2c4.7 4.7 8.7 8.5 9 8.5.2 0-3.3-3.8-8-8.5S36.3 38 36 38c-.2 0 3.3 3.8 8 8.5"/><path fill-opacity=".6" d="M6.4 7.4c-.3.7-.3 4.2-.1 7.7l.3 6.4.2-7.2.2-7.2 7.3-.4 7.2-.3-7.3-.2c-5.3-.1-7.4.2-7.8 1.2m43.3-.7 7.2.4.4 6.7.3 6.7v-7l-.1-7-7.5-.1-7.5-.1zM6.4 50.5l.1 7 7 .1h7l-6.7-.3-6.7-.4-.4-6.7-.3-6.7zm50.8-.8-.2 7.2-7.2.4-7.3.3 7.3.2c8.5.2 8.5.2 7.9-8.9l-.3-6.4z"/><path d="M7.2 14.7c.2 7.7.2 7.7.5 1.5.2-3.4.7-6.2 1.1-6.2s4.7 3.9 9.7 8.7l9 8.8-8.7-9c-4.9-5-8.8-9.3-8.8-9.7s2.8-.9 6.3-1.1c6.1-.3 6.1-.3-1.5-.5L7 7zm40.6-7c3.4.2 6.2.7 6.2 1.1s-3.9 4.7-8.7 9.7l-8.8 9 9-8.8c5-4.8 9.3-8.7 9.7-8.7s.9 2.8 1.1 6.2c.3 6.2.3 6.2.5-1.5L57 7l-7.7.2c-7.7.2-7.7.2-1.5.5M18 45.5C13.3 50.2 9.2 54 8.8 54s-.9-2.8-1.1-6.3c-.3-6.1-.3-6.1-.5 1.5L7 57l7.8-.2c7.6-.2 7.6-.2 1.5-.5-3.5-.2-6.3-.7-6.3-1.1s3.9-4.6 8.7-9.4c4.8-4.9 8.5-8.8 8.3-8.8-.3 0-4.3 3.8-9 8.5m27.3 0c4.8 5 8.7 9.3 8.7 9.7s-2.8.9-6.2 1.1c-6.2.3-6.2.3 1.5.5l7.7.2-.2-7.8c-.2-7.6-.2-7.6-.5-1.5-.2 3.5-.7 6.3-1.1 6.3s-4.7-3.9-9.7-8.8l-9-8.7z"/><path fill-opacity=".9" d="M16.6 7.7c-3.2.2-6.4 1-7.1 1.7C8.1 10.7 7 23.2 8.3 22.3c.4-.2.7-3 .7-6.1v-5.7l8.8 8.8c4.8 4.8 9.1 8.4 9.5 8s-3.2-4.7-8-9.5L10.5 9h5.7c3.1 0 6-.5 6.3-1 .3-.6.5-.9.3-.8s-2.9.3-6.2.5M19 18.5c4.7 4.7 8.2 8.5 8 8.5-.3 0-4.3-3.8-9-8.5S9.8 10 10 10c.3 0 4.3 3.8 9 8.5M41.7 8.2c.2.5 3 .8 6.1.8h5.7l-8.8 8.8c-4.8 4.8-8.4 9.1-8 9.5s4.7-3.2 9.5-8l8.8-8.8v5.7c0 3.1.3 5.9.8 6.1 1.2.8.1-11.6-1.2-12.9S40.9 7 41.7 8.2M54 10.3c0 .1-3.9 4.1-8.7 8.7l-8.8 8.5 8.5-8.8c7.9-8.1 9-9.2 9-8.4M17.7 44.8 9 53.5v-5.7c0-3.1-.3-5.9-.7-6.1-1.3-.8-.2 11.6 1.1 12.9s13.7 2.4 12.9 1.1c-.2-.4-3-.7-6.1-.7h-5.7l8.9-8.9c4.8-4.9 8.4-9.1 7.9-9.4s-4.8 3.3-9.6 8.1m9.3-7.5c0 .1-3.9 4.1-8.7 8.7l-8.8 8.5 8.5-8.8c7.9-8.1 9-9.2 9-8.4m9.7-.6c-.4.4 3.2 4.7 8 9.5l8.8 8.8h-5.7c-3.1 0-5.9.3-6.1.7-.8 1.3 11.6.2 12.9-1.1s2.4-13.7 1.2-12.9c-.5.2-.8 3-.8 6.1v5.7l-8.8-8.8c-4.8-4.8-9.1-8.4-9.5-8m9.3 8.8c4.7 4.7 8.2 8.5 8 8.5-.3 0-4.3-3.8-9-8.5S36.8 37 37 37c.3 0 4.3 3.8 9 8.5"/></svg>