<svg xmlns="http://www.w3.org/2000/svg" version="1.0" viewBox="0 0 64 64"><path fill-opacity=".3" d="M45 18.5c1.9 1.9 3.6 3.5 3.9 3.5s-1-1.6-2.9-3.5-3.6-3.5-3.9-3.5 1 1.6 2.9 3.5m-3 3c1.9 1.9 3.6 3.5 3.9 3.5s-1-1.6-2.9-3.5-3.6-3.5-3.9-3.5 1 1.6 2.9 3.5"/><path fill-opacity=".1" d="M49.9 20.7c-1.3 1.6-1.2 1.7.4.4.9-.7 1.7-1.5 1.7-1.7 0-.8-.8-.3-2.1 1.3m-6.5 6.5-1.9 2.3 2.3-1.9c2.1-1.8 2.7-2.6 1.9-2.6-.2 0-1.2 1-2.3 2.2M16 42.3c0 .2 1.5 1.6 3.3 3.3l3.2 2.9-2.9-3.3c-2.8-3-3.6-3.7-3.6-2.9"/><path fill-opacity=".6" d="m24.4 26.2-2.9 3.3 3.3-2.9c3-2.8 3.7-3.6 2.9-3.6-.2 0-1.6 1.5-3.3 3.2m27.5-1.5c-1.3 1.6-1.2 1.7.4.4.9-.7 1.7-1.5 1.7-1.7 0-.8-.8-.3-2.1 1.3M15.5 48c1 1.1 2 2 2.3 2s-.3-.9-1.3-2-2-2-2.3-2 .3.9 1.3 2"/><path fill-opacity=".9" d="M44.7 19c3.6 3.7 4.5 4.2 5.5 3.1 1.1-1.1 1-1.3 0-.6-.9.5-2.9-.6-5.5-3.1l-4.2-3.9zm-2.1 2.1c2.1 2.5 4.1 4.4 4.4 4.2.2-.2-1.6-2.3-4-4.6l-4.4-4.2z"/><path d="M43.5 8.9C38.2 12.2 21.7 29.7 23 30.5c.8.5 3.9-2 8.6-6.6l7.4-7.4 4.2 4.2 4.2 4.2-2.2 2.4c-2.5 2.7-2.8 3.7-.9 3.7 1.8 0 10.4-9 11.6-12.2 1.4-3.8-.4-8.5-4-10.3-3.6-1.9-4.8-1.9-8.4.4M52 12c2.7 2.7 2.5 5.3-.4 8.7l-2.5 2.8-4.3-4.3-4.3-4.3 2.8-2.5c3.4-2.9 6-3.1 8.7-.4M31 41.5 22.6 50l-4.3-4.2-4.3-4.2 2.7-2.8c1.9-2 2.4-3.1 1.6-3.9-1.8-1.8-6.8 5.2-8.8 12.5-2.4 8.8-1.7 9.5 7.2 7.1 6.3-1.7 7.4-2.4 16-10.8C40.8 35.8 42.8 33 40.2 33c-.4 0-4.5 3.8-9.2 8.5m-13.2 9.6c-.7.3-2.6.9-4.1 1.3-2.6.6-2.8.5-2.2-1.6.4-1.3.9-3.1 1.2-4.1.4-1.7.8-1.6 3.4.9 2.1 2 2.6 3 1.7 3.5"/><path fill-opacity=".5" d="M46.9 29.7c-1.3 1.6-1.2 1.7.4.4.9-.7 1.7-1.5 1.7-1.7 0-.8-.8-.3-2.1 1.3"/><path fill-opacity=".7" d="M38.9 11.7c-1.3 1.6-1.2 1.7.4.4s2.1-2.1 1.3-2.1c-.2 0-1 .8-1.7 1.7m-5.5 5.5-2.9 3.3 3.3-2.9c3-2.8 3.7-3.6 2.9-3.6-.2 0-1.6 1.5-3.3 3.2m-20 20-1.9 2.3 2.3-1.9c2.1-1.8 2.7-2.6 1.9-2.6-.2 0-1.2 1-2.3 2.2m19.1 7-8 8.3 8.3-8c7.6-7.4 8.7-8.5 7.9-8.5-.1 0-3.8 3.7-8.2 8.2"/><path fill-opacity=".8" d="m42.4 13.2-1.9 2.3 2.3-1.9c2.1-1.8 2.7-2.6 1.9-2.6-.2 0-1.2 1-2.3 2.2m-10.9 11-7 7.3 7.3-7c6.7-6.4 7.7-7.5 6.9-7.5-.1 0-3.4 3.3-7.2 7.2m-1 17-8 8.3 8.3-8c7.6-7.4 8.7-8.5 7.9-8.5-.1 0-3.8 3.7-8.2 8.2m-14.1-2-1.9 2.3 2.3-1.9c2.1-1.8 2.7-2.6 1.9-2.6-.2 0-1.2 1-2.3 2.2m1.6 6.3c1.9 1.9 3.6 3.5 3.9 3.5s-1-1.6-2.9-3.5-3.6-3.5-3.9-3.5 1 1.6 2.9 3.5M11 52c0 .5.5 1 1.1 1 .5 0 .7-.5.4-1-.3-.6-.8-1-1.1-1-.2 0-.4.4-.4 1"/></svg>