<svg xmlns="http://www.w3.org/2000/svg" version="1.0" viewBox="0 0 64 64"><path fill-opacity=".1" d="m17 27.7-8.5 8.8 8.8-8.5c8.1-7.9 9.2-9 8.4-9-.1 0-4.1 3.9-8.7 8.7m38.9-5.4c.6.8.7 1.8.3 2.2-.4.5-.1.5.6.1 1-.6 1-1.1.1-2.2-.6-.8-1.4-1.4-1.6-1.4-.3 0 0 .6.6 1.3M9 46.5c1.3 1.4 2.6 2.5 2.8 2.5.3 0-.5-1.1-1.8-2.5S7.4 44 7.2 44c-.3 0 .5 1.1 1.8 2.5"/><path fill-opacity=".6" d="M51.5 14c3.3 3.3 6.2 6 6.4 6 .3 0-2.1-2.7-5.4-6s-6.2-6-6.4-6c-.3 0 2.1 2.7 5.4 6M17 31.7l-5.5 5.8 5.8-5.5c5.3-5 6.2-6 5.4-6-.1 0-2.7 2.6-5.7 5.7m34.5 4.5-6 6.3 6.3-6c5.8-5.5 6.7-6.5 5.9-6.5-.1 0-2.9 2.8-6.2 6.2M6.5 48c1 1.1 2 2 2.3 2s-.3-.9-1.3-2-2-2-2.3-2 .3.9 1.3 2m14.8 8.7c1.5.2 3.7.2 5 0 1.2-.2 0-.4-2.8-.4-2.7 0-3.8.2-2.2.4m16.5 0c2.8.2 7.6.2 10.5 0 2.8-.2.5-.3-5.3-.3s-8.1.1-5.2.3"/><path fill-opacity=".8" d="M48 13.5c3 3 5.7 5.5 5.9 5.5.3 0-1.9-2.5-4.9-5.5S43.3 8 43.1 8c-.3 0 1.9 2.5 4.9 5.5m-36 20C7.9 37.6 4.8 41 5.1 41c.2 0 3.8-3.4 7.9-7.5s7.2-7.5 6.9-7.5c-.2 0-3.8 3.4-7.9 7.5m19-.1c0 .2.8 1 1.8 1.7 1.5 1.3 1.6 1.2.3-.4S31 32.6 31 33.4m8.4 11.8-1.9 2.3 2.3-1.9c2.1-1.8 2.7-2.6 1.9-2.6-.2 0-1.2 1-2.3 2.2M12 50.5c3.5 3.6 6.7 6.5 6.9 6.5.3 0-2.4-2.9-5.9-6.5S6.3 44 6.1 44c-.3 0 2.4 2.9 5.9 6.5M35.5 58l-18 .6 17.7.2c10.9.1 17.9-.2 18.3-.8.3-.6.5-.9.3-.8s-8.4.5-18.3.8"/><path fill-opacity=".7" d="M35 33.9c0 .6.4 1.3 1 1.6s.7-.1.4-.9c-.7-1.8-1.4-2.1-1.4-.7M8.4 40.2l-2.9 3.3 3.3-2.9c1.7-1.7 3.2-3.1 3.2-3.3 0-.8-.8-.1-3.6 2.9m31.1 8-6 6.3 6.3-6c5.8-5.5 6.7-6.5 5.9-6.5-.1 0-2.9 2.8-6.2 6.2M33 51.5C30.6 54 28.8 56 29.1 56s2.5-2 4.9-4.5 4.2-4.5 3.9-4.5-2.5 2-4.9 4.5M12.5 54c2.1 2.2 4.1 4 4.4 4s-1.3-1.8-3.4-4-4.1-4-4.4-4 1.3 1.8 3.4 4"/><path fill-opacity=".4" d="m36.5 12.2-4 4.3 4.3-4C40.7 8.9 41.5 8 40.7 8c-.2 0-2.1 1.9-4.2 4.2"/><path fill-opacity=".2" d="m32 12.7-6.5 6.8 6.8-6.5C36 9.5 39 6.4 39 6.3c0-.8-1 .2-7 6.4M46.4 14c0 1.3.4 1.6 1 1 .7-.7.7-1.3 0-2-.6-.6-1-.3-1 1"/><path fill-opacity=".9" d="m29.5 16.2-10 10.3 9.1-8.9c5.1-4.8 9.6-8.9 10-9 .7-.1 1.7-2.6 1-2.6-.1 0-4.6 4.6-10.1 10.2M45 14.1c0 .5.5.7 1 .4.6-.3 1-.8 1-1.1 0-.2-.4-.4-1-.4-.5 0-1 .5-1 1.1m4.5 3.9c-.3.5-.1 1 .4 1 .6 0 1.1-.5 1.1-1 0-.6-.2-1-.4-1-.3 0-.8.4-1.1 1m4.8 1.7c.4.3.1 1.3-.5 2.2-1 1.3-1 1.4.2.4 1.1-1 1.8-.9 3.4.5 1.5 1.2 1.4.9-.3-1.1-1.4-1.5-2.7-2.7-2.9-2.7-.3 0-.2.3.1.7m2 7.9C55 29 54.5 30 55.2 29.8c1-.4 4.5-4.8 3.7-4.8-.2 0-1.4 1.2-2.6 2.6m-29.7.2c-.3.5.7 2 2.2 3.3 1.8 1.6 2.1 1.7 1 .4-.9-1.1-1.7-2.4-1.6-2.8 0-1.4-1-1.9-1.6-.9m18.6 9.1c.4 1.3 1.8 1.6 1.9.4 0-.4-.5-.9-1.1-1.2-.7-.2-1.1.2-.8.8"/><path d="M22.2 24.3C12.2 34.4 4 43 4 43.4s3 3.9 6.7 7.7l6.6 6.9 18.1-.2c12.4-.2 14.7-.3 7.4-.5-6-.2-10.8-.7-10.8-1 0-.4 6.5-7.3 14.5-15.3 8-8.1 14.5-15.2 14.5-16 0-1.9-17.1-19-19-19-.8 0-9.8 8.2-19.8 18.3m28.5-9.1c4.6 4.6 8.3 8.9 8.3 9.6s-.5 1-1.2.6-.8-.3-.4.5c1 1.6-1.3 4.3-3.1 3.7-.8-.3-1.1-.1-.8.5 1 1.5-1.4 3.9-3.2 3.2-1.1-.4-1.4-.3-.9.6 1 1.5-1.2 4.3-2.7 3.4-.5-.3-.7-.1-.4.4.4.6.1 1.6-.7 2.2-1.8 1.5-6.6-.3-6.6-2.4 0-.9-.4-1.4-.8-1.1-.5.3-2.4-1.2-4.3-3.3-1.9-2-4.3-4-5.3-4.4-1.1-.4-1.6-1.3-1.2-2.2.3-1 .1-1.5-.7-1.3-2.9.7-1-2.2 6.4-10 4.4-4.5 8.3-8.2 8.7-8.2.3 0 4.4 3.7 8.9 8.2m-18 19c4.9 4.5 9 8.3 9.2 8.5.3.2-2.6 3.5-6.4 7.3-6.8 6.8-7.1 7-11.9 7s-5.3-.3-11.3-6.2C8.8 47.4 6 44.1 6 43.5 6 42.4 22.1 26 23.2 26c.4 0 4.7 3.7 9.5 8.2"/><path fill-opacity=".5" d="M28.6 19.9c-2.7 2.8-3.4 4.1-2.5 4.6.7.5 1 .4.6-.2-.3-.5.9-2.4 2.7-4.2 2.4-2.3 3.5-2.9 3.9-1.9.4.8.6.9.6.1.2-2.6-1.8-2-5.3 1.6m29.4.5c0 .2.8 1 1.8 1.7 1.5 1.3 1.6 1.2.3-.4S58 19.6 58 20.4m.9 8.3c-1.3 1.6-1.2 1.7.4.4s2.1-2.1 1.3-2.1c-.2 0-1 .8-1.7 1.7"/></svg>