<svg xmlns="http://www.w3.org/2000/svg" version="1.0" viewBox="0 0 64 64"><path fill-opacity=".1" d="M3.4 35c0 10.2.2 14.3.3 9.2.2-5 .2-13.4 0-18.5-.1-5-.3-.9-.3 9.3m57 0c0 10.2.2 14.3.3 9.2.2-5 .2-13.4 0-18.5-.1-5-.3-.9-.3 9.3"/><g stroke-width="0"><path d="m47.4 11-2.7 4H25.6C12 15 6 15.4 5.2 16.2S4 22.7 4 35.1c0 14.8.3 18 1.6 19.3 2.3 2.4 50.5 2.4 52.8 0 1.3-1.3 1.6-4.5 1.6-19.5 0-16.8-.1-18-2-19.1-1.1-.7-2-2.2-2-3.3 0-1.2-1.2-2.8-3-3.8l-2.9-1.8zm6.1-.6c1.8 1.3 1.6 1.8-3.5 10-3 4.7-6 8.6-6.5 8.6-.6 0-1.9-.6-2.9-1.3-1.7-1.3-1.5-1.9 3.9-10C47.7 12.9 50.6 9 51 9c.3 0 1.5.6 2.5 1.4M43 16.8c0 .4-1.3 2.8-2.8 5.3C37.4 26.4 35.3 35 37 35c3 0 8.4-5 12.5-11.6 3.2-5 5.3-7.4 6.6-7.4 1.8 0 1.9.9 1.9 19v19H6V16h18.5c10.2 0 18.5.4 18.5.8m-1.7 12.9c.8.7-1.1 3.3-2.4 3.3-.5 0-.9-.9-.9-2 0-1.9 2-2.7 3.3-1.3"/><path d="M14.5 28c-1.2.4-2.7 1.5-3.4 2.4-1.3 1.5-1.1 1.6 1.5.6 3.8-1.5 6.8-.6 8.8 2.6 4.2 6.3 9.7 8.4 12.7 4.8 1.1-1.3.9-1.4-1.5-.8-2.3.5-3.3 0-7.4-4.4-5-5.3-7.5-6.5-10.7-5.2"/></g><path fill-opacity=".9" d="m26 14-19.5.6 19.2.2c11.9.1 19.4-.2 19.8-.8.3-.6.5-.9.3-.8s-9.1.5-19.8.8m12 18.4c0 .2.7.7 1.6 1 .8.3 1.2.2.9-.4-.6-1-2.5-1.4-2.5-.6m-3 4.8c-1.2 2.2-1.2 2.2.6.6 1-1 1.5-2 1.2-2.4-.4-.3-1.2.5-1.8 1.8m-4.2.5c.7.3 1.6.2 1.9-.1.4-.3-.2-.6-1.3-.5-1.1 0-1.4.3-.6.6"/><path fill-opacity=".4" d="M6.4 35.5c0 9.9.2 13.8.3 8.7.2-5.1.2-13.2 0-18-.1-4.8-.3-.6-.3 9.3m51 0c0 9.9.2 13.8.3 8.7.2-5.1.2-13.2 0-18-.1-4.8-.3-.6-.3 9.3M23 37.4c0 .2.8 1 1.8 1.7 1.5 1.3 1.6 1.2.3-.4S23 36.6 23 37.4"/><path fill-opacity=".6" d="M13.5 16.7c14.6.7 29.3.7 28.8 0-.2-.4-8.2-.6-17.6-.5-9.5.1-14.5.3-11.2.5"/><path fill-opacity=".2" d="M19.8 53.7c6.7.2 17.7.2 24.5 0 6.7-.1 1.2-.3-12.3-.3s-19 .2-12.2.3"/><path fill-opacity=".3" d="M19.3 56.7c7 .2 18.4.2 25.5 0 7-.1 1.2-.3-12.8-.3s-19.8.2-12.7.3"/></svg>