<svg xmlns="http://www.w3.org/2000/svg" version="1.0" viewBox="0 0 64 64"><path fill-opacity=".7" d="M57.4 32c0 1.3.4 1.6 1 1 .7-.7.7-1.3 0-2-.6-.6-1-.3-1 1"/><path fill-opacity=".2" d="M10 45.1c0 .5.5.7 1 .4.6-.3 1-.8 1-1.1 0-.2-.4-.4-1-.4-.5 0-1 .5-1 1.1"/><path fill-opacity=".1" d="M35.3 19.5c0 2.7.2 3.8.4 2.2.2-1.5.2-3.7 0-5-.2-1.2-.4 0-.4 2.8m0 25c0 2.7.2 3.8.4 2.2.2-1.5.2-3.7 0-5-.2-1.2-.4 0-.4 2.8"/><path d="M36 19.9v4.8l-4.5.6C18.2 27.2 7.8 38.4 6.3 52.5l-.5 5 2.7-5.3c3.8-7.4 10.1-10.9 22.8-12.7l4.7-.6v5c0 2.8.4 5.1.8 5.1 1.3 0 20.7-15.9 20.7-17S38.1 15 36.8 15c-.4 0-.8 2.2-.8 4.9m11.6 4.8c4.6 3.6 8.4 6.9 8.4 7.3 0 .8-16.5 14-17.4 14-.3 0-.6-1.9-.6-4.1v-4.2l-6.8.5c-7.2.5-15.2 3.5-18.9 7-1.3 1.2-2.5 1.9-2.9 1.6-1-1.1 2.7-8.4 6.4-12.1 4.8-5 7.5-6.3 15.5-7.7l6.7-1.2v-3.9c0-2.1.3-3.9.6-3.9s4.4 3 9 6.7"/><path fill-opacity=".9" d="M43.3 20.5c0 .8.4 1.2.9.9s.6-1 .3-1.5c-.9-1.3-1.2-1.1-1.2.6m5.1 3.9c.1.8.5 1.8.8 2.2.4.3.5-.1.4-1-.1-.8-.5-1.8-.8-2.2-.4-.3-.5.1-.4 1m5.1 4.5c-.3.5-.2 1.2.3 1.5s.9-.1.9-.9c0-1.7-.3-1.9-1.2-.6m0 5c-.3.5-.2 1.2.3 1.5s.9-.1.9-.9c0-1.7-.3-1.9-1.2-.6m-41.9 4.3c.3.5 1 .6 1.5.3 1.3-.9 1.1-1.2-.6-1.2-.8 0-1.2.4-.9.9m37.3-1c-.5 1.8-.6 3.8-.1 3.4.7-.8 1.2-3.6.6-3.6-.2 0-.4.1-.5.2m-5.6 6.3c0 .8.4 1.2.9.9s.6-1 .3-1.5c-.9-1.3-1.2-1.1-1.2.6m-32.2 1.9c-.8 1-.9 1.6-.1 2.1.5.3 1 .5 1.1.3.4-1.8.7-3.8.4-3.8-.1 0-.8.6-1.4 1.4"/><path fill-opacity=".4" d="M38.2 22c0 1.9.2 2.7.5 1.7.2-.9.2-2.5 0-3.5-.3-.9-.5-.1-.5 1.8m0 20c0 1.9.2 2.7.5 1.7.2-.9.2-2.5 0-3.5-.3-.9-.5-.1-.5 1.8"/></svg>