<svg xmlns="http://www.w3.org/2000/svg" version="1.0" viewBox="0 0 64 64"><path fill-opacity=".9" d="M41.6 4.8c-.3.5 2.4 3.7 5.9 7.2 3.6 3.6 6.5 6.1 6.5 5.6s.8-.3 1.8.5c.9.7-1.7-2.2-5.8-6.4S42.5 4 42.3 4c-.1 0-.4.4-.7.8m6.9 6.2c3.3 3.3 5.7 6 5.4 6-.2 0-3.1-2.7-6.4-6s-5.7-6-5.4-6c.2 0 3.1 2.7 6.4 6"/><path fill-opacity=".3" d="M47.5 9c2.7 2.7 5.1 5 5.4 5s-1.7-2.3-4.4-5c-2.7-2.8-5.1-5-5.4-5s1.7 2.2 4.4 5"/><path d="m48 11.2 6.4 6.8H44c-14.2 0-21.6 1.3-26.4 4.7-5.5 3.9-7.8 8.8-7.7 16.6 0 6.2 3.1 17 5.2 18.2.5.4 0-1.7-1.1-4.5-6.2-15.7-2.6-28 9.3-31.5 3.4-1 9.4-1.5 18.1-1.5h13L48 26.5c-3.5 3.5-6.2 6.7-5.9 6.9.3.3 3.7-2.7 7.7-6.7l7.2-7.2-7.7-7.5c-7.8-7.5-7.8-7.5-1.3-.8"/><path fill-opacity=".2" d="M46 11.5c3 3 5.7 5.5 5.9 5.5.3 0-1.9-2.5-4.9-5.5S41.3 6 41.1 6c-.3 0 1.9 2.5 4.9 5.5"/><path fill-opacity=".4" d="M53 14.4c0 .2.8 1 1.8 1.7 1.5 1.3 1.6 1.2.3-.4S53 13.6 53 14.4m-15.2 6.3c2.9.2 7.4.2 10 0s.2-.3-5.3-.3-7.6.1-4.7.3"/><path fill-opacity=".5" d="M30.8 20.7c.7.3 1.6.2 1.9-.1.4-.3-.2-.6-1.3-.5-1.1 0-1.4.3-.6.6M11.1 38.6c0 1.1.3 1.4.6.6.3-.7.2-1.6-.1-1.9-.3-.4-.6.2-.5 1.3"/><path fill-opacity=".7" d="M50 26.5c-4.1 4.1-7.2 7.5-6.9 7.5.2 0 3.8-3.4 7.9-7.5s7.2-7.5 6.9-7.5c-.2 0-3.8 3.4-7.9 7.5m-3.5.7-6 6.3 6.3-6c5.8-5.5 6.7-6.5 5.9-6.5-.1 0-2.9 2.8-6.2 6.2"/></svg>