<svg xmlns="http://www.w3.org/2000/svg" version="1.0" viewBox="0 0 64 64"><path fill-opacity=".8" d="M5.7 5.7c-1 .9-.9 11.1.1 11.6.4.3.5-2.2.4-5.5l-.4-6 6 .4c3.3.1 5.8 0 5.5-.5-.5-.9-10.7-1-11.6 0m16.6 0c.9.2 2.5.2 3.5 0 .9-.3.1-.5-1.8-.5s-2.7.2-1.7.5m11 0c.9.2 2.3.2 3 0 .6-.3-.1-.5-1.8-.5-1.6 0-2.2.2-1.2.5m11.5 0c1.8.2 4.5.2 6 0s0-.4-3.3-.4-4.5.2-2.7.4m6.5 6.3c0 2.5.2 3.5.4 2.2.2-1.2.2-3.2 0-4.5-.2-1.2-.4-.2-.4 2.3M5.2 24c0 1.9.2 2.7.5 1.7.2-.9.2-2.5 0-3.5-.3-.9-.5-.1-.5 1.8m46 .5c0 1.6.2 2.2.5 1.2.2-.9.2-2.3 0-3-.3-.6-.5.1-.5 1.8m-46 10c0 1.6.2 2.2.5 1.2.2-.9.2-2.3 0-3-.3-.6-.5.1-.5 1.8m46 0c0 1.6.2 2.2.5 1.2.2-.9.2-2.3 0-3-.3-.6-.5.1-.5 1.8m-45.9 13c0 3.3.2 4.5.4 2.7s.2-4.5 0-6-.4 0-.4 3.3m45.9-.8c-.2 4.2-.2 4.2-4.4 4.6l-4.3.4 4.3.1c4.8.2 5.6-.7 4.9-6-.3-3-.4-2.9-.5.9m-41.4 5c1.2.2 3.2.2 4.5 0 1.2-.2.2-.4-2.3-.4s-3.5.2-2.2.4m13.5 0c.9.2 2.3.2 3 0 .6-.3-.1-.5-1.8-.5-1.6 0-2.2.2-1.2.5m10 0c.9.2 2.3.2 3 0 .6-.3-.1-.5-1.8-.5-1.6 0-2.2.2-1.2.5m22.5 0c1.2.2 3.2.2 4.5 0 1.2-.2.2-.4-2.3-.4s-3.5.2-2.2.4M51.3 58c0 2.5.2 3.5.4 2.2.2-1.2.2-3.2 0-4.5-.2-1.2-.4-.2-.4 2.3"/><path fill-opacity=".6" d="M7.4 8.4c-.3.8-.4 3.1-.1 5.2.3 3.7.4 3.7.5-.8L8 8.1l4.8-.4 4.7-.3-4.8-.2c-3.3-.1-4.9.2-5.3 1.2m14.9-.7c.9.2 2.5.2 3.5 0 .9-.3.1-.5-1.8-.5s-2.7.2-1.7.5m11 0c.9.2 2.3.2 3 0 .6-.3-.1-.5-1.8-.5-1.6 0-2.2.2-1.2.5m11 0c1.5.2 3.7.2 5 0 1.2-.2 0-.4-2.8-.4-2.7 0-3.8.2-2.2.4M7.2 24c0 1.9.2 2.7.5 1.7.2-.9.2-2.5 0-3.5-.3-.9-.5-.1-.5 1.8m0 10.5c0 1.6.2 2.2.5 1.2.2-.9.2-2.3 0-3-.3-.6-.5.1-.5 1.8m.1 12c0 2.7.2 3.8.4 2.2.2-1.5.2-3.7 0-5-.2-1.2-.4 0-.4 2.8"/><path fill-opacity=".7" d="M53.3 11.5c0 3.3.2 4.5.4 2.7s.2-4.5 0-6-.4 0-.4 3.3m-.1 13c0 1.6.2 2.2.5 1.2.2-.9.2-2.3 0-3-.3-.6-.5.1-.5 1.8m0 10c0 1.6.2 2.2.5 1.2.2-.9.2-2.3 0-3-.3-.6-.5.1-.5 1.8m.1 12c0 2.7.2 3.8.4 2.2.2-1.5.2-3.7 0-5-.2-1.2-.4 0-.4 2.8M8.8 53.7c1.8.2 4.5.2 6 0s0-.4-3.3-.4-4.5.2-2.7.4m14.5 0c.9.2 2.3.2 3 0 .6-.3-.1-.5-1.8-.5-1.6 0-2.2.2-1.2.5m10 0c.9.2 2.3.2 3 0 .6-.3-.1-.5-1.8-.5-1.6 0-2.2.2-1.2.5m11 0c1.5.2 3.7.2 5 0 1.2-.2 0-.4-2.8-.4-2.7 0-3.8.2-2.2.4m9.1.7c-.3.8-.4 3.1-.1 5.2.3 3.7.4 3.7.5-.8l.2-4.7 4.8-.4 4.7-.3-4.8-.2c-3.3-.1-4.9.2-5.3 1.2"/><path d="m6.2 11.7.2 5.8.3-5.2.4-5.2 5.2-.4 5.2-.3-5.7-.2L6 6zm16.6-5c1.2.2 3 .2 4 0 .9-.3-.1-.5-2.3-.4-2.2 0-3 .2-1.7.4m10 0c1.2.2 3 .2 4 0 .9-.3-.1-.5-2.3-.4-2.2 0-3 .2-1.7.4m13.9 0 5.2.4.4 5.2.3 5.2.2-5.8L53 6l-5.7.2-5.8.2zM6.3 24.5c0 2.2.2 3 .4 1.7.2-1.2.2-3 0-4-.3-.9-.5.1-.4 2.3m46 0c0 2.2.2 3 .4 1.7.2-1.2.2-3 0-4-.3-.9-.5.1-.4 2.3m-46 10c0 2.2.2 3 .4 1.7.2-1.2.2-3 0-4-.3-.9-.5.1-.4 2.3m46 0c0 2.2.2 3 .4 1.7.2-1.2.2-3 0-4-.3-.9-.5.1-.4 2.3M6.2 47.2 6 53l5.8-.2 5.7-.2-5.2-.3-5.2-.4-.4-5.2-.3-5.2zm46-.5-.2 5.2-5.2.4-5.3.3 5.3.2 5.2.2.2 5.2.2 5.3.3-5.2.4-5.2 5.2-.4 5.2-.3-5.2-.2-5.2-.2-.4-5.3-.3-5.2zm-29.4 6c1.2.2 3 .2 4 0 .9-.3-.1-.5-2.3-.4-2.2 0-3 .2-1.7.4m10 0c1.2.2 3 .2 4 0 .9-.3-.1-.5-2.3-.4-2.2 0-3 .2-1.7.4"/></svg>