<svg xmlns="http://www.w3.org/2000/svg" version="1.0" viewBox="0 0 64 64"><path fill-opacity=".1" d="M7.5 8.1c-1.1 1.6-.1 1.9 1.3.3.7-.8.8-1.4.3-1.4s-1.3.5-1.6 1.1M20 42.4c0 .2.8 1 1.8 1.7 1.5 1.3 1.6 1.2.3-.4S20 41.6 20 42.4m29.9 8.3c-1.3 1.6-1.2 1.7.4.4s2.1-2.1 1.3-2.1c-.2 0-1 .8-1.7 1.7m-18.1 1c.6.2 1.8.2 2.5 0 .6-.3.1-.5-1.3-.5s-1.9.2-1.2.5"/><path fill-opacity=".9" d="M8 9.1c0 .5.5.7 1 .4.6-.3 1-.8 1-1.1 0-.2-.4-.4-1-.4-.5 0-1 .5-1 1.1m42.6 10.1c.3.5 1 .6 1.5.3 1.3-.9 1.1-1.2-.6-1.2-.8 0-1.2.4-.9.9m-29.2 9c-.4.6-.3.8.3.5 1.3-.8 3.6 1.7 2.5 2.8-.4.5-.1.5.6.1 1.1-.6 1-1.2-.4-2.7-2-2.2-2.1-2.2-3-.7m16.2 5c.3.5 1 .6 1.5.3 1.3-.9 1.1-1.2-.6-1.2-.8 0-1.2.4-.9.9m.9 9.8c1 1.1 2 2 2.3 2s-.3-.9-1.3-2-2-2-2.3-2 .3.9 1.3 2m5.4 1.2c0 .2-.2 1.1-.4 2.1-.3 1.5-.1 1.6 1.1.6.7-.6 1.1-1.5.8-2-.5-.9-1.3-1.2-1.5-.7m-25.6 7.3c0 .8.4 1.2.9.9s.6-1 .3-1.5c-.9-1.3-1.2-1.1-1.2.6"/><path fill-opacity=".5" d="M57.2 33c0 1.4.2 1.9.5 1.2.2-.6.2-1.8 0-2.5-.3-.6-.5-.1-.5 1.3"/><path d="M27 8.9c-1.4.5-4 1.6-5.8 2.5-3 1.6-3.4 1.6-7.3-.4-2.2-1.2-4.3-1.9-4.6-1.6-.3.2.6 2.1 2 4.1l2.5 3.6-2.3 4.2C8.3 27 7.6 32 9 38c4.4 18.2 26.1 24.9 40 12.4s8.4-35.6-9.6-41c-5.1-1.5-8.5-1.7-12.4-.5m14.3 2.4C50 15 55.2 23.1 55.2 33c0 12.5-9.5 22.1-22 22.1C19.5 55.2 10 46 10 32.8c0-5.5 3.3-14.4 4.8-13.4.5.3 2.6 3 4.7 6 2.7 3.9 5.1 6.1 8.4 7.7C39.4 38.5 40.1 41 30 41c-6.7 0-11.5-2.6-13.5-7.3l-1.4-3.2-.1 3.3c0 4.2 3.2 10.5 6.7 13 3.9 2.8 10.7 4.4 14.9 3.6 4.5-.8 10.4-5.8 10.4-8.8 0-2.7-2.6-6.6-4.4-6.6-1.5 0-5.2-4.7-7.6-9.4-1.6-3.2-7.1-7.6-12-9.6-3.9-1.6-3.8-2.5.8-4.3 4.6-2 13.2-2.1 17.5-.4M30.8 22.4c4 3.5 4.5 5.3 2.2 7.6-4.1 4.1-7.4 2.3-14-7.5-7.5-11.2-7.5-11.4 1.6-6.5 4.3 2.4 9 5.2 10.2 6.4M38 32.7c2.7 3.4 1.2 5.3-2.4 2.9-2.5-1.6-3.3-3.6-1.9-4.9 1.1-1.2 2.1-.8 4.3 2m6.8 8.2c.5 4.8-1 5.6-3.7 2-2.6-3.5-2.1-6.2 1.1-5.7 1.8.2 2.4 1.1 2.6 3.7m-14.8 2c1.9 0 4.4-.4 5.5-.9 2.4-.9 5.5 1.4 5.5 4 0 3.5-10 4.1-16 1-3.5-1.8-7-5.4-7-7.2 0-.4 1.9.2 4.3 1.2 2.3 1.1 5.8 1.9 7.7 1.9"/><path fill-opacity=".8" d="M31 20.4c0 .2.8 1 1.8 1.7 1.5 1.3 1.6 1.2.3-.4S31 19.6 31 20.4m18.4 29.8-1.9 2.3 2.3-1.9c2.1-1.8 2.7-2.6 1.9-2.6-.2 0-1.2 1-2.3 2.2"/><path fill-opacity=".4" d="M29.8 43.7c.7.3 1.6.2 1.9-.1.4-.3-.2-.6-1.3-.5-1.1 0-1.4.3-.6.6"/></svg>