<svg xmlns="http://www.w3.org/2000/svg" version="1.0" viewBox="0 0 64 64"><path fill-opacity=".4" d="M28.3 2.7c2 .2 5.4.2 7.5 0 2-.2.3-.4-3.8-.4s-5.8.2-3.7.4m-14.6 23c1.8.2 5 .2 7 0 2.1-.2.7-.4-3.2-.4-3.8 0-5.5.2-3.8.4m29 0c1.8.2 5 .2 7 0 2.1-.2.7-.4-3.2-.4-3.8 0-5.5.2-3.8.4m-11.9 36c.6.2 1.8.2 2.5 0 .6-.3.1-.5-1.3-.5s-1.9.2-1.2.5"/><path fill-opacity=".6" d="M24.4 14c0 6.3.1 8.9.3 5.7.2-3.1.2-8.3 0-11.5-.2-3.1-.3-.5-.3 5.8m15 0c0 6.3.1 8.9.3 5.7.2-3.1.2-8.3 0-11.5-.2-3.1-.3-.5-.3 5.8"/><g stroke-width="0"><path d="M25 14.5v11.4l-6.6.3-6.6.3 9.8 12.7c5.5 7 10.1 12.7 10.4 12.7.5 0 19.3-23.7 19.8-25.1.2-.4-2.6-.8-6.2-.8H39V3H25zm13 2v11.4l5.6.3 5.6.3-8.4 10.7c-4.6 5.9-8.5 10.7-8.8 10.7s-4.2-4.8-8.8-10.7l-8.4-10.7 5.6-.3 5.6-.3V5h12z"/><path d="M9.3 45.4C0 49.8 1.7 55 13.8 58.7c7.9 2.4 28.5 2.4 36.4 0 7.4-2.3 11.3-5.5 10.3-8.6-.8-2.6-9.5-7.1-13.5-7-1.8 0-1.1.6 2.6 1.9 7.5 2.6 9.4 3.8 9.4 6 0 4.7-11.2 8-27 8S5 55.7 5 51c0-2.2 1.9-3.4 9.4-6 3.7-1.3 4.4-1.9 2.6-1.9-1.4-.1-4.8 1-7.7 2.3"/></g><path fill-opacity=".8" d="M26.4 16.5c0 6.6.1 9.2.3 5.7.2-3.4.2-8.8 0-12-.2-3.1-.3-.3-.3 6.3m11 0c0 6.6.1 9.2.3 5.7.2-3.4.2-8.8 0-12-.2-3.1-.3-.3-.3 6.3"/><path fill-opacity=".1" d="M29.3 5.7c1.5.2 3.9.2 5.5 0 1.5-.2.2-.4-2.8-.4s-4.3.2-2.7.4m-10.5 23c1.8.2 4.5.2 6 0s0-.4-3.3-.4-4.5.2-2.7.4m21 0c1.8.2 4.5.2 6 0s0-.4-3.3-.4-4.5.2-2.7.4m-9 30c.6.2 1.8.2 2.5 0 .6-.3.1-.5-1.3-.5s-1.9.2-1.2.5"/><path fill-opacity=".2" d="M27.8 58.7c.7.3 1.6.2 1.9-.1.4-.3-.2-.6-1.3-.5-1.1 0-1.4.3-.6.6m7 0c.7.3 1.6.2 1.9-.1.4-.3-.2-.6-1.3-.5-1.1 0-1.4.3-.6.6"/><path fill-opacity=".9" d="M15.6 30.8c-.3.5.1.9.9.9s1.2-.4.9-.9c-.3-.4-.7-.8-.9-.8s-.6.4-.9.8m31 0c-.3.5.1.9.9.9s1.2-.4.9-.9c-.3-.4-.7-.8-.9-.8s-.6.4-.9.8m-28.2 5c.4.3 1.4.7 2.2.8.9.1 1.3 0 1-.4-.4-.3-1.4-.7-2.2-.8-.9-.1-1.3 0-1 .4m24.1.3c-.3.4.2.6 1 .5 2.1-.3 2.8-1.3 1-1.3-.9 0-1.8.4-2 .8m-19.9 5.1c.3.5 1 .6 1.5.3 1.3-.9 1.1-1.2-.6-1.2-.8 0-1.2.4-.9.9m17 0c.3.5 1 .6 1.5.3 1.3-.9 1.1-1.2-.6-1.2-.8 0-1.2.4-.9.9m-9 8.6c-.2.4.4.8 1.4.8s1.6-.4 1.4-.8c-.3-.4-.9-.8-1.4-.8s-1.1.4-1.4.8"/></svg>