<svg xmlns="http://www.w3.org/2000/svg" version="1.0" viewBox="0 0 80 80"><path d="M46.8 27.5 41.2 38h11.5c6.3 0 11.3-.3 11.1-.8C63.2 35.7 52.9 17 52.7 17c-.1 0-2.7 4.8-5.9 10.5m9.5 1.5 2.8 5h-6c-3.4 0-6.1-.3-6.1-.7 0-1.1 5.1-9.3 5.8-9.3.4 0 2 2.3 3.5 5M18.4 44.4C15.6 47.2 15 48.6 15 52s.6 4.8 3.4 7.6c4.8 4.8 10.4 4.8 15.2 0 2.8-2.8 3.4-4.2 3.4-7.6s-.6-4.8-3.4-7.6S29.4 41 26 41s-4.8.6-7.6 3.4M32 46c1.3 1.3 2 3.3 2 6 0 5.3-2.7 8-8 8s-8-2.7-8-8c0-2.7.7-4.7 2-6s3.3-2 6-2 4.7.7 6 2m10 7v11h22V42H42zm18 0v7H46V46h14z"/><path fill-opacity=".9" d="m17.4 44.2-1.9 2.3 2.3-1.9c2.1-1.8 2.7-2.6 1.9-2.6-.2 0-1.2 1-2.3 2.2m16.1-.2c1 1.1 2 2 2.3 2s-.3-.9-1.3-2-2-2-2.3-2 .3.9 1.3 2m-16 16c1 1.1 2 2 2.3 2s-.3-.9-1.3-2-2-2-2.3-2 .3.9 1.3 2m15.9.2-1.9 2.3 2.3-1.9c2.1-1.8 2.7-2.6 1.9-2.6-.2 0-1.2 1-2.3 2.2"/></svg>