<svg xmlns="http://www.w3.org/2000/svg" version="1.0" viewBox="0 0 64 64"><path fill-opacity=".2" d="M36 27c0 .5.5 1 1.1 1 .5 0 .7-.5.4-1-.3-.6-.8-1-1.1-1-.2 0-.4.4-.4 1"/><g stroke-width="0"><path d="M34.7 3.1c-2.8 1.7-4.5 6.1-6.2 16.5-.9 5.4-2.1 10.1-2.7 10.5-2.5 1.6-8.2 2.1-8.7.8-.8-2.6-5.1-5.9-7.6-5.9C6 25 2 29.2 2 32.8 2 36.5 5.7 40 9.7 40c1.7 0 5-.7 7.3-1.5s5.5-1.5 7.1-1.5c3.4 0 3.6 1.3 1.4 8.6-3 10-.7 16.4 5.9 16.4 3.4 0 7.6-4.1 7.6-7.3 0-3.1-3.6-7.7-6.1-7.7-2.3 0-2.3.4-.3-5.3 1.7-5.1.7-4.6 14.8-6.7 3.8-.6 8.2-1.8 9.8-2.6 2.8-1.4 5.7-5.8 4.6-7-.3-.3-6 .3-12.7 1.2-6.7 1-12.4 1.4-12.8 1.1-.5-.6.4-8.8 2.4-22 .6-3.9-.4-4.7-4-2.6m.3 18.1c-1.2 7.9-2.8 16.5-3.6 19.2-1.9 6.6-1.8 7.4.7 7.8 1.2.2 3.1 1.5 4.2 3 1.7 2.3 1.9 3.1.9 5.3-1.6 3.4-5 4.9-8.5 3.6-3.6-1.4-4.3-4.9-2.3-12C27.3 45 28 40 28 37.2c0-4.6 2.1-20.6 3.5-27C31.8 9 33 7 34.3 5.7c1.9-1.9 2.2-2 2.5-.4.2.9-.6 8.1-1.8 15.9m-22.2 6.4c1.3.9 2.7 2.7 3.3 4.1.6 1.7 1.4 2.3 2.7 1.9 5.9-1.8 7.2-1.8 7.2-.2 0 .9-.7 1.6-1.5 1.6-.9 0-4.1.9-7.2 2-9 3.1-12.5 2.3-13.8-3.2-.5-2.1-.1-3.3 1.9-5.2 2.9-3 4.3-3.2 7.4-1M60 28c0 2-5.4 4.3-13.3 5.6C35.3 35.5 35 35.4 35 32.5c0-1.4.6-2.5 1.3-2.6.6 0 4.8-.6 9.2-1.4C55.6 26.9 60 26.7 60 28"/><path d="M29 52c-2.8 2.8-1.1 6.3 2.8 5.8 2.1-.2 2.8-.9 3-3 .5-3.9-3-5.6-5.8-2.8m4.8 2.3c.4 2-2.5 3.4-4 1.9s-.1-4.4 1.9-4c1 .2 1.9 1.1 2.1 2.1M6.7 29.7C5.3 31.1 6.1 35 8 36c2.8 1.5 6.5-2.2 5-5-1-1.9-4.9-2.7-6.3-1.3m5.1 2.6c.4 2-2.5 3.4-4 1.9s-.1-4.4 1.9-4c1 .2 1.9 1.1 2.1 2.1"/></g><path fill-opacity=".6" d="M1.1 32.6c0 1.1.3 1.4.6.6.3-.7.2-1.6-.1-1.9-.3-.4-.6.2-.5 1.3M28.2 39c0 1.4.2 1.9.5 1.2.2-.6.2-1.8 0-2.5-.3-.6-.5-.1-.5 1.3m2.6 23.7c.7.3 1.6.2 1.9-.1.4-.3-.2-.6-1.3-.5-1.1 0-1.4.3-.6.6"/><path fill-opacity=".9" d="M8.8 26.7c.7.3 1.6.2 1.9-.1.4-.3-.2-.6-1.3-.5-1.1 0-1.4.3-.6.6M3.6 36.9c-.4.5-.2 1.2.3 1.5.5.4 1.2.2 1.5-.3.4-.5.2-1.2-.3-1.5-.5-.4-1.2-.2-1.5.3m33.5 17.7c0 1.1.3 1.4.6.6.3-.7.2-1.6-.1-1.9-.3-.4-.6.2-.5 1.3m-11.5 4.3c-.4.5-.2 1.2.3 1.5.5.4 1.2.2 1.5-.3.4-.5.2-1.2-.3-1.5-.5-.4-1.2-.2-1.5.3"/></svg>