<svg xmlns="http://www.w3.org/2000/svg" version="1.0" viewBox="0 0 64 64"><path fill-opacity=".5" d="M19.8 11.7c6.7.2 17.7.2 24.5 0 6.7-.1 1.2-.3-12.3-.3s-19 .2-12.2.3m0 41c6.7.2 17.7.2 24.5 0 6.7-.1 1.2-.3-12.3-.3s-19 .2-12.2.3"/><g stroke-width="0"><path d="M6 19c0 8.2-.3 10-1.5 10Q3 29 3 32t1.5 3c1.1 0 1.5 2 1.7 9.7l.3 9.8h51l.3-9.8c.2-7.7.6-9.7 1.7-9.7q1.5 0 1.5-3t-1.5-3c-1.1 0-1.5-2-1.7-9.8l-.3-9.7-25.7-.3L6 9zm51 1c0 7.3-.3 9-1.5 9Q54 29 54 32t1.5 3c1.2 0 1.5 1.7 1.5 9v9H7v-9c0-7.3.3-9 1.5-9q1.5 0 1.5-3t-1.5-3C7.3 29 7 27.3 7 20v-9h50zM8 32c0 1.1-.7 2-1.5 2S5 33.1 5 32s.7-2 1.5-2 1.5.9 1.5 2m51 0c0 1.1-.7 2-1.5 2s-1.5-.9-1.5-2 .7-2 1.5-2 1.5.9 1.5 2"/><path d="M18.4 18.4c-1.4 3.7 0 5.1 5.4 5.4l5.2.3V47h6V24.1l5.3-.3c5-.3 5.2-.4 5.2-3.3v-3l-13.3-.3c-10.9-.2-13.3 0-13.8 1.2M44 20.5c0 1.1-1.2 1.5-5 1.5h-5v11.5c0 10.8-.1 11.5-2 11.5s-2-.7-2-11.5V22h-5c-3.8 0-5-.4-5-1.5 0-1.3 2-1.5 12-1.5s12 .2 12 1.5"/></g><path fill-opacity=".8" d="M5 19.2c-.3 5.3-.1 9.4.3 8.9.4-.4.6-4.8.5-9.7l-.3-8.9zm53.2-.5c-.1 5 .1 9.4.6 9.6.4.3.6-2.5.4-6.1-.5-11.6-.9-13-1-3.5M28.4 35c0 6.3.1 8.9.3 5.7.2-3.1.2-8.3 0-11.5-.2-3.1-.3-.5-.3 5.8m7 0c0 6.3.1 8.9.3 5.7.2-3.1.2-8.3 0-11.5-.2-3.1-.3-.5-.3 5.8M5 44.8l.5 9.7.3-8.9c.1-4.9-.1-9.3-.5-9.7-.4-.5-.6 3.6-.3 8.9m53.4-8.5c-.3.8-.4 5.2-.2 9.8l.3 8.4.5-9.8c.5-9.6.4-10.9-.6-8.4"/><path fill-opacity=".6" d="M7.3 20c0 4.7.2 6.6.4 4.2.2-2.3.2-6.1 0-8.5-.2-2.3-.4-.4-.4 4.3m49 0c0 4.7.2 6.6.4 4.2.2-2.3.2-6.1 0-8.5-.2-2.3-.4-.4-.4 4.3m-49 24c0 4.7.2 6.6.4 4.2.2-2.3.2-6.1 0-8.5-.2-2.3-.4-.4-.4 4.3m49 0c0 4.7.2 6.6.4 4.2.2-2.3.2-6.1 0-8.5-.2-2.3-.4-.4-.4 4.3"/><path fill-opacity=".3" d="M25.3 16.7c3.7.2 9.7.2 13.5 0 3.7-.2.6-.3-6.8-.3s-10.5.1-6.7.3m-4 8c1.5.2 3.7.2 5 0 1.2-.2 0-.4-2.8-.4-2.7 0-3.8.2-2.2.4m17 0c1.5.2 3.7.2 5 0 1.2-.2 0-.4-2.8-.4-2.7 0-3.8.2-2.2.4m-8 23c.9.2 2.5.2 3.5 0 .9-.3.1-.5-1.8-.5s-2.7.2-1.7.5"/><path fill-opacity=".2" d="M26.2 19.7c3.2.2 8.4.2 11.5 0 3.2-.2.6-.3-5.7-.3s-8.9.1-5.8.3m-2.9 2c1.5.2 3.7.2 5 0 1.2-.2 0-.4-2.8-.4-2.7 0-3.8.2-2.2.4m13 0c1.5.2 3.7.2 5 0 1.2-.2 0-.4-2.8-.4-2.7 0-3.8.2-2.2.4M10.2 32c0 1.9.2 2.7.5 1.7.2-.9.2-2.5 0-3.5-.3-.9-.5-.1-.5 1.8m43 0c0 1.9.2 2.7.5 1.7.2-.9.2-2.5 0-3.5-.3-.9-.5-.1-.5 1.8"/><path fill-opacity=".4" d="M2.2 32c0 1.9.2 2.7.5 1.7.2-.9.2-2.5 0-3.5-.3-.9-.5-.1-.5 1.8m59 0c0 1.9.2 2.7.5 1.7.2-.9.2-2.5 0-3.5-.3-.9-.5-.1-.5 1.8"/><path fill-opacity=".7" d="M30.4 34c0 6.3.1 8.9.3 5.7.2-3.1.2-8.3 0-11.5-.2-3.1-.3-.5-.3 5.8m3 0c0 6.3.1 8.9.3 5.7.2-3.1.2-8.3 0-11.5-.2-3.1-.3-.5-.3 5.8"/></svg>