<svg xmlns="http://www.w3.org/2000/svg" version="1.0" viewBox="0 0 64 64"><path fill-opacity=".4" d="M52.3 12.5c0 2.7.2 3.8.4 2.2.2-1.5.2-3.7 0-5-.2-1.2-.4 0-.4 2.8M11.8 57.7c2.3.2 5.9.2 8 0 2-.2.1-.4-4.3-.4s-6.1.2-3.7.4m17 0c1.7.2 4.7.2 6.5 0 1.7-.2.3-.4-3.3-.4s-5 .2-3.2.4m16 0c2.3.2 5.9.2 8 0 2-.2.1-.4-4.3-.4s-6.1.2-3.7.4"/><path fill-opacity=".1" d="M18.7 60.7c7.3.2 19.3.2 26.5 0 7.3-.1 1.4-.3-13.2-.3s-20.5.2-13.3.3"/><path fill-opacity=".7" d="M27.3 33.7c2.6.2 6.8.2 9.5 0 2.6-.2.4-.3-4.8-.3s-7.4.1-4.7.3"/><path d="M17.5 13.1C1.5 25.7.6 26.5 3.8 25.5l2.2-.6V60h52V42.4c0-17.1.1-17.5 2-16.9 3.1 1 2.4 0-3-4.1-4.8-3.6-5-4-5-8.6V8h-3.5c-2.4 0-3.5.5-3.5 1.5 0 2.2-.6 2-7-3C34.8 4 32 2 31.8 2c-.2.1-6.6 5-14.3 11.1m27.2.2 11.8 9.3.3 17.7L57 58H40V34H24v24H7l.2-17.7.3-17.7 11.9-9.3C25.9 8.2 31.6 4 32.1 4c.4 0 6.1 4.2 12.6 9.3m5.3-.7c0 3.1-2.3 2.8-2.8-.4-.2-1.5.2-2.2 1.2-2.2 1.1 0 1.6.9 1.6 2.6M39 46.5V58H25V35h14z"/><path fill-opacity=".8" d="M5.4 42.5c0 9.4.2 13.3.3 8.8.2-4.5.2-12.2 0-17-.1-4.8-.3-1.2-.3 8.2m53 0c0 9.4.2 13.3.3 8.8.2-4.5.2-12.2 0-17-.1-4.8-.3-1.2-.3 8.2m-29.6-6.8c1.7.2 4.7.2 6.5 0 1.7-.2.3-.4-3.3-.4s-5 .2-3.2.4"/><path fill-opacity=".9" d="M28.5 3.9c-.3.5-.2 1.2.3 1.5s.9-.1.9-.9c0-1.7-.3-1.9-1.2-.6m5.8.6c0 .8.4 1.2.9.9s.6-1 .3-1.5c-.9-1.3-1.2-1.1-1.2.6m4.2 3.4c-.3.5-.2 1.2.3 1.5s.9-.1.9-.9c0-1.7-.3-1.9-1.2-.6m-18.6 2.3c-.5 1.8-.6 3.8-.1 3.4.7-.8 1.2-3.6.6-3.6-.2 0-.4.1-.5.2m-9 7c-.5 1.8-.6 3.8-.1 3.4.7-.8 1.2-3.6.6-3.6-.2 0-.4.1-.5.2m41.5 1.2c.1.8.5 1.8.8 2.2.4.3.5-.1.4-1-.1-.8-.5-1.8-.8-2.2-.4-.3-.5.1-.4 1M23.4 46c0 6.9.1 9.7.3 6.3.2-3.5.2-9.1 0-12.5-.2-3.5-.3-.7-.3 6.2m17 0c0 6.9.1 9.7.3 6.3.2-3.5.2-9.1 0-12.5-.2-3.5-.3-.7-.3 6.2"/><path fill-opacity=".6" d="M7.4 40.5c0 9.3.2 13.3.3 8.8.2-4.5.2-12.2 0-17-.1-4.8-.3-1.2-.3 8.2m49 0c0 9.3.2 13.3.3 8.8.2-4.5.2-12.2 0-17-.1-4.8-.3-1.2-.3 8.2m-31 6c0 6 .1 8.4.3 5.2s.2-8.1 0-11-.3-.3-.3 5.8m13 0c0 6 .1 8.4.3 5.2s.2-8.1 0-11-.3-.3-.3 5.8"/><path fill-opacity=".3" d="M46.8 7.7c1.2.2 3 .2 4 0 .9-.3-.1-.5-2.3-.4-2.2 0-3 .2-1.7.4"/></svg>