<svg xmlns="http://www.w3.org/2000/svg" version="1.0" viewBox="0 0 64 64"><path fill-opacity=".6" d="M20.2 7.7c6.5.2 17.1.2 23.5 0 6.5-.1 1.2-.3-11.7-.3s-18.2.2-11.8.3m0 49c6.5.2 17.1.2 23.5 0 6.5-.1 1.2-.3-11.7-.3s-18.2.2-11.8.3"/><path fill-opacity=".8" d="M19.8 5.7c6.7.2 17.7.2 24.5 0 6.7-.1 1.2-.3-12.3-.3s-19 .2-12.2.3m16.5 14c.9.2 2.3.2 3 0 .6-.3-.1-.5-1.8-.5-1.6 0-2.2.2-1.2.5m0 25c.9.2 2.3.2 3 0 .6-.3-.1-.5-1.8-.5-1.6 0-2.2.2-1.2.5m-16.5 14c6.7.2 17.7.2 24.5 0 6.7-.1 1.2-.3-12.3-.3s-19 .2-12.2.3"/><path fill-opacity=".4" d="M6.4 32c0 12.4.2 17.4.3 11.2.2-6.1.2-16.3 0-22.5-.1-6.1-.3-1.1-.3 11.3m51 0c0 12.4.2 17.4.3 11.2.2-6.1.2-16.3 0-22.5-.1-6.1-.3-1.1-.3 11.3"/><path fill-opacity=".9" d="M6.3 7.5c0 .8.4 1.2.9.9s.6-1 .3-1.5c-.9-1.3-1.2-1.1-1.2.6m50.2-.6c-.3.5-.2 1.2.3 1.5s.9-.1.9-.9c0-1.7-.3-1.9-1.2-.6m-35.9 21c-.4.5-.2 1.2.3 1.5.5.4 1.2.2 1.5-.3.4-.5.2-1.2-.3-1.5-.5-.4-1.2-.2-1.5.3m0 7c-.4.5-.2 1.2.3 1.5.5.4 1.2.2 1.5-.3.4-.5.2-1.2-.3-1.5-.5-.4-1.2-.2-1.5.3M6.3 56.5c0 .8.4 1.2.9.9s.6-1 .3-1.5c-.9-1.3-1.2-1.1-1.2.6m50.2-.6c-.3.5-.2 1.2.3 1.5s.9-.1.9-.9c0-1.7-.3-1.9-1.2-.6"/><g stroke-width="0"><path d="M5.6 7.6c-2.4 2.3-2.4 46.5 0 48.8 2.3 2.4 50.5 2.4 52.8 0 2.4-2.3 2.4-46.5 0-48.8-2.3-2.4-50.5-2.4-52.8 0M57.5 32v24.5h-51L6.2 33c-.1-12.9 0-24 .3-24.7.3-1.1 5.8-1.3 25.7-1.1l25.3.3z"/><path d="M41.4 17.5C40.3 19.2 38.9 20 37 20c-2.4 0-3.4.9-6 5.5-1.8 3.1-3.9 5.5-4.8 5.5s-2.8-1.2-4.3-2.6c-3.3-3.2-7.4-2.7-9.1 1.1-1.5 3.4.3 7.2 3.7 8.1 2 .5 3.3 0 5.4-2 1.5-1.4 3.4-2.6 4.3-2.6s3 2.4 4.8 5.5c2.6 4.6 3.6 5.5 6 5.5 1.9 0 3.3.8 4.4 2.5 2.8 4.3 10.6 2.3 10.6-2.6 0-5.5-7.6-8-10.6-3.4-2.8 4.3-5.8 3.3-9.4-3L28.9 32l3.1-5.5c3.6-6.3 6.6-7.3 9.4-3 3.1 4.7 10.6 2.1 10.6-3.6 0-4.8-7.9-6.6-10.6-2.4m7.6-.1c2.8 3.5-1.1 9.3-4.7 7C40.7 22.2 42 16 46 16c1 0 2.3.7 3 1.4M21.5 32c0 3.3-.2 3.5-3.5 3.5-2.9 0-3.6-.4-3.8-2.3-.6-4 .5-5.4 4-5 3 .3 3.3.6 3.3 3.8M49 40.4c2.8 3.5-1.1 9.3-4.7 7C40.7 45.2 42 39 46 39c1 0 2.3.7 3 1.4"/></g><path fill-opacity=".7" d="M36.8 21.7c.6.2 1.8.2 2.5 0 .6-.3.1-.5-1.3-.5s-1.9.2-1.2.5m0 21c.6.2 1.8.2 2.5 0 .6-.3.1-.5-1.3-.5s-1.9.2-1.2.5"/><path fill-opacity=".1" d="M3.4 32c0 12.4.2 17.4.3 11.2.2-6.1.2-16.3 0-22.5-.1-6.1-.3-1.1-.3 11.3m57 0c0 12.4.2 17.4.3 11.2.2-6.1.2-16.3 0-22.5-.1-6.1-.3-1.1-.3 11.3"/></svg>