<svg xmlns="http://www.w3.org/2000/svg" version="1.0" viewBox="0 0 64 64"><path fill-opacity=".6" d="M27.5 12C20.9 18.6 15.8 24 16 24c.3 0 5.9-5.4 12.5-12S40.2 0 40 0c-.3 0-5.9 5.4-12.5 12M24 19.3c0 .1 3.5 3.6 7.8 7.7l7.7 7.5-7.5-7.8c-6.9-7.1-8-8.2-8-7.4M51.5 36C44.9 42.6 39.8 48 40 48c.3 0 5.9-5.4 12.5-12S64.2 24 64 24c-.3 0-5.9 5.4-12.5 12M42 37.5c1.3 1.4 2.6 2.5 2.8 2.5.3 0-.5-1.1-1.8-2.5S40.4 35 40.2 35c-.3 0 .5 1.1 1.8 2.5"/><path fill-opacity=".4" d="M51.5 12c6.6 6.6 12.2 12 12.5 12 .2 0-4.9-5.4-11.5-12S40.3 0 40 0c-.2 0 4.9 5.4 11.5 12"/><g stroke-width="0"><path d="M27.7 12.8 15.9 24.6l1.7 6.2c1.6 5.8 1.6 6.3.1 8-1 1-3.9 2.9-6.5 4.1C5.3 45.7 1 51.6 1 57c0 4.5 1.5 6 6 6 5.6 0 11.4-4.4 15.1-11.3 1.7-3.2 3.8-6.1 4.6-6.4s4 .2 7.1 1.1l5.5 1.8 11.9-11.9L63 24.5 51.2 12.7 39.5 1zm23.3.7 10.5 10.6-3.7 3.4c-5.1 4.7-6.8 4.6-6.8-.5 0-2.5-.5-4.1-1.2-4.1-.7-.1-2.6-.2-4.3-.3-3.2-.1-3.3-.2-2.1-5.9 1.1-5.1-.2-6.4-4.2-4.3-3.5 1.8-6.8 2.1-7.7.6-.6-.9 7-10 8.4-10 .3 0 5.4 4.7 11.1 10.5M34.1 16c.9 0 2.4-.7 3.5-1.5 1.9-1.5 5.4-2 5.4-.9 0 .4-.5 2.4-1.1 4.5-1.6 5.1-.2 7 4.8 6.2l3.6-.6-.7 3.6c-.5 2.8-.3 3.8 1.1 4.6 1.7.9 1.6 1.1-.6 3.5-1.4 1.4-2.9 2.6-3.5 2.6s-5.7-4.6-11.3-10.2L25 17.6l2.2-2.3c1.9-2.1 2.3-2.1 3.8-.8.9.8 2.3 1.5 3.1 1.5m.9 13.5L45.4 40l-3.3 3.4c-3.3 3.4-3.4 3.4-6.8 2-1.9-.9-5.1-1.4-7.1-1.2-3.3.3-3.9.9-7.3 6.8-3.8 6.8-7.1 9.6-12.7 10.6C2 62.8.3 58.3 4 51c1.5-2.9 3.4-4.7 7.3-6.6 2.8-1.4 6-3.3 7-4.2 2-1.8 2.1-6.2.2-11.2-1.2-3.3-1.1-3.6 1.8-6.8C22 20.5 23.6 19 24 19c.3 0 5.2 4.7 11 10.5"/><path d="M7.4 54.1c-1 1.7 1.3 3.6 2.7 2.2 1.2-1.2.4-3.3-1.1-3.3-.5 0-1.2.5-1.6 1.1"/></g><path fill-opacity=".9" d="M40.3 2.4c0 1.9 19.1 20.9 21.3 21.2 1 .2-3.4-4.9-9.7-11.2C45.7 6.1 40.5 1 40.4 1c0 0-.1.6-.1 1.4M51.5 13c5.5 5.5 9.7 10 9.5 10-.3 0-5-4.5-10.5-10S40.8 3 41 3c.3 0 5 4.5 10.5 10m-22.5.4c0 .2.8 1 1.8 1.7 1.5 1.3 1.6 1.2.3-.4S29 12.6 29 13.4M4.4 47.1c-.8 1.4 1.4 1.9 2.5.6.8-1 .7-1.4-.5-1.4-.8 0-1.7.4-2 .8m11.7 10.3c-.8 1-.9 1.6-.1 2.1.5.3 1 .5 1.1.3.4-1.8.7-3.8.4-3.8-.1 0-.8.6-1.4 1.4"/><path fill-opacity=".8" d="m36.9 5.7-2.4 2.8 2.8-2.4C39.8 3.8 40.5 3 39.7 3c-.2 0-1.4 1.2-2.8 2.7m-10 10c-1.3 1.6-1.2 1.7.4.4.9-.7 1.7-1.5 1.7-1.7 0-.8-.8-.3-2.1 1.3M35.5 28C41 33.5 45.7 38 46 38c.2 0-4-4.5-9.5-10S26.3 18 26 18c-.2 0 4 4.5 9.5 10m-15.1-5.8-2.9 3.3 3.3-2.9c3-2.8 3.7-3.6 2.9-3.6-.2 0-1.6 1.5-3.3 3.2m28.5 13.5-2.4 2.8 2.8-2.4c1.5-1.4 2.7-2.6 2.7-2.8 0-.8-.8-.1-3.1 2.4m-7.5 7.5-2.9 3.3 3.3-2.9c3-2.8 3.7-3.6 2.9-3.6-.2 0-1.6 1.5-3.3 3.2M.1 57.6c0 1.1.3 1.4.6.6.3-.7.2-1.6-.1-1.9-.3-.4-.6.2-.5 1.3m5.7 6.1c.7.3 1.6.2 1.9-.1.4-.3-.2-.6-1.3-.5-1.1 0-1.4.3-.6.6"/><path fill-opacity=".2" d="M49.5 14C55 19.5 59.7 24 60 24c.2 0-4-4.5-9.5-10S40.3 4 40 4c-.2 0 4 4.5 9.5 10"/><path fill-opacity=".7" d="m57.4 27.2-1.9 2.3 2.3-1.9c2.1-1.8 2.7-2.6 1.9-2.6-.2 0-1.2 1-2.3 2.2"/><path fill-opacity=".1" d="M36 27.5c5.2 5.2 9.7 9.5 10 9.5.2 0-3.8-4.3-9-9.5S27.3 18 27 18c-.2 0 3.8 4.3 9 9.5"/></svg>