<svg xmlns="http://www.w3.org/2000/svg" version="1.0" viewBox="0 0 64 64"><path d="m27.5 12.4-4 10.4-11.2.7c-6.2.4-11.3 1-11.3 1.3 0 .4 3.8 3.8 8.5 7.6 7.7 6.1 8.4 7.1 7.8 9.5-.3 1.4-1.6 6.3-2.8 10.8-1.2 4.6-1.8 8.3-1.2 8.3.5 0 4.7-2.5 9.3-5.5 4.7-3 8.9-5.5 9.4-5.5s4.7 2.5 9.4 5.5c4.6 3 8.8 5.5 9.4 5.5.5 0-.3-4.8-1.9-10.8-1.6-5.9-2.9-10.8-2.9-10.8 0-.1 3.8-3.3 8.5-7 4.7-3.8 8.5-7.2 8.5-7.6 0-.3-5.1-.9-11.2-1.3l-11.3-.7-4-10.4C34.3 6.7 32.3 2 32 2s-2.3 4.7-4.5 10.4m8.5 2.3c1.8 4.9 3.8 9.1 4.4 9.5s5.3.8 10.4.8c5 0 9.2.3 9.2.7-.1.5-3.4 3.5-7.5 6.7-4.1 3.3-7.5 6.7-7.5 7.6 0 .8.9 4.8 2 8.8 1.1 3.9 2 7.8 2 8.7 0 1-2.8-.3-8.5-4L32 48l-8.5 5.5c-5.7 3.7-8.5 5-8.5 4 0-.9.9-4.8 2-8.7 1.1-4 2-8 2-8.8 0-.9-3.4-4.3-7.5-7.6-4.1-3.2-7.4-6.2-7.5-6.7 0-.4 4.2-.7 9.3-.7 5 0 9.7-.4 10.3-.8s2.6-4.6 4.4-9.5C29.8 9.9 31.6 6 32 6s2.2 3.9 4 8.7"/><path fill-opacity=".9" d="M3.7 26.5c-.4.8-.3 1.6.1 1.9s.9-.4.9-1.5c.2-2.3-.3-2.5-1-.4m55.6.4c0 1.1.5 1.8.9 1.5s.5-1.1.1-1.9c-.7-2.1-1.2-1.9-1 .4M9.4 31.4c.1.8.5 1.8.8 2.2.4.3.5-.1.4-1-.1-.8-.5-1.8-.8-2.2-.4-.3-.5.1-.4 1m44.5-1.2c-.5 1.8-.6 3.8-.1 3.4.7-.8 1.2-3.6.6-3.6-.2 0-.4.1-.5.2m-39.5 5.2c.1.8.5 1.8.8 2.2.4.3.5-.1.4-1-.1-.8-.5-1.8-.8-2.2-.4-.3-.5.1-.4 1m34.5-1.2c-.5 1.8-.6 3.8-.1 3.4.7-.8 1.2-3.6.6-3.6-.2 0-.4.1-.5.2"/><path fill-opacity=".8" d="M5.8 25.7c.7.3 1.6.2 1.9-.1.4-.3-.2-.6-1.3-.5-1.1 0-1.4.3-.6.6m51 0c.7.3 1.6.2 1.9-.1.4-.3-.2-.6-1.3-.5-1.1 0-1.4.3-.6.6M16.6 39.3c.3 1 .9 1.5 1.2 1.2s0-1.1-.7-1.8c-1-.9-1.1-.8-.5.6m29.9-.2c-.4.6-.5 1.2-.2 1.5.2.3.7-.2 1-1.1.7-1.7.1-2-.8-.4"/><path fill-opacity=".6" d="M9.8 25.7c.7.3 1.6.2 1.9-.1.4-.3-.2-.6-1.3-.5-1.1 0-1.4.3-.6.6m43 0c.7.3 1.6.2 1.9-.1.4-.3-.2-.6-1.3-.5-1.1 0-1.4.3-.6.6"/></svg>