<svg xmlns="http://www.w3.org/2000/svg" version="1.0" viewBox="0 0 64 64"><path fill-opacity=".9" d="M17.4 27.8c2.7 2.8 5.3 4.9 5.7 4.7.4-.3 1.2.2 1.9 1s.9 1.5.5 1.5c-.5 0 0 .9 1 2s2 1.8 2.3 1.5c.7-.7 3.3 1.6 2.7 2.4-.2.4 1.9 3 4.7 5.7 2.9 2.7 4.6 4.1 3.9 3.1-.8-.9-1-1.7-.5-1.7s-4.5-5.4-11.1-12C22 29.5 16.4 24.3 16.1 24.5c-.2.3-1.1-.1-2-.7-.9-.7.6 1.1 3.3 4m2.6.7c1.9 1.9 3.2 3.5 2.9 3.5s-2-1.6-3.9-3.5-3.2-3.5-2.9-3.5 2 1.6 3.9 3.5m8.1 8.2c1.3 1.6 1.2 1.7-.3.4-1-.7-1.8-1.5-1.8-1.7 0-.8.8-.3 2.1 1.3m7.9 7.8c1.9 1.9 3.2 3.5 2.9 3.5s-2-1.6-3.9-3.5-3.2-3.5-2.9-3.5 2 1.6 3.9 3.5m9.2-8.5c0 1.4.2 1.9.5 1.2.2-.6.2-1.8 0-2.5-.3-.6-.5-.1-.5 1.3m-26.7 3.1c-.3.4.2.6 1 .5 2.1-.3 2.8-1.3 1-1.3-.9 0-1.8.4-2 .8m6 3.8c-.3.5-.2 1.2.3 1.5s.9-.1.9-.9c0-1.7-.3-1.9-1.2-.6m-8.9 1.3c.3.5 1 .6 1.5.3 1.3-.9 1.1-1.2-.6-1.2-.8 0-1.2.4-.9.9m3.9 2.7c-.3.5-.2 1.2.3 1.5s.9-.1.9-.9c0-1.7-.3-1.9-1.2-.6m-7.9.9c-.3.5.1.9.9.9s1.2-.4.9-.9c-.3-.4-.7-.8-.9-.8s-.6.4-.9.8m3.7 3.7c0 .8.4 1.2.9.9s.6-1 .3-1.5c-.9-1.3-1.2-1.1-1.2.6m-8 1.7c-.3.6-.1.8.4.5 1.3-.8 3.6 1.7 2.5 2.8-.4.5-.2.5.5.2.6-.4 1-1.5.9-2.4-.3-1.9-3.3-2.6-4.3-1.1"/><path fill-opacity=".6" d="M60 13.4c0 .2.8 1 1.8 1.7 1.5 1.3 1.6 1.2.3-.4S60 12.6 60 13.4m-33.2 3.3c.7.3 1.6.2 1.9-.1.4-.3-.2-.6-1.3-.5-1.1 0-1.4.3-.6.6"/><path fill-opacity=".7" d="M53.5 7c3.3 3.3 6.2 6 6.4 6 .3 0-2.1-2.7-5.4-6s-6.2-6-6.4-6c-.3 0 2.1 2.7 5.4 6m-2.5.5c3 3 5.7 5.5 5.9 5.5.3 0-1.9-2.5-4.9-5.5S46.3 2 46.1 2C45.8 2 48 4.5 51 7.5"/><path d="m38.5 9-5.6 8h-4.7c-4.8 0-12.3 2.8-13.7 5-.4.7 1.1 3 3.9 5.9 2.5 2.6 4.6 5 4.6 5.5s-5 7.1-11.1 14.8S1.1 62.4 1.3 62.7c.3.2 6.8-4.5 14.5-10.6S30.1 41 30.6 41s2.9 2.1 5.5 4.6c2.6 2.6 5.2 4.3 5.8 4 2.2-1.4 4.4-7.2 5-13.1l.6-6 7.8-5.3c4.5-3.1 7.7-6 7.7-7C63 16 48 1 45.8 1c-.9 0-4.1 3.5-7.3 8m16 1.1 8 8-3 2.5c-1.6 1.3-5.5 4.1-8.6 6.1l-5.6 3.6v5.6c0 5.8-2.4 12.1-4.6 12.1C39.1 48 16 24.9 16 23.3c0-2.2 6.3-4.7 11.8-4.7h5.4l6-8.3C42.4 5.7 45.5 2 45.8 2c.4 0 4.3 3.6 8.7 8.1M27.2 36.7c1 .9 1.8 2 1.8 2.4 0 1.2-19 16.2-19.7 15.6C8.7 54.1 23.6 35 24.7 35c.3 0 1.5.7 2.5 1.7"/><path fill-opacity=".8" d="M59 15.5c1.3 1.4 2.6 2.5 2.8 2.5.3 0-.5-1.1-1.8-2.5S57.4 13 57.2 13c-.3 0 .5 1.1 1.8 2.5"/><path fill-opacity=".3" d="M23.5 31c3.8 3.8 7.2 7 7.4 7 .3 0-2.6-3.2-6.4-7-3.8-3.9-7.2-7-7.4-7-.3 0 2.6 3.1 6.4 7"/><path fill-opacity=".2" d="M17 28.2c4.1 4.5 5 5.3 5 4.5 0-.2-2.1-2.3-4.7-4.7l-4.8-4.5zm8 8.2c0 .2.8 1 1.8 1.7 1.5 1.3 1.6 1.2.3-.4S25 35.6 25 36.4m10 9.8c2.4 2.7 4.5 4.8 4.7 4.8.8 0 0-.9-4.4-5l-4.8-4.5z"/></svg>