<svg xmlns="http://www.w3.org/2000/svg" version="1.0" viewBox="0 0 64 64"><path fill-opacity=".2" d="M52.9 16.2c.4 2.8.6 2.9.9.9.2-1.3 0-2.7-.5-3.2-.6-.6-.7.3-.4 2.3m0 8.6c-.3 2-.2 2.9.4 2.3.5-.5.7-1.9.5-3.2-.3-2-.5-1.9-.9.9m.5 20.7c0 5.5.1 7.6.3 4.7s.2-7.4 0-10-.3-.2-.3 5.3"/><path fill-opacity=".7" d="M19.8 30.7c6.8.2 17.6.2 24 0 6.4-.1.9-.3-12.3-.3s-18.5.2-11.7.3m0 3c6.8.2 17.6.2 24 0 6.4-.1.9-.3-12.3-.3s-18.5.2-11.7.3"/><path fill-opacity=".3" d="M56.4 17.5c0 6.6.1 9.2.3 5.7.2-3.4.2-8.8 0-12-.2-3.1-.3-.3-.3 6.3m0 29c0 6.6.1 9.2.3 5.7.2-3.4.2-8.8 0-12-.2-3.1-.3-.3-.3 6.3"/><path d="M30.8 17.3c-12.5 6.2-23 11.5-23.4 11.9-.4.5 10.4.8 23.9.8H56V18c0-9-.3-12-1.2-11.9-.7 0-11.5 5.1-24 11.2m22.9.9-.2 10.3-7 .2c-4.5.1-7.2-.3-7.7-1-.6-.9-.8-.9-.8 0 0 .8-3.4 1.1-11.5 1.1S15 28.5 15 27.6c0-1.5 13.6-8 15-7.1.5.3 1 .1 1-.4 0-1.5 13.2-7.9 15-7.3.8.3 1.1.1.7-.4-.7-.7 4.6-4.2 6.5-4.4.3 0 .6 4.6.5 10.2M7 34.5C7 35.1 54 58 55.2 58c.4 0 .8-5.4.8-12V34H31.5C18 34 7 34.2 7 34.5m47 11.1c0 5.8-.4 10.4-.9 10.2-4.9-1.9-40.1-19.5-40.1-20s9.2-.8 20.5-.8H54z"/><path fill-opacity=".8" d="m42.5 28-3 .8 2.7.1c1.5 0 3-.4 3.3-.9.3-.6.5-.9.3-.9-.2.1-1.6.5-3.3.9m-25.2.7c.9.2 2.5.2 3.5 0 .9-.3.1-.5-1.8-.5s-2.7.2-1.7.5m8.5 0c.6.2 1.8.2 2.5 0 .6-.3.1-.5-1.3-.5s-1.9.2-1.2.5m7.5 0c.9.2 2.3.2 3 0 .6-.3-.1-.5-1.8-.5-1.6 0-2.2.2-1.2.5m15.5 0c.6.2 1.8.2 2.5 0 .6-.3.1-.5-1.3-.5s-1.9.2-1.2.5m-25 7c5.6.2 14.8.2 20.5 0 5.6-.1 1-.3-10.3-.3s-15.9.2-10.2.3"/><path fill-opacity=".9" d="M22 27.4c0 .2.7.7 1.6 1 .8.3 1.2.2.9-.4-.6-1-2.5-1.4-2.5-.6m7.6.4c-.3.5.1.9.9.9s1.2-.4.9-.9c-.3-.4-.7-.8-.9-.8s-.6.4-.9.8"/></svg>