<svg xmlns="http://www.w3.org/2000/svg" version="1.0" viewBox="0 0 80 80"><path fill-opacity=".2" d="M19 40v16h42V24H19z"/><path fill-opacity=".3" d="M26.7 18.7c7.3.2 19.3.2 26.5 0 7.3-.1 1.4-.3-13.2-.3s-20.5.2-13.3.3m0 43c7.3.2 19.3.2 26.5 0 7.3-.1 1.4-.3-13.2-.3s-20.5.2-13.3.3"/><path fill-opacity=".6" d="M13.4 40c0 11.8.2 16.7.3 10.8.2-6 .2-15.6 0-21.5-.1-6-.3-1.1-.3 10.7m53 0c0 11.8.2 16.7.3 10.8.2-6 .2-15.6 0-21.5-.1-6-.3-1.1-.3 10.7"/><path d="M14 40v21h52V19H14zm48 0v16H18V24h44z"/><path fill-opacity=".7" d="M18.4 40c0 9.1.2 12.8.3 8.2.2-4.5.2-11.9 0-16.5-.1-4.5-.3-.8-.3 8.3m43 0c0 9.1.2 12.8.3 8.2.2-4.5.2-11.9 0-16.5-.1-4.5-.3-.8-.3 8.3"/></svg>