<svg xmlns="http://www.w3.org/2000/svg" version="1.0" viewBox="0 0 64 64"><path fill-opacity=".1" d="M29.3 5.7c1.5.2 3.9.2 5.5 0 1.5-.2.2-.4-2.8-.4s-4.3.2-2.7.4m-6.1 53c4.9.2 12.7.2 17.5 0 4.9-.1.9-.3-8.7-.3s-13.6.2-8.8.3"/><path fill-opacity=".4" d="M28.8 2.7c1.7.2 4.7.2 6.5 0 1.7-.2.3-.4-3.3-.4s-5 .2-3.2.4M11.4 35c0 12.9.2 18.2.3 11.7.2-6.4.2-17 0-23.5-.1-6.4-.3-1.1-.3 11.8m41 0c0 12.9.2 18.2.3 11.7.2-6.4.2-17 0-23.5-.1-6.4-.3-1.1-.3 11.8M23.2 61.7c4.9.2 12.7.2 17.5 0 4.9-.1.9-.3-8.7-.3s-13.6.2-8.8.3"/><path fill-opacity=".5" d="M22.7 11.7c5.1.2 13.5.2 18.5 0 5.1-.1 1-.3-9.2-.3s-14.3.2-9.3.3"/><path fill-opacity=".9" d="M23.1 7.6c0 1.1.3 1.4.6.6.3-.7.2-1.6-.1-1.9-.3-.4-.6.2-.5 1.3m17 0c0 1.1.3 1.4.6.6.3-.7.2-1.6-.1-1.9-.3-.4-.6.2-.5 1.3"/><g stroke-width="0"><path d="M25.3 3.7c-.7.2-1.3 1.6-1.3 2.9 0 2.3-.3 2.4-7 2.4-4 0-7 .4-7 1 0 .5.5 1 1 1 .6 0 1 8.6 1 23.8 0 17.2.3 24.1 1.2 25 1.7 1.7 35.9 1.7 37.6 0 .9-.9 1.2-7.8 1.2-25 0-15.2.4-23.8 1-23.8s1-.5 1-1c0-.6-3-1-7-1-6.7 0-7-.1-7-2.4 0-1.3-.7-2.7-1.6-3-1.8-.7-11.3-.7-13.1.1M39 7c0 1.8-.7 2-7 2s-7-.2-7-2 .7-2 7-2 7 .2 7 2m11 28v24H14V11h36z"/><path d="M28.6 26.5c-.9 1.3-1.6 3-1.6 3.7s1-.2 2.1-2c1.2-1.7 2.5-3.2 2.9-3.2 1 0 3.7 4.1 4.1 6.5.6 2.6 2.9 3.1 2.9.6 0-1.2-.4-2.1-.8-2.1s-1.6-1.4-2.5-3c-2.2-3.6-4.9-3.8-7.1-.5M23 34c-.8.5-1.1 1.2-.7 1.6.3.4-.1 1.9-1 3.4-2.4 4.2-1.2 6 3.9 5.9l4.3-.2-3.9-.6c-4.9-.7-5.5-2.3-2.2-5.6 3.7-3.7 3.4-7-.4-4.5m18.6 5.5c.8 1.3 1.3 2.9.9 3.5-.8 1.3-6.5 1.3-6.5 0 0-.7-.7-.7-2.2.1-1.7.9-1.8 1.3-.7 1.9 2.3 1.1 10-.1 10.6-1.7S42.2 37 40.8 37c-.5 0-.1 1.1.8 2.5"/></g><path fill-opacity=".3" d="M26.1 34.6c0 1.1.3 1.4.6.6.3-.7.2-1.6-.1-1.9-.3-.4-.6.2-.5 1.3"/><path fill-opacity=".8" d="M30.6 25.8c-.2.4.4.8 1.4.8s1.6-.4 1.4-.8c-.3-.4-.9-.8-1.4-.8s-1.1.4-1.4.8m8.5 6.8c0 1.1.3 1.4.6.6.3-.7.2-1.6-.1-1.9-.3-.4-.6.2-.5 1.3M24.3 43.7c.9.2 2.3.2 3 0 .6-.3-.1-.5-1.8-.5-1.6 0-2.2.2-1.2.5m13.5 0c.6.2 1.8.2 2.5 0 .6-.3.1-.5-1.3-.5s-1.9.2-1.2.5"/><path fill-opacity=".6" d="M25.1 7.6c0 1.1.3 1.4.6.6.3-.7.2-1.6-.1-1.9-.3-.4-.6.2-.5 1.3m13 0c0 1.1.3 1.4.6.6.3-.7.2-1.6-.1-1.9-.3-.4-.6.2-.5 1.3"/><path fill-opacity=".7" d="M24.3 45.7c.9.2 2.5.2 3.5 0 .9-.3.1-.5-1.8-.5s-2.7.2-1.7.5m13.5 0c.6.2 1.8.2 2.5 0 .6-.3.1-.5-1.3-.5s-1.9.2-1.2.5"/></svg>