<svg xmlns="http://www.w3.org/2000/svg" version="1.0" viewBox="0 0 64 64"><path fill-opacity=".1" d="M3.4 4.4c-.3.7-.4 3.3-.1 5.7.4 4.4.4 4.4.5-.8L4 4.1l5.3-.4 5.2-.3-5.3-.2c-3.7-.1-5.4.2-5.8 1.2m51.3-.7 5.2.4.4 5.2.4 5.2-.1-5.5-.1-5.5-5.5-.1-5.5-.1zM37.4 22l.1 4.5 4.5.1 4.5.1-4.2-.4c-4.1-.4-4.2-.5-4.6-4.6l-.4-4.2zm-.3 11.2c-.1 3.5-.3 3.7-3.8 4.1l-3.8.4 3.8.1c4.2.2 5.1-.9 4.4-5.5-.3-2.4-.4-2.3-.6.9m-15.9 4.5 4.7.4.4 4.2.4 4.2-.1-4.5-.1-4.5-5-.1-5-.1zM3.4 55.5l.1 5 5.5.1 5.5.1-5.2-.4-5.2-.4-.4-4.7-.4-4.7zm56.8-.8-.2 5.2-5.2.4-5.3.3 5.3.2c6 .2 6.5-.4 5.9-6.9-.4-4.4-.4-4.4-.5.8"/><g stroke-width="0"><path d="M4 9c0 4.3.3 5 2 5 1.9 0 2 .7 2 18s-.1 18-2 18c-1.7 0-2 .7-2 5v5h5c4.3 0 5-.3 5-2 0-1.9.7-2 18-2s18 .1 18 2c0 1.7.7 2 5 2h5v-5c0-4.3-.3-5-2-5-1.9 0-2-.7-2-18s.1-18 2-18c1.7 0 2-.7 2-5V4h-5c-4.3 0-5 .3-5 2 0 1.9-.7 2-18 2s-18-.1-18-2c0-1.7-.7-2-5-2H4zm8 0c0 2.7-.3 3-3 3s-3-.3-3-3 .3-3 3-3 3 .3 3 3m46 0c0 2.7-.3 3-3 3s-3-.3-3-3 .3-3 3-3 3 .3 3 3m-8 3c0 1.3.7 2 2 2 1.9 0 2 .7 2 18s-.1 18-2 18c-1.3 0-2 .7-2 2 0 1.9-.7 2-18 2s-18-.1-18-2c0-1.3-.7-2-2-2-1.9 0-2-.7-2-18s.1-18 2-18c1.3 0 2-.7 2-2 0-1.9.7-2 18-2s18 .1 18 2M12 55c0 2.7-.3 3-3 3s-3-.3-3-3 .3-3 3-3 3 .3 3 3m46 0c0 2.7-.3 3-3 3s-3-.3-3-3 .3-3 3-3 3 .3 3 3"/><path d="M17 27v10h10v10h20V27H37V17H17zm18 0v8H19V19h16zm10 10v8H29v-8h8v-8h8z"/></g><path fill-opacity=".4" d="M6.4 7.4c-1 2.6.4 4.8 2.8 4.4 3.3-.4 3.3-5.2 0-5.6-1.3-.2-2.5.3-2.8 1.2M11 9c0 1.3-.7 2-2 2s-2-.7-2-2 .7-2 2-2 2 .7 2 2m41.4-1.6c-1 2.6.4 4.8 2.8 4.4 3.3-.4 3.3-5.2 0-5.6-1.3-.2-2.5.3-2.8 1.2M57 9c0 1.3-.7 2-2 2s-2-.7-2-2 .7-2 2-2 2 .7 2 2M34.2 26.7l-.2 7.2-7.2.4-7.3.3 7.3.2c8.5.2 8.5.2 7.9-8.9l-.3-6.4zm5.1 3c.9.2 2.5.2 3.5 0 .9-.3.1-.5-1.8-.5s-2.7.2-1.7.5M29.2 41c0 1.9.2 2.7.5 1.7.2-.9.2-2.5 0-3.5-.3-.9-.5-.1-.5 1.8M6.4 53.4c-1 2.6.4 4.8 2.8 4.4 3.3-.4 3.3-5.2 0-5.6-1.3-.2-2.5.3-2.8 1.2M11 55c0 1.3-.7 2-2 2s-2-.7-2-2 .7-2 2-2 2 .7 2 2m41.4-1.6c-1 2.6.4 4.8 2.8 4.4 3.3-.4 3.3-5.2 0-5.6-1.3-.2-2.5.3-2.8 1.2M57 55c0 1.3-.7 2-2 2s-2-.7-2-2 .7-2 2-2 2 .7 2 2"/><path fill-opacity=".3" d="M22.7 7.7c5.1.2 13.5.2 18.5 0 5.1-.1 1-.3-9.2-.3s-14.3.2-9.3.3M7.4 32c0 10.2.2 14.3.3 9.2.2-5 .2-13.4 0-18.5-.1-5-.3-.9-.3 9.3m49 0c0 10.2.2 14.3.3 9.2.2-5 .2-13.4 0-18.5-.1-5-.3-.9-.3 9.3m-40-14.7c-.3.8-.3 5.6-.1 10.8l.3 9.4.2-10.2.2-10.2 10.3-.4 10.2-.3-10.3-.2c-7.7-.1-10.4.1-10.8 1.1m30.8 19.4L47 46.9l-10.2.4-10.3.3 10.3.2c7.7.1 10.4-.1 10.8-1.1.3-.8.3-5.6.1-10.8l-.3-9.4zm-24.5 20c5.1.2 13.5.2 18.5 0 5.1-.1 1-.3-9.2-.3s-14.3.2-9.3.3"/><path fill-opacity=".2" d="M22.7 10.7c5.1.2 13.5.2 18.5 0 5.1-.1 1-.3-9.2-.3s-14.3.2-9.3.3M10.4 32c0 10.2.2 14.3.3 9.2.2-5 .2-13.4 0-18.5-.1-5-.3-.9-.3 9.3m43 0c0 10.2.2 14.3.3 9.2.2-5 .2-13.4 0-18.5-.1-5-.3-.9-.3 9.3m-34-11.6c-.3.7-.3 4.2-.1 7.7l.3 6.4.2-7.2.2-7.2 7.3-.4 7.2-.3-7.3-.2c-5.3-.1-7.4.2-7.8 1.2m24.8 16.3-.2 7.2-7.2.4-7.3.3 7.3.2c8.5.2 8.5.2 7.9-8.9l-.3-6.4zm-21.5 17c5.1.2 13.5.2 18.5 0 5.1-.1 1-.3-9.2-.3s-14.3.2-9.3.3"/></svg>