<svg xmlns="http://www.w3.org/2000/svg" version="1.0" viewBox="0 0 64 64"><path fill-opacity=".8" d="M3.4 39c0 11.3.2 15.9.3 10.2.2-5.6.2-14.8 0-20.5-.1-5.6-.3-1-.3 10.3m10.3 21.7c5.1.2 13.5.2 18.5 0 5.1-.1 1-.3-9.2-.3s-14.3.2-9.3.3"/><path fill-opacity=".9" d="M21.7 4.1c.7.7 1.5 1 1.8.7s-.2-.9-1.2-1.2c-1.4-.6-1.5-.5-.6.5M59 37.4c0 .8.4 1.7.9 2 .5.4.7-.3.4-1.4-.6-2.3-1.3-2.6-1.3-.6m-8.4 12.4c-.3.5.1.9.9.9s1.2-.4.9-.9c-.3-.4-.7-.8-.9-.8s-.6.4-.9.8m-2 4.4c.3.5 1 .6 1.5.3 1.3-.9 1.1-1.2-.6-1.2-.8 0-1.2.4-.9.9m-3 4c.3.5 1 .6 1.5.3 1.3-.9 1.1-1.2-.6-1.2-.8 0-1.2.4-.9.9"/><path d="M22.3 2.4C21.3 4.1 4.4 15 2.7 15c-.9 0-1.2 5.8-1.2 23.7v23.8h21.7c17.5 0 21.8-.3 22-1.4.5-2.3 15.2-22 16.6-22 1.4-.1 1.6-2.3.3-3.7C60.3 33.7 50 11.9 50.5 11c.6-1-2-3.2-2.8-2.4-.7.7-21.1-5.8-21.5-6.9-.6-1.2-3-.8-3.9.7m14.1 4.8c5.4 1.6 10.5 3.6 11.2 4.3C49.4 13.2 60 34.9 60 36.7c0 1.6-13.4 20.1-16.4 22.5-1.9 1.6-4.3 1.8-21.1 1.5l-19-.2-.3-21.1c-.2-19-.1-21.2 1.5-22.8C8.1 13.2 22.5 4.2 24.5 4.2c1.1 0 6.5 1.4 11.9 3"/><path fill-opacity=".7" d="M1.4 39c0 11.3.2 15.9.3 10.2.2-5.6.2-14.8 0-20.5-.1-5.6-.3-1-.3 10.3m12.3 23.7c5.1.2 13.5.2 18.5 0 5.1-.1 1-.3-9.2-.3s-14.3.2-9.3.3"/></svg>