<svg xmlns="http://www.w3.org/2000/svg" version="1.0" viewBox="0 0 64 64"><path fill-opacity=".4" d="M44.8 25.7c1.2.2 3.2.2 4.5 0 1.2-.2.2-.4-2.3-.4s-3.5.2-2.2.4m7.3 2.9c0 1.1.3 1.4.6.6.3-.7.2-1.6-.1-1.9-.3-.4-.6.2-.5 1.3M38.4 45c0 6.3.1 8.9.3 5.7.2-3.1.2-8.3 0-11.5-.2-3.1-.3-.5-.3 5.8m4.9-1.5c0 2.7.2 3.8.4 2.2.2-1.5.2-3.7 0-5-.2-1.2-.4 0-.4 2.8"/><path fill-opacity=".8" d="M5.4 6.4c-.3.7-.4 3.3-.1 5.7.4 4.4.4 4.4.5-.8L6 6.1l5.3-.4 5.2-.3-5.3-.2c-3.7-.1-5.4.2-5.8 1.2m16.9-.7c1.5.2 3.9.2 5.5 0 1.5-.2.2-.4-2.8-.4s-4.3.2-2.7.4m14 0c1.5.2 3.9.2 5.5 0 1.5-.2.2-.4-2.8-.4s-4.3.2-2.7.4m16.4 0 5.2.4.4 5.2.4 5.2-.1-5.5-.1-5.5-5.5-.1-5.5-.1zM5.3 25c0 3 .2 4.3.4 2.7.2-1.5.2-3.9 0-5.5-.2-1.5-.4-.2-.4 2.8m53-1.5c0 2.2.2 3 .4 1.7.2-1.2.2-3 0-4-.3-.9-.5.1-.4 2.3M5.3 39c0 3 .2 4.3.4 2.7.2-1.5.2-3.9 0-5.5-.2-1.5-.4-.2-.4 2.8m52.9 6.7L58 57.9l-10.7.4-10.8.3 10.8.2c8.1.1 10.9-.1 11.3-1.1.2-.7.3-6.5.1-12.8l-.3-11.4zM5.4 53.5l.1 5 5.5.1 5.5.1-5.2-.4-5.2-.4-.4-4.7-.4-4.7zm17.4 5.2c1.7.2 4.7.2 6.5 0 1.7-.2.3-.4-3.3-.4s-5 .2-3.2.4"/><path fill-opacity=".2" d="M35.8 30.7c1.2.2 3 .2 4 0 .9-.3-.1-.5-2.3-.4-2.2 0-3 .2-1.7.4m9.5 0c.9.2 2.3.2 3 0 .6-.3-.1-.5-1.8-.5-1.6 0-2.2.2-1.2.5m9.5 0c1.2.2 3 .2 4 0 .9-.3-.1-.5-2.3-.4-2.2 0-3 .2-1.7.4m-11.5 3c2.6.2 6.7.2 9 0s.2-.3-4.8-.3c-4.9 0-6.8.1-4.2.3m8 9.8c0 2.2.2 3 .4 1.7.2-1.2.2-3 0-4-.3-.9-.5.1-.4 2.3"/><path fill-opacity=".3" d="M48.3 43.5c0 2.7.2 3.8.4 2.2.2-1.5.2-3.7 0-5-.2-1.2-.4 0-.4 2.8"/><g stroke-width="0"><path d="m6.2 11.2.2 5.3.3-4.7.4-4.7 4.7-.4 4.7-.3-5.2-.2L6 6zm16.1-4.5c1.5.2 3.9.2 5.5 0 1.5-.2.2-.4-2.8-.4s-4.3.2-2.7.4m14 0c1.5.2 3.9.2 5.5 0 1.5-.2.2-.4-2.8-.4s-4.3.2-2.7.4m15.9 0 4.7.4.4 4.7.3 4.7.2-5.3L58 6l-5.2.2-5.3.2zM6.3 25c0 3 .2 4.3.4 2.7.2-1.5.2-3.9 0-5.5-.2-1.5-.4-.2-.4 2.8m51-1c0 2.5.2 3.5.4 2.2.2-1.2.2-3.2 0-4.5-.2-1.2-.4-.2-.4 2.3m-15.6 2.7c-.4.3-.7 1.5-.7 2.5 0 1.4-.8 1.8-3.5 1.8-1.9 0-3.5.4-3.5 1 0 .5.5 1 1 1 .6 0 1 4.8 1 12.5V58h22V45.5c0-7.7.4-12.5 1-12.5s1-.5 1-1c0-.6-1.8-1-4-1-3.6 0-4-.3-4-2.5 0-2.3-.3-2.5-4.8-2.5-2.7 0-5.2.3-5.5.7m8.3 2.8c0 1-1.1 1.5-3.5 1.5s-3.5-.5-3.5-1.5 1.1-1.5 3.5-1.5 3.5.5 3.5 1.5M57 45v12H38V33h19z"/><path d="M44 43.5c0 2.8.4 4.4 1 4 .6-.3 1-2.1 1-4s-.4-3.7-1-4c-.6-.4-1 1.2-1 4m5 0c0 2.5.5 4.5 1 4.5.6 0 1-2 1-4.5s-.4-4.5-1-4.5c-.5 0-1 2-1 4.5M6.3 39c0 3 .2 4.3.4 2.7.2-1.5.2-3.9 0-5.5-.2-1.5-.4-.2-.4 2.8m-.1 13.7L6 58l5.3-.2 5.2-.2-4.7-.3-4.7-.4-.4-4.7-.3-4.7zm16.5 5c1.8.2 5 .2 7 0 2.1-.2.7-.4-3.2-.4-3.8 0-5.5.2-3.8.4"/></g><path fill-opacity=".6" d="m25 7-5.5.7 5.2.1c2.8.1 5.5-.3 5.8-.8.3-.6.5-.9.3-.8S28 6.6 25 7m8.9.3c.5.5 3 .7 5.7.5l4.9-.3-5.7-.5c-3.1-.3-5.3-.1-4.9.3M7.4 8.4c-.3.8-.4 2.9-.1 4.8.3 3 .4 2.9.5-.9.2-4.2.2-4.2 4.5-4.6l4.2-.4-4.3-.1c-2.9-.1-4.4.3-4.8 1.2m44.5-.7c3.9.4 4 .5 4.4 4.6l.4 4.2-.1-4.5-.1-4.5-4.3-.1-4.2-.1zM7 25.2c-.3 3.1-.1 5.3.3 4.9.5-.5.7-3 .5-5.7l-.3-4.9zm49.3-1.7c0 2.2.2 3 .4 1.7.2-1.2.2-3 0-4-.3-.9-.5.1-.4 2.3M7 38.8l.5 5.7.3-4.9c.2-2.7 0-5.2-.5-5.7-.4-.4-.6 1.8-.3 4.9m49.2 5.9L56 55.9l-8.7.4-8.8.3 8.8.2c6.5.1 8.9-.1 9.3-1.1.2-.7.3-6 .1-11.8l-.3-10.4zM7 51.8l.5 4.7 4 .1 4 .1-3.7-.4C8.1 55.9 8 55.8 8 52c0-2.1-.4-4.1-.8-4.4-.4-.2-.5 1.6-.2 4.2m15.8 4.9c1.7.2 4.7.2 6.5 0 1.7-.2.3-.4-3.3-.4s-5 .2-3.2.4"/><path fill-opacity=".1" d="M45.3 28.7c.9.2 2.3.2 3 0 .6-.3-.1-.5-1.8-.5-1.6 0-2.2.2-1.2.5M35.4 46c0 6.9.1 9.7.3 6.3.2-3.5.2-9.1 0-12.5-.2-3.5-.3-.7-.3 6.2"/></svg>