<svg xmlns="http://www.w3.org/2000/svg" version="1.0" viewBox="0 0 64 64"><path fill-opacity=".1" d="m25.7 41 6.3 6.5 3.7-4 3.8-4-3.8 3.5-3.7 3.4-6.3-5.9-6.2-6zm1.1 19.7c.7.3 1.6.2 1.9-.1.4-.3-.2-.6-1.3-.5-1.1 0-1.4.3-.6.6m9 0c.7.3 1.6.2 1.9-.1.4-.3-.2-.6-1.3-.5-1.1 0-1.4.3-.6.6"/><path fill-opacity=".9" d="m26.3 40.5 5.7 6 5.8-6 5.7-6-5.7 5.5-5.8 5.4-5.7-5.4-5.8-5.5zm-22 6c0 .8.4 1.2.9.9s.6-1 .3-1.5c-.9-1.3-1.2-1.1-1.2.6m54.2-.6c-.3.5-.2 1.2.3 1.5s.9-.1.9-.9c0-1.7-.3-1.9-1.2-.6"/><path fill-opacity=".2" d="M30.4 23c0 10.2.2 14.3.3 9.2.2-5 .2-13.4 0-18.5-.1-5-.3-.9-.3 9.3m3 0c0 10.2.2 14.3.3 9.2.2-5 .2-13.4 0-18.5-.1-5-.3-.9-.3 9.3m7 15.2-1.9 2.3 2.3-1.9c2.1-1.8 2.7-2.6 1.9-2.6-.2 0-1.2 1-2.3 2.2M30.3 60.7c.9.2 2.5.2 3.5 0 .9-.3.1-.5-1.8-.5s-2.7.2-1.7.5"/><g stroke-width="0"><path d="M31 23.7v18.7L26.5 38c-2.4-2.4-4.7-4.2-5-3.9-.2.3 2 3 5 5.9l5.5 5.4 5.5-5.4c3-2.9 5.2-5.6 5-5.9-.3-.3-2.6 1.5-5 3.9L33 42.4V23.7C33 11.9 32.6 5 32 5s-1 6.9-1 18.7"/><path d="M10.4 42.6c-8.3 3-10.6 7.7-5.5 11.3 10.9 7.8 44.7 7.6 54.6-.4 2.2-1.7 2.7-2.7 2.2-4.7-.7-2.7-6.1-6-12.2-7.4-4.5-1-1.8 1 3.3 2.5 4.6 1.3 8.6 4.5 7.9 6.4-.7 2.2-8 5.5-14.2 6.6-7.9 1.4-21.1 1.4-29 0-6.2-1.1-13.5-4.4-14.2-6.6-.7-1.9 3.3-5.1 7.9-6.4 4.5-1.3 7.3-3 4.8-2.8-.8 0-3.3.7-5.6 1.5"/></g><path fill-opacity=".4" d="M26.8 57.7c.7.3 1.6.2 1.9-.1.4-.3-.2-.6-1.3-.5-1.1 0-1.4.3-.6.6m9 0c.7.3 1.6.2 1.9-.1.4-.3-.2-.6-1.3-.5-1.1 0-1.4.3-.6.6"/><path fill-opacity=".5" d="M26 37.5c1.9 1.9 3.6 3.5 3.9 3.5s-1-1.6-2.9-3.5-3.6-3.5-3.9-3.5 1 1.6 2.9 3.5m10.9.2-3.4 3.8 3.8-3.4c2-1.9 3.7-3.6 3.7-3.8 0-.8-.8 0-4.1 3.4"/></svg>