<svg xmlns="http://www.w3.org/2000/svg" version="1.0" viewBox="0 0 64 64"><path fill-opacity=".2" d="M10.4 27.5c0 11 .2 15.6.3 10.3.2-5.3.2-14.3 0-20-.1-5.7-.3-1.3-.3 9.7m43 0c0 11 .2 15.6.3 10.3.2-5.3.2-14.3 0-20-.1-5.7-.3-1.3-.3 9.7m-23 4.5c0 10.7.2 15.1.3 9.7.2-5.3.2-14.1 0-19.5-.1-5.3-.3-.9-.3 9.8m3 0c0 10.7.2 15.1.3 9.7.2-5.3.2-14.1 0-19.5-.1-5.3-.3-.9-.3 9.8"/><path fill-opacity=".8" d="M8.8 5.7c.7.3 1.6.2 1.9-.1.4-.3-.2-.6-1.3-.5-1.1 0-1.4.3-.6.6m45 0c.7.3 1.6.2 1.9-.1.4-.3-.2-.6-1.3-.5-1.1 0-1.4.3-.6.6"/><path fill-opacity=".4" d="M2.4 12.3c-.2.7-.3 10.7-.1 22.2l.2 21 .3-21.7c.1-16.2.5-21.8 1.5-22.1.9-.4.9-.6-.1-.6-.7-.1-1.5.5-1.8 1.2m57.3-.6c.9.7 1.3 6.8 1.6 22.3l.3 21.5-.1-21.9c0-18.6-.2-22-1.5-22.3-1.1-.3-1.2-.2-.3.4"/><path fill-opacity=".3" d="M7.4 27.5c0 12.1.2 16.9.3 10.7.2-6.2.2-16.1 0-22-.1-5.9-.3-.8-.3 11.3m49 0c0 12.1.2 16.9.3 10.7.2-6.2.2-16.1 0-22-.1-5.9-.3-.8-.3 11.3"/><path fill-opacity=".1" d="M5.4 32c0 11.3.2 15.9.3 10.2.2-5.6.2-14.8 0-20.5-.1-5.6-.3-1-.3 10.3m53 0c0 11.3.2 15.9.3 10.2.2-5.6.2-14.8 0-20.5-.1-5.6-.3-1-.3 10.3"/><g stroke-width="0"><path d="M8 27.3c0 24.6-1.1 21.9 9.5 23.1 2.8.4 7.1 1.3 9.8 2.2 4.3 1.4 5.1 1.4 9.5 0 2.6-.9 7-1.8 9.7-2.2 10.6-1.2 9.5 1.5 9.5-23.1V5.7l-6.8.6c-3.7.3-9.1 1.4-12 2.5-5.2 2-5.2 2-10.4 0-2.9-1.1-8.3-2.2-12-2.5L8 5.7zM22.5 9.2c9.1 1.9 8.5.3 8.5 22.8 0 11-.4 20-.9 20s-2.7-.6-4.9-1.4-6.5-1.7-9.6-2.1l-5.6-.7V6.9l3.8.6c2 .3 6 1.1 8.7 1.7M54 27.4v20.4l-5.6.7c-3.1.4-7.4 1.3-9.6 2.1S34.3 52 33.9 52c-.6 0-.8-8.8-.7-20.2l.3-20.3 3.9-1.3c3.4-1.1 11.4-2.7 15.4-3.1.9-.1 1.2 4.6 1.2 20.3"/><path d="M3 33.4v21.3l8.3.5c4.5.3 11 1.3 14.5 2.3 5.9 1.7 6.5 1.7 12.5 0 3.4-1 9.9-2 14.5-2.3l8.2-.5V33.4c0-13.6-.4-21.4-1-21.4s-1 7.4-1 20.3v20.3l-8.8 1.2c-4.8.7-10.9 1.9-13.5 2.8-4.3 1.5-5.1 1.5-9.4 0-2.6-.9-8.7-2.1-13.5-2.8L5 52.6V32.3C5 19.4 4.6 12 4 12s-1 7.8-1 21.4"/></g></svg>