<svg xmlns="http://www.w3.org/2000/svg" version="1.0" viewBox="0 0 64 64"><path fill-opacity=".1" d="M30.6 2.8c-.2.4.4.8 1.4.8s1.6-.4 1.4-.8c-.3-.4-.9-.8-1.4-.8s-1.1.4-1.4.8"/><path fill-opacity=".9" d="M50.1 41.6c0 1.1.3 1.4.6.6.3-.7.2-1.6-.1-1.9-.3-.4-.6.2-.5 1.3M18.5 54c1 1.1 2 2 2.3 2s-.3-.9-1.3-2-2-2-2.3-2 .3.9 1.3 2m25.9.2-1.9 2.3 2.3-1.9c2.1-1.8 2.7-2.6 1.9-2.6-.2 0-1.2 1-2.3 2.2m-13.6 5.5c.6.2 1.8.2 2.5 0 .6-.3.1-.5-1.3-.5s-1.9.2-1.2.5"/><path d="M25.2 14.2c-10.8 18.6-13.4 27.7-9.9 34.4 1.7 3.3 6.1 7.6 9.4 9.3 3.1 1.6 11.9 1.4 15.2-.3 3.6-1.9 8.9-8 9.7-11.2 1.2-4.7-.3-12-3.9-19.4C41.1 17.5 33.1 4 32 4c-.4 0-3.5 4.6-6.8 10.2m13.3 1.4c8.6 15 10.8 20.8 10.3 27.1-.5 5.7-2.5 9.2-7.2 12.7-3.9 3-15.3 3-19.2 0-5.5-4-6.9-7-6.9-14.2 0-5.9.5-7.7 4.3-15.2C26.1 13.7 31 5.8 32.3 6.3c.6.2 3.3 4.3 6.2 9.3"/><path fill-opacity=".3" d="M17 53.4c0 .2.8 1 1.8 1.7 1.5 1.3 1.6 1.2.3-.4S17 52.6 17 53.4"/><path fill-opacity=".2" d="M15.1 41.6c0 1.1.3 1.4.6.6.3-.7.2-1.6-.1-1.9-.3-.4-.6.2-.5 1.3m33 0c0 1.1.3 1.4.6.6.3-.7.2-1.6-.1-1.9-.3-.4-.6.2-.5 1.3"/></svg>