<svg xmlns="http://www.w3.org/2000/svg" version="1.0" viewBox="0 0 64 64"><path fill-opacity=".1" d="M46 42.3c0 .2 1.5 1.6 3.3 3.3l3.2 2.9-2.9-3.3c-2.8-3-3.6-3.7-3.6-2.9M48.5 53c3.8 3.8 7.2 7 7.4 7 .3 0-2.6-3.2-6.4-7-3.8-3.9-7.2-7-7.4-7-.3 0 2.6 3.1 6.4 7m9.4 5.7c-1.3 1.6-1.2 1.7.4.4s2.1-2.1 1.3-2.1c-.2 0-1 .8-1.7 1.7"/><path fill-opacity=".2" d="M25.8 44.7c.6.2 1.8.2 2.5 0 .6-.3.1-.5-1.3-.5s-1.9.2-1.2.5M55.5 52c2.1 2.2 4.1 4 4.4 4s-1.3-1.8-3.4-4-4.1-4-4.4-4 1.3 1.8 3.4 4"/><path fill-opacity=".4" d="M25.8 6.7c.6.2 1.8.2 2.5 0 .6-.3.1-.5-1.3-.5s-1.9.2-1.2.5"/><path fill-opacity=".8" d="M5.1 25.6c0 1.1.3 1.4.6.6.3-.7.2-1.6-.1-1.9-.3-.4-.6.2-.5 1.3m16.7 1.1c2.8.2 7.6.2 10.5 0 2.8-.2.5-.3-5.3-.3s-8.1.1-5.2.3m18.1 13c-1.3 1.6-1.2 1.7.4.4s2.1-2.1 1.3-2.1c-.2 0-1 .8-1.7 1.7"/><path fill-opacity=".9" d="M39.3 9.5c0 2.3 3.3 4.9 4.3 3.4.4-.7.3-1-.3-.6-1.2.7-3.6-1.6-2.7-2.5.3-.3.1-.8-.4-1.2-.5-.3-.9.1-.9.9m6.8 16.1c0 1.1.3 1.4.6.6.3-.7.2-1.6-.1-1.9-.3-.4-.6.2-.5 1.3M50.5 48c4.4 4.4 8.2 8 8.5 8 .2 0-3.1-3.6-7.5-8s-8.2-8-8.5-8c-.2 0 3.1 3.6 7.5 8m-3 3c4.4 4.4 8.2 8 8.5 8 .2 0-3.1-3.6-7.5-8s-8.2-8-8.5-8c-.2 0 3.1 3.6 7.5 8"/><g stroke-width="0"><path d="M22.1 5C13.1 7.1 6 16.2 6 25.4c.1 16.2 15.9 25.9 30.6 18.8l3.5-1.6 8.2 8.2c6.5 6.5 8.5 8 9.5 7s-.5-2.9-6.9-9.4l-8-8.1 2.2-4.2c6.4-12.4.6-26.7-12.4-30.6C27.2 3.9 27 3.8 22.1 5m15.8 4.3c12.2 8.1 11 27.1-2.1 33.8-6 3.1-15.2 2.4-20.3-1.5C-.5 29.3 8.1 5.1 28.2 6.3c4 .2 6.8 1.1 9.7 3"/><path d="M21.8 25.7c2.8.2 7.6.2 10.5 0 2.8-.2.5-.3-5.3-.3s-8.1.1-5.2.3"/></g><path fill-opacity=".6" d="M21.8 24.7c2.8.2 7.6.2 10.5 0 2.8-.2.5-.3-5.3-.3s-8.1.1-5.2.3"/></svg>