<svg xmlns="http://www.w3.org/2000/svg" version="1.0" viewBox="0 0 64 64"><path fill-opacity=".1" d="M22 41.5c4.7 4.7 8.7 8.5 9 8.5.2 0-3.3-3.8-8-8.5S14.3 33 14 33c-.2 0 3.3 3.8 8 8.5m-6.4 16.7c-.6.4 9 .7 21.4.6 22.7-.2 20.6-.6-5.9-1-7.8-.2-14.8 0-15.5.4"/><path fill-opacity=".3" d="M11 38.4c0 .2.8 1 1.8 1.7 1.5 1.3 1.6 1.2.3-.4S11 37.6 11 38.4"/><path d="M24.2 19.3C15.3 28.3 8 36.1 8 36.6c0 .6.5 1.5 1.1 2.1.9.9.2 3.5-2.5 10.3-2.9 7.2-3.4 9.5-2.5 10.6s6.2 1.4 28 1.4C49 61 59 60.6 59 60s-8.9-1.1-23.2-1.2l-23.3-.3 5.9-2.3c4.1-1.6 6.2-2 7-1.2.5.5 1.4 1 2 1C28.7 56 61 23.8 61 22.5 61 20.7 43.7 3 42 3c-.9 0-8.9 7.3-17.8 16.3m27-6.6C55.5 17 59 21.1 59 22c0 .8-4.7 6.2-10.5 12L38 44.5l-9.2-9.3-9.3-9.2L30 15.5C35.8 9.7 41.1 5 42 5c.8 0 5 3.5 9.2 7.7M35.3 47.2c-1.6 1.8-2.1 1.5-11-7.4-8.8-8.7-9.2-9.3-7.6-11 1.6-1.8 2.1-1.5 11 7.4 8.8 8.7 9.2 9.3 7.6 11M23.5 41c8.8 8.8 8.9 8.9 7 11-1 1.1-2.5 2-3.4 2-2 0-17.1-14.9-17.1-16.9 0-1.5 2.8-5.1 3.9-5.1.4 0 4.7 4 9.6 9m-6 6c3.1 3.1 4.6 5.3 4 5.9C20.2 54.1 8.1 59 6.3 59c-1.7 0-1.7-1.9.2-6.4.8-2 2.2-5.2 2.9-7.1.8-1.9 1.9-3.5 2.3-3.5.5 0 3.1 2.2 5.8 5"/><path fill-opacity=".9" d="M50.3 12.6c4.3 4.4 8.5 8.1 9.3 8.1 1 0 .6-.9-1.2-2.9-1.5-1.5-3-2.5-3.3-2.3-.3.3-3.2-2-6.5-5.2-3.8-3.6-3.2-2.8 1.7 2.3m7.2 5.4c1 1.1 1.6 2 1.3 2s-1.3-.9-2.3-2-1.6-2-1.3-2 1.3.9 2.3 2M9.4 39.2c-.4.6-.3.8.3.5.6-.4 1.6 0 2.3.8s.9 1.5.4 1.5c-.4 0 1.4 2.2 4.1 5 2.7 2.7 5.1 4.7 5.3 4.5.9-.9 3.2 1.7 2.5 2.8-.4.6-.1.7.6.2.9-.5-1-3.1-6.5-8.6-4.3-4.4-7.9-7.9-8.1-7.9-.1 0-.5.5-.9 1.2M22 50.7c0 .8-.9 0-5-4.5l-4.5-4.7 4.8 4.5c2.6 2.4 4.7 4.5 4.7 4.7"/><path fill-opacity=".4" d="M51.5 11c4.4 4.4 8.2 8 8.5 8 .2 0-3.1-3.6-7.5-8S44.3 3 44 3c-.2 0 3.1 3.6 7.5 8M21 48.2c4.1 4.5 5 5.3 5 4.5 0-.2-2.1-2.3-4.7-4.7l-4.8-4.5zm-2.7 13.5c7.5.2 19.9.2 27.5 0 7.5-.1 1.3-.3-13.8-.3s-21.3.2-13.7.3"/><g fill-opacity=".7" stroke-opacity=".7" stroke-width="0"><path d="M23.5 19C15.3 27.2 8.8 34 9 34c.3 0 7.3-6.8 15.5-15C32.7 10.7 39.2 4 39 4c-.3 0-7.3 6.7-15.5 15m-.1 3.2-2.9 3.3 3.3-2.9c3-2.8 3.7-3.6 2.9-3.6-.2 0-1.6 1.5-3.3 3.2"/><path d="M47.8 33.7 38 43.5l-9.2-9-9.3-9 9.3 9.5 9.2 9.5 10.2-10.3C53.9 28.6 58.3 24 58 24s-4.9 4.4-10.2 9.7M44.5 40C36.3 48.2 29.8 55 30 55c.3 0 7.3-6.8 15.5-15 8.2-8.3 14.7-15 14.5-15-.3 0-7.3 6.7-15.5 15M27 36.5c4.7 4.7 8.7 8.5 9 8.5.2 0-3.3-3.8-8-8.5S19.3 28 19 28c-.2 0 3.3 3.8 8 8.5"/></g><path fill-opacity=".8" d="m33.5 12.2-7 7.3 7.3-7C40.5 6.1 41.5 5 40.7 5c-.1 0-3.4 3.3-7.2 7.2m-11.1 29c5 5.1 9.3 9.2 9.5 9C32.5 49.9 14.8 32 14 32c-.4 0 3.4 4.2 8.4 9.2"/><path fill-opacity=".2" d="M43 6.3c0 .1 3.5 3.6 7.8 7.7l7.7 7.5-7.5-7.8c-6.9-7.1-8-8.2-8-7.4M16 47.2c2.4 2.7 4.5 4.8 4.7 4.8.8 0 0-.9-4.4-5l-4.8-4.5z"/><path fill-opacity=".5" d="M21 36.2c4.1 4.5 5 5.3 5 4.5 0-.2-2.1-2.3-4.7-4.7l-4.8-4.5z"/></svg>