<svg xmlns="http://www.w3.org/2000/svg" version="1.0" viewBox="0 0 64 64"><path fill-opacity=".1" d="m10.4 11.2-1.9 2.3 2.3-1.9C12.9 9.8 13.5 9 12.7 9c-.2 0-1.2 1-2.3 2.2m42.1-.2c1 1.1 2 2 2.3 2s-.3-.9-1.3-2-2-2-2.3-2 .3.9 1.3 2M5.2 32c0 1.4.2 1.9.5 1.2.2-.6.2-1.8 0-2.5-.3-.6-.5-.1-.5 1.3m13.8.4c0 .2.8 1 1.8 1.7 1.5 1.3 1.6 1.2.3-.4S19 31.6 19 32.4m8 3c0 .2.8 1 1.8 1.7 1.5 1.3 1.6 1.2.3-.4S27 34.6 27 35.4M10.5 53c1 1.1 2 2 2.3 2s-.3-.9-1.3-2-2-2-2.3-2 .3.9 1.3 2m41.9.2-1.9 2.3 2.3-1.9c2.1-1.8 2.7-2.6 1.9-2.6-.2 0-1.2 1-2.3 2.2"/><g stroke-width="0"><path d="M25 3.9C16.4 6.7 10 12.1 5.9 20c-3.5 6.7-3.3 17.6.3 24.5 3.1 6 7.7 10.4 13.8 13.6 6.4 3.3 17.6 3.3 24 0 6.1-3.2 10.7-7.6 13.8-13.6 2.2-4.1 2.6-6.3 2.6-12.5s-.4-8.4-2.6-12.5C52.7 9.9 43.9 4 33.5 3.4c-3.3-.2-7.1 0-8.5.5m18 3.2c17.1 7.7 21.5 30.2 8.7 43.8-10.3 10.8-29.1 10.8-39.4 0-10.1-10.7-9.7-28.6.8-38.6C20.8 5 33.6 2.8 43 7.1"/><path d="M37.9 29.5c-3.5 5.2-6.8 9.5-7.4 9.5s-2.9-1.8-5-4-4.4-4-4.9-4c-.6 0 1.2 2.2 3.9 5 2.7 2.7 5.4 5 6 5 1.2 0 15-19.8 14.3-20.5-.3-.3-3.3 3.8-6.9 9"/></g><path fill-opacity=".8" d="M26 35.4c0 .2.8 1 1.8 1.7 1.5 1.3 1.6 1.2.3-.4S26 34.6 26 35.4"/></svg>