<svg xmlns="http://www.w3.org/2000/svg" version="1.0" viewBox="0 0 64 64"><path fill-opacity=".1" d="M19.3 3.7c.9.2 2.3.2 3 0 .6-.3-.1-.5-1.8-.5-1.6 0-2.2.2-1.2.5m16 57c4.8.2 12.5.2 17 0 4.5-.1.6-.3-8.8-.3-9.3 0-13 .2-8.2.3"/><path fill-opacity=".2" d="M18.3 28.7c1.5.2 3.7.2 5 0 1.2-.2 0-.4-2.8-.4-2.7 0-3.8.2-2.2.4m-1.5 2c2.3.2 5.9.2 8 0 2-.2.1-.4-4.3-.4s-6.1.2-3.7.4m1 3c1.8.2 4.5.2 6 0s0-.4-3.3-.4-4.5.2-2.7.4"/><path fill-opacity=".9" d="M42.3 17.7c.9.2 2.3.2 3 0 .6-.3-.1-.5-1.8-.5-1.6 0-2.2.2-1.2.5"/><g stroke-width="0"><path d="M17.1 5.9c-.6 1-3.7 9-7 17.7-3.3 8.8-6.3 16.7-6.6 17.7-.7 1.6-.3 1.8 3 1.5 3.4-.3 3.9-.7 5.4-4.8l1.7-4.5h13.7l1.6 4.3c1.5 4.1 1.4 4.6-.6 10.3-1.9 5.1-2 6.1-.7 6.6 3.4 1.3 6-.6 7.5-5.4l1.5-4.8 6.7-.3c6.6-.3 6.7-.2 7.7 2.5 2.2 6.2 3.5 7.8 6.5 7.8 2.1 0 2.9-.4 2.7-1.5-.1-.8-3.3-9.5-6.9-19.3L46.6 16h-3.2c-3 0-3.2.3-5.9 7.5-1.5 4.1-3 7.5-3.4 7.5-.3 0-2.4-4.8-4.5-10.8C24.2 5.4 23.4 4 20.5 4c-1.3 0-2.9.8-3.4 1.9m10.8 13.8c5.3 14.3 5.7 15.8 4.2 18.2-.7 1.2-1.4.5-2.6-2.7L27.8 31H13.1l-1.8 5c-1.4 4-2.2 5-4 5H5l2.5-6.8C17.8 7 18.2 6 20.5 6c2 0 2.9 1.8 7.4 13.7m23.9 13.5c3.3 9 6.4 17.1 6.8 18.1.6 1.6.3 1.8-1.7 1.5-1.8-.2-2.8-1.4-4-4.8l-1.7-4.5H35.8L34.1 48c-1.2 3.4-2.2 4.6-4 4.8-2 .3-2.3 0-1.7-1.5.4-1 3.5-9.1 6.9-18.1C40.6 19.3 41.7 17 43.6 17c1.8 0 2.9 2.2 8.2 16.2"/><path d="M18.2 17.3C14 28.3 14 28 20.4 28c3.1 0 5.6-.4 5.6-.8 0-1.2-3.7-11.8-4.8-13.8-.8-1.4-1.4-.6-3 3.9m5.8 7.4c0 .8-1.4 1.3-3.6 1.3-3.3 0-3.6-.2-3-2.5.3-1.3 1.1-3.7 1.7-5.2l1.1-2.8 1.9 4c1 2.2 1.9 4.6 1.9 5.2m18.4.9c-.4 1-1.5 4.1-2.6 6.7-1 2.6-1.8 5.2-1.8 5.7 0 .6 2.5 1 5.5 1s5.5-.4 5.5-.9c0-1.4-4.2-12.5-5.1-13.5-.5-.5-1.1-.1-1.5 1m2.6 4.9c.5 1.4 1.3 3.7 1.6 5 .6 2.3.3 2.5-3.1 2.5s-3.7-.2-3.1-2.5c1-3.8 2.5-7.5 3.1-7.5.3 0 1 1.1 1.5 2.5M26.5 59c.8 1.3 33.2 1.3 34 0 .4-.7-5.5-1-17-1s-17.4.3-17 1"/></g><path fill-opacity=".6" d="M42.3 15.7c.9.2 2.3.2 3 0 .6-.3-.1-.5-1.8-.5-1.6 0-2.2.2-1.2.5"/><path fill-opacity=".7" d="M40.8 39.7c1.8.2 4.5.2 6 0s0-.4-3.3-.4-4.5.2-2.7.4m-1 3c2.3.2 5.9.2 8 0 2-.2.1-.4-4.3-.4s-6.1.2-3.7.4"/><path fill-opacity=".4" d="M19.8 6.7c.7.3 1.6.2 1.9-.1.4-.3-.2-.6-1.3-.5-1.1 0-1.4.3-.6.6m-.5 19c.9.2 2.3.2 3 0 .6-.3-.1-.5-1.8-.5-1.6 0-2.2.2-1.2.5m16 32c4.8.2 12.5.2 17 0 4.5-.1.6-.3-8.8-.3-9.3 0-13 .2-8.2.3"/><path fill-opacity=".8" d="M41.8 37.7c1.2.2 3 .2 4 0 .9-.3-.1-.5-2.3-.4-2.2 0-3 .2-1.7.4m-2.1 7c1.8.2 5 .2 7 0 2.1-.2.7-.4-3.2-.4-3.8 0-5.5.2-3.8.4"/><path fill-opacity=".5" d="M5.3 43.7c.9.2 2.5.2 3.5 0 .9-.3.1-.5-1.8-.5s-2.7.2-1.7.5m24.5 9c.7.3 1.6.2 1.9-.1.4-.3-.2-.6-1.3-.5-1.1 0-1.4.3-.6.6m26 0c.7.3 1.6.2 1.9-.1.4-.3-.2-.6-1.3-.5-1.1 0-1.4.3-.6.6"/></svg>