<svg xmlns="http://www.w3.org/2000/svg" version="1.0" viewBox="0 0 64 64"><path fill-opacity=".5" d="M52 13.4c0 .2.8 1 1.8 1.7 1.5 1.3 1.6 1.2.3-.4S52 12.6 52 13.4"/><path fill-opacity=".8" d="M17.8 5.7c5.7.2 14.7.2 20 0 5.3-.1.7-.3-10.3-.3s-15.4.2-9.7.3M52.5 11c2.7 2.7 5.1 5 5.4 5s-1.7-2.3-4.4-5c-2.7-2.8-5.1-5-5.4-5s1.7 2.2 4.4 5M5.4 32c0 13.5.2 19 .3 12.2.2-6.7.2-17.7 0-24.5-.1-6.7-.3-1.2-.3 12.3m53 4.5c0 11 .2 15.6.3 10.3.2-5.3.2-14.3 0-20-.1-5.7-.3-1.3-.3 9.7m-33.1-9.8c3.7.2 9.6.2 13 0s.4-.3-6.8-.3-9.9.1-6.2.3m0 9c3.7.2 9.7.2 13.5 0 3.7-.2.6-.3-6.8-.3s-10.5.1-6.7.3m-5.5 23c6.7.2 17.7.2 24.5 0 6.7-.1 1.2-.3-12.3-.3s-19 .2-12.2.3"/><path fill-opacity=".7" d="M37.8 10.7c.6.2 1.8.2 2.5 0 .6-.3.1-.5-1.3-.5s-1.9.2-1.2.5m0 11c.6.2 1.8.2 2.5 0 .6-.3.1-.5-1.3-.5s-1.9.2-1.2.5m-12.5 12c3.7.2 9.7.2 13.5 0 3.7-.2.6-.3-6.8-.3s-10.5.1-6.7.3"/><path fill-opacity=".1" d="M53 10.5c3 3 5.7 5.5 5.9 5.5.3 0-1.9-2.5-4.9-5.5S48.3 5 48.1 5c-.3 0 1.9 2.5 4.9 5.5M35.3 16c0 3 .2 4.3.4 2.7.2-1.5.2-3.9 0-5.5-.2-1.5-.4-.2-.4 2.8"/><g stroke-width="0"><path d="M6.5 7.3c-.3.7-.4 12.3-.3 25.7l.3 24.5h51l.3-20.4.2-20.5-5.2-5.3L47.6 6H27.3C11.8 6 6.8 6.3 6.5 7.3m9.7 8.9.3 9.3 13.9.3c9.3.2 14.3-.1 15.2-.9 1-.8 1.4-3.6 1.4-9.2V7.6l5 4.9 5 5-.2 19.5-.3 19.5-4.2.3-4.3.3V46.8c0-6.8-.4-10.8-1.2-11.6-1.7-1.7-27.9-1.7-29.6 0-.8.8-1.2 4.8-1.2 11.6v10.3l-4.2-.3-4.3-.3L7.2 33c-.1-12.9 0-24 .2-24.7.3-.8 2.2-1.3 4.5-1.3h4zM45 16v9.1l-13.7-.3-13.8-.3-.3-8.8-.3-8.7H45zm1.8 30.2.3 10.8H17V46.7c0-5.7.3-10.7.7-11.1.4-.3 7-.5 14.7-.4l14.1.3z"/><path d="M36 16c0 4.9.1 5 3 5s3-.1 3-5-.1-5-3-5-3 .1-3 5m4 0c0 2.2-.4 4-1 4-.5 0-1-1.8-1-4s.5-4 1-4c.6 0 1 1.8 1 4"/></g><path fill-opacity=".6" d="M12 7.6c2.9.5 2.9.6 3.3 8l.3 7.4v-7.7l-.1-7.8-3.2-.3C9.1 7 9.1 7 12 7.6m12.3.1c3.7.2 9.7.2 13.5 0 3.7-.2.6-.3-6.8-.3s-10.5.1-6.7.3M7.4 32c0 12.9.2 18.2.3 11.7.2-6.4.2-17 0-23.5-.1-6.4-.3-1.1-.3 11.8M49 10.4c0 .2.8 1 1.8 1.7 1.5 1.3 1.6 1.2.3-.4S49 9.6 49 10.4m7.4 26.1c0 10.4.2 14.6.3 9.2.2-5.4.2-13.9 0-19-.1-5.1-.3-.7-.3 9.8M25.3 24.7c3.7.2 9.6.2 13 0s.4-.3-6.8-.3-9.9.1-6.2.3M15.2 46.2l-.2 9.7-3.2.4-3.3.4 3.3.1c1.9.1 3.5-.3 3.8-1.1s.3-5.4.1-10.3l-.3-8.9zm33.2.5.1 9.8 3 .1c2.8.1 2.8.1.3-.3-2.7-.4-2.7-.5-3.1-9.9l-.3-9.4zm-23.6 10c3.9.2 10.5.2 14.5 0 3.9-.1.7-.3-7.3-.3s-11.2.2-7.2.3"/><path fill-opacity=".9" d="M17.4 15.5c0 4.9.1 7.1.3 4.8s.2-6.4 0-9-.3-.8-.3 4.2m27.2 9.7c.3.5 1 .6 1.5.3 1.3-.9 1.1-1.2-.6-1.2-.8 0-1.2.4-.9.9m-27.8 9.5c-.2.5-.1 5.7.2 11.8l.5 11 .5-11.3c.3-6.3.2-11.6-.2-11.8s-.8-.1-1 .3m29 0c-.2.5-.1 5.7.2 11.8l.5 11 .5-11.3c.3-6.3.2-11.6-.2-11.8s-.8-.1-1 .3"/><path fill-opacity=".2" d="M44.3 15.5c0 4.4.2 6.1.4 3.7.2-2.3.2-5.9 0-8-.2-2-.4-.1-.4 4.3m-2 .5c0 3 .2 4.3.4 2.7.2-1.5.2-3.9 0-5.5-.2-1.5-.4-.2-.4 2.8"/><path fill-opacity=".3" d="M47.3 16.5c0 4.4.2 6.1.4 3.7.2-2.3.2-5.9 0-8-.2-2-.4-.1-.4 4.3m-8.1-.5c0 1.9.2 2.7.5 1.7.2-.9.2-2.5 0-3.5-.3-.9-.5-.1-.5 1.8"/><path fill-opacity=".4" d="M38.2 16c0 1.9.2 2.7.5 1.7.2-.9.2-2.5 0-3.5-.3-.9-.5-.1-.5 1.8"/></svg>