<svg xmlns="http://www.w3.org/2000/svg" version="1.0" viewBox="0 0 64 64"><path fill-opacity=".1" d="M15.7 3.7c9 .2 23.6.2 32.5 0 9-.1 1.7-.3-16.2-.3s-25.2.2-16.3.3M3.1 9.6c0 1.1.3 1.4.6.6.3-.7.2-1.6-.1-1.9-.3-.4-.6.2-.5 1.3m23 0c0 1.1.3 1.4.6.6.3-.7.2-1.6-.1-1.9-.3-.4-.6.2-.5 1.3m11 0c0 1.1.3 1.4.6.6.3-.7.2-1.6-.1-1.9-.3-.4-.6.2-.5 1.3m23 0c0 1.1.3 1.4.6.6.3-.7.2-1.6-.1-1.9-.3-.4-.6.2-.5 1.3M18 36.3c1.4 1.6 2.4 3.1 2.2 3.3-.1.2.2 1.2.7 2.2.7 1.2 1 1.3 1.1.3 0-1.1.3-1.1 1.5-.1 3.3 2.7 1.2.2-3.2-4-2.6-2.5-3.6-3.2-2.3-1.7m-14.9.3c0 1.1.3 1.4.6.6.3-.7.2-1.6-.1-1.9-.3-.4-.6.2-.5 1.3m34 0c0 1.1.3 1.4.6.6.3-.7.2-1.6-.1-1.9-.3-.4-.6.2-.5 1.3m23 0c0 1.1.3 1.4.6.6.3-.7.2-1.6-.1-1.9-.3-.4-.6.2-.5 1.3M37 40.4c0 .2.8 1 1.8 1.7 1.5 1.3 1.6 1.2.3-.4S37 39.6 37 40.4m-20.6 8.8-1.9 2.3 2.3-1.9c2.1-1.8 2.7-2.6 1.9-2.6-.2 0-1.2 1-2.3 2.2m9 10-1.9 2.3 2.3-1.9c2.1-1.8 2.7-2.6 1.9-2.6-.2 0-1.2 1-2.3 2.2M36 57.4c0 .2.8 1 1.8 1.7 1.5 1.3 1.6 1.2.3-.4S36 56.6 36 57.4"/><g stroke-width="0"><path d="M0 23v19h10.1c6.4 0 9.8-.4 9.4-1-.3-.6-4.4-1-9.1-1H2V6h60v34H50.4c-7.4 0-11.3.4-10.9 1s5.7 1 12.6 1H64V4H0z"/><path d="M4 9.5c0 .8.5 1.5 1 1.5.6 0 1-.7 1-1.5S5.6 8 5 8c-.5 0-1 .7-1 1.5m8 0c0 .8.5 1.5 1 1.5.6 0 1-.7 1-1.5S13.6 8 13 8c-.5 0-1 .7-1 1.5m8.1.1c0 1.1.3 1.4.6.6.3-.7.2-1.6-.1-1.9-.3-.4-.6.2-.5 1.3m6.9-.1c0 .8.5 1.5 1 1.5.6 0 1-.7 1-1.5S28.6 8 28 8c-.5 0-1 .7-1 1.5m8 0c0 .8.5 1.5 1 1.5.6 0 1-.7 1-1.5S36.6 8 36 8c-.5 0-1 .7-1 1.5m8.1.1c0 1.1.3 1.4.6.6.3-.7.2-1.6-.1-1.9-.3-.4-.6.2-.5 1.3m6.9-.1c0 .8.5 1.5 1 1.5.6 0 1-.7 1-1.5S51.6 8 51 8c-.5 0-1 .7-1 1.5m8 0c0 .8.5 1.5 1 1.5.6 0 1-.7 1-1.5S59.6 8 59 8c-.5 0-1 .7-1 1.5M15 26.3c0 4.5.4 5.3 5.7 10.8 4.7 4.9 5.5 6.3 4.7 7.7-.6.9-2 1.9-3 2-3.2.6-7.4 5.3-7.4 8.2 0 3.1 2.8 6 5.6 6 2.4 0 6.5-4.2 8.5-8.5 1.9-4.1 3.9-3.8 6.3.9 1.2 2.2 3.4 4.9 4.9 6 2.6 1.9 3 1.9 5.5.5 3.9-2.1 4.1-6.3.6-10-1.5-1.6-3.5-2.9-4.3-2.9-.9 0-7.3-5.7-14.3-12.7L15 21.5zm28.2 22.6c5.8 2.9 6.1 10.1.5 10.1-2.5 0-6.7-3.7-6.7-5.9 0-.9-4.7-6.3-10.5-12.1C18 32.6 16 30 16 27.7c0-2.7.7-2.2 12 8.3 6.6 6.2 13.4 12 15.2 12.9m-13.3-2.5c.9 1 .8 1.6-.3 2.6-.9.6-1.8 2.2-2.2 3.3-1.9 6.3-9.7 9.2-11 4.1-.5-1.9 0-3.2 2.2-5.5 1.5-1.6 3.5-2.9 4.5-2.9.9 0 2.2-.7 2.9-1.5 1.5-1.9 2.4-1.9 3.9-.1"/><path d="M40 52.9c0 .5.6 1.4 1.4 2 1.6 1.3 3.2-.2 2.1-1.9-.8-1.2-3.5-1.3-3.5-.1m-19.5.1c-1.1 1.7.5 3.2 2.1 1.9.8-.6 1.4-1.5 1.4-2 0-1.2-2.7-1.1-3.5.1M4 36.5c0 .8.5 1.5 1 1.5.6 0 1-.7 1-1.5S5.6 35 5 35c-.5 0-1 .7-1 1.5m8 0c0 .8.5 1.5 1 1.5.6 0 1-.7 1-1.5s-.4-1.5-1-1.5c-.5 0-1 .7-1 1.5m23-.6c0 .6.5 1.3 1 1.6.6.3 1-.1 1-.9 0-.9-.4-1.6-1-1.6-.5 0-1 .4-1 .9m8.1.7c0 1.1.3 1.4.6.6.3-.7.2-1.6-.1-1.9-.3-.4-.6.2-.5 1.3m6.9-.1c0 .8.5 1.5 1 1.5.6 0 1-.7 1-1.5s-.4-1.5-1-1.5c-.5 0-1 .7-1 1.5m8 0c0 .8.5 1.5 1 1.5.6 0 1-.7 1-1.5s-.4-1.5-1-1.5c-.5 0-1 .7-1 1.5"/></g><path fill-opacity=".7" d="M21.1 9.6c0 1.1.3 1.4.6.6.3-.7.2-1.6-.1-1.9-.3-.4-.6.2-.5 1.3m21 0c0 1.1.3 1.4.6.6.3-.7.2-1.6-.1-1.9-.3-.4-.6.2-.5 1.3m0 27c0 1.1.3 1.4.6.6.3-.7.2-1.6-.1-1.9-.3-.4-.6.2-.5 1.3"/><path fill-opacity=".4" d="M17.2 6.7c8.2.2 21.4.2 29.5 0 8.2-.1 1.5-.3-14.7-.3s-22.9.2-14.8.3M6.1 9.6c0 1.1.3 1.4.6.6.3-.7.2-1.6-.1-1.9-.3-.4-.6.2-.5 1.3m5 0c0 1.1.3 1.4.6.6.3-.7.2-1.6-.1-1.9-.3-.4-.6.2-.5 1.3m18 0c0 1.1.3 1.4.6.6.3-.7.2-1.6-.1-1.9-.3-.4-.6.2-.5 1.3m5 0c0 1.1.3 1.4.6.6.3-.7.2-1.6-.1-1.9-.3-.4-.6.2-.5 1.3m18 0c0 1.1.3 1.4.6.6.3-.7.2-1.6-.1-1.9-.3-.4-.6.2-.5 1.3m5 0c0 1.1.3 1.4.6.6.3-.7.2-1.6-.1-1.9-.3-.4-.6.2-.5 1.3M26.5 36C32 41.5 36.7 46 37 46c.2 0-4-4.5-9.5-10S17.3 26 17 26c-.2 0 4 4.5 9.5 10M5 34.7c.5.2 1 1.1 1 1.8s-.5 1.6-1 1.8c-.6.3-.5.4.2.3 1.7-.3 1.7-3.9 0-4.2-.7-.1-.8 0-.2.3m6.4.8c-.7 1.7.3 3.5 1.9 3.4q1.35 0 0-.6c-.7-.2-1.3-1.1-1.3-1.8s.6-1.6 1.3-1.8c.9-.4.9-.6-.1-.6-.7-.1-1.5.6-1.8 1.4m23.1-.4c-1.1 1.6-.1 1.9 1.3.3.7-.8.8-1.4.3-1.4s-1.3.5-1.6 1.1m16.5-.4c.5.2 1 1.1 1 1.8s-.5 1.6-1 1.8c-.6.3-.5.4.2.3.7-.2 1.3-1.1 1.3-2.1s-.6-1.9-1.3-2.1c-.7-.1-.8 0-.2.3m6.4.8c-.7 1.7.3 3.5 1.9 3.4q1.35 0 0-.6c-.7-.2-1.3-1.1-1.3-1.8s.6-1.6 1.3-1.8c.9-.4.9-.6-.1-.6-.7-.1-1.5.6-1.8 1.4M27.9 49.7c-1.3 1.6-1.2 1.7.4.4s2.1-2.1 1.3-2.1c-.2 0-1 .8-1.7 1.7M44.5 51c1 1.1 2 2 2.3 2s-.3-.9-1.3-2-2-2-2.3-2 .3.9 1.3 2"/><path fill-opacity=".5" d="M2.4 23c0 9.1.2 12.8.3 8.2.2-4.5.2-11.9 0-16.5-.1-4.5-.3-.8-.3 8.3m59 0c0 9.1.2 12.8.3 8.2.2-4.5.2-11.9 0-16.5-.1-4.5-.3-.8-.3 8.3M23.5 38c3.3 3.3 6.2 6 6.4 6 .3 0-2.1-2.7-5.4-6s-6.2-6-6.4-6c-.3 0 2.1 2.7 5.4 6m2.4 8.7c-1.3 1.6-1.2 1.7.4.4s2.1-2.1 1.3-2.1c-.2 0-1 .8-1.7 1.7m5.1-1.4c0 .2 1.5 1.6 3.3 3.3l3.2 2.9-2.9-3.3c-2.8-3-3.6-3.7-3.6-2.9m-13.1 6.4c-1.3 1.6-1.2 1.7.4.4.9-.7 1.7-1.5 1.7-1.7 0-.8-.8-.3-2.1 1.3m6 5c-1.3 1.6-1.2 1.7.4.4s2.1-2.1 1.3-2.1c-.2 0-1 .8-1.7 1.7"/><path fill-opacity=".3" d="M39.8 39.1c-1.3.4 3.1.7 9.7.7s11.3-.2 10.5-.4c-3.1-.7-17.9-.9-20.2-.3m-33.1.6c2.4.2 6.2.2 8.5 0 2.4-.2.5-.4-4.2-.4s-6.6.2-4.3.4m28.3.6c0 .2 1.5 1.6 3.3 3.3l3.2 2.9-2.9-3.3c-2.8-3-3.6-3.7-3.6-2.9m2 6.1c0 .2.8 1 1.8 1.7 1.5 1.3 1.6 1.2.3-.4S37 45.6 37 46.4"/><path fill-opacity=".2" d="M25.5 31c4.9 4.9 9.2 9 9.5 9 .2 0-3.6-4.1-8.5-9-4.9-5-9.2-9-9.5-9-.2 0 3.6 4 8.5 9M5.3 42.7c3.2.2 8.1.2 11 0s.3-.3-5.8-.3-8.4.1-5.2.3m40.5 0c3.4.2 9 .2 12.5 0 3.4-.2.6-.3-6.3-.3s-9.7.1-6.2.3m.2 5.7c0 .2.8 1 1.8 1.7 1.5 1.3 1.6 1.2.3-.4S46 47.6 46 48.4"/><path fill-opacity=".8" d="M19.1 9.6c0 1.1.3 1.4.6.6.3-.7.2-1.6-.1-1.9-.3-.4-.6.2-.5 1.3m25 0c0 1.1.3 1.4.6.6.3-.7.2-1.6-.1-1.9-.3-.4-.6.2-.5 1.3M21.5 39c2.1 2.2 4.1 4 4.4 4s-1.3-1.8-3.4-4-4.1-4-4.4-4 1.3 1.8 3.4 4m22.6-2.4c0 1.1.3 1.4.6.6.3-.7.2-1.6-.1-1.9-.3-.4-.6.2-.5 1.3M32 49.4c0 .2.8 1 1.8 1.7 1.5 1.3 1.6 1.2.3-.4S32 48.6 32 49.4m5.5 8.6c1 1.1 2 2 2.3 2s-.3-.9-1.3-2-2-2-2.3-2 .3.9 1.3 2"/><path fill-opacity=".9" d="M22.8 29.1c4 4.1 7 7.7 6.8 8-.3.3 1.9 2.9 4.8 5.8 3 2.9 5.6 4.9 5.9 4.4s-5.1-6.5-12.1-13.4c-7-6.8-9.4-9-5.4-4.8M35.5 42c2.7 2.7 4.7 5 4.4 5s-2.7-2.3-5.4-5c-2.7-2.8-4.7-5-4.4-5s2.7 2.2 5.4 5M14.2 25.5c0 1.6.2 2.2.5 1.2.2-.9.2-2.3 0-3-.3-.6-.5.1-.5 1.8m9.7 20.2c-1.3 1.6-1.2 1.7.4.4s2.1-2.1 1.3-2.1c-.2 0-1 .8-1.7 1.7m4.1-.3c0 .2.8 1 1.8 1.7 1.5 1.3 1.6 1.2.3-.4S28 44.6 28 45.4m-11.1 4.3c-1.3 1.6-1.2 1.7.4.4.9-.7 1.7-1.5 1.7-1.7 0-.8-.8-.3-2.1 1.3m27.7-.9c-.3.6.1 1.5.8 2.1.8.7 1.7.8 2 .3.3-.6-.1-1.5-.8-2.1-.8-.7-1.7-.8-2-.3m-14.7 1.9c-1.3 1.6-1.2 1.7.4.4.9-.7 1.7-1.5 1.7-1.7 0-.8-.8-.3-2.1 1.3m-5 8c-1.3 1.6-1.2 1.7.4.4.9-.7 1.7-1.5 1.7-1.7 0-.8-.8-.3-2.1 1.3m-9.3.5c.3.5 1 .6 1.5.3 1.3-.9 1.1-1.2-.6-1.2-.8 0-1.2.4-.9.9"/><path fill-opacity=".6" d="M16.1 27.6c0 1.1.3 1.4.6.6.3-.7.2-1.6-.1-1.9-.3-.4-.6.2-.5 1.3M38 55.4c0 .2.8 1 1.8 1.7 1.5 1.3 1.6 1.2.3-.4S38 54.6 38 55.4"/></svg>