<svg xmlns="http://www.w3.org/2000/svg" version="1.0" viewBox="0 0 64 64"><g stroke-width="0"><path d="m27.5 12.4-3.9 10.3-6.5.7c-3.6.3-8.7.6-11.3.6-2.7 0-4.8.4-4.8.9 0 .7 8.9 8.4 15.8 13.6 1.1.9.8 2.9-1.7 12-1.7 6-2.9 11.1-2.6 11.3.2.2 4.7-2.4 9.9-5.8l9.6-6.2 9.6 6.2c5.2 3.4 9.7 6 9.9 5.8.3-.2-.9-5.3-2.6-11.3-2.5-9.1-2.8-11.1-1.7-12C54.1 33.3 63 25.6 63 24.9c0-.5-2.1-.9-4.7-.9-2.7 0-7.8-.3-11.4-.6l-6.5-.7-3.9-10.3C34.3 6.7 32.3 2 32 2s-2.3 4.7-4.5 10.4m8.7 2.8 3.5 9.3 9.6.6c5.3.3 9.9.8 10.2 1 .3.3-3 3.4-7.3 6.8l-7.9 6.3 2.7 9.7c1.5 5.3 2.6 9.8 2.4 10s-3.9-2-8.3-4.8S32.6 49 32 49s-4.7 2.3-9.1 5.1-8.1 5-8.3 4.8.9-4.7 2.4-10l2.7-9.7-7.9-6.3c-4.3-3.4-7.6-6.5-7.3-6.8.3-.2 4.9-.7 10.2-1l9.6-.6 3.5-9.3c2-5 3.9-9.2 4.2-9.2.4 0 2.3 4.2 4.2 9.2"/><path d="M31 29.9c0 3.9-.1 4-3.7 4.4l-3.8.4 3.8.1c3.6.2 3.7.3 3.7 4.2 0 2.2.5 4 1 4 .6 0 1-1.8 1-3.9 0-3.9.1-4 3.8-4.4l3.7-.4-3.7-.1C33.1 34 33 33.9 33 30c0-2.2-.4-4-1-4-.5 0-1 1.8-1 3.9"/></g><path fill-opacity=".7" d="M24.8 33.7c1.2.2 3 .2 4 0 .9-.3-.1-.5-2.3-.4-2.2 0-3 .2-1.7.4m11 0c1.2.2 3 .2 4 0 .9-.3-.1-.5-2.3-.4-2.2 0-3 .2-1.7.4"/><path fill-opacity=".9" d="M4.9 27.3c.6.8.7 1.8.3 2.2-.4.5-.1.5.6.1 1-.6 1-1.1.1-2.2-.6-.8-1.4-1.4-1.6-1.4-.3 0 0 .6.6 1.3m53.4-.1c-1.1 1.9-1.3 3.9-.1 3.2.5-.3.7-.9.4-1.2s-.1-1.1.5-1.9c.6-.7.9-1.3.6-1.3s-.9.6-1.4 1.2m-47.9 5.2c.1.8.5 1.8.8 2.2.4.3.5-.1.4-1-.1-.8-.5-1.8-.8-2.2-.4-.3-.5.1-.4 1m42.5-1.2c-.5 1.8-.6 3.8-.1 3.4.7-.8 1.2-3.6.6-3.6-.2 0-.4.1-.5.2m-36.5 6.2c.1.8.5 1.8.8 2.2.4.3.5-.1.4-1-.1-.8-.5-1.8-.8-2.2-.4-.3-.5.1-.4 1m30.5-1.2c-.5 1.8-.6 3.8-.1 3.4.7-.8 1.2-3.6.6-3.6-.2 0-.4.1-.5.2"/><path fill-opacity=".8" d="M24.8 35.7c1.2.2 3 .2 4 0 .9-.3-.1-.5-2.3-.4-2.2 0-3 .2-1.7.4m11 0c1.2.2 3 .2 4 0 .9-.3-.1-.5-2.3-.4-2.2 0-3 .2-1.7.4"/><path fill-opacity=".2" d="M30.3 29.5c0 2.2.2 3 .4 1.7.2-1.2.2-3 0-4-.3-.9-.5.1-.4 2.3m3 0c0 2.2.2 3 .4 1.7.2-1.2.2-3 0-4-.3-.9-.5.1-.4 2.3m-3 10c0 2.2.2 3 .4 1.7.2-1.2.2-3 0-4-.3-.9-.5.1-.4 2.3m3 0c0 2.2.2 3 .4 1.7.2-1.2.2-3 0-4-.3-.9-.5.1-.4 2.3"/></svg>