<svg xmlns="http://www.w3.org/2000/svg" version="1.0" viewBox="0 0 64 64"><path fill-opacity=".5" d="M40.3 40.5c0 .8.4 1.2.9.9s.6-1 .3-1.5c-.9-1.3-1.2-1.1-1.2.6m8.6 18.2-2.4 2.8 2.8-2.4c1.5-1.4 2.7-2.6 2.7-2.8 0-.8-.8-.1-3.1 2.4"/><path fill-opacity=".6" d="M5.3 6.7c.9.2 2.5.2 3.5 0 .9-.3.1-.5-1.8-.5s-2.7.2-1.7.5m10.3.1c-.2.4 1.3.6 3.5.4 2.1-.2 3.9-.6 3.9-.8 0-.7-6.9-.4-7.4.4m14.7-.1c.9.2 2.5.2 3.5 0 .9-.3.1-.5-1.8-.5s-2.7.2-1.7.5M41 6.4c0 .2 1.8.6 3.9.8 2.2.2 3.7 0 3.5-.4-.5-.8-7.4-1.1-7.4-.4m14.3.3c.9.2 2.5.2 3.5 0 .9-.3.1-.5-1.8-.5s-2.7.2-1.7.5m2.1 43.5-2.9 3.3 3.3-2.9c3-2.8 3.7-3.6 2.9-3.6-.2 0-1.6 1.5-3.3 3.2"/><path fill-opacity=".1" d="M5.2 11.5c0 1.6.2 2.2.5 1.2.2-.9.2-2.3 0-3-.3-.6-.5.1-.5 1.8m53 0c0 1.6.2 2.2.5 1.2.2-.9.2-2.3 0-3-.3-.6-.5.1-.5 1.8m-52.9 12c0 2.2.2 3 .4 1.7.2-1.2.2-3 0-4-.3-.9-.5.1-.4 2.3m53 0c0 2.2.2 3 .4 1.7.2-1.2.2-3 0-4-.3-.9-.5.1-.4 2.3m-53 12c0 2.2.2 3 .4 1.7.2-1.2.2-3 0-4-.3-.9-.5.1-.4 2.3m52.8-1.9c0 1.1.3 1.4.6.6.3-.7.2-1.6-.1-1.9-.3-.4-.6.2-.5 1.3M5.2 47.5c0 1.6.2 2.2.5 1.2.2-.9.2-2.3 0-3-.3-.6-.5.1-.5 1.8m50.3 8.7-7 7.3 7.3-7c6.7-6.4 7.7-7.5 6.9-7.5-.1 0-3.4 3.3-7.2 7.2"/><path fill-opacity=".3" d="M58.5 39c2.1 2.2 4.1 4 4.4 4s-1.3-1.8-3.4-4-4.1-4-4.4-4 1.3 1.8 3.4 4M50 48.2c2.4 2.7 4.5 4.8 4.7 4.8.8 0 0-.9-4.4-5l-4.8-4.5zm-2 2c2.4 2.7 4.5 4.8 4.7 4.8.8 0 0-.9-4.4-5l-4.8-4.5zM38.5 59c2.1 2.2 4.1 4 4.4 4s-1.3-1.8-3.4-4-4.1-4-4.4-4 1.3 1.8 3.4 4"/><path d="M3 10.5c0 1.9.5 3.5 1 3.5.6 0 1-1.3 1-2.9 0-2.5.5-3 2.8-3.4 2.2-.3 2-.4-1-.6C3.1 7 3 7.1 3 10.5m14.8-2.8c1.2.2 3 .2 4 0 .9-.3-.1-.5-2.3-.4-2.2 0-3 .2-1.7.4m12.5 0c.9.2 2.5.2 3.5 0 .9-.3.1-.5-1.8-.5s-2.7.2-1.7.5m12.5 0c1.2.2 3 .2 4 0 .9-.3-.1-.5-2.3-.4-2.2 0-3 .2-1.7.4m13.5 0c2.2.4 2.7.9 2.7 3.4 0 1.6.5 2.9 1 2.9.6 0 1-1.6 1-3.5 0-3.4-.1-3.5-3.7-3.4-3.1.2-3.3.3-1 .6M19.6 28.3c-2.1 6.1-4.1 11.8-4.4 12.6-.3.9-.1 1.2.6.8.6-.4 1.3-2.1 1.7-3.8.7-3 .7-3 6.8-2.7 6 .3 6.2.4 7.1 3.5.5 1.8 1.3 3.3 1.7 3.3 1 0-7.5-24.3-8.7-24.7-.5-.2-2.7 4.8-4.8 11m7.3-2.3c3 7.8 2.9 8-2.9 8-2.7 0-5-.2-5-.5 0-.2.8-2.6 1.8-5.2 1.1-2.6 2.2-5.7 2.6-6.7.8-2.4 1-2.2 3.5 4.4M3 23c0 1.6.5 3 1 3 .6 0 1-1.4 1-3 0-1.7-.4-3-1-3-.5 0-1 1.3-1 3m56 0c0 1.6.5 3 1 3 .6 0 1-1.4 1-3 0-1.7-.4-3-1-3-.5 0-1 1.3-1 3m-21 1.9c0 .6 1.6.7 3.5.4 3.6-.6 6.5.9 6.5 3.2 0 .8-1.7 1.6-4 2-6.3 1.1-9.6 7-5.6 9.7.6.4 1.6.8 2.1.8.6-.1.2-.5-.7-1.1-2.5-1.4-2.3-5.6.3-7 1.2-.6 3.7-.9 5.5-.7 3.2.4 3.4.2 3.4-2.7 0-1.7-.5-3.6-1.2-4.3-1.4-1.4-9.8-1.6-9.8-.3M3 35.5c0 1.9.5 3.5 1 3.5.6 0 1-1.6 1-3.5S4.6 32 4 32c-.5 0-1 1.6-1 3.5m56-2.1c0 .8.5 1.8 1 2.1.6.3 1-.3 1-1.4 0-1.2-.4-2.1-1-2.1-.5 0-1 .6-1 1.4m-15.8 9.9C38.7 47.8 35 52 35 52.6 35 54.1 44.4 63 46.1 63 48 63 63 47.9 63 45.9 63 44.3 54 35 52.4 35c-.5 0-4.6 3.7-9.2 8.3m15-2.6c2.1 2 3.8 4.2 3.8 4.7 0 1.4-6.1 7.6-7.5 7.6-.6 0-3.1-2-5.5-4.5L44.6 44l3.4-3.5c1.9-1.9 4.1-3.5 4.9-3.5s3.2 1.7 5.3 3.7m-9.4 8.6c2.3 2.3 4.2 4.7 4.2 5.2 0 1.3-6.2 7.5-7.4 7.5-1.6 0-8.6-7.2-8.6-8.9 0-1.4 5.7-8.1 7-8.1.3 0 2.5 1.9 4.8 4.3M3 48.5c0 3.3.2 3.5 3.5 3.5 1.9 0 3.5-.5 3.5-1 0-.6-1.1-1-2.5-1-2 0-2.5-.5-2.5-2.5 0-1.4-.4-2.5-1-2.5-.5 0-1 1.6-1 3.5M16 51c0 .5 1.6 1 3.5 1s3.5-.5 3.5-1c0-.6-1.6-1-3.5-1s-3.5.4-3.5 1m13 0c0 .5.7 1 1.5 1s1.5-.5 1.5-1c0-.6-.7-1-1.5-1s-1.5.4-1.5 1"/><path fill-opacity=".2" d="M53.4 39.2c-.4.7-.3 1 .1.5.5-.4 2.5.7 4.4 2.5l3.6 3.3-3.4-3.8c-4-4.2-3.7-4.1-4.7-2.5m-21.7 2.9c.7.7 1.5 1 1.8.7s-.2-.9-1.2-1.2c-1.4-.6-1.5-.5-.6.5M41 57.5c1.9 1.9 3.6 3.5 3.9 3.5s-1-1.6-2.9-3.5-3.6-3.5-3.9-3.5 1 1.6 2.9 3.5"/><path fill-opacity=".8" d="M21.8 35.7c1.8.2 4.5.2 6 0s0-.4-3.3-.4-4.5.2-2.7.4m20.7 7.5-7 7.3 7.3-7c3.9-3.8 7.2-7.1 7.2-7.2 0-.8-1.1.2-7.5 6.9M55 55.5c-4.1 4.1-7.2 7.5-6.9 7.5.2 0 3.8-3.4 7.9-7.5s7.2-7.5 6.9-7.5c-.2 0-3.8 3.4-7.9 7.5"/><path fill-opacity=".4" d="M2.2 11c0 1.9.2 2.7.5 1.7.2-.9.2-2.5 0-3.5-.3-.9-.5-.1-.5 1.8m59 0c0 1.9.2 2.7.5 1.7.2-.9.2-2.5 0-3.5-.3-.9-.5-.1-.5 1.8m-59 12c0 1.9.2 2.7.5 1.7.2-.9.2-2.5 0-3.5-.3-.9-.5-.1-.5 1.8m59 0c0 1.9.2 2.7.5 1.7.2-.9.2-2.5 0-3.5-.3-.9-.5-.1-.5 1.8M2.3 35.5c0 2.2.2 3 .4 1.7.2-1.2.2-3 0-4-.3-.9-.5.1-.4 2.3m58.9-1c0 1.6.2 2.2.5 1.2.2-.9.2-2.3 0-3-.3-.6-.5.1-.5 1.8M2.2 48c0 1.9.2 2.7.5 1.7.2-.9.2-2.5 0-3.5-.3-.9-.5-.1-.5 1.8m3.1 4.7c.9.2 2.5.2 3.5 0 .9-.3.1-.5-1.8-.5s-2.7.2-1.7.5m12.5 0c1.2.2 3 .2 4 0 .9-.3-.1-.5-2.3-.4-2.2 0-3 .2-1.7.4m12 0c.7.3 1.6.2 1.9-.1.4-.3-.2-.6-1.3-.5-1.1 0-1.4.3-.6.6"/><path fill-opacity=".9" d="M6.3 8.7c.9.2 2.3.2 3 0 .6-.3-.1-.5-1.8-.5-1.6 0-2.2.2-1.2.5m11.5 0c1.2.2 3 .2 4 0 .9-.3-.1-.5-2.3-.4-2.2 0-3 .2-1.7.4m12.5 0c.9.2 2.5.2 3.5 0 .9-.3.1-.5-1.8-.5s-2.7.2-1.7.5m12.5 0c1.2.2 3 .2 4 0 .9-.3-.1-.5-2.3-.4-2.2 0-3 .2-1.7.4m12.5 0c.9.2 2.3.2 3 0 .6-.3-.1-.5-1.8-.5-1.6 0-2.2.2-1.2.5M37.6 32.9c-.4.5-.2 1.2.3 1.5.5.4 1.2.2 1.5-.3.4-.5.2-1.2-.3-1.5-.5-.4-1.2-.2-1.5.3m16.7 3.5c0 2 7.3 9.1 8 7.9.4-.6-1.3-2.9-3.7-5.2-2.6-2.6-4.3-3.6-4.3-2.7m4.7 4.1c1.9 1.9 3.2 3.5 2.9 3.5s-2-1.6-3.9-3.5-3.2-3.5-2.9-3.5 2 1.6 3.9 3.5m-20.7-1c0 .8.4 1.2.9.9s.6-1 .3-1.5c-.9-1.3-1.2-1.1-1.2.6m6.4 5.2c-.4.6 1.3 2.9 3.7 5.2 2.4 2.4 4.6 3.9 4.9 3.4.4-.6-1.3-2.9-3.7-5.2-2.4-2.4-4.6-3.9-4.9-3.4m4.8 4.3c2.1 2.2 3.7 4 3.4 4s-2.3-1.8-4.4-4-3.7-4-3.4-4 2.3 1.8 4.4 4m-10.4 9.6c2.3 2.4 4.6 4.1 5.2 3.7 1.2-.7-5.9-8-7.9-8-.9 0 .1 1.7 2.7 4.3m1.9-.1c1.9 1.9 3.2 3.5 2.9 3.5s-2-1.6-3.9-3.5-3.2-3.5-2.9-3.5 2 1.6 3.9 3.5"/><path fill-opacity=".7" d="M22.3 33.7c1.5.2 3.7.2 5 0 1.2-.2 0-.4-2.8-.4-2.7 0-3.8.2-2.2.4m26.1 6.5-2.9 3.3 3.3-2.9c1.7-1.7 3.2-3.1 3.2-3.3 0-.8-.8-.1-3.6 2.9m-9 9-2.9 3.3 3.3-2.9c3-2.8 3.7-3.6 2.9-3.6-.2 0-1.6 1.5-3.3 3.2"/></svg>