<svg xmlns="http://www.w3.org/2000/svg" version="1.0" viewBox="0 0 64 64"><path fill-opacity=".8" d="M29.9 46.7c-1.3 1.6-1.2 1.7.4.4s2.1-2.1 1.3-2.1c-.2 0-1 .8-1.7 1.7"/><path fill-opacity=".9" d="M55.6 27.9c-.3.5.1 1.4.8 2 1 .9 1.6.9 2.1.1.4-.6.1-.9-.7-.8-.7.2-1.2-.3-1-1 .2-1.4-.4-1.6-1.2-.3m-37.3 6.6c0 .8.4 1.2.9.9s.6-1 .3-1.5c-.9-1.3-1.2-1.1-1.2.6m32 7c0 .8.4 1.2.9.9s.6-1 .3-1.5c-.9-1.3-1.2-1.1-1.2.6m-39.3 7c1.3 1.4 2.6 2.5 2.8 2.5.3 0-.5-1.1-1.8-2.5S9.4 46 9.2 46c-.3 0 .5 1.1 1.8 2.5m16.5.4c-.3.5-.2 1.2.3 1.5s.9-.1.9-.9c0-1.7-.3-1.9-1.2-.6m15 1.1c.3.5.8 1 1.1 1 .2 0 .4-.5.4-1 0-.6-.5-1-1.1-1-.5 0-.7.4-.4 1m-20 3.9c-.3.5-.2 1.2.3 1.5s.9-.1.9-.9c0-1.7-.3-1.9-1.2-.6m15.7.5c-1.7 2.7-.9 3.6 1.4 1.5 1.3-1.2 2.4-2.3 2.4-2.4 0-.7-3.2.1-3.8.9m7.7 5.2c-1.3 1.4-1.7 2.4-1 2.9 1.1.6 1.3.5 1.5-1.8 0-.6.6-1.2 1.3-1.2s1.7-.5 2.3-1.1c.8-.8.6-1.1-.4-1.1-.9 0-2.5 1-3.7 2.3"/><g stroke-width="0"><path d="M52 11.5C46.7 21.6 46.4 22 43.2 22c-4.8 0-6.9 1.5-9.6 6.8-4.2 8.1-11.6 13.3-21 14.7l-4.8.8 4.8 4.8C19.7 56.3 33.9 63 42.1 63c3.8 0 9.3-6 13.6-15 4.6-9.4 5.3-15.6 2.3-18.8-2.6-2.7-2.5-3.3 2.1-15.8C63.5 3.8 63.5 1 59.8 1c-1.9 0-3.3 1.9-7.8 10.5M61.5 3c.6 1-6 20.6-7.5 22.3-.9 1-6-1.2-6-2.6 0-.5 2.3-5.4 5.2-10.8C58.1 2.6 60 .6 61.5 3M49.2 25.6c7.1 3 9.8 5.5 9.8 9 0 1.9-.5 2.4-2.4 2.4-1.3 0-2.9-.7-3.6-1.5S51.2 34 50.5 34c-1 0-13.2-5.7-14.5-6.7-.7-.7 4-4.3 5.5-4.3.8 0 4.2 1.2 7.7 2.6M47 34.3c8.1 4 10.5 5.6 10.2 6.9-.5 2.8-3.3 2.2-11.2-2.3-.8-.5-2.2-1.2-3-1.5s-1.9-.8-2.5-1c-.5-.2-1.7-.8-2.5-1.3s-2.3-1.2-3.3-1.5c-1.5-.5-1.6-.9-.7-2.6.6-1.1 1.4-2 1.8-2 .4.1 5.4 2.4 11.2 5.3m-5 4.4c3.6 1.7 8.2 3.9 10.3 4.8l3.8 1.6-2.8 5c-1.4 2.7-4.1 6.6-5.8 8.6-2.9 3.3-3.3 3.5-7.3 2.8-2.3-.4-4.4-1-4.7-1.4-.2-.4 1.4-2.5 3.5-4.6 2.2-2.2 4-4.3 4-4.8s-2.1 1.2-4.6 3.7-5.3 4.6-6.2 4.6-3.7-1-6.2-2.1c-4.1-1.9-4.3-2.2-2.6-3.2 5.2-3.3 9.7-6.9 9.2-7.4-.3-.4-1.6.3-2.9 1.4-3.3 3.1-8.6 5.5-10.6 4.8-.9-.3-3.2-2.1-5.1-4-3.4-3.5-3.4-3.5-.9-3.5 3.4 0 13.9-5.2 16.8-8.3 1.6-1.8 2.9-2.4 4-1.8.9.4 4.5 2.1 8.1 3.8M2.2 12.2c-.7.7-1.2 2.1-1.2 3.3 0 4.6 4.8 6 7.4 2.3 2-2.8 2-3.3 0-5.2-1.8-1.9-4.5-2.1-6.2-.4m4.6.7c2.1 1.3 1 4.6-1.6 4.9-2.7.4-4-2.2-2.2-4.3 1.4-1.7 2-1.8 3.8-.6m8.2 3.5c0 .8.4 1.7.9 2 1.1.7 3.3-1.8 2.4-2.7-1.2-1.2-3.3-.7-3.3.7"/><path d="M10 26c-1.1 1.1-2 2.9-2 3.9 0 2.4 2.9 5.7 5.6 6.5 3 .9 7.4-2.8 7.4-6.3 0-5.6-7-8.1-11-4.1m8.5 1c2.4 2.7 1.3 6.8-2.2 7.6-3.4.9-5.7-.6-6.1-4-.6-5.3 4.7-7.6 8.3-3.6"/></g><path fill-opacity=".6" d="M40.8 21.7c.7.3 1.6.2 1.9-.1.4-.3-.2-.6-1.3-.5-1.1 0-1.4.3-.6.6M12 46.4c0 .2.8 1 1.8 1.7 1.5 1.3 1.6 1.2.3-.4S12 45.6 12 46.4m18.9 2.3c-1.3 1.6-1.2 1.7.4.4s2.1-2.1 1.3-2.1c-.2 0-1 .8-1.7 1.7"/><path fill-opacity=".7" d="M27.9 35.7c-1.3 1.6-1.2 1.7.4.4.9-.7 1.7-1.5 1.7-1.7 0-.8-.8-.3-2.1 1.3"/><path fill-opacity=".3" d="M36.9 54.7c-1.3 1.6-1.2 1.7.4.4s2.1-2.1 1.3-2.1c-.2 0-1 .8-1.7 1.7"/><path fill-opacity=".1" d="M28.9 46.7c-1.3 1.6-1.2 1.7.4.4.9-.7 1.7-1.5 1.7-1.7 0-.8-.8-.3-2.1 1.3m14.3 2.7c.7.8 1.5 1.2 1.7 1.1.5-.6-1-2.5-2-2.5-.5 0-.4.6.3 1.4"/><path fill-opacity=".2" d="M10 48.4c0 .2.8 1 1.8 1.7 1.5 1.3 1.6 1.2.3-.4S10 47.6 10 48.4"/></svg>