<svg xmlns="http://www.w3.org/2000/svg" version="1.0" viewBox="0 0 64 64"><path fill-opacity=".8" d="M5.4 6.4c-.3.7-.3 4-.1 7.2l.3 5.9.2-6.7.2-6.7 6.8-.4 6.7-.3-6.8-.2c-4.9-.1-6.9.2-7.3 1.2m46.3-.7 6.2.4.4 6.7.4 6.7-.1-7-.1-7-6.5-.1h-6.5zM5.4 52l.1 6.5 6.5.1h6.5l-6.2-.3-6.2-.4-.4-6.2-.3-6.2zm52.8-.8-.2 6.7-6.7.4-6.8.3 6.8.2c7.9.2 8 .1 7.4-8.4l-.3-5.9z"/><path fill-opacity=".1" d="M29.8 35.7c1.2.2 3.2.2 4.5 0 1.2-.2.2-.4-2.3-.4s-3.5.2-2.2.4"/><path d="m6.2 12.7.2 6.8.3-6.2.4-6.2 6.2-.4 6.2-.3-6.7-.2L6 6zm44.5-6 6.2.4.4 6.2.3 6.2.2-6.8L58 6l-6.7.2-6.8.2zM30 23.2c-3.6 10-6.9 20.2-6.6 20.5.2.2.9-1 1.6-2.7 1.2-2.8 1.5-3 7-3s5.8.2 7 3c2.7 6.5 1.8 1.9-1.4-7.6-5.3-15.5-5.5-15.8-7.6-10.2m4.4 4.5c1 3.2 2.1 6.4 2.3 7 .4 1-.9 1.3-4.7 1.3s-5.1-.3-4.7-1.3c.2-.6 1.3-3.8 2.3-7 1-3.1 2.1-5.7 2.4-5.7s1.4 2.6 2.4 5.7M6.2 51.2 6 58l6.8-.2 6.7-.2-6.2-.3-6.2-.4-.4-6.2-.3-6.2zM57 51v5.9l-6.2.4-6.3.3 6.8.2 6.7.2v-6.5c0-3.6-.2-6.5-.5-6.5s-.5 2.7-.5 6"/><path fill-opacity=".6" d="M7.4 8.4c-.3.7-.3 3.5-.1 6.2l.3 4.9.2-5.7.2-5.7 5.8-.4 5.7-.3-5.8-.2c-4.1-.1-5.9.2-6.3 1.2m43-.7 5.5.4.4 5.5.4 5.4-.1-5.7-.1-5.8-5.8-.1-5.7-.1zm-43 43 .1 5.8 5.8.1 5.7.1-5.4-.4-5.5-.4-.4-5.5-.4-5.4zm48.8-.5-.2 5.7-5.7.4-5.8.3 5.8.2c6.6.2 7-.2 6.4-7.4l-.3-4.9z"/><path fill-opacity=".9" d="M31 22.4c.7.7 1.3.7 2 0 .6-.6.3-1-1-1s-1.6.4-1 1"/><path fill-opacity=".4" d="M29.3 38.7c1.5.2 3.9.2 5.5 0 1.5-.2.2-.4-2.8-.4s-4.3.2-2.7.4"/></svg>