<svg xmlns="http://www.w3.org/2000/svg" version="1.0" viewBox="0 0 80 80"><path fill-opacity=".9" d="M38.8 24.7c.6.2 1.8.2 2.5 0 .6-.3.1-.5-1.3-.5s-1.9.2-1.2.5M24.2 40c0 1.4.2 1.9.5 1.2.2-.6.2-1.8 0-2.5-.3-.6-.5-.1-.5 1.3m31 0c0 1.4.2 1.9.5 1.2.2-.6.2-1.8 0-2.5-.3-.6-.5-.1-.5 1.3M38.8 55.7c.6.2 1.8.2 2.5 0 .6-.3.1-.5-1.3-.5s-1.9.2-1.2.5"/><path fill-opacity=".1" d="M27.9 28.7c-1.3 1.6-1.2 1.7.4.4.9-.7 1.7-1.5 1.7-1.7 0-.8-.8-.3-2.1 1.3"/><path d="M32.2 27c-13 7.9-7.4 28 7.8 28 8.5 0 15-6.5 15-15 0-11.6-12.9-19-22.8-13"/><path fill-opacity=".8" d="M50 28.4c0 .2.8 1 1.8 1.7 1.5 1.3 1.6 1.2.3-.4S50 27.6 50 28.4"/></svg>