<svg xmlns="http://www.w3.org/2000/svg" version="1.0" viewBox="0 0 64 64"><path fill-opacity=".1" d="M44.7 35.7c1.8.2 5 .2 7 0 2.1-.2.7-.4-3.2-.4-3.8 0-5.5.2-3.8.4"/><path fill-opacity=".4" d="M45.8 38.7c1.8.2 4.5.2 6 0s0-.4-3.3-.4-4.5.2-2.7.4"/><path fill-opacity=".7" d="M14.8 24.7c.7.3 1.6.2 1.9-.1.4-.3-.2-.6-1.3-.5-1.1 0-1.4.3-.6.6"/><path fill-opacity=".9" d="M40.2 15.2 40 24l8.8-.2 8.7-.2-8.2-.3-8.2-.4-.4-8.2-.3-8.2zm-18.3 6.2c0 .1-.2.9-.4 1.9-.3 1.8-.3 1.8 1.6.1 1-.9 1.9-1.8 1.9-1.9 0-.2-2.9-.3-3.1-.1m17.4 29.1c0 .8.4 1.2.9.9s.6-1 .3-1.5c-.9-1.3-1.2-1.1-1.2.6m16.2.4c-.3.5-.2 1.2.3 1.5s.9-.1.9-.9c0-1.7-.3-1.9-1.2-.6m-12 3c-.3.5-.2 1.2.3 1.5s.9-.1.9-.9c0-1.7-.3-1.9-1.2-.6m7.8 1.6c0 .8.4 1.2.9.9s.6-1 .3-1.5c-.9-1.3-1.2-1.1-1.2.6m-40 .2c2.6.2 6.7.2 9 0s.2-.3-4.8-.3-6.8.1-4.2.3"/><path d="M11 5.8c-4.9 2.4-7.6 8-6 12.7 1.5 4.4 5.7 7.5 10.5 7.5 2.9 0 4.5-.8 7.1-3.4 5.8-5.8 4.2-14.1-3.2-17.2-4.2-1.8-4.2-1.8-8.4.4M21.3 8c5.1 4.1 4.3 12.6-1.6 15.6-3.9 2.1-9 1.1-11.7-2.3-6.7-8.6 4.7-20 13.3-13.3M39 15.5V25h19V6H39zm18 0V24H40V7h17zM41.8 36.7c-1 1.8-4.1 13.3-3.7 13.6.2.1 2.5 1.9 5.1 4 2.5 2 4.9 3.7 5.3 3.7.3 0 3-1.8 6-4.1l5.3-4-2.2-6.7-2.3-6.7-6.6-.3c-3.6-.2-6.7.1-6.9.5m14.6 7 1.6 5.8-3.2 2.7c-5 4.2-6.3 4.3-11.2.8l-4.4-3.2 1.5-5.2c.8-2.8 1.7-5.4 2-5.9.2-.4 3-.7 6.2-.7h5.8zm-42.8-3.5c-.7 1.3-3.2 5.4-5.4 9.3l-4 7 10.5.3c5.8.1 10.8.1 11-.2.5-.5-9.5-18.6-10.3-18.6-.2 0-1 1-1.8 2.2m6.6 7.9c2.1 3.5 3.8 6.7 3.8 7.1 0 .5-3.8.8-8.5.8S7 55.6 7 55.1c0-1.8 7.5-14.1 8.5-13.8.5.2 2.7 3.3 4.7 6.8"/><path fill-opacity=".6" d="M38.4 15.5c0 4.9.1 7.1.3 4.8s.2-6.4 0-9-.3-.8-.3 4.2m10.1-7.8 7.4.4.4 7.4.3 7.5v-7.7l-.1-7.8-7.8-.1H41zm-4.2 18c2.6.2 6.7.2 9 0s.2-.3-4.8-.3c-4.9 0-6.8.1-4.2.3m-34.5 32c2.8.2 7.6.2 10.5 0 2.8-.2.5-.3-5.3-.3s-8.1.1-5.2.3"/><path fill-opacity=".8" d="m48.5 5.7 9.4.4.4 9.2.3 9.2V15l-.1-9.5-9.8-.1H39zm-41.6 2c-1.3 1.6-1.2 1.7.4.4C8.2 7.4 9 6.6 9 6.4c0-.8-.8-.3-2.1 1.3"/></svg>