<?xml version="1.0" encoding="us-ascii" standalone="no"?><svg xmlns="http://www.w3.org/2000/svg" xmlns:xlink="http://www.w3.org/1999/xlink" contentStyleType="text/css" height="418px" preserveAspectRatio="none" style="width:585px;height:418px;background:#FFFFFF;" version="1.1" viewBox="0 0 585 418" width="585px" zoomAndPan="magnify"><defs/><g><text fill="#000000" font-family="sans-serif" font-size="14" font-weight="bold" lengthAdjust="spacing" textLength="140" x="221" y="35.1074">&#40736;&#26631;&#31359;&#36879;&#25191;&#34892;&#26426;&#21046;&#27969;&#31243;</text><ellipse cx="337.75" cy="59.6211" fill="#222222" rx="10" ry="10" style="stroke:#222222;stroke-width:1.0;"/><rect fill="#F1F1F1" height="35.9609" rx="12.5" ry="12.5" style="stroke:#181818;stroke-width:0.5;" width="44" x="315.75" y="89.6211"/><text fill="#000000" font-family="sans-serif" font-size="12" lengthAdjust="spacing" textLength="24" x="325.75" y="112.5703">&#24320;&#22987;</text><polygon fill="#F1F1F1" points="268.75,145.582,406.75,145.582,418.75,157.582,406.75,169.582,268.75,169.582,256.75,157.582,268.75,145.582" style="stroke:#181818;stroke-width:0.5;"/><text fill="#000000" font-family="sans-serif" font-size="11" lengthAdjust="spacing" textLength="138" x="268.75" y="162.1367">&#24403;&#21069;&#40736;&#26631;&#26159;&#21542;&#22312;&#36148;&#22270;&#31383;&#21475;&#20869;?</text><text fill="#000000" font-family="sans-serif" font-size="11" lengthAdjust="spacing" textLength="11" x="245.75" y="154.8213">&#26159;</text><text fill="#000000" font-family="sans-serif" font-size="11" lengthAdjust="spacing" textLength="11" x="418.75" y="154.8213">&#21542;</text><polygon fill="#F1F1F1" points="115,179.582,264,179.582,276,191.582,264,203.582,115,203.582,103,191.582,115,179.582" style="stroke:#181818;stroke-width:0.5;"/><text fill="#000000" font-family="sans-serif" font-size="11" lengthAdjust="spacing" textLength="149" x="115" y="196.1367">&#21028;&#26029;&#24403;&#21069;&#36148;&#22270;&#31383;&#21475;&#26159;&#21542;&#24050;&#31359;&#36879;?</text><text fill="#000000" font-family="sans-serif" font-size="11" lengthAdjust="spacing" textLength="33" x="70" y="188.8213">&#24050;&#31359;&#36879;</text><text fill="#000000" font-family="sans-serif" font-size="11" lengthAdjust="spacing" textLength="33" x="276" y="188.8213">&#26410;&#31359;&#36879;</text><rect fill="#F1F1F1" height="35.9609" rx="12.5" ry="12.5" style="stroke:#181818;stroke-width:0.5;" width="164" x="11" y="213.582"/><text fill="#000000" font-family="sans-serif" font-size="12" lengthAdjust="spacing" textLength="144" x="21" y="236.5313">&#21462;&#28040;&#35813;&#36148;&#22270;&#31383;&#21475;&#30340;&#31359;&#36879;&#29366;&#24577;</text><rect fill="#F1F1F1" height="35.9609" rx="12.5" ry="12.5" style="stroke:#181818;stroke-width:0.5;" width="164" x="204" y="213.582"/><text fill="#000000" font-family="sans-serif" font-size="12" lengthAdjust="spacing" textLength="144" x="214" y="236.5313">&#35774;&#32622;&#35813;&#36148;&#22270;&#31383;&#21475;&#20026;&#31359;&#36879;&#29366;&#24577;</text><polygon fill="#F1F1F1" points="189.5,255.543,201.5,267.543,189.5,279.543,177.5,267.543,189.5,255.543" style="stroke:#181818;stroke-width:0.5;"/><rect fill="#F1F1F1" height="35.9609" rx="12.5" ry="12.5" style="stroke:#181818;stroke-width:0.5;" width="176" x="398" y="179.582"/><text fill="#000000" font-family="sans-serif" font-size="12" lengthAdjust="spacing" textLength="156" x="408" y="202.5313">&#21462;&#28040;&#25152;&#26377;&#36148;&#22270;&#31383;&#21475;&#30340;&#31359;&#36879;&#29366;&#24577;</text><polygon fill="#F1F1F1" points="337.75,285.543,349.75,297.543,337.75,309.543,325.75,297.543,337.75,285.543" style="stroke:#181818;stroke-width:0.5;"/><rect fill="#F1F1F1" height="35.9609" rx="12.5" ry="12.5" style="stroke:#181818;stroke-width:0.5;" width="44" x="315.75" y="329.543"/><text fill="#000000" font-family="sans-serif" font-size="12" lengthAdjust="spacing" textLength="24" x="325.75" y="352.4922">&#32467;&#26463;</text><ellipse cx="337.75" cy="396.5039" fill="none" rx="11" ry="11" style="stroke:#222222;stroke-width:1.0;"/><ellipse cx="337.75" cy="396.5039" fill="#222222" rx="6" ry="6" style="stroke:#222222;stroke-width:1.0;"/><line style="stroke:#181818;stroke-width:1.0;" x1="337.75" x2="337.75" y1="69.6211" y2="89.6211"/><polygon fill="#181818" points="333.75,79.6211,337.75,89.6211,341.75,79.6211,337.75,83.6211" style="stroke:#181818;stroke-width:1.0;"/><line style="stroke:#181818;stroke-width:1.0;" x1="103" x2="93" y1="191.582" y2="191.582"/><line style="stroke:#181818;stroke-width:1.0;" x1="93" x2="93" y1="191.582" y2="213.582"/><polygon fill="#181818" points="89,203.582,93,213.582,97,203.582,93,207.582" style="stroke:#181818;stroke-width:1.0;"/><line style="stroke:#181818;stroke-width:1.0;" x1="276" x2="286" y1="191.582" y2="191.582"/><line style="stroke:#181818;stroke-width:1.0;" x1="286" x2="286" y1="191.582" y2="213.582"/><polygon fill="#181818" points="282,203.582,286,213.582,290,203.582,286,207.582" style="stroke:#181818;stroke-width:1.0;"/><line style="stroke:#181818;stroke-width:1.0;" x1="93" x2="93" y1="249.543" y2="267.543"/><line style="stroke:#181818;stroke-width:1.0;" x1="93" x2="177.5" y1="267.543" y2="267.543"/><polygon fill="#181818" points="167.5,263.543,177.5,267.543,167.5,271.543,171.5,267.543" style="stroke:#181818;stroke-width:1.0;"/><line style="stroke:#181818;stroke-width:1.0;" x1="286" x2="286" y1="249.543" y2="267.543"/><line style="stroke:#181818;stroke-width:1.0;" x1="286" x2="201.5" y1="267.543" y2="267.543"/><polygon fill="#181818" points="211.5,263.543,201.5,267.543,211.5,271.543,207.5,267.543" style="stroke:#181818;stroke-width:1.0;"/><line style="stroke:#181818;stroke-width:1.0;" x1="256.75" x2="189.5" y1="157.582" y2="157.582"/><line style="stroke:#181818;stroke-width:1.0;" x1="189.5" x2="189.5" y1="157.582" y2="179.582"/><polygon fill="#181818" points="185.5,169.582,189.5,179.582,193.5,169.582,189.5,173.582" style="stroke:#181818;stroke-width:1.0;"/><line style="stroke:#181818;stroke-width:1.0;" x1="418.75" x2="486" y1="157.582" y2="157.582"/><line style="stroke:#181818;stroke-width:1.0;" x1="486" x2="486" y1="157.582" y2="179.582"/><polygon fill="#181818" points="482,169.582,486,179.582,490,169.582,486,173.582" style="stroke:#181818;stroke-width:1.0;"/><line style="stroke:#181818;stroke-width:1.0;" x1="189.5" x2="189.5" y1="279.543" y2="297.543"/><line style="stroke:#181818;stroke-width:1.0;" x1="189.5" x2="325.75" y1="297.543" y2="297.543"/><polygon fill="#181818" points="315.75,293.543,325.75,297.543,315.75,301.543,319.75,297.543" style="stroke:#181818;stroke-width:1.0;"/><line style="stroke:#181818;stroke-width:1.0;" x1="486" x2="486" y1="215.543" y2="297.543"/><line style="stroke:#181818;stroke-width:1.0;" x1="486" x2="349.75" y1="297.543" y2="297.543"/><polygon fill="#181818" points="359.75,293.543,349.75,297.543,359.75,301.543,355.75,297.543" style="stroke:#181818;stroke-width:1.0;"/><line style="stroke:#181818;stroke-width:1.0;" x1="337.75" x2="337.75" y1="125.582" y2="145.582"/><polygon fill="#181818" points="333.75,135.582,337.75,145.582,341.75,135.582,337.75,139.582" style="stroke:#181818;stroke-width:1.0;"/><line style="stroke:#181818;stroke-width:1.0;" x1="337.75" x2="337.75" y1="309.543" y2="329.543"/><polygon fill="#181818" points="333.75,319.543,337.75,329.543,341.75,319.543,337.75,323.543" style="stroke:#181818;stroke-width:1.0;"/><line style="stroke:#181818;stroke-width:1.0;" x1="337.75" x2="337.75" y1="365.5039" y2="385.5039"/><polygon fill="#181818" points="333.75,375.5039,337.75,385.5039,341.75,375.5039,337.75,379.5039" style="stroke:#181818;stroke-width:1.0;"/><!--SRC=[VP1TQi90483VvnJxg5T87ZnBmOW1KJ5xW0Ys9luGGR2YAIhr7wfGR2mQxMKwi_4MNTnOWfJEspBpVNmiDtd1O9TmJEEwM7rTR8_SHJHfaNz09w2FgbWs0Ip-KE6WOMZZega3c3cMmbCNtROYgR_5pXpzPRJRuV0iri_elUBJOoRDJ8kbv3hDUDue0fDpXPqfzTwK8id4elsxQedvttV2mfY6Ney29zhEaWOngAbRqGZ8hkhNOwDW6JB3NyUQco7QdCLfSsVu_ZpyOIXcpHmeZonKXhY0N9jyzzy8XOCcZbrw6UdoGqjb-040]--></g></svg>