<svg xmlns="http://www.w3.org/2000/svg" xmlns:xlink="http://www.w3.org/1999/xlink" contentStyleType="text/css" height="298px" preserveAspectRatio="none" style="width:1077px;height:298px;background:#FFFFFF;" version="1.1" viewBox="0 0 1077 298" width="1077px" zoomAndPan="magnify"><defs/><g><!--cluster PainterInterface--><g id="cluster_PainterInterface"><rect fill="none" height="113.3" rx="2.5" ry="2.5" style="stroke:#181818;stroke-width:1.0;" width="267" x="804" y="179.29"/><path d="M941,179.29 L941,188.5869 L931,198.5869 L804,198.5869 " fill="none" style="stroke:#181818;stroke-width:1.0;"/><text fill="#000000" font-family="sans-serif" font-size="14" font-weight="bold" lengthAdjust="spacing" textLength="127" x="807" y="193.2851">PainterInterface</text></g><!--cluster MainWindow--><g id="cluster_MainWindow"><rect fill="none" height="277.59" rx="2.5" ry="2.5" style="stroke:#181818;stroke-width:1.0;" width="765" x="7" y="7"/><path d="M116,7 L116,16.2969 L106,26.2969 L7,26.2969 " fill="none" style="stroke:#181818;stroke-width:1.0;"/><text fill="#000000" font-family="sans-serif" font-size="14" font-weight="bold" lengthAdjust="spacing" textLength="99" x="10" y="20.9951">MainWindow</text></g><!--cluster PinWindowManager--><g id="cluster_PinWindowManager"><rect fill="none" height="97.29" rx="2.5" ry="2.5" style="stroke:#181818;stroke-width:1.0;" width="188" x="163" y="50"/><rect fill="none" height="10" style="stroke:#181818;stroke-width:1.0;" width="15" x="331" y="55"/><rect fill="none" height="2" style="stroke:#181818;stroke-width:1.0;" width="4" x="329" y="57"/><rect fill="none" height="2" style="stroke:#181818;stroke-width:1.0;" width="4" x="329" y="61"/><text fill="#000000" font-family="sans-serif" font-size="14" font-weight="bold" lengthAdjust="spacing" textLength="155" x="179.5" y="75.9951">PinWindowManager</text></g><!--entity PainterToolbarManager--><g id="elem_PainterToolbarManager"><rect fill="#F1F1F1" height="46.2969" rx="2.5" ry="2.5" style="stroke:#181818;stroke-width:0.5;" width="200" x="828" y="222.29"/><rect fill="#F1F1F1" height="10" style="stroke:#181818;stroke-width:0.5;" width="15" x="1008" y="227.29"/><rect fill="#F1F1F1" height="2" style="stroke:#181818;stroke-width:0.5;" width="4" x="1006" y="229.29"/><rect fill="#F1F1F1" height="2" style="stroke:#181818;stroke-width:0.5;" width="4" x="1006" y="233.29"/><text fill="#000000" font-family="sans-serif" font-size="14" lengthAdjust="spacing" textLength="160" x="843" y="255.2851">PainterToolbarManager</text></g><!--entity KeyboardEx--><g id="elem_KeyboardEx"><rect fill="#F1F1F1" height="46.2969" rx="2.5" ry="2.5" style="stroke:#181818;stroke-width:0.5;" width="121" x="23.5" y="85"/><rect fill="#F1F1F1" height="10" style="stroke:#181818;stroke-width:0.5;" width="15" x="124.5" y="90"/><rect fill="#F1F1F1" height="2" style="stroke:#181818;stroke-width:0.5;" width="4" x="122.5" y="92"/><rect fill="#F1F1F1" height="2" style="stroke:#181818;stroke-width:0.5;" width="4" x="122.5" y="96"/><text fill="#000000" font-family="sans-serif" font-size="14" lengthAdjust="spacing" textLength="81" x="38.5" y="117.9951">KeyboardEx</text></g><!--entity ScreenShotWindow--><g id="elem_ScreenShotWindow"><rect fill="#F1F1F1" height="46.2969" rx="2.5" ry="2.5" style="stroke:#181818;stroke-width:0.5;" width="175" x="369.5" y="85"/><path d="M427.8333,85 L427.8333,90 L420.8333,97 L369.5,97 " fill="none" style="stroke:#181818;stroke-width:0.5;"/><text fill="#000000" font-family="sans-serif" font-size="14" lengthAdjust="spacing" textLength="135" x="384.5" y="117.9951">ScreenShotWindow</text></g><!--entity ScreenPaintWindow--><g id="elem_ScreenPaintWindow"><rect fill="#F1F1F1" height="46.2969" rx="2.5" ry="2.5" style="stroke:#181818;stroke-width:0.5;" width="177" x="579.5" y="85"/><path d="M638.5,85 L638.5,90 L631.5,97 L579.5,97 " fill="none" style="stroke:#181818;stroke-width:0.5;"/><text fill="#000000" font-family="sans-serif" font-size="14" lengthAdjust="spacing" textLength="137" x="594.5" y="117.9951">ScreenPaintWindow</text></g><!--entity SettingWindow--><g id="elem_SettingWindow"><rect fill="#F1F1F1" height="46.2969" rx="2.5" ry="2.5" style="stroke:#181818;stroke-width:0.5;" width="143" x="22.5" y="222.29"/><path d="M70.1667,222.29 L70.1667,227.29 L63.1667,234.29 L22.5,234.29 " fill="none" style="stroke:#181818;stroke-width:0.5;"/><text fill="#000000" font-family="sans-serif" font-size="14" lengthAdjust="spacing" textLength="103" x="37.5" y="255.2851">SettingWindow</text></g><!--entity PinEditorWindow--><g id="elem_PinEditorWindow"><rect fill="#F1F1F1" height="46.2969" rx="2.5" ry="2.5" style="stroke:#181818;stroke-width:0.5;" width="155" x="179.5" y="85"/><path d="M231.1667,85 L231.1667,90 L224.1667,97 L179.5,97 " fill="none" style="stroke:#181818;stroke-width:0.5;"/><text fill="#000000" font-family="sans-serif" font-size="14" lengthAdjust="spacing" textLength="115" x="194.5" y="117.9951">PinEditorWindow</text></g><!--reverse link ScreenPaintWindow to PainterInterface--><g id="link_ScreenPaintWindow_PainterInterface"><path d="M762.696,110.9096 C860.436,114.4896 1003.22,125.92 1044,163.29 C1047.3063,166.3212 1050.0903,169.8083 1052.4302,173.5963 C1053.0151,174.5433 1053.5723,175.5091 1054.103,176.4913 C1054.3683,176.9824 1054.627,177.4776 1054.8792,177.9766 C1055.0053,178.2261 1055.1298,178.4765 1055.2527,178.7279 C1055.3142,178.8535 1055.3752,178.9794 1055.4358,179.1056 " fill="none" id="ScreenPaintWindow-backto-PainterInterface" style="stroke:#181818;stroke-width:1.0;"/><polygon fill="#181818" points="756.7,110.69,765.5476,115.0167,761.6966,110.873,765.8404,107.0221,756.7,110.69" style="stroke:#181818;stroke-width:1.0;"/></g><!--reverse link PinEditorWindow to PainterInterface--><g id="link_PinEditorWindow_PainterInterface"><path d="M293.5613,134.9706 C308.1813,144.1506 321.17,150.51 339,155.29 C357.92,160.37 1028.72,151.04 1044,163.29 C1047.4988,166.0975 1050.4288,169.415 1052.8764,173.0778 C1054.1003,174.9092 1055.2036,176.827 1056.1971,178.8104 C1056.2592,178.9344 1056.3208,179.0586 1056.3821,179.1831 " fill="none" id="PinEditorWindow-backto-PainterInterface" style="stroke:#181818;stroke-width:1.0;"/><polygon fill="#181818" points="288.48,131.78,293.9749,139.9535,292.7144,134.4388,298.2291,133.1784,288.48,131.78" style="stroke:#181818;stroke-width:1.0;"/></g><!--SRC=[RP1D2i8m44RtEKKkq1kuxKAa85HmFKqcDM1dP1XGaTxTz0z3OnPPv7sF-IP1O41xXaYASfok00u_ngRZU7Wm8Ud6Bypt3gG1WXx5ZCQ4MMyIlaRo_BHxyuJlZa5y_Ph1ac-T859xOrsi0itpIeQgaVhiFMkuDLZBhKL-SWhKFYfBfe_J2iL4UwYguaVCplyR-W80]--></g></svg>