<?xml version="1.0" standalone="no"?><!DOCTYPE svg PUBLIC "-//W3C//DTD SVG 1.1//EN" "http://www.w3.org/Graphics/SVG/1.1/DTD/svg11.dtd"><svg t="1733050866282" class="icon" viewBox="0 0 1034 1024" version="1.1" xmlns="http://www.w3.org/2000/svg" p-id="6168" xmlns:xlink="http://www.w3.org/1999/xlink" width="201.953125" height="200"><path d="M17.242198 318.689442a15.890361 15.890361 0 0 1-15.892918-15.892918V93.465188c0.06393-51.246029 41.605434-92.787534 92.851464-92.851463h209.331335c8.771152 0 15.880132 7.10898 15.880132 15.892918s-7.10898 15.892918-15.880132 15.892917H94.21353c-33.678154 0-61.078414 27.40026-61.078414 61.078414v209.331336c0 8.771152-7.121766 15.880132-15.892918 15.880132z m990.37299 0a15.890361 15.890361 0 0 1-15.892918-15.892918V93.465188c0-33.678154-27.40026-61.078414-61.078414-61.078413H721.312521c-8.771152 0-15.892918-7.10898-15.892918-15.892918 0-8.771152 7.121766-15.892918 15.892918-15.892918h209.331335c51.258815 0.06393 92.80032 41.605434 92.86425 92.851463v209.331336c0 4.219359-1.674958 8.259714-4.654081 11.238837a15.848167 15.848167 0 0 1-11.238837 4.666867z m-76.971332 704.083108H721.312521c-8.771152 0-15.892918-7.121766-15.892918-15.892918s7.121766-15.892918 15.892918-15.892917h209.331335c33.69094 0 61.078414-27.489761 61.078414-61.334133V720.321247c0-8.771152 7.10898-15.892918 15.892918-15.892918 8.771152 0 15.892918 7.121766 15.892918 15.892918v209.331335c0 51.335531-41.528718 92.979323-92.86425 93.119968z m-627.098991 0H94.21353c-51.322745-0.140645-92.851463-41.784437-92.851464-93.119968V720.321247c0-8.771152 7.10898-15.892918 15.892918-15.892918s15.892918 7.121766 15.892918 15.892918v209.331335c0 33.818799 27.40026 61.334132 61.078414 61.334133h209.331335c8.771152 0 15.880132 7.10898 15.880132 15.892917s-7.121766 15.892918-15.892918 15.892918z m0 0" fill="#333333" p-id="6169"></path><path d="M172.731959 643.733493h679.380682v31.29997H172.731959z" fill="#333333" p-id="6170"></path><path d="M578.659839 542.865248c-10.522825 8.042353-23.960843 12.069923-40.262911 12.069923-24.753571 0-43.024673-7.748277-54.813305-23.232044-11.162122-14.678254-16.749575-35.212466-16.749576-61.653781 0-25.993807 5.689741-46.33623 17.030866-61.014484 11.980422-16.302068 29.931875-24.47228 53.905504-24.472281 16.110279 0 29.292578 3.528918 39.623614 10.522825 10.522825 7.019479 17.644591 18.079313 21.39087 33.141145h32.834283c-3.528918-22.503246-13.310159-40.262911-29.433224-53.266207-16.519429-13.412446-37.782439-20.150634-63.814604-20.150635-35.314754 0-62.165218 11.660773-80.525821 34.995106-16.532215 20.431925-24.753571 47.192888-24.753572 80.206173 0 33.652582 7.940066 60.285686 23.832984 79.924883 18.373389 23.142543 45.607432 34.701029 81.766058 34.701028 23.922485 0 44.392768-6.802118 61.334132-20.431924 18.168814-14.422535 29.714514-34.57317 34.701029-60.375188h-32.834282c-4.321646 17.3633-12.108281 30.366597-23.232045 39.035461z m260.462291 4.960943l-3.720707-35.301968c-2.480471-21.672161-13.540306-34.701029-33.153931-39.022675v-0.639296a48.957347 48.957347 0 0 0 28.793927-19.511338c6.201179-9.129158 9.448806-19.946059 9.282589-30.980322 0-20.853861-6.802118-36.861852-20.431925-48.011187-12.811507-10.113675-30.571172-15.164119-53.266207-15.16412h-97.850764v221.119968h33.742084V488.934172h59.774248c12.811507 0 22.503246 2.697832 29.113575 8.042354 6.610329 5.779243 10.522825 14.652682 11.763061 26.633103l2.80012 27.553691c1.240236 12.811507 4.449506 22.503246 9.589451 29.113575h36.55499c-7.428629-7.978424-11.775847-18.820897-12.990511-32.450704z m-76.805114-87.647587h-59.774248v-72.176606h59.4546c15.50934 0 26.850464 2.889621 34.074518 8.68165 7.032265 5.779243 10.522825 14.742184 10.522824 26.914394 0 11.763061-3.631206 20.751573-10.842473 26.952752-7.633203 6.41854-18.795325 9.627809-33.435221 9.62781z m0 0" fill="#333333" p-id="6171"></path><path d="M396.115038 468.885826c-1.304165 78.889222-36.887424 118.870842-106.788133 119.970432-69.900709-1.09959-105.50954-41.081211-106.788133-119.970432 2.582759-78.889222 38.166017-119.407851 106.788133-121.619819 68.596544 2.224753 104.179802 42.743382 106.788133 121.619819z m-46.604735 0c0-58.060933-20.086705-86.535211-60.183398-85.461193-40.135051-1.074019-60.196184 27.40026-60.196184 85.461193 0 58.086505 20.048347 87.097792 60.196184 87.097792 40.10948 0.012786 60.183398-29.011288 60.183398-87.097792z" fill="#545555" p-id="6172"></path></svg>