<svg xmlns="http://www.w3.org/2000/svg" version="1.0" viewBox="0 0 32 32"><path fill="#FFF" d="M7 11c0 3.9 1.2 5.2 2.6 2.9.4-.7 2.3.6 5 3.2 2.9 2.9 4.1 4.6 3.4 5.3-1.9 1.9-1 2.6 3 2.6h4v-4c0-4-.7-4.9-2.6-3-.7.7-2.4-.5-5.3-3.4-2.6-2.7-3.9-4.6-3.2-5C16.2 8.2 14.9 7 11 7H7zm6.2-1.7c-1.6 1.9 7.8 11.3 9.6 9.5.9-.9 1.2-.5 1.2 2 0 2.9-.3 3.2-3.2 3.2-2.5 0-2.9-.3-2-1.2 1.8-1.8-7.6-11.2-9.5-9.6-1 .8-1.3.4-1.3-2.1C8 8.3 8.3 8 11.1 8c2.5 0 2.9.3 2.1 1.3"/><path d="M8 11.1c0 2.5.3 2.9 1.3 2.1 1.9-1.6 11.3 7.8 9.5 9.6-.9.9-.5 1.2 2 1.2 2.9 0 3.2-.3 3.2-3.2 0-2.5-.3-2.9-1.2-2-1.8 1.8-11.2-7.6-9.6-9.5.8-1 .4-1.3-2.1-1.3C8.3 8 8 8.3 8 11.1"/><path fill-opacity=".2" d="M14.5 9c-.3.5-.1 1 .4 1 .6 0 1.1-.5 1.1-1 0-.6-.2-1-.4-1-.3 0-.8.4-1.1 1m-6 6c-.3.5-.1 1 .4 1 .6 0 1.1-.5 1.1-1 0-.6-.2-1-.4-1-.3 0-.8.4-1.1 1M25 22.4c0 1.9-.6 2.6-2.7 2.9-2.6.4-2.6.4.5.6 2.9.1 3.2-.2 3.2-2.9 0-1.7-.2-3-.5-3s-.5 1.1-.5 2.4"/><path fill-opacity=".1" d="M17 14.5c2.4 2.5 4.6 4.5 4.9 4.5s-1.2-1.7-3.2-3.8c-2.1-2.1-3.4-4.1-3.1-4.5.4-.4-.1-.7-1.1-.7-1.5 0-.9 1 2.5 4.5m-7 0c0 1 .3 1.5.7 1.1.4-.3 2.4 1 4.5 3.1 2.1 2 3.8 3.5 3.8 3.2s-2-2.5-4.5-4.9C11 13.6 10 13 10 14.5M26.2 22c0 1.9.2 2.7.5 1.7.2-.9.2-2.5 0-3.5-.3-.9-.5-.1-.5 1.8m-5.9 4.7c.9.2 2.5.2 3.5 0 .9-.3.1-.5-1.8-.5s-2.7.2-1.7.5"/></svg>