<svg xmlns="http://www.w3.org/2000/svg" version="1.0"  aria-hidden="true" focusable="false" role="img" viewBox="0 0 24 24"><g stroke-width="1.5" stroke="currentColor" stroke-linecap="round" stroke-linejoin="round"><path stroke="none" d="M0 0h24v24H0z" fill="none"></path><path d="M3.33334 9.99998V6.66665C3.33334 6.04326 3.33403 4.9332 3.33539 3.33646C4.95233 3.33436 6.06276 3.33331 6.66668 3.33331H10"></path><line x1="16" y1="4" x2="16" y2="4.01"></line><line x1="20" y1="4" x2="20" y2="4.01"></line><line x1="20" y1="8" x2="20" y2="8.01"></line><line x1="20" y1="12" x2="20" y2="12.01"></line><line x1="4" y1="16" x2="4" y2="16.01"></line><line x1="20" y1="16" x2="20" y2="16.01"></line><line x1="4" y1="20" x2="4" y2="20.01"></line><line x1="8" y1="20" x2="8" y2="20.01"></line><line x1="12" y1="20" x2="12" y2="20.01"></line><line x1="16" y1="20" x2="16" y2="20.01"></line><line x1="20" y1="20" x2="20" y2="20.01"></line></g></svg>